<?xml version="1.0" encoding="UTF-8"?>
<!DOCTYPE svg PUBLIC "-//W3C//DTD SVG 1.1//EN" "http://www.w3.org/Graphics/SVG/1.1/DTD/svg11.dtd">
<svg version="1.1" xmlns="http://www.w3.org/2000/svg" xmlns:xlink="http://www.w3.org/1999/xlink" x="0" y="0" width="774" height="419.667" viewBox="0, 0, 774, 419.667">
  <g id="Layer_1">
    <g>
      <path d="M0,-0 L774,-0 L774,419.667 L0,419.667 L0,-0 z" fill="#FFFFFF"/>
      <path d="M123.974,67.234 L685.474,67.234" fill-opacity="0" stroke="#000000" stroke-width="3"/>
      <path d="M620.974,225.583 L271.974,225.583" fill-opacity="0" stroke="#000000" stroke-width="3"/>
      <path d="M271.974,67.234 L271.974,392.583" fill-opacity="0" stroke="#000000" stroke-width="3"/>
      <path d="M406.437,142.083 L406.437,225.583" fill-opacity="0" stroke="#000000" stroke-width="3"/>
      <path d="M620.974,67.234 L620.974,225.583" fill-opacity="0" stroke="#000000" stroke-width="3"/>
      <g>
        <path d="M502.296,78.361 L502.296,56.106 L573.035,56.106 L573.035,78.361 L502.296,78.361 z" fill="#FFFFFF"/>
        <path d="M502.296,78.361 L502.296,56.106 L573.035,56.106 L573.035,78.361 L502.296,78.361 z" fill-opacity="0" stroke="#000000" stroke-width="2"/>
      </g>
      <g>
        <path d="M260.846,105.234 L283.102,105.234 L283.102,175.972 L260.846,175.972 L260.846,105.234 z" fill="#FFFFFF"/>
        <path d="M260.846,105.234 L283.102,105.234 L283.102,175.972 L260.846,175.972 L260.846,105.234 z" fill-opacity="0" stroke="#000000" stroke-width="2"/>
      </g>
      <g>
        <g>
          <g>
            <path d="M272.053,290.378 L254.839,316.763 L289.109,316.763 L272.053,290.378 z" fill="#000000"/>
            <path d="M272.053,290.378 L254.839,316.763 L289.109,316.763 L272.053,290.378 z" fill-opacity="0" stroke="#000000" stroke-width="3"/>
          </g>
          <path d="M250.666,286.58 L293.282,286.58" fill-opacity="0" stroke="#000000" stroke-width="8"/>
        </g>
        <path d="M289.547,286.58 L293.282,272.96" fill-opacity="0" stroke="#000000" stroke-width="6"/>
        <path d="M250.666,300.201 L254.401,286.58" fill-opacity="0" stroke="#000000" stroke-width="6"/>
      </g>
      <path d="M685.474,392.584 L123.974,392.584" fill-opacity="0" stroke="#000000" stroke-width="3"/>
      <g>
        <path d="M692.962,400.071 C688.826,400.071 685.474,396.719 685.474,392.583 C685.474,388.448 688.826,385.095 692.962,385.095 C697.098,385.095 700.45,388.448 700.45,392.583 C700.45,396.719 697.098,400.071 692.962,400.071 z" fill="#FFFFFF"/>
        <path d="M692.962,400.071 C688.826,400.071 685.474,396.719 685.474,392.583 C685.474,388.448 688.826,385.095 692.962,385.095 C697.098,385.095 700.45,388.448 700.45,392.583 C700.45,396.719 697.098,400.071 692.962,400.071 z" fill-opacity="0" stroke="#000000" stroke-width="3"/>
      </g>
      <g>
        <path d="M692.962,74.722 C688.826,74.722 685.474,71.369 685.474,67.234 C685.474,63.098 688.826,59.746 692.962,59.746 C697.098,59.746 700.45,63.098 700.45,67.234 C700.45,71.369 697.098,74.722 692.962,74.722 z" fill="#FFFFFF"/>
        <path d="M692.962,74.722 C688.826,74.722 685.474,71.369 685.474,67.234 C685.474,63.098 688.826,59.746 692.962,59.746 C697.098,59.746 700.45,63.098 700.45,67.234 C700.45,71.369 697.098,74.722 692.962,74.722 z" fill-opacity="0" stroke="#000000" stroke-width="3"/>
      </g>
      <g>
        <path d="M116.486,400.071 C112.35,400.071 108.998,396.719 108.998,392.583 C108.998,388.448 112.35,385.095 116.486,385.095 C120.621,385.095 123.974,388.448 123.974,392.583 C123.974,396.719 120.621,400.071 116.486,400.071 z" fill="#FFFFFF"/>
        <path d="M116.486,400.071 C112.35,400.071 108.998,396.719 108.998,392.583 C108.998,388.448 112.35,385.095 116.486,385.095 C120.621,385.095 123.974,388.448 123.974,392.583 C123.974,396.719 120.621,400.071 116.486,400.071 z" fill-opacity="0" stroke="#000000" stroke-width="3"/>
      </g>
      <g>
        <path d="M116.486,74.722 C112.35,74.722 108.998,71.369 108.998,67.234 C108.998,63.098 112.35,59.746 116.486,59.746 C120.621,59.746 123.974,63.098 123.974,67.234 C123.974,71.369 120.621,74.722 116.486,74.722 z" fill="#FFFFFF"/>
        <path d="M116.486,74.722 C112.35,74.722 108.998,71.369 108.998,67.234 C108.998,63.098 112.35,59.746 116.486,59.746 C120.621,59.746 123.974,63.098 123.974,67.234 C123.974,71.369 120.621,74.722 116.486,74.722 z" fill-opacity="0" stroke="#000000" stroke-width="3"/>
      </g>
      <g>
        <path d="M406.437,231.071 C403.406,231.071 400.949,228.614 400.949,225.583 C400.949,222.552 403.406,220.095 406.437,220.095 C409.468,220.095 411.925,222.552 411.925,225.583 C411.925,228.614 409.468,231.071 406.437,231.071 z" fill="#000000"/>
        <path d="M406.437,231.071 C403.406,231.071 400.949,228.614 400.949,225.583 C400.949,222.552 403.406,220.095 406.437,220.095 C409.468,220.095 411.925,222.552 411.925,225.583 C411.925,228.614 409.468,231.071 406.437,231.071 z" fill-opacity="0" stroke="#000000" stroke-width="3"/>
      </g>
      <g>
        <path d="M271.974,398.071 C268.943,398.071 266.486,395.614 266.486,392.583 C266.486,389.552 268.943,387.095 271.974,387.095 C275.005,387.095 277.462,389.552 277.462,392.583 C277.462,395.614 275.005,398.071 271.974,398.071 z" fill="#000000"/>
        <path d="M271.974,398.071 C268.943,398.071 266.486,395.614 266.486,392.583 C266.486,389.552 268.943,387.095 271.974,387.095 C275.005,387.095 277.462,389.552 277.462,392.583 C277.462,395.614 275.005,398.071 271.974,398.071 z" fill-opacity="0" stroke="#000000" stroke-width="3"/>
      </g>
      <g>
        <path d="M620.974,72.722 C617.943,72.722 615.486,70.265 615.486,67.234 C615.486,64.203 617.943,61.746 620.974,61.746 C624.005,61.746 626.462,64.203 626.462,67.234 C626.462,70.265 624.005,72.722 620.974,72.722 z" fill="#000000"/>
        <path d="M620.974,72.722 C617.943,72.722 615.486,70.265 615.486,67.234 C615.486,64.203 617.943,61.746 620.974,61.746 C624.005,61.746 626.462,64.203 626.462,67.234 C626.462,70.265 624.005,72.722 620.974,72.722 z" fill-opacity="0" stroke="#000000" stroke-width="3"/>
      </g>
      <g>
        <path d="M271.974,231.071 C268.943,231.071 266.486,228.614 266.486,225.583 C266.486,222.552 268.943,220.095 271.974,220.095 C275.005,220.095 277.462,222.552 277.462,225.583 C277.462,228.614 275.005,231.071 271.974,231.071 z" fill="#000000"/>
        <path d="M271.974,231.071 C268.943,231.071 266.486,228.614 266.486,225.583 C266.486,222.552 268.943,220.095 271.974,220.095 C275.005,220.095 277.462,222.552 277.462,225.583 C277.462,228.614 275.005,231.071 271.974,231.071 z" fill-opacity="0" stroke="#000000" stroke-width="3"/>
      </g>
      <g>
        <g>
          <path d="M450.474,95.799 C450.474,120.12 430.758,139.836 406.437,139.836 C382.117,139.836 362.401,120.12 362.401,95.799 C362.401,71.479 382.117,51.763 406.437,51.763 C430.758,51.763 450.474,71.479 450.474,95.799 z" fill="#FFFFFF"/>
          <path d="M450.474,95.799 C450.474,120.12 430.758,139.836 406.437,139.836 C382.117,139.836 362.401,120.12 362.401,95.799 C362.401,71.479 382.117,51.763 406.437,51.763 C430.758,51.763 450.474,71.479 450.474,95.799 z" fill-opacity="0" stroke="#000000" stroke-width="3"/>
        </g>
        <path d="M374.949,95.886 L374.949,87.836 L437.926,87.836 L437.926,95.886 L374.949,95.886 z" fill-opacity="0" stroke="#000000" stroke-width="3"/>
        <path d="M407.048,95.886 L407.048,139.836" fill-opacity="0" stroke="#000000" stroke-width="2"/>
        <path d="M372.955,69.843 L394.736,87.836" fill-opacity="0" stroke="#000000" stroke-width="2"/>
        <g>
          <path d="M431.57,77.358 L418.886,87.836" fill-opacity="0" stroke="#000000" stroke-width="2"/>
          <path d="M433.862,80.134 L438.971,71.244 L429.277,74.583 z" fill="#000000" fill-opacity="1" stroke="#000000" stroke-width="2" stroke-opacity="1"/>
        </g>
      </g>
      <g>
        <g>
          <path d="M561.677,224.795 L535.292,207.581 L535.292,241.851 L561.677,224.795 z" fill="#000000"/>
          <path d="M561.677,224.795 L535.292,207.581 L535.292,241.851 L561.677,224.795 z" fill-opacity="0" stroke="#000000" stroke-width="3"/>
        </g>
        <path d="M565.474,203.408 L565.474,246.024" fill-opacity="0" stroke="#000000" stroke-width="8"/>
      </g>
      <g>
        <g>
          <path d="M489.677,225.662 L463.292,208.448 L463.292,242.719 L489.677,225.662 z" fill="#000000"/>
          <path d="M489.677,225.662 L463.292,208.448 L463.292,242.719 L489.677,225.662 z" fill-opacity="0" stroke="#000000" stroke-width="3"/>
        </g>
        <path d="M493.474,204.275 L493.474,246.891" fill-opacity="0" stroke="#000000" stroke-width="8"/>
      </g>
      <text transform="matrix(1, 0, 0, 1, 482.341, 279.409)">
        <tspan x="-19.455" y="9" font-family="Avenir-Medium" font-size="30" fill="#656565">D1</tspan>
      </text>
      <text transform="matrix(1, 0, 0, 1, 554.247, 273.909)">
        <tspan x="-19.455" y="9" font-family="Avenir-Medium" font-size="30" fill="#656565">D2</tspan>
      </text>
      <text transform="matrix(1, 0, 0, 1, 405.937, 30.263)">
        <tspan x="-21.12" y="9" font-family="Avenir-Medium" font-size="30" fill="#656565">Tr1</tspan>
      </text>
      <text transform="matrix(1, 0, 0, 1, 221.816, 308.409)">
        <tspan x="-28.35" y="9" font-family="Avenir-Medium" font-size="30" fill="#656565">ZD1</tspan>
      </text>
      <text transform="matrix(1, 0, 0, 1, 238.479, 140.103)">
        <tspan x="-17.505" y="9" font-family="Avenir-Medium" font-size="30" fill="#656565">R1</tspan>
      </text>
      <text transform="matrix(1, 0, 0, 1, 537.166, 34.606)">
        <tspan x="-17.505" y="9" font-family="Avenir-Medium" font-size="30" fill="#656565">R2</tspan>
      </text>
      <text transform="matrix(0, -1, 1, 0, 82.998, 220.037)">
        <tspan x="-42.678" y="10.5" font-family="Avenir-Medium" font-size="36" fill="#656565">Input</tspan>
      </text>
      <text transform="matrix(0, -1, 1, 0, 729.281, 224.216)">
        <tspan x="-59.31" y="6.669" font-family="Avenir-Medium" font-size="36" fill="#656565">Output</tspan>
      </text>
      <g>
        <path d="M116.474,376.909 L116.474,102.109" fill-opacity="0" stroke="#A3A3A3" stroke-width="5"/>
        <path d="M121.874,102.109 L116.474,87.709 L111.074,102.109 z" fill="#A3A3A3" fill-opacity="1" stroke="#A3A3A3" stroke-width="5" stroke-opacity="1"/>
      </g>
      <g>
        <path d="M692.962,376.909 L692.962,102.109" fill-opacity="0" stroke="#A3A3A3" stroke-width="5"/>
        <path d="M698.362,102.109 L692.962,87.709 L687.562,102.109 z" fill="#A3A3A3" fill-opacity="1" stroke="#A3A3A3" stroke-width="5" stroke-opacity="1"/>
      </g>
    </g>
  </g>
</svg>
