<?xml version="1.0" encoding="UTF-8"?>
<!DOCTYPE svg PUBLIC "-//W3C//DTD SVG 1.1//EN" "http://www.w3.org/Graphics/SVG/1.1/DTD/svg11.dtd">
<svg version="1.1" xmlns="http://www.w3.org/2000/svg" xmlns:xlink="http://www.w3.org/1999/xlink" x="0" y="0" width="774" height="568.667" viewBox="0, 0, 774, 568.667">
  <g id="Layer_1">
    <g>
      <path d="M0,-0 L774,-0 L774,568.667 L0,568.667 L0,-0 z" fill="#FFFFFF"/>
      <path d="M104.426,73.638 L665.926,73.638" fill-opacity="0" stroke="#000000" stroke-width="3"/>
      <path d="M601.426,231.988 L386.89,231.988" fill-opacity="0" stroke="#000000" stroke-width="3"/>
      <path d="M386.89,271.507 L253.89,271.507" fill-opacity="0" stroke="#000000" stroke-width="3"/>
      <g>
        <path d="M576.699,354.951 L457.299,354.951" fill-opacity="0" stroke="#000000" stroke-width="3"/>
        <path d="M576.699,359.151 L587.899,354.951 L576.699,350.751 z" fill="#000000" fill-opacity="1" stroke="#000000" stroke-width="3" stroke-opacity="1"/>
      </g>
      <path d="M252.426,73.638 L252.426,271.507" fill-opacity="0" stroke="#000000" stroke-width="3"/>
      <path d="M387.5,144.274 L387.5,540.988" fill-opacity="0" stroke="#000000" stroke-width="3"/>
      <path d="M601.426,73.638 L601.426,540.988" fill-opacity="0" stroke="#000000" stroke-width="3"/>
      <g>
        <path d="M482.748,84.766 L482.748,62.511 L553.487,62.511 L553.487,84.766 L482.748,84.766 z" fill="#FFFFFF"/>
        <path d="M482.748,84.766 L482.748,62.511 L553.487,62.511 L553.487,84.766 L482.748,84.766 z" fill-opacity="0" stroke="#000000" stroke-width="2"/>
      </g>
      <g>
        <path d="M241.299,131.638 L263.554,131.638 L263.554,202.377 L241.299,202.377 L241.299,131.638 z" fill="#FFFFFF"/>
        <path d="M241.299,131.638 L263.554,131.638 L263.554,202.377 L241.299,202.377 L241.299,131.638 z" fill-opacity="0" stroke="#000000" stroke-width="2"/>
      </g>
      <g>
        <path d="M590.299,319.582 L612.554,319.582 L612.554,390.321 L590.299,390.321 L590.299,319.582 z" fill="#FFFFFF"/>
        <path d="M590.299,319.582 L612.554,319.582 L612.554,390.321 L590.299,390.321 L590.299,319.582 z" fill-opacity="0" stroke="#000000" stroke-width="2"/>
      </g>
      <g>
        <g>
          <g>
            <path d="M387.579,459.782 L370.365,486.167 L404.635,486.167 L387.579,459.782 z" fill="#000000"/>
            <path d="M387.579,459.782 L370.365,486.167 L404.635,486.167 L387.579,459.782 z" fill-opacity="0" stroke="#000000" stroke-width="3"/>
          </g>
          <path d="M366.192,455.985 L408.808,455.985" fill-opacity="0" stroke="#000000" stroke-width="8"/>
        </g>
        <path d="M405.073,455.985 L408.808,442.365" fill-opacity="0" stroke="#000000" stroke-width="6"/>
        <path d="M366.192,469.605 L369.927,455.985" fill-opacity="0" stroke="#000000" stroke-width="6"/>
      </g>
      <path d="M665.926,540.988 L104.426,540.988" fill-opacity="0" stroke="#000000" stroke-width="3"/>
      <g>
        <path d="M673.414,548.476 C669.279,548.476 665.926,545.124 665.926,540.988 C665.926,536.853 669.279,533.5 673.414,533.5 C677.55,533.5 680.902,536.853 680.902,540.988 C680.902,545.124 677.55,548.476 673.414,548.476 z" fill="#FFFFFF"/>
        <path d="M673.414,548.476 C669.279,548.476 665.926,545.124 665.926,540.988 C665.926,536.853 669.279,533.5 673.414,533.5 C677.55,533.5 680.902,536.853 680.902,540.988 C680.902,545.124 677.55,548.476 673.414,548.476 z" fill-opacity="0" stroke="#000000" stroke-width="3"/>
      </g>
      <g>
        <path d="M673.414,81.126 C669.279,81.126 665.926,77.774 665.926,73.638 C665.926,69.503 669.279,66.15 673.414,66.15 C677.55,66.15 680.902,69.503 680.902,73.638 C680.902,77.774 677.55,81.126 673.414,81.126 z" fill="#FFFFFF"/>
        <path d="M673.414,81.126 C669.279,81.126 665.926,77.774 665.926,73.638 C665.926,69.503 669.279,66.15 673.414,66.15 C677.55,66.15 680.902,69.503 680.902,73.638 C680.902,77.774 677.55,81.126 673.414,81.126 z" fill-opacity="0" stroke="#000000" stroke-width="3"/>
      </g>
      <g>
        <path d="M96.938,548.476 C92.803,548.476 89.45,545.124 89.45,540.988 C89.45,536.853 92.803,533.5 96.938,533.5 C101.074,533.5 104.426,536.853 104.426,540.988 C104.426,545.124 101.074,548.476 96.938,548.476 z" fill="#FFFFFF"/>
        <path d="M96.938,548.476 C92.803,548.476 89.45,545.124 89.45,540.988 C89.45,536.853 92.803,533.5 96.938,533.5 C101.074,533.5 104.426,536.853 104.426,540.988 C104.426,545.124 101.074,548.476 96.938,548.476 z" fill-opacity="0" stroke="#000000" stroke-width="3"/>
      </g>
      <g>
        <path d="M96.938,81.126 C92.803,81.126 89.45,77.774 89.45,73.638 C89.45,69.503 92.803,66.15 96.938,66.15 C101.074,66.15 104.426,69.503 104.426,73.638 C104.426,77.774 101.074,81.126 96.938,81.126 z" fill="#FFFFFF"/>
        <path d="M96.938,81.126 C92.803,81.126 89.45,77.774 89.45,73.638 C89.45,69.503 92.803,66.15 96.938,66.15 C101.074,66.15 104.426,69.503 104.426,73.638 C104.426,77.774 101.074,81.126 96.938,81.126 z" fill-opacity="0" stroke="#000000" stroke-width="3"/>
      </g>
      <g>
        <path d="M386.89,237.476 C383.859,237.476 381.402,235.019 381.402,231.988 C381.402,228.957 383.859,226.5 386.89,226.5 C389.921,226.5 392.378,228.957 392.378,231.988 C392.378,235.019 389.921,237.476 386.89,237.476 z" fill="#000000"/>
        <path d="M386.89,237.476 C383.859,237.476 381.402,235.019 381.402,231.988 C381.402,228.957 383.859,226.5 386.89,226.5 C389.921,226.5 392.378,228.957 392.378,231.988 C392.378,235.019 389.921,237.476 386.89,237.476 z" fill-opacity="0" stroke="#000000" stroke-width="3"/>
      </g>
      <g>
        <path d="M252.426,79.126 C249.395,79.126 246.938,76.669 246.938,73.638 C246.938,70.607 249.395,68.15 252.426,68.15 C255.457,68.15 257.914,70.607 257.914,73.638 C257.914,76.669 255.457,79.126 252.426,79.126 z" fill="#000000"/>
        <path d="M252.426,79.126 C249.395,79.126 246.938,76.669 246.938,73.638 C246.938,70.607 249.395,68.15 252.426,68.15 C255.457,68.15 257.914,70.607 257.914,73.638 C257.914,76.669 255.457,79.126 252.426,79.126 z" fill-opacity="0" stroke="#000000" stroke-width="3"/>
      </g>
      <g>
        <path d="M385.176,276.995 C382.145,276.995 379.688,274.538 379.688,271.507 C379.688,268.476 382.145,266.019 385.176,266.019 C388.207,266.019 390.664,268.476 390.664,271.507 C390.664,274.538 388.207,276.995 385.176,276.995 z" fill="#000000"/>
        <path d="M385.176,276.995 C382.145,276.995 379.688,274.538 379.688,271.507 C379.688,268.476 382.145,266.019 385.176,266.019 C388.207,266.019 390.664,268.476 390.664,271.507 C390.664,274.538 388.207,276.995 385.176,276.995 z" fill-opacity="0" stroke="#000000" stroke-width="3"/>
      </g>
      <g>
        <path d="M601.426,79.126 C598.395,79.126 595.938,76.669 595.938,73.638 C595.938,70.607 598.395,68.15 601.426,68.15 C604.457,68.15 606.914,70.607 606.914,73.638 C606.914,76.669 604.457,79.126 601.426,79.126 z" fill="#000000"/>
        <path d="M601.426,79.126 C598.395,79.126 595.938,76.669 595.938,73.638 C595.938,70.607 598.395,68.15 601.426,68.15 C604.457,68.15 606.914,70.607 606.914,73.638 C606.914,76.669 604.457,79.126 601.426,79.126 z" fill-opacity="0" stroke="#000000" stroke-width="3"/>
      </g>
      <g>
        <path d="M387.5,546.476 C384.469,546.476 382.012,544.019 382.012,540.988 C382.012,537.957 384.469,535.5 387.5,535.5 C390.531,535.5 392.988,537.957 392.988,540.988 C392.988,544.019 390.531,546.476 387.5,546.476 z" fill="#000000"/>
        <path d="M387.5,546.476 C384.469,546.476 382.012,544.019 382.012,540.988 C382.012,537.957 384.469,535.5 387.5,535.5 C390.531,535.5 392.988,537.957 392.988,540.988 C392.988,544.019 390.531,546.476 387.5,546.476 z" fill-opacity="0" stroke="#000000" stroke-width="3"/>
      </g>
      <g>
        <path d="M601.426,546.476 C598.395,546.476 595.938,544.019 595.938,540.988 C595.938,537.957 598.395,535.5 601.426,535.5 C604.457,535.5 606.914,537.957 606.914,540.988 C606.914,544.019 604.457,546.476 601.426,546.476 z" fill="#000000"/>
        <path d="M601.426,546.476 C598.395,546.476 595.938,544.019 595.938,540.988 C595.938,537.957 598.395,535.5 601.426,535.5 C604.457,535.5 606.914,537.957 606.914,540.988 C606.914,544.019 604.457,546.476 601.426,546.476 z" fill-opacity="0" stroke="#000000" stroke-width="3"/>
      </g>
      <g>
        <g>
          <path d="M430.926,100.238 C430.926,124.559 411.21,144.275 386.89,144.275 C362.569,144.275 342.853,124.559 342.853,100.238 C342.853,75.917 362.569,56.201 386.89,56.201 C411.21,56.201 430.926,75.917 430.926,100.238 z" fill="#FFFFFF"/>
          <path d="M430.926,100.238 C430.926,124.559 411.21,144.275 386.89,144.275 C362.569,144.275 342.853,124.559 342.853,100.238 C342.853,75.917 362.569,56.201 386.89,56.201 C411.21,56.201 430.926,75.917 430.926,100.238 z" fill-opacity="0" stroke="#000000" stroke-width="3"/>
        </g>
        <path d="M355.401,100.325 L355.401,92.275 L418.378,92.275 L418.378,100.325 L355.401,100.325 z" fill-opacity="0" stroke="#000000" stroke-width="3"/>
        <path d="M387.5,100.325 L387.5,144.275" fill-opacity="0" stroke="#000000" stroke-width="2"/>
        <path d="M353.407,74.282 L375.189,92.275" fill-opacity="0" stroke="#000000" stroke-width="2"/>
        <g>
          <path d="M412.022,81.797 L399.338,92.275" fill-opacity="0" stroke="#000000" stroke-width="2"/>
          <path d="M414.315,84.572 L419.423,75.683 L409.729,79.022 z" fill="#000000" fill-opacity="1" stroke="#000000" stroke-width="2" stroke-opacity="1"/>
        </g>
      </g>
      <g>
        <g>
          <path d="M413.262,398.988 C437.583,398.988 457.299,379.272 457.299,354.951 C457.299,330.631 437.583,310.915 413.262,310.915 C388.941,310.915 369.226,330.631 369.226,354.951 C369.226,379.272 388.941,398.988 413.262,398.988 z" fill="#FFFFFF"/>
          <path d="M413.262,398.988 C437.583,398.988 457.299,379.272 457.299,354.951 C457.299,330.631 437.583,310.915 413.262,310.915 C388.941,310.915 369.226,330.631 369.226,354.951 C369.226,379.272 388.941,398.988 413.262,398.988 z" fill-opacity="0" stroke="#000000" stroke-width="3"/>
        </g>
        <path d="M413.349,323.463 L405.299,323.463 L405.299,386.44 L413.349,386.44 L413.349,323.463 z" fill-opacity="0" stroke="#000000" stroke-width="3"/>
        <path d="M413.349,355.562 L457.299,355.562" fill-opacity="0" stroke="#000000" stroke-width="2"/>
        <path d="M387.306,321.469 L405.299,343.251" fill-opacity="0" stroke="#000000" stroke-width="2"/>
        <g>
          <path d="M394.821,380.084 L405.299,367.4" fill-opacity="0" stroke="#000000" stroke-width="2"/>
          <path d="M392.046,377.791 L388.707,387.485 L397.597,382.377 z" fill="#000000" fill-opacity="1" stroke="#000000" stroke-width="2" stroke-opacity="1"/>
        </g>
      </g>
      <g>
        <g>
          <path d="M542.129,231.2 L515.744,213.985 L515.744,248.256 L542.129,231.2 z" fill="#000000"/>
          <path d="M542.129,231.2 L515.744,213.985 L515.744,248.256 L542.129,231.2 z" fill-opacity="0" stroke="#000000" stroke-width="3"/>
        </g>
        <path d="M545.926,209.813 L545.926,252.429" fill-opacity="0" stroke="#000000" stroke-width="8"/>
      </g>
      <g>
        <g>
          <path d="M470.129,232.067 L443.744,214.853 L443.744,249.123 L470.129,232.067 z" fill="#000000"/>
          <path d="M470.129,232.067 L443.744,214.853 L443.744,249.123 L470.129,232.067 z" fill-opacity="0" stroke="#000000" stroke-width="3"/>
        </g>
        <path d="M473.926,210.68 L473.926,253.296" fill-opacity="0" stroke="#000000" stroke-width="8"/>
      </g>
      <text transform="matrix(1, 0, 0, 1, 458.335, 271.007)">
        <tspan x="-19.455" y="9" font-family="Avenir-Medium" font-size="30" fill="#656565">D1</tspan>
      </text>
      <text transform="matrix(1, 0, 0, 1, 533.532, 271.007)">
        <tspan x="-19.455" y="9" font-family="Avenir-Medium" font-size="30" fill="#656565">D2</tspan>
      </text>
      <text transform="matrix(1, 0, 0, 1, 386.39, 36.667)">
        <tspan x="-21.12" y="9" font-family="Avenir-Medium" font-size="30" fill="#656565">Tr1</tspan>
      </text>
      <text transform="matrix(1, 0, 0, 1, 344.15, 354.451)">
        <tspan x="-21.12" y="9" font-family="Avenir-Medium" font-size="30" fill="#656565">Tr2</tspan>
      </text>
      <text transform="matrix(1, 0, 0, 1, 328.268, 471.813)">
        <tspan x="-28.35" y="9" font-family="Avenir-Medium" font-size="30" fill="#656565">ZD1</tspan>
      </text>
      <text transform="matrix(1, 0, 0, 1, 217.931, 166.508)">
        <tspan x="-17.505" y="9" font-family="Avenir-Medium" font-size="30" fill="#656565">R1</tspan>
      </text>
      <text transform="matrix(1, 0, 0, 1, 517.618, 41.011)">
        <tspan x="-17.505" y="9" font-family="Avenir-Medium" font-size="30" fill="#656565">R2</tspan>
      </text>
      <text transform="matrix(0, -1, 1, 0, 71.45, 284.333)">
        <tspan x="-42.678" y="10.5" font-family="Avenir-Medium" font-size="36" fill="#656565">Input</tspan>
      </text>
      <text transform="matrix(0, -1, 1, 0, 705.734, 296.621)">
        <tspan x="-59.31" y="6.669" font-family="Avenir-Medium" font-size="36" fill="#656565">Output</tspan>
      </text>
      <g>
        <path d="M96.926,527.738 L96.926,108.513" fill-opacity="0" stroke="#A3A3A3" stroke-width="5"/>
        <path d="M102.326,108.513 L96.926,94.113 L91.526,108.513 z" fill="#A3A3A3" fill-opacity="1" stroke="#A3A3A3" stroke-width="5" stroke-opacity="1"/>
      </g>
      <g>
        <path d="M673.414,527.738 L673.414,108.513" fill-opacity="0" stroke="#A3A3A3" stroke-width="5"/>
        <path d="M678.814,108.513 L673.414,94.113 L668.014,108.513 z" fill="#A3A3A3" fill-opacity="1" stroke="#A3A3A3" stroke-width="5" stroke-opacity="1"/>
      </g>
    </g>
  </g>
</svg>
