G04 #@! TF.GenerationSoftware,KiCad,Pcbnew,5.1.5+dfsg1-2build2*
G04 #@! TF.CreationDate,2020-06-12T12:31:15-06:00*
G04 #@! TF.ProjectId,JAT 3t amplifier,4a415420-3374-4206-916d-706c69666965,rev?*
G04 #@! TF.SameCoordinates,Original*
G04 #@! TF.FileFunction,Soldermask,Bot*
G04 #@! TF.FilePolarity,Negative*
%FSLAX46Y46*%
G04 Gerber Fmt 4.6, Leading zero omitted, Abs format (unit mm)*
G04 Created by KiCad (PCBNEW 5.1.5+dfsg1-2build2) date 2020-06-12 12:31:15*
%MOMM*%
%LPD*%
G04 APERTURE LIST*
%ADD10C,0.100000*%
%ADD11C,0.150000*%
%ADD12C,0.300000*%
%ADD13C,0.400000*%
G04 APERTURE END LIST*
D10*
D11*
X177002200Y-166007200D02*
X177002200Y-198007200D01*
X285002200Y-198007200D01*
X285002200Y-166007200D01*
X177002200Y-166007200D01*
D10*
D11*
X10000000Y-10000000D02*
X10000000Y-200007200D01*
X287002200Y-200007200D01*
X287002200Y-10000000D01*
X10000000Y-10000000D01*
D10*
D11*
X12000000Y-12000000D02*
X12000000Y-198007200D01*
X285002200Y-198007200D01*
X285002200Y-12000000D01*
X12000000Y-12000000D01*
D10*
D11*
X60000000Y-12000000D02*
X60000000Y-10000000D01*
D10*
D11*
X110000000Y-12000000D02*
X110000000Y-10000000D01*
D10*
D11*
X160000000Y-12000000D02*
X160000000Y-10000000D01*
D10*
D11*
X210000000Y-12000000D02*
X210000000Y-10000000D01*
D10*
D11*
X260000000Y-12000000D02*
X260000000Y-10000000D01*
D10*
D11*
X36065476Y-11588095D02*
X35322619Y-11588095D01*
X35694047Y-11588095D02*
X35694047Y-10288095D01*
X35570238Y-10473809D01*
X35446428Y-10597619D01*
X35322619Y-10659523D01*
D10*
D11*
X85322619Y-10411904D02*
X85384523Y-10350000D01*
X85508333Y-10288095D01*
X85817857Y-10288095D01*
X85941666Y-10350000D01*
X86003571Y-10411904D01*
X86065476Y-10535714D01*
X86065476Y-10659523D01*
X86003571Y-10845238D01*
X85260714Y-11588095D01*
X86065476Y-11588095D01*
D10*
D11*
X135260714Y-10288095D02*
X136065476Y-10288095D01*
X135632142Y-10783333D01*
X135817857Y-10783333D01*
X135941666Y-10845238D01*
X136003571Y-10907142D01*
X136065476Y-11030952D01*
X136065476Y-11340476D01*
X136003571Y-11464285D01*
X135941666Y-11526190D01*
X135817857Y-11588095D01*
X135446428Y-11588095D01*
X135322619Y-11526190D01*
X135260714Y-11464285D01*
D10*
D11*
X185941666Y-10721428D02*
X185941666Y-11588095D01*
X185632142Y-10226190D02*
X185322619Y-11154761D01*
X186127380Y-11154761D01*
D10*
D11*
X236003571Y-10288095D02*
X235384523Y-10288095D01*
X235322619Y-10907142D01*
X235384523Y-10845238D01*
X235508333Y-10783333D01*
X235817857Y-10783333D01*
X235941666Y-10845238D01*
X236003571Y-10907142D01*
X236065476Y-11030952D01*
X236065476Y-11340476D01*
X236003571Y-11464285D01*
X235941666Y-11526190D01*
X235817857Y-11588095D01*
X235508333Y-11588095D01*
X235384523Y-11526190D01*
X235322619Y-11464285D01*
D10*
D11*
X285941666Y-10288095D02*
X285694047Y-10288095D01*
X285570238Y-10350000D01*
X285508333Y-10411904D01*
X285384523Y-10597619D01*
X285322619Y-10845238D01*
X285322619Y-11340476D01*
X285384523Y-11464285D01*
X285446428Y-11526190D01*
X285570238Y-11588095D01*
X285817857Y-11588095D01*
X285941666Y-11526190D01*
X286003571Y-11464285D01*
X286065476Y-11340476D01*
X286065476Y-11030952D01*
X286003571Y-10907142D01*
X285941666Y-10845238D01*
X285817857Y-10783333D01*
X285570238Y-10783333D01*
X285446428Y-10845238D01*
X285384523Y-10907142D01*
X285322619Y-11030952D01*
D10*
D11*
X60000000Y-198007200D02*
X60000000Y-200007200D01*
D10*
D11*
X110000000Y-198007200D02*
X110000000Y-200007200D01*
D10*
D11*
X160000000Y-198007200D02*
X160000000Y-200007200D01*
D10*
D11*
X210000000Y-198007200D02*
X210000000Y-200007200D01*
D10*
D11*
X260000000Y-198007200D02*
X260000000Y-200007200D01*
D10*
D11*
X36065476Y-199595295D02*
X35322619Y-199595295D01*
X35694047Y-199595295D02*
X35694047Y-198295295D01*
X35570238Y-198481009D01*
X35446428Y-198604819D01*
X35322619Y-198666723D01*
D10*
D11*
X85322619Y-198419104D02*
X85384523Y-198357200D01*
X85508333Y-198295295D01*
X85817857Y-198295295D01*
X85941666Y-198357200D01*
X86003571Y-198419104D01*
X86065476Y-198542914D01*
X86065476Y-198666723D01*
X86003571Y-198852438D01*
X85260714Y-199595295D01*
X86065476Y-199595295D01*
D10*
D11*
X135260714Y-198295295D02*
X136065476Y-198295295D01*
X135632142Y-198790533D01*
X135817857Y-198790533D01*
X135941666Y-198852438D01*
X136003571Y-198914342D01*
X136065476Y-199038152D01*
X136065476Y-199347676D01*
X136003571Y-199471485D01*
X135941666Y-199533390D01*
X135817857Y-199595295D01*
X135446428Y-199595295D01*
X135322619Y-199533390D01*
X135260714Y-199471485D01*
D10*
D11*
X185941666Y-198728628D02*
X185941666Y-199595295D01*
X185632142Y-198233390D02*
X185322619Y-199161961D01*
X186127380Y-199161961D01*
D10*
D11*
X236003571Y-198295295D02*
X235384523Y-198295295D01*
X235322619Y-198914342D01*
X235384523Y-198852438D01*
X235508333Y-198790533D01*
X235817857Y-198790533D01*
X235941666Y-198852438D01*
X236003571Y-198914342D01*
X236065476Y-199038152D01*
X236065476Y-199347676D01*
X236003571Y-199471485D01*
X235941666Y-199533390D01*
X235817857Y-199595295D01*
X235508333Y-199595295D01*
X235384523Y-199533390D01*
X235322619Y-199471485D01*
D10*
D11*
X285941666Y-198295295D02*
X285694047Y-198295295D01*
X285570238Y-198357200D01*
X285508333Y-198419104D01*
X285384523Y-198604819D01*
X285322619Y-198852438D01*
X285322619Y-199347676D01*
X285384523Y-199471485D01*
X285446428Y-199533390D01*
X285570238Y-199595295D01*
X285817857Y-199595295D01*
X285941666Y-199533390D01*
X286003571Y-199471485D01*
X286065476Y-199347676D01*
X286065476Y-199038152D01*
X286003571Y-198914342D01*
X285941666Y-198852438D01*
X285817857Y-198790533D01*
X285570238Y-198790533D01*
X285446428Y-198852438D01*
X285384523Y-198914342D01*
X285322619Y-199038152D01*
D10*
D11*
X10000000Y-60000000D02*
X12000000Y-60000000D01*
D10*
D11*
X10000000Y-110000000D02*
X12000000Y-110000000D01*
D10*
D11*
X10000000Y-160000000D02*
X12000000Y-160000000D01*
D10*
D11*
X10690476Y-35216666D02*
X11309523Y-35216666D01*
X10566666Y-35588095D02*
X11000000Y-34288095D01*
X11433333Y-35588095D01*
D10*
D11*
X11092857Y-84907142D02*
X11278571Y-84969047D01*
X11340476Y-85030952D01*
X11402380Y-85154761D01*
X11402380Y-85340476D01*
X11340476Y-85464285D01*
X11278571Y-85526190D01*
X11154761Y-85588095D01*
X10659523Y-85588095D01*
X10659523Y-84288095D01*
X11092857Y-84288095D01*
X11216666Y-84350000D01*
X11278571Y-84411904D01*
X11340476Y-84535714D01*
X11340476Y-84659523D01*
X11278571Y-84783333D01*
X11216666Y-84845238D01*
X11092857Y-84907142D01*
X10659523Y-84907142D01*
D10*
D11*
X11402380Y-135464285D02*
X11340476Y-135526190D01*
X11154761Y-135588095D01*
X11030952Y-135588095D01*
X10845238Y-135526190D01*
X10721428Y-135402380D01*
X10659523Y-135278571D01*
X10597619Y-135030952D01*
X10597619Y-134845238D01*
X10659523Y-134597619D01*
X10721428Y-134473809D01*
X10845238Y-134350000D01*
X11030952Y-134288095D01*
X11154761Y-134288095D01*
X11340476Y-134350000D01*
X11402380Y-134411904D01*
D10*
D11*
X10659523Y-185588095D02*
X10659523Y-184288095D01*
X10969047Y-184288095D01*
X11154761Y-184350000D01*
X11278571Y-184473809D01*
X11340476Y-184597619D01*
X11402380Y-184845238D01*
X11402380Y-185030952D01*
X11340476Y-185278571D01*
X11278571Y-185402380D01*
X11154761Y-185526190D01*
X10969047Y-185588095D01*
X10659523Y-185588095D01*
D10*
D11*
X287002200Y-60000000D02*
X285002200Y-60000000D01*
D10*
D11*
X287002200Y-110000000D02*
X285002200Y-110000000D01*
D10*
D11*
X287002200Y-160000000D02*
X285002200Y-160000000D01*
D10*
D11*
X285692676Y-35216666D02*
X286311723Y-35216666D01*
X285568866Y-35588095D02*
X286002200Y-34288095D01*
X286435533Y-35588095D01*
D10*
D11*
X286095057Y-84907142D02*
X286280771Y-84969047D01*
X286342676Y-85030952D01*
X286404580Y-85154761D01*
X286404580Y-85340476D01*
X286342676Y-85464285D01*
X286280771Y-85526190D01*
X286156961Y-85588095D01*
X285661723Y-85588095D01*
X285661723Y-84288095D01*
X286095057Y-84288095D01*
X286218866Y-84350000D01*
X286280771Y-84411904D01*
X286342676Y-84535714D01*
X286342676Y-84659523D01*
X286280771Y-84783333D01*
X286218866Y-84845238D01*
X286095057Y-84907142D01*
X285661723Y-84907142D01*
D10*
D11*
X286404580Y-135464285D02*
X286342676Y-135526190D01*
X286156961Y-135588095D01*
X286033152Y-135588095D01*
X285847438Y-135526190D01*
X285723628Y-135402380D01*
X285661723Y-135278571D01*
X285599819Y-135030952D01*
X285599819Y-134845238D01*
X285661723Y-134597619D01*
X285723628Y-134473809D01*
X285847438Y-134350000D01*
X286033152Y-134288095D01*
X286156961Y-134288095D01*
X286342676Y-134350000D01*
X286404580Y-134411904D01*
D10*
D11*
X285661723Y-185588095D02*
X285661723Y-184288095D01*
X285971247Y-184288095D01*
X286156961Y-184350000D01*
X286280771Y-184473809D01*
X286342676Y-184597619D01*
X286404580Y-184845238D01*
X286404580Y-185030952D01*
X286342676Y-185278571D01*
X286280771Y-185402380D01*
X286156961Y-185526190D01*
X285971247Y-185588095D01*
X285661723Y-185588095D01*
D10*
D11*
X200434342Y-193785771D02*
X200434342Y-192285771D01*
X200791485Y-192285771D01*
X201005771Y-192357200D01*
X201148628Y-192500057D01*
X201220057Y-192642914D01*
X201291485Y-192928628D01*
X201291485Y-193142914D01*
X201220057Y-193428628D01*
X201148628Y-193571485D01*
X201005771Y-193714342D01*
X200791485Y-193785771D01*
X200434342Y-193785771D01*
X202577200Y-193785771D02*
X202577200Y-193000057D01*
X202505771Y-192857200D01*
X202362914Y-192785771D01*
X202077200Y-192785771D01*
X201934342Y-192857200D01*
X202577200Y-193714342D02*
X202434342Y-193785771D01*
X202077200Y-193785771D01*
X201934342Y-193714342D01*
X201862914Y-193571485D01*
X201862914Y-193428628D01*
X201934342Y-193285771D01*
X202077200Y-193214342D01*
X202434342Y-193214342D01*
X202577200Y-193142914D01*
X203077200Y-192785771D02*
X203648628Y-192785771D01*
X203291485Y-192285771D02*
X203291485Y-193571485D01*
X203362914Y-193714342D01*
X203505771Y-193785771D01*
X203648628Y-193785771D01*
X204720057Y-193714342D02*
X204577200Y-193785771D01*
X204291485Y-193785771D01*
X204148628Y-193714342D01*
X204077200Y-193571485D01*
X204077200Y-193000057D01*
X204148628Y-192857200D01*
X204291485Y-192785771D01*
X204577200Y-192785771D01*
X204720057Y-192857200D01*
X204791485Y-193000057D01*
X204791485Y-193142914D01*
X204077200Y-193285771D01*
X205434342Y-193642914D02*
X205505771Y-193714342D01*
X205434342Y-193785771D01*
X205362914Y-193714342D01*
X205434342Y-193642914D01*
X205434342Y-193785771D01*
X205434342Y-192857200D02*
X205505771Y-192928628D01*
X205434342Y-193000057D01*
X205362914Y-192928628D01*
X205434342Y-192857200D01*
X205434342Y-193000057D01*
D10*
D11*
X177002200Y-194507200D02*
X285002200Y-194507200D01*
D10*
D11*
X178434342Y-196585771D02*
X178434342Y-195085771D01*
X179291485Y-196585771D02*
X178648628Y-195728628D01*
X179291485Y-195085771D02*
X178434342Y-195942914D01*
X179934342Y-196585771D02*
X179934342Y-195585771D01*
X179934342Y-195085771D02*
X179862914Y-195157200D01*
X179934342Y-195228628D01*
X180005771Y-195157200D01*
X179934342Y-195085771D01*
X179934342Y-195228628D01*
X181505771Y-196442914D02*
X181434342Y-196514342D01*
X181220057Y-196585771D01*
X181077200Y-196585771D01*
X180862914Y-196514342D01*
X180720057Y-196371485D01*
X180648628Y-196228628D01*
X180577200Y-195942914D01*
X180577200Y-195728628D01*
X180648628Y-195442914D01*
X180720057Y-195300057D01*
X180862914Y-195157200D01*
X181077200Y-195085771D01*
X181220057Y-195085771D01*
X181434342Y-195157200D01*
X181505771Y-195228628D01*
X182791485Y-196585771D02*
X182791485Y-195800057D01*
X182720057Y-195657200D01*
X182577200Y-195585771D01*
X182291485Y-195585771D01*
X182148628Y-195657200D01*
X182791485Y-196514342D02*
X182648628Y-196585771D01*
X182291485Y-196585771D01*
X182148628Y-196514342D01*
X182077200Y-196371485D01*
X182077200Y-196228628D01*
X182148628Y-196085771D01*
X182291485Y-196014342D01*
X182648628Y-196014342D01*
X182791485Y-195942914D01*
X184148628Y-196585771D02*
X184148628Y-195085771D01*
X184148628Y-196514342D02*
X184005771Y-196585771D01*
X183720057Y-196585771D01*
X183577200Y-196514342D01*
X183505771Y-196442914D01*
X183434342Y-196300057D01*
X183434342Y-195871485D01*
X183505771Y-195728628D01*
X183577200Y-195657200D01*
X183720057Y-195585771D01*
X184005771Y-195585771D01*
X184148628Y-195657200D01*
X186005771Y-195800057D02*
X186505771Y-195800057D01*
X186720057Y-196585771D02*
X186005771Y-196585771D01*
X186005771Y-195085771D01*
X186720057Y-195085771D01*
X187362914Y-196442914D02*
X187434342Y-196514342D01*
X187362914Y-196585771D01*
X187291485Y-196514342D01*
X187362914Y-196442914D01*
X187362914Y-196585771D01*
X188077200Y-196585771D02*
X188077200Y-195085771D01*
X188434342Y-195085771D01*
X188648628Y-195157200D01*
X188791485Y-195300057D01*
X188862914Y-195442914D01*
X188934342Y-195728628D01*
X188934342Y-195942914D01*
X188862914Y-196228628D01*
X188791485Y-196371485D01*
X188648628Y-196514342D01*
X188434342Y-196585771D01*
X188077200Y-196585771D01*
X189577200Y-196442914D02*
X189648628Y-196514342D01*
X189577200Y-196585771D01*
X189505771Y-196514342D01*
X189577200Y-196442914D01*
X189577200Y-196585771D01*
X190220057Y-196157200D02*
X190934342Y-196157200D01*
X190077200Y-196585771D02*
X190577200Y-195085771D01*
X191077200Y-196585771D01*
X191577200Y-196442914D02*
X191648628Y-196514342D01*
X191577200Y-196585771D01*
X191505771Y-196514342D01*
X191577200Y-196442914D01*
X191577200Y-196585771D01*
X194577200Y-196585771D02*
X194577200Y-195085771D01*
X194720057Y-196014342D02*
X195148628Y-196585771D01*
X195148628Y-195585771D02*
X194577200Y-196157200D01*
X195791485Y-196585771D02*
X195791485Y-195585771D01*
X195791485Y-195085771D02*
X195720057Y-195157200D01*
X195791485Y-195228628D01*
X195862914Y-195157200D01*
X195791485Y-195085771D01*
X195791485Y-195228628D01*
X197148628Y-196514342D02*
X197005771Y-196585771D01*
X196720057Y-196585771D01*
X196577200Y-196514342D01*
X196505771Y-196442914D01*
X196434342Y-196300057D01*
X196434342Y-195871485D01*
X196505771Y-195728628D01*
X196577200Y-195657200D01*
X196720057Y-195585771D01*
X197005771Y-195585771D01*
X197148628Y-195657200D01*
X198434342Y-196585771D02*
X198434342Y-195800057D01*
X198362914Y-195657200D01*
X198220057Y-195585771D01*
X197934342Y-195585771D01*
X197791485Y-195657200D01*
X198434342Y-196514342D02*
X198291485Y-196585771D01*
X197934342Y-196585771D01*
X197791485Y-196514342D01*
X197720057Y-196371485D01*
X197720057Y-196228628D01*
X197791485Y-196085771D01*
X197934342Y-196014342D01*
X198291485Y-196014342D01*
X198434342Y-195942914D01*
X199791485Y-196585771D02*
X199791485Y-195085771D01*
X199791485Y-196514342D02*
X199648628Y-196585771D01*
X199362914Y-196585771D01*
X199220057Y-196514342D01*
X199148628Y-196442914D01*
X199077200Y-196300057D01*
X199077200Y-195871485D01*
X199148628Y-195728628D01*
X199220057Y-195657200D01*
X199362914Y-195585771D01*
X199648628Y-195585771D01*
X199791485Y-195657200D01*
X202362914Y-195085771D02*
X201648628Y-195085771D01*
X201577200Y-195800057D01*
X201648628Y-195728628D01*
X201791485Y-195657200D01*
X202148628Y-195657200D01*
X202291485Y-195728628D01*
X202362914Y-195800057D01*
X202434342Y-195942914D01*
X202434342Y-196300057D01*
X202362914Y-196442914D01*
X202291485Y-196514342D01*
X202148628Y-196585771D01*
X201791485Y-196585771D01*
X201648628Y-196514342D01*
X201577200Y-196442914D01*
X203077200Y-196442914D02*
X203148628Y-196514342D01*
X203077200Y-196585771D01*
X203005771Y-196514342D01*
X203077200Y-196442914D01*
X203077200Y-196585771D01*
X204577200Y-196585771D02*
X203720057Y-196585771D01*
X204148628Y-196585771D02*
X204148628Y-195085771D01*
X204005771Y-195300057D01*
X203862914Y-195442914D01*
X203720057Y-195514342D01*
X205220057Y-196442914D02*
X205291485Y-196514342D01*
X205220057Y-196585771D01*
X205148628Y-196514342D01*
X205220057Y-196442914D01*
X205220057Y-196585771D01*
X206648628Y-195085771D02*
X205934342Y-195085771D01*
X205862914Y-195800057D01*
X205934342Y-195728628D01*
X206077200Y-195657200D01*
X206434342Y-195657200D01*
X206577200Y-195728628D01*
X206648628Y-195800057D01*
X206720057Y-195942914D01*
X206720057Y-196300057D01*
X206648628Y-196442914D01*
X206577200Y-196514342D01*
X206434342Y-196585771D01*
X206077200Y-196585771D01*
X205934342Y-196514342D01*
X205862914Y-196442914D01*
X207362914Y-196014342D02*
X208505771Y-196014342D01*
X207934342Y-196585771D02*
X207934342Y-195442914D01*
X209862914Y-196585771D02*
X209862914Y-195085771D01*
X209862914Y-196514342D02*
X209720057Y-196585771D01*
X209434342Y-196585771D01*
X209291485Y-196514342D01*
X209220057Y-196442914D01*
X209148628Y-196300057D01*
X209148628Y-195871485D01*
X209220057Y-195728628D01*
X209291485Y-195657200D01*
X209434342Y-195585771D01*
X209720057Y-195585771D01*
X209862914Y-195657200D01*
X210362914Y-195585771D02*
X210934342Y-195585771D01*
X210577200Y-196585771D02*
X210577200Y-195300057D01*
X210648628Y-195157200D01*
X210791485Y-195085771D01*
X210934342Y-195085771D01*
X211362914Y-196514342D02*
X211505771Y-196585771D01*
X211791485Y-196585771D01*
X211934342Y-196514342D01*
X212005771Y-196371485D01*
X212005771Y-196300057D01*
X211934342Y-196157200D01*
X211791485Y-196085771D01*
X211577200Y-196085771D01*
X211434342Y-196014342D01*
X211362914Y-195871485D01*
X211362914Y-195800057D01*
X211434342Y-195657200D01*
X211577200Y-195585771D01*
X211791485Y-195585771D01*
X211934342Y-195657200D01*
X213291485Y-195585771D02*
X213291485Y-196800057D01*
X213220057Y-196942914D01*
X213148628Y-197014342D01*
X213005771Y-197085771D01*
X212791485Y-197085771D01*
X212648628Y-197014342D01*
X213291485Y-196514342D02*
X213148628Y-196585771D01*
X212862914Y-196585771D01*
X212720057Y-196514342D01*
X212648628Y-196442914D01*
X212577200Y-196300057D01*
X212577200Y-195871485D01*
X212648628Y-195728628D01*
X212720057Y-195657200D01*
X212862914Y-195585771D01*
X213148628Y-195585771D01*
X213291485Y-195657200D01*
X214791485Y-196585771D02*
X213934342Y-196585771D01*
X214362914Y-196585771D02*
X214362914Y-195085771D01*
X214220057Y-195300057D01*
X214077200Y-195442914D01*
X213934342Y-195514342D01*
X215434342Y-196014342D02*
X216577200Y-196014342D01*
X217220057Y-195228628D02*
X217291485Y-195157200D01*
X217434342Y-195085771D01*
X217791485Y-195085771D01*
X217934342Y-195157200D01*
X218005771Y-195228628D01*
X218077200Y-195371485D01*
X218077200Y-195514342D01*
X218005771Y-195728628D01*
X217148628Y-196585771D01*
X218077200Y-196585771D01*
X218720057Y-196585771D02*
X218720057Y-195085771D01*
X218720057Y-195657200D02*
X218862914Y-195585771D01*
X219148628Y-195585771D01*
X219291485Y-195657200D01*
X219362914Y-195728628D01*
X219434342Y-195871485D01*
X219434342Y-196300057D01*
X219362914Y-196442914D01*
X219291485Y-196514342D01*
X219148628Y-196585771D01*
X218862914Y-196585771D01*
X218720057Y-196514342D01*
X220720057Y-195585771D02*
X220720057Y-196585771D01*
X220077200Y-195585771D02*
X220077200Y-196371485D01*
X220148628Y-196514342D01*
X220291485Y-196585771D01*
X220505771Y-196585771D01*
X220648628Y-196514342D01*
X220720057Y-196442914D01*
X221434342Y-196585771D02*
X221434342Y-195585771D01*
X221434342Y-195085771D02*
X221362914Y-195157200D01*
X221434342Y-195228628D01*
X221505771Y-195157200D01*
X221434342Y-195085771D01*
X221434342Y-195228628D01*
X222362914Y-196585771D02*
X222220057Y-196514342D01*
X222148628Y-196371485D01*
X222148628Y-195085771D01*
X223577200Y-196585771D02*
X223577200Y-195085771D01*
X223577200Y-196514342D02*
X223434342Y-196585771D01*
X223148628Y-196585771D01*
X223005771Y-196514342D01*
X222934342Y-196442914D01*
X222862914Y-196300057D01*
X222862914Y-195871485D01*
X222934342Y-195728628D01*
X223005771Y-195657200D01*
X223148628Y-195585771D01*
X223434342Y-195585771D01*
X223577200Y-195657200D01*
X224220057Y-195228628D02*
X224291485Y-195157200D01*
X224434342Y-195085771D01*
X224791485Y-195085771D01*
X224934342Y-195157200D01*
X225005771Y-195228628D01*
X225077200Y-195371485D01*
X225077200Y-195514342D01*
X225005771Y-195728628D01*
X224148628Y-196585771D01*
X225077200Y-196585771D01*
D10*
D11*
X177002200Y-191507200D02*
X285002200Y-191507200D01*
D10*
D12*
X264411485Y-193785771D02*
X263911485Y-193071485D01*
X263554342Y-193785771D02*
X263554342Y-192285771D01*
X264125771Y-192285771D01*
X264268628Y-192357200D01*
X264340057Y-192428628D01*
X264411485Y-192571485D01*
X264411485Y-192785771D01*
X264340057Y-192928628D01*
X264268628Y-193000057D01*
X264125771Y-193071485D01*
X263554342Y-193071485D01*
X265625771Y-193714342D02*
X265482914Y-193785771D01*
X265197200Y-193785771D01*
X265054342Y-193714342D01*
X264982914Y-193571485D01*
X264982914Y-193000057D01*
X265054342Y-192857200D01*
X265197200Y-192785771D01*
X265482914Y-192785771D01*
X265625771Y-192857200D01*
X265697200Y-193000057D01*
X265697200Y-193142914D01*
X264982914Y-193285771D01*
X266197200Y-192785771D02*
X266554342Y-193785771D01*
X266911485Y-192785771D01*
X267482914Y-193642914D02*
X267554342Y-193714342D01*
X267482914Y-193785771D01*
X267411485Y-193714342D01*
X267482914Y-193642914D01*
X267482914Y-193785771D01*
X267482914Y-192857200D02*
X267554342Y-192928628D01*
X267482914Y-193000057D01*
X267411485Y-192928628D01*
X267482914Y-192857200D01*
X267482914Y-193000057D01*
D10*
D11*
X178362914Y-193714342D02*
X178577200Y-193785771D01*
X178934342Y-193785771D01*
X179077200Y-193714342D01*
X179148628Y-193642914D01*
X179220057Y-193500057D01*
X179220057Y-193357200D01*
X179148628Y-193214342D01*
X179077200Y-193142914D01*
X178934342Y-193071485D01*
X178648628Y-193000057D01*
X178505771Y-192928628D01*
X178434342Y-192857200D01*
X178362914Y-192714342D01*
X178362914Y-192571485D01*
X178434342Y-192428628D01*
X178505771Y-192357200D01*
X178648628Y-192285771D01*
X179005771Y-192285771D01*
X179220057Y-192357200D01*
X179862914Y-193785771D02*
X179862914Y-192785771D01*
X179862914Y-192285771D02*
X179791485Y-192357200D01*
X179862914Y-192428628D01*
X179934342Y-192357200D01*
X179862914Y-192285771D01*
X179862914Y-192428628D01*
X180434342Y-192785771D02*
X181220057Y-192785771D01*
X180434342Y-193785771D01*
X181220057Y-193785771D01*
X182362914Y-193714342D02*
X182220057Y-193785771D01*
X181934342Y-193785771D01*
X181791485Y-193714342D01*
X181720057Y-193571485D01*
X181720057Y-193000057D01*
X181791485Y-192857200D01*
X181934342Y-192785771D01*
X182220057Y-192785771D01*
X182362914Y-192857200D01*
X182434342Y-193000057D01*
X182434342Y-193142914D01*
X181720057Y-193285771D01*
X183077200Y-193642914D02*
X183148628Y-193714342D01*
X183077200Y-193785771D01*
X183005771Y-193714342D01*
X183077200Y-193642914D01*
X183077200Y-193785771D01*
X183077200Y-192857200D02*
X183148628Y-192928628D01*
X183077200Y-193000057D01*
X183005771Y-192928628D01*
X183077200Y-192857200D01*
X183077200Y-193000057D01*
X184862914Y-193357200D02*
X185577200Y-193357200D01*
X184720057Y-193785771D02*
X185220057Y-192285771D01*
X185720057Y-193785771D01*
X186862914Y-192785771D02*
X186862914Y-193785771D01*
X186505771Y-192214342D02*
X186148628Y-193285771D01*
X187077200Y-193285771D01*
D10*
D11*
X263434342Y-196585771D02*
X263434342Y-195085771D01*
X264791485Y-196585771D02*
X264791485Y-195085771D01*
X264791485Y-196514342D02*
X264648628Y-196585771D01*
X264362914Y-196585771D01*
X264220057Y-196514342D01*
X264148628Y-196442914D01*
X264077200Y-196300057D01*
X264077200Y-195871485D01*
X264148628Y-195728628D01*
X264220057Y-195657200D01*
X264362914Y-195585771D01*
X264648628Y-195585771D01*
X264791485Y-195657200D01*
X265505771Y-196442914D02*
X265577200Y-196514342D01*
X265505771Y-196585771D01*
X265434342Y-196514342D01*
X265505771Y-196442914D01*
X265505771Y-196585771D01*
X265505771Y-195657200D02*
X265577200Y-195728628D01*
X265505771Y-195800057D01*
X265434342Y-195728628D01*
X265505771Y-195657200D01*
X265505771Y-195800057D01*
X268148628Y-196585771D02*
X267291485Y-196585771D01*
X267720057Y-196585771D02*
X267720057Y-195085771D01*
X267577200Y-195300057D01*
X267434342Y-195442914D01*
X267291485Y-195514342D01*
X269862914Y-195014342D02*
X268577200Y-196942914D01*
X271148628Y-196585771D02*
X270291485Y-196585771D01*
X270720057Y-196585771D02*
X270720057Y-195085771D01*
X270577200Y-195300057D01*
X270434342Y-195442914D01*
X270291485Y-195514342D01*
D10*
D11*
X177002200Y-187507200D02*
X285002200Y-187507200D01*
D10*
D13*
X178714580Y-188211961D02*
X179857438Y-188211961D01*
X179036009Y-190211961D02*
X179286009Y-188211961D01*
X180274104Y-190211961D02*
X180440771Y-188878628D01*
X180524104Y-188211961D02*
X180416961Y-188307200D01*
X180500295Y-188402438D01*
X180607438Y-188307200D01*
X180524104Y-188211961D01*
X180500295Y-188402438D01*
X181107438Y-188878628D02*
X181869342Y-188878628D01*
X181476485Y-188211961D02*
X181262200Y-189926247D01*
X181333628Y-190116723D01*
X181512200Y-190211961D01*
X181702676Y-190211961D01*
X182655057Y-190211961D02*
X182476485Y-190116723D01*
X182405057Y-189926247D01*
X182619342Y-188211961D01*
X184190771Y-190116723D02*
X183988390Y-190211961D01*
X183607438Y-190211961D01*
X183428866Y-190116723D01*
X183357438Y-189926247D01*
X183452676Y-189164342D01*
X183571723Y-188973866D01*
X183774104Y-188878628D01*
X184155057Y-188878628D01*
X184333628Y-188973866D01*
X184405057Y-189164342D01*
X184381247Y-189354819D01*
X183405057Y-189545295D01*
X185155057Y-190021485D02*
X185238390Y-190116723D01*
X185131247Y-190211961D01*
X185047914Y-190116723D01*
X185155057Y-190021485D01*
X185131247Y-190211961D01*
X185286009Y-188973866D02*
X185369342Y-189069104D01*
X185262200Y-189164342D01*
X185178866Y-189069104D01*
X185286009Y-188973866D01*
X185262200Y-189164342D01*
D10*
D11*
X178934342Y-185600057D02*
X178434342Y-185600057D01*
X178434342Y-186385771D02*
X178434342Y-184885771D01*
X179148628Y-184885771D01*
X179720057Y-186385771D02*
X179720057Y-185385771D01*
X179720057Y-184885771D02*
X179648628Y-184957200D01*
X179720057Y-185028628D01*
X179791485Y-184957200D01*
X179720057Y-184885771D01*
X179720057Y-185028628D01*
X180648628Y-186385771D02*
X180505771Y-186314342D01*
X180434342Y-186171485D01*
X180434342Y-184885771D01*
X181791485Y-186314342D02*
X181648628Y-186385771D01*
X181362914Y-186385771D01*
X181220057Y-186314342D01*
X181148628Y-186171485D01*
X181148628Y-185600057D01*
X181220057Y-185457200D01*
X181362914Y-185385771D01*
X181648628Y-185385771D01*
X181791485Y-185457200D01*
X181862914Y-185600057D01*
X181862914Y-185742914D01*
X181148628Y-185885771D01*
X182505771Y-186242914D02*
X182577200Y-186314342D01*
X182505771Y-186385771D01*
X182434342Y-186314342D01*
X182505771Y-186242914D01*
X182505771Y-186385771D01*
X182505771Y-185457200D02*
X182577200Y-185528628D01*
X182505771Y-185600057D01*
X182434342Y-185528628D01*
X182505771Y-185457200D01*
X182505771Y-185600057D01*
X184791485Y-184885771D02*
X184791485Y-185957200D01*
X184720057Y-186171485D01*
X184577200Y-186314342D01*
X184362914Y-186385771D01*
X184220057Y-186385771D01*
X185434342Y-185957200D02*
X186148628Y-185957200D01*
X185291485Y-186385771D02*
X185791485Y-184885771D01*
X186291485Y-186385771D01*
X186577200Y-184885771D02*
X187434342Y-184885771D01*
X187005771Y-186385771D02*
X187005771Y-184885771D01*
X188934342Y-184885771D02*
X189862914Y-184885771D01*
X189362914Y-185457200D01*
X189577200Y-185457200D01*
X189720057Y-185528628D01*
X189791485Y-185600057D01*
X189862914Y-185742914D01*
X189862914Y-186100057D01*
X189791485Y-186242914D01*
X189720057Y-186314342D01*
X189577200Y-186385771D01*
X189148628Y-186385771D01*
X189005771Y-186314342D01*
X188934342Y-186242914D01*
X190291485Y-185385771D02*
X190862914Y-185385771D01*
X190505771Y-184885771D02*
X190505771Y-186171485D01*
X190577200Y-186314342D01*
X190720057Y-186385771D01*
X190862914Y-186385771D01*
X193148628Y-186385771D02*
X193148628Y-185600057D01*
X193077200Y-185457200D01*
X192934342Y-185385771D01*
X192648628Y-185385771D01*
X192505771Y-185457200D01*
X193148628Y-186314342D02*
X193005771Y-186385771D01*
X192648628Y-186385771D01*
X192505771Y-186314342D01*
X192434342Y-186171485D01*
X192434342Y-186028628D01*
X192505771Y-185885771D01*
X192648628Y-185814342D01*
X193005771Y-185814342D01*
X193148628Y-185742914D01*
X193862914Y-186385771D02*
X193862914Y-185385771D01*
X193862914Y-185528628D02*
X193934342Y-185457200D01*
X194077200Y-185385771D01*
X194291485Y-185385771D01*
X194434342Y-185457200D01*
X194505771Y-185600057D01*
X194505771Y-186385771D01*
X194505771Y-185600057D02*
X194577200Y-185457200D01*
X194720057Y-185385771D01*
X194934342Y-185385771D01*
X195077200Y-185457200D01*
X195148628Y-185600057D01*
X195148628Y-186385771D01*
X195862914Y-185385771D02*
X195862914Y-186885771D01*
X195862914Y-185457200D02*
X196005771Y-185385771D01*
X196291485Y-185385771D01*
X196434342Y-185457200D01*
X196505771Y-185528628D01*
X196577200Y-185671485D01*
X196577200Y-186100057D01*
X196505771Y-186242914D01*
X196434342Y-186314342D01*
X196291485Y-186385771D01*
X196005771Y-186385771D01*
X195862914Y-186314342D01*
X197434342Y-186385771D02*
X197291485Y-186314342D01*
X197220057Y-186171485D01*
X197220057Y-184885771D01*
X198005771Y-186385771D02*
X198005771Y-185385771D01*
X198005771Y-184885771D02*
X197934342Y-184957200D01*
X198005771Y-185028628D01*
X198077200Y-184957200D01*
X198005771Y-184885771D01*
X198005771Y-185028628D01*
X198505771Y-185385771D02*
X199077200Y-185385771D01*
X198720057Y-186385771D02*
X198720057Y-185100057D01*
X198791485Y-184957200D01*
X198934342Y-184885771D01*
X199077200Y-184885771D01*
X199577200Y-186385771D02*
X199577200Y-185385771D01*
X199577200Y-184885771D02*
X199505771Y-184957200D01*
X199577200Y-185028628D01*
X199648628Y-184957200D01*
X199577200Y-184885771D01*
X199577200Y-185028628D01*
X200862914Y-186314342D02*
X200720057Y-186385771D01*
X200434342Y-186385771D01*
X200291485Y-186314342D01*
X200220057Y-186171485D01*
X200220057Y-185600057D01*
X200291485Y-185457200D01*
X200434342Y-185385771D01*
X200720057Y-185385771D01*
X200862914Y-185457200D01*
X200934342Y-185600057D01*
X200934342Y-185742914D01*
X200220057Y-185885771D01*
X201577200Y-186385771D02*
X201577200Y-185385771D01*
X201577200Y-185671485D02*
X201648628Y-185528628D01*
X201720057Y-185457200D01*
X201862914Y-185385771D01*
X202005771Y-185385771D01*
X202505771Y-186242914D02*
X202577200Y-186314342D01*
X202505771Y-186385771D01*
X202434342Y-186314342D01*
X202505771Y-186242914D01*
X202505771Y-186385771D01*
X203220057Y-186385771D02*
X203220057Y-184885771D01*
X203362914Y-185814342D02*
X203791485Y-186385771D01*
X203791485Y-185385771D02*
X203220057Y-185957200D01*
X204434342Y-186385771D02*
X204434342Y-185385771D01*
X204434342Y-184885771D02*
X204362914Y-184957200D01*
X204434342Y-185028628D01*
X204505771Y-184957200D01*
X204434342Y-184885771D01*
X204434342Y-185028628D01*
X205791485Y-186314342D02*
X205648628Y-186385771D01*
X205362914Y-186385771D01*
X205220057Y-186314342D01*
X205148628Y-186242914D01*
X205077200Y-186100057D01*
X205077200Y-185671485D01*
X205148628Y-185528628D01*
X205220057Y-185457200D01*
X205362914Y-185385771D01*
X205648628Y-185385771D01*
X205791485Y-185457200D01*
X207077200Y-186385771D02*
X207077200Y-185600057D01*
X207005771Y-185457200D01*
X206862914Y-185385771D01*
X206577200Y-185385771D01*
X206434342Y-185457200D01*
X207077200Y-186314342D02*
X206934342Y-186385771D01*
X206577200Y-186385771D01*
X206434342Y-186314342D01*
X206362914Y-186171485D01*
X206362914Y-186028628D01*
X206434342Y-185885771D01*
X206577200Y-185814342D01*
X206934342Y-185814342D01*
X207077200Y-185742914D01*
X208434342Y-186385771D02*
X208434342Y-184885771D01*
X208434342Y-186314342D02*
X208291485Y-186385771D01*
X208005771Y-186385771D01*
X207862914Y-186314342D01*
X207791485Y-186242914D01*
X207720057Y-186100057D01*
X207720057Y-185671485D01*
X207791485Y-185528628D01*
X207862914Y-185457200D01*
X208005771Y-185385771D01*
X208291485Y-185385771D01*
X208434342Y-185457200D01*
X208791485Y-186528628D02*
X209934342Y-186528628D01*
X210291485Y-185385771D02*
X210291485Y-186885771D01*
X210291485Y-185457200D02*
X210434342Y-185385771D01*
X210720057Y-185385771D01*
X210862914Y-185457200D01*
X210934342Y-185528628D01*
X211005771Y-185671485D01*
X211005771Y-186100057D01*
X210934342Y-186242914D01*
X210862914Y-186314342D01*
X210720057Y-186385771D01*
X210434342Y-186385771D01*
X210291485Y-186314342D01*
X212291485Y-186314342D02*
X212148628Y-186385771D01*
X211862914Y-186385771D01*
X211720057Y-186314342D01*
X211648628Y-186242914D01*
X211577200Y-186100057D01*
X211577200Y-185671485D01*
X211648628Y-185528628D01*
X211720057Y-185457200D01*
X211862914Y-185385771D01*
X212148628Y-185385771D01*
X212291485Y-185457200D01*
X212934342Y-186385771D02*
X212934342Y-184885771D01*
X212934342Y-185457200D02*
X213077200Y-185385771D01*
X213362914Y-185385771D01*
X213505771Y-185457200D01*
X213577200Y-185528628D01*
X213648628Y-185671485D01*
X213648628Y-186100057D01*
X213577200Y-186242914D01*
X213505771Y-186314342D01*
X213362914Y-186385771D01*
X213077200Y-186385771D01*
X212934342Y-186314342D01*
D10*
D11*
X177002200Y-181507200D02*
X285002200Y-181507200D01*
D10*
D11*
X178362914Y-183614342D02*
X178577200Y-183685771D01*
X178934342Y-183685771D01*
X179077200Y-183614342D01*
X179148628Y-183542914D01*
X179220057Y-183400057D01*
X179220057Y-183257200D01*
X179148628Y-183114342D01*
X179077200Y-183042914D01*
X178934342Y-182971485D01*
X178648628Y-182900057D01*
X178505771Y-182828628D01*
X178434342Y-182757200D01*
X178362914Y-182614342D01*
X178362914Y-182471485D01*
X178434342Y-182328628D01*
X178505771Y-182257200D01*
X178648628Y-182185771D01*
X179005771Y-182185771D01*
X179220057Y-182257200D01*
X179862914Y-183685771D02*
X179862914Y-182185771D01*
X180505771Y-183685771D02*
X180505771Y-182900057D01*
X180434342Y-182757200D01*
X180291485Y-182685771D01*
X180077200Y-182685771D01*
X179934342Y-182757200D01*
X179862914Y-182828628D01*
X181791485Y-183614342D02*
X181648628Y-183685771D01*
X181362914Y-183685771D01*
X181220057Y-183614342D01*
X181148628Y-183471485D01*
X181148628Y-182900057D01*
X181220057Y-182757200D01*
X181362914Y-182685771D01*
X181648628Y-182685771D01*
X181791485Y-182757200D01*
X181862914Y-182900057D01*
X181862914Y-183042914D01*
X181148628Y-183185771D01*
X183077200Y-183614342D02*
X182934342Y-183685771D01*
X182648628Y-183685771D01*
X182505771Y-183614342D01*
X182434342Y-183471485D01*
X182434342Y-182900057D01*
X182505771Y-182757200D01*
X182648628Y-182685771D01*
X182934342Y-182685771D01*
X183077200Y-182757200D01*
X183148628Y-182900057D01*
X183148628Y-183042914D01*
X182434342Y-183185771D01*
X183577200Y-182685771D02*
X184148628Y-182685771D01*
X183791485Y-182185771D02*
X183791485Y-183471485D01*
X183862914Y-183614342D01*
X184005771Y-183685771D01*
X184148628Y-183685771D01*
X184648628Y-183542914D02*
X184720057Y-183614342D01*
X184648628Y-183685771D01*
X184577200Y-183614342D01*
X184648628Y-183542914D01*
X184648628Y-183685771D01*
X184648628Y-182757200D02*
X184720057Y-182828628D01*
X184648628Y-182900057D01*
X184577200Y-182828628D01*
X184648628Y-182757200D01*
X184648628Y-182900057D01*
D10*
D11*
X197002200Y-191507200D02*
X197002200Y-194507200D01*
D10*
D11*
X261002200Y-191507200D02*
X261002200Y-198007200D01*
D10*
G36*
X703804549Y-990741116D02*
G01*
X703915734Y-990763232D01*
X704125203Y-990849997D01*
X704313720Y-990975960D01*
X704474040Y-991136280D01*
X704600003Y-991324797D01*
X704686768Y-991534266D01*
X704731000Y-991756636D01*
X704731000Y-991983364D01*
X704686768Y-992205734D01*
X704600003Y-992415203D01*
X704474040Y-992603720D01*
X704313720Y-992764040D01*
X704125203Y-992890003D01*
X703915734Y-992976768D01*
X703804549Y-992998884D01*
X703693365Y-993021000D01*
X703466635Y-993021000D01*
X703355451Y-992998884D01*
X703244266Y-992976768D01*
X703034797Y-992890003D01*
X702846280Y-992764040D01*
X702685960Y-992603720D01*
X702559997Y-992415203D01*
X702473232Y-992205734D01*
X702429000Y-991983364D01*
X702429000Y-991756636D01*
X702473232Y-991534266D01*
X702559997Y-991324797D01*
X702685960Y-991136280D01*
X702846280Y-990975960D01*
X703034797Y-990849997D01*
X703244266Y-990763232D01*
X703355451Y-990741116D01*
X703466635Y-990719000D01*
X703693365Y-990719000D01*
X703804549Y-990741116D01*
G37*
G36*
X692031000Y-993021000D02*
G01*
X689729000Y-993021000D01*
X689729000Y-990719000D01*
X692031000Y-990719000D01*
X692031000Y-993021000D01*
G37*
G36*
X676019393Y-989349304D02*
G01*
X676256101Y-989447352D01*
X676256103Y-989447353D01*
X676469135Y-989589696D01*
X676650304Y-989770865D01*
X676789229Y-989978782D01*
X676792648Y-989983899D01*
X676890696Y-990220607D01*
X676940680Y-990471893D01*
X676940680Y-990728107D01*
X676890696Y-990979393D01*
X676822305Y-991144502D01*
X676792647Y-991216103D01*
X676650304Y-991429135D01*
X676469135Y-991610304D01*
X676256103Y-991752647D01*
X676256102Y-991752648D01*
X676256101Y-991752648D01*
X676019393Y-991850696D01*
X675768107Y-991900680D01*
X675511893Y-991900680D01*
X675260607Y-991850696D01*
X675023899Y-991752648D01*
X675023898Y-991752648D01*
X675023897Y-991752647D01*
X674810865Y-991610304D01*
X674629696Y-991429135D01*
X674487353Y-991216103D01*
X674457695Y-991144502D01*
X674389304Y-990979393D01*
X674339320Y-990728107D01*
X674339320Y-990471893D01*
X674389304Y-990220607D01*
X674487352Y-989983899D01*
X674490771Y-989978782D01*
X674629696Y-989770865D01*
X674810865Y-989589696D01*
X675023897Y-989447353D01*
X675023899Y-989447352D01*
X675260607Y-989349304D01*
X675511893Y-989299320D01*
X675768107Y-989299320D01*
X676019393Y-989349304D01*
G37*
G36*
X672209393Y-989349304D02*
G01*
X672446101Y-989447352D01*
X672446103Y-989447353D01*
X672659135Y-989589696D01*
X672840304Y-989770865D01*
X672979229Y-989978782D01*
X672982648Y-989983899D01*
X673080696Y-990220607D01*
X673130680Y-990471893D01*
X673130680Y-990728107D01*
X673080696Y-990979393D01*
X673012305Y-991144502D01*
X672982647Y-991216103D01*
X672840304Y-991429135D01*
X672659135Y-991610304D01*
X672446103Y-991752647D01*
X672446102Y-991752648D01*
X672446101Y-991752648D01*
X672209393Y-991850696D01*
X671958107Y-991900680D01*
X671701893Y-991900680D01*
X671450607Y-991850696D01*
X671213899Y-991752648D01*
X671213898Y-991752648D01*
X671213897Y-991752647D01*
X671000865Y-991610304D01*
X670819696Y-991429135D01*
X670677353Y-991216103D01*
X670647695Y-991144502D01*
X670579304Y-990979393D01*
X670529320Y-990728107D01*
X670529320Y-990471893D01*
X670579304Y-990220607D01*
X670677352Y-989983899D01*
X670680771Y-989978782D01*
X670819696Y-989770865D01*
X671000865Y-989589696D01*
X671213897Y-989447353D01*
X671213899Y-989447352D01*
X671450607Y-989349304D01*
X671701893Y-989299320D01*
X671958107Y-989299320D01*
X672209393Y-989349304D01*
G37*
G36*
X699201000Y-990031000D02*
G01*
X697926749Y-990031000D01*
X697902363Y-990033402D01*
X697878914Y-990040515D01*
X697857303Y-990052066D01*
X697838361Y-990067611D01*
X697822816Y-990086553D01*
X697811265Y-990108164D01*
X697804152Y-990131613D01*
X697801750Y-990155999D01*
X697804152Y-990180385D01*
X697811265Y-990203834D01*
X697822816Y-990225444D01*
X697851218Y-990267951D01*
X697904062Y-990395527D01*
X697931000Y-990530956D01*
X697931000Y-990669044D01*
X697904062Y-990804473D01*
X697851218Y-990932049D01*
X697774505Y-991046859D01*
X697676859Y-991144505D01*
X697562049Y-991221218D01*
X697434473Y-991274062D01*
X697299044Y-991301000D01*
X697160956Y-991301000D01*
X697025527Y-991274062D01*
X696897951Y-991221218D01*
X696783141Y-991144505D01*
X696685495Y-991046859D01*
X696608782Y-990932049D01*
X696555938Y-990804473D01*
X696529000Y-990669044D01*
X696529000Y-990530956D01*
X696555938Y-990395527D01*
X696608782Y-990267951D01*
X696685495Y-990153141D01*
X696783141Y-990055495D01*
X696897951Y-989978782D01*
X697025527Y-989925938D01*
X697160956Y-989899000D01*
X697299044Y-989899000D01*
X697434473Y-989925938D01*
X697562049Y-989978782D01*
X697604556Y-990007184D01*
X697626167Y-990018735D01*
X697649616Y-990025848D01*
X697674002Y-990028250D01*
X697698388Y-990025848D01*
X697721837Y-990018735D01*
X697743447Y-990007183D01*
X697762389Y-989991638D01*
X697777934Y-989972696D01*
X697789485Y-989951085D01*
X697796598Y-989927636D01*
X697799000Y-989903251D01*
X697799000Y-988629000D01*
X699201000Y-988629000D01*
X699201000Y-990031000D01*
G37*
G36*
X696164473Y-988655938D02*
G01*
X696292049Y-988708782D01*
X696406859Y-988785495D01*
X696504505Y-988883141D01*
X696581218Y-988997951D01*
X696634062Y-989125527D01*
X696661000Y-989260956D01*
X696661000Y-989399044D01*
X696634062Y-989534473D01*
X696581218Y-989662049D01*
X696504505Y-989776859D01*
X696406859Y-989874505D01*
X696292049Y-989951218D01*
X696164473Y-990004062D01*
X696029044Y-990031000D01*
X695890956Y-990031000D01*
X695755527Y-990004062D01*
X695627951Y-989951218D01*
X695513141Y-989874505D01*
X695415495Y-989776859D01*
X695338782Y-989662049D01*
X695285938Y-989534473D01*
X695259000Y-989399044D01*
X695259000Y-989260956D01*
X695285938Y-989125527D01*
X695338782Y-988997951D01*
X695415495Y-988883141D01*
X695513141Y-988785495D01*
X695627951Y-988708782D01*
X695755527Y-988655938D01*
X695890956Y-988629000D01*
X696029044Y-988629000D01*
X696164473Y-988655938D01*
G37*
G36*
X655663507Y-985792461D02*
G01*
X655781455Y-985815922D01*
X655873496Y-985854047D01*
X656003661Y-985907963D01*
X656203644Y-986041587D01*
X656373715Y-986211658D01*
X656507339Y-986411641D01*
X656599380Y-986633848D01*
X656646302Y-986869741D01*
X656646302Y-987110259D01*
X656599380Y-987346152D01*
X656507339Y-987568359D01*
X656373715Y-987768342D01*
X656203644Y-987938413D01*
X656003661Y-988072037D01*
X655873496Y-988125953D01*
X655781455Y-988164078D01*
X655663507Y-988187539D01*
X655545561Y-988211000D01*
X655305043Y-988211000D01*
X655187097Y-988187539D01*
X655069149Y-988164078D01*
X654977108Y-988125953D01*
X654846943Y-988072037D01*
X654646960Y-987938413D01*
X654476889Y-987768342D01*
X654343265Y-987568359D01*
X654251224Y-987346152D01*
X654204302Y-987110259D01*
X654204302Y-986869741D01*
X654251224Y-986633848D01*
X654343265Y-986411641D01*
X654476889Y-986211658D01*
X654646960Y-986041587D01*
X654846943Y-985907963D01*
X654977108Y-985854047D01*
X655069149Y-985815922D01*
X655187097Y-985792461D01*
X655305043Y-985769000D01*
X655545561Y-985769000D01*
X655663507Y-985792461D01*
G37*
G36*
X660781455Y-983315922D02*
G01*
X660873496Y-983354047D01*
X661003661Y-983407963D01*
X661203644Y-983541587D01*
X661373715Y-983711658D01*
X661507339Y-983911641D01*
X661561255Y-984041806D01*
X661599380Y-984133847D01*
X661599935Y-984136636D01*
X661646302Y-984369741D01*
X661646302Y-984610259D01*
X661599380Y-984846152D01*
X661507339Y-985068359D01*
X661373715Y-985268342D01*
X661203644Y-985438413D01*
X661003661Y-985572037D01*
X660873496Y-985625953D01*
X660781455Y-985664078D01*
X660663507Y-985687539D01*
X660545561Y-985711000D01*
X660305043Y-985711000D01*
X660187097Y-985687539D01*
X660069149Y-985664078D01*
X659977108Y-985625953D01*
X659846943Y-985572037D01*
X659646960Y-985438413D01*
X659476889Y-985268342D01*
X659343265Y-985068359D01*
X659251224Y-984846152D01*
X659204302Y-984610259D01*
X659204302Y-984369741D01*
X659250669Y-984136636D01*
X659251224Y-984133847D01*
X659289349Y-984041806D01*
X659343265Y-983911641D01*
X659476889Y-983711658D01*
X659646960Y-983541587D01*
X659846943Y-983407963D01*
X659977108Y-983354047D01*
X660069149Y-983315922D01*
X660305043Y-983269000D01*
X660545561Y-983269000D01*
X660781455Y-983315922D01*
G37*
G36*
X704731000Y-985401000D02*
G01*
X702429000Y-985401000D01*
X702429000Y-983099000D01*
X704731000Y-983099000D01*
X704731000Y-985401000D01*
G37*
G36*
X691104549Y-983121116D02*
G01*
X691215734Y-983143232D01*
X691315298Y-983184473D01*
X691420933Y-983228228D01*
X691425203Y-983229997D01*
X691613720Y-983355960D01*
X691774040Y-983516280D01*
X691900003Y-983704797D01*
X691985681Y-983911641D01*
X691986768Y-983914267D01*
X692031000Y-984136635D01*
X692031000Y-984363365D01*
X692008884Y-984474549D01*
X691986768Y-984585734D01*
X691900003Y-984795203D01*
X691774040Y-984983720D01*
X691613720Y-985144040D01*
X691425203Y-985270003D01*
X691215734Y-985356768D01*
X691104549Y-985378884D01*
X690993365Y-985401000D01*
X690766635Y-985401000D01*
X690655451Y-985378884D01*
X690544266Y-985356768D01*
X690334797Y-985270003D01*
X690146280Y-985144040D01*
X689985960Y-984983720D01*
X689859997Y-984795203D01*
X689773232Y-984585734D01*
X689751116Y-984474549D01*
X689729000Y-984363365D01*
X689729000Y-984136635D01*
X689773232Y-983914267D01*
X689774320Y-983911641D01*
X689859997Y-983704797D01*
X689985960Y-983516280D01*
X690146280Y-983355960D01*
X690334797Y-983229997D01*
X690339068Y-983228228D01*
X690444702Y-983184473D01*
X690544266Y-983143232D01*
X690655451Y-983121116D01*
X690766635Y-983099000D01*
X690993365Y-983099000D01*
X691104549Y-983121116D01*
G37*
G36*
X679698228Y-982161703D02*
G01*
X679853100Y-982225853D01*
X679992481Y-982318985D01*
X680111015Y-982437519D01*
X680204147Y-982576900D01*
X680268297Y-982731772D01*
X680301000Y-982896184D01*
X680301000Y-983063816D01*
X680268297Y-983228228D01*
X680204147Y-983383100D01*
X680111015Y-983522481D01*
X679992481Y-983641015D01*
X679853100Y-983734147D01*
X679698228Y-983798297D01*
X679533816Y-983831000D01*
X679366184Y-983831000D01*
X679201772Y-983798297D01*
X679046900Y-983734147D01*
X678907519Y-983641015D01*
X678788985Y-983522481D01*
X678695853Y-983383100D01*
X678631703Y-983228228D01*
X678599000Y-983063816D01*
X678599000Y-982896184D01*
X678631703Y-982731772D01*
X678695853Y-982576900D01*
X678788985Y-982437519D01*
X678907519Y-982318985D01*
X679046900Y-982225853D01*
X679201772Y-982161703D01*
X679366184Y-982129000D01*
X679533816Y-982129000D01*
X679698228Y-982161703D01*
G37*
G36*
X672078228Y-982161703D02*
G01*
X672233100Y-982225853D01*
X672372481Y-982318985D01*
X672491015Y-982437519D01*
X672584147Y-982576900D01*
X672648297Y-982731772D01*
X672681000Y-982896184D01*
X672681000Y-983063816D01*
X672648297Y-983228228D01*
X672584147Y-983383100D01*
X672491015Y-983522481D01*
X672372481Y-983641015D01*
X672233100Y-983734147D01*
X672078228Y-983798297D01*
X671913816Y-983831000D01*
X671746184Y-983831000D01*
X671581772Y-983798297D01*
X671426900Y-983734147D01*
X671287519Y-983641015D01*
X671168985Y-983522481D01*
X671075853Y-983383100D01*
X671011703Y-983228228D01*
X670979000Y-983063816D01*
X670979000Y-982896184D01*
X671011703Y-982731772D01*
X671075853Y-982576900D01*
X671168985Y-982437519D01*
X671287519Y-982318985D01*
X671426900Y-982225853D01*
X671581772Y-982161703D01*
X671746184Y-982129000D01*
X671913816Y-982129000D01*
X672078228Y-982161703D01*
G37*
G36*
X697434473Y-981035938D02*
G01*
X697562049Y-981088782D01*
X697676859Y-981165495D01*
X697774505Y-981263141D01*
X697851218Y-981377951D01*
X697904062Y-981505527D01*
X697931000Y-981640956D01*
X697931000Y-981779044D01*
X697904062Y-981914473D01*
X697851218Y-982042049D01*
X697774505Y-982156859D01*
X697676859Y-982254505D01*
X697562049Y-982331218D01*
X697434473Y-982384062D01*
X697299044Y-982411000D01*
X697160956Y-982411000D01*
X697025527Y-982384062D01*
X696897951Y-982331218D01*
X696855444Y-982302816D01*
X696833833Y-982291265D01*
X696810384Y-982284152D01*
X696785998Y-982281750D01*
X696761612Y-982284152D01*
X696738163Y-982291265D01*
X696716553Y-982302817D01*
X696697611Y-982318362D01*
X696682066Y-982337304D01*
X696670515Y-982358915D01*
X696663402Y-982382364D01*
X696661000Y-982406749D01*
X696661000Y-983681000D01*
X695259000Y-983681000D01*
X695259000Y-982279000D01*
X696533251Y-982279000D01*
X696557637Y-982276598D01*
X696581086Y-982269485D01*
X696602697Y-982257934D01*
X696621639Y-982242389D01*
X696637184Y-982223447D01*
X696648735Y-982201836D01*
X696655848Y-982178387D01*
X696658250Y-982154001D01*
X696655848Y-982129615D01*
X696648735Y-982106166D01*
X696637184Y-982084556D01*
X696608782Y-982042049D01*
X696555938Y-981914473D01*
X696529000Y-981779044D01*
X696529000Y-981640956D01*
X696555938Y-981505527D01*
X696608782Y-981377951D01*
X696685495Y-981263141D01*
X696783141Y-981165495D01*
X696897951Y-981088782D01*
X697025527Y-981035938D01*
X697160956Y-981009000D01*
X697299044Y-981009000D01*
X697434473Y-981035938D01*
G37*
G36*
X698704473Y-982305938D02*
G01*
X698832049Y-982358782D01*
X698946859Y-982435495D01*
X699044505Y-982533141D01*
X699121218Y-982647951D01*
X699174062Y-982775527D01*
X699201000Y-982910956D01*
X699201000Y-983049044D01*
X699174062Y-983184473D01*
X699121218Y-983312049D01*
X699044505Y-983426859D01*
X698946859Y-983524505D01*
X698832049Y-983601218D01*
X698704473Y-983654062D01*
X698569044Y-983681000D01*
X698430956Y-983681000D01*
X698295527Y-983654062D01*
X698167951Y-983601218D01*
X698053141Y-983524505D01*
X697955495Y-983426859D01*
X697878782Y-983312049D01*
X697825938Y-983184473D01*
X697799000Y-983049044D01*
X697799000Y-982910956D01*
X697825938Y-982775527D01*
X697878782Y-982647951D01*
X697955495Y-982533141D01*
X698053141Y-982435495D01*
X698167951Y-982358782D01*
X698295527Y-982305938D01*
X698430956Y-982279000D01*
X698569044Y-982279000D01*
X698704473Y-982305938D01*
G37*
G36*
X655781455Y-980815922D02*
G01*
X655873496Y-980854047D01*
X656003661Y-980907963D01*
X656203644Y-981041587D01*
X656373715Y-981211658D01*
X656507339Y-981411641D01*
X656528103Y-981461771D01*
X656596206Y-981626184D01*
X656599380Y-981633848D01*
X656646302Y-981869741D01*
X656646302Y-982110259D01*
X656628086Y-982201836D01*
X656599380Y-982346153D01*
X656584381Y-982382364D01*
X656507339Y-982568359D01*
X656373715Y-982768342D01*
X656203644Y-982938413D01*
X656003661Y-983072037D01*
X655938566Y-983099000D01*
X655781455Y-983164078D01*
X655678921Y-983184473D01*
X655545561Y-983211000D01*
X655305043Y-983211000D01*
X655171683Y-983184473D01*
X655069149Y-983164078D01*
X654912038Y-983099000D01*
X654846943Y-983072037D01*
X654646960Y-982938413D01*
X654476889Y-982768342D01*
X654343265Y-982568359D01*
X654266223Y-982382364D01*
X654251224Y-982346153D01*
X654222518Y-982201836D01*
X654204302Y-982110259D01*
X654204302Y-981869741D01*
X654251224Y-981633848D01*
X654254399Y-981626184D01*
X654322501Y-981461771D01*
X654343265Y-981411641D01*
X654476889Y-981211658D01*
X654646960Y-981041587D01*
X654846943Y-980907963D01*
X654977108Y-980854047D01*
X655069149Y-980815922D01*
X655305043Y-980769000D01*
X655545561Y-980769000D01*
X655781455Y-980815922D01*
G37*
G36*
X683508228Y-980891703D02*
G01*
X683663100Y-980955853D01*
X683802481Y-981048985D01*
X683921015Y-981167519D01*
X684014147Y-981306900D01*
X684078297Y-981461772D01*
X684111000Y-981626184D01*
X684111000Y-981793816D01*
X684078297Y-981958228D01*
X684014147Y-982113100D01*
X683921015Y-982252481D01*
X683802481Y-982371015D01*
X683663100Y-982464147D01*
X683508228Y-982528297D01*
X683343816Y-982561000D01*
X683176184Y-982561000D01*
X683011772Y-982528297D01*
X682856900Y-982464147D01*
X682717519Y-982371015D01*
X682598985Y-982252481D01*
X682505853Y-982113100D01*
X682441703Y-981958228D01*
X682409000Y-981793816D01*
X682409000Y-981626184D01*
X682441703Y-981461772D01*
X682505853Y-981306900D01*
X682598985Y-981167519D01*
X682717519Y-981048985D01*
X682856900Y-980955853D01*
X683011772Y-980891703D01*
X683176184Y-980859000D01*
X683343816Y-980859000D01*
X683508228Y-980891703D01*
G37*
G36*
X691084473Y-977225938D02*
G01*
X691212049Y-977278782D01*
X691326859Y-977355495D01*
X691424505Y-977453141D01*
X691501218Y-977567951D01*
X691554062Y-977695527D01*
X691581000Y-977830956D01*
X691581000Y-977969044D01*
X691554062Y-978104473D01*
X691501218Y-978232049D01*
X691424505Y-978346859D01*
X691326859Y-978444505D01*
X691212049Y-978521218D01*
X691084473Y-978574062D01*
X690949044Y-978601000D01*
X690810956Y-978601000D01*
X690675527Y-978574062D01*
X690547951Y-978521218D01*
X690505444Y-978492816D01*
X690483833Y-978481265D01*
X690460384Y-978474152D01*
X690435998Y-978471750D01*
X690411612Y-978474152D01*
X690388163Y-978481265D01*
X690366553Y-978492817D01*
X690347611Y-978508362D01*
X690332066Y-978527304D01*
X690320515Y-978548915D01*
X690313402Y-978572364D01*
X690311000Y-978596749D01*
X690311000Y-979871000D01*
X688909000Y-979871000D01*
X688909000Y-978469000D01*
X690183251Y-978469000D01*
X690207637Y-978466598D01*
X690231086Y-978459485D01*
X690252697Y-978447934D01*
X690271639Y-978432389D01*
X690287184Y-978413447D01*
X690298735Y-978391836D01*
X690305848Y-978368387D01*
X690308250Y-978344001D01*
X690305848Y-978319615D01*
X690298735Y-978296166D01*
X690287184Y-978274556D01*
X690258782Y-978232049D01*
X690205938Y-978104473D01*
X690179000Y-977969044D01*
X690179000Y-977830956D01*
X690205938Y-977695527D01*
X690258782Y-977567951D01*
X690335495Y-977453141D01*
X690433141Y-977355495D01*
X690547951Y-977278782D01*
X690675527Y-977225938D01*
X690810956Y-977199000D01*
X690949044Y-977199000D01*
X691084473Y-977225938D01*
G37*
G36*
X692354473Y-978495938D02*
G01*
X692482049Y-978548782D01*
X692596859Y-978625495D01*
X692694505Y-978723141D01*
X692771218Y-978837951D01*
X692824062Y-978965527D01*
X692851000Y-979100956D01*
X692851000Y-979239044D01*
X692824062Y-979374473D01*
X692771218Y-979502049D01*
X692694505Y-979616859D01*
X692596859Y-979714505D01*
X692482049Y-979791218D01*
X692354473Y-979844062D01*
X692219044Y-979871000D01*
X692080956Y-979871000D01*
X691945527Y-979844062D01*
X691817951Y-979791218D01*
X691703141Y-979714505D01*
X691605495Y-979616859D01*
X691528782Y-979502049D01*
X691475938Y-979374473D01*
X691449000Y-979239044D01*
X691449000Y-979100956D01*
X691475938Y-978965527D01*
X691528782Y-978837951D01*
X691605495Y-978723141D01*
X691703141Y-978625495D01*
X691817951Y-978548782D01*
X691945527Y-978495938D01*
X692080956Y-978469000D01*
X692219044Y-978469000D01*
X692354473Y-978495938D01*
G37*
G36*
X676491000Y-977481000D02*
G01*
X674789000Y-977481000D01*
X674789000Y-975779000D01*
X676491000Y-975779000D01*
X676491000Y-977481000D01*
G37*
G36*
X665768228Y-975811703D02*
G01*
X665923100Y-975875853D01*
X666062481Y-975968985D01*
X666181015Y-976087519D01*
X666274147Y-976226900D01*
X666338297Y-976381772D01*
X666371000Y-976546184D01*
X666371000Y-976713816D01*
X666338297Y-976878228D01*
X666274147Y-977033100D01*
X666181015Y-977172481D01*
X666062481Y-977291015D01*
X665923100Y-977384147D01*
X665768228Y-977448297D01*
X665603816Y-977481000D01*
X665436184Y-977481000D01*
X665271772Y-977448297D01*
X665116900Y-977384147D01*
X664977519Y-977291015D01*
X664858985Y-977172481D01*
X664765853Y-977033100D01*
X664701703Y-976878228D01*
X664669000Y-976713816D01*
X664669000Y-976546184D01*
X664701703Y-976381772D01*
X664765853Y-976226900D01*
X664858985Y-976087519D01*
X664977519Y-975968985D01*
X665116900Y-975875853D01*
X665271772Y-975811703D01*
X665436184Y-975779000D01*
X665603816Y-975779000D01*
X665768228Y-975811703D01*
G37*
G36*
X673388228Y-975811703D02*
G01*
X673543100Y-975875853D01*
X673682481Y-975968985D01*
X673801015Y-976087519D01*
X673894147Y-976226900D01*
X673958297Y-976381772D01*
X673991000Y-976546184D01*
X673991000Y-976713816D01*
X673958297Y-976878228D01*
X673894147Y-977033100D01*
X673801015Y-977172481D01*
X673682481Y-977291015D01*
X673543100Y-977384147D01*
X673388228Y-977448297D01*
X673223816Y-977481000D01*
X673056184Y-977481000D01*
X672891772Y-977448297D01*
X672736900Y-977384147D01*
X672597519Y-977291015D01*
X672478985Y-977172481D01*
X672385853Y-977033100D01*
X672321703Y-976878228D01*
X672289000Y-976713816D01*
X672289000Y-976546184D01*
X672321703Y-976381772D01*
X672385853Y-976226900D01*
X672478985Y-976087519D01*
X672597519Y-975968985D01*
X672736900Y-975875853D01*
X672891772Y-975811703D01*
X673056184Y-975779000D01*
X673223816Y-975779000D01*
X673388228Y-975811703D01*
G37*
G36*
X668871000Y-977481000D02*
G01*
X667169000Y-977481000D01*
X667169000Y-975779000D01*
X668871000Y-975779000D01*
X668871000Y-977481000D01*
G37*
G36*
X655781455Y-974415922D02*
G01*
X655873496Y-974454047D01*
X656003661Y-974507963D01*
X656203644Y-974641587D01*
X656373715Y-974811658D01*
X656507339Y-975011641D01*
X656599380Y-975233848D01*
X656646302Y-975469741D01*
X656646302Y-975710259D01*
X656626124Y-975811703D01*
X656599380Y-975946153D01*
X656561255Y-976038194D01*
X656507339Y-976168359D01*
X656373715Y-976368342D01*
X656203644Y-976538413D01*
X656003661Y-976672037D01*
X655902797Y-976713816D01*
X655781455Y-976764078D01*
X655545561Y-976811000D01*
X655305043Y-976811000D01*
X655069149Y-976764078D01*
X654947807Y-976713816D01*
X654846943Y-976672037D01*
X654646960Y-976538413D01*
X654476889Y-976368342D01*
X654343265Y-976168359D01*
X654289349Y-976038194D01*
X654251224Y-975946153D01*
X654224480Y-975811703D01*
X654204302Y-975710259D01*
X654204302Y-975469741D01*
X654251224Y-975233848D01*
X654343265Y-975011641D01*
X654476889Y-974811658D01*
X654646960Y-974641587D01*
X654846943Y-974507963D01*
X654977108Y-974454047D01*
X655069149Y-974415922D01*
X655305043Y-974369000D01*
X655545561Y-974369000D01*
X655781455Y-974415922D01*
G37*
G36*
X687318228Y-973271703D02*
G01*
X687473100Y-973335853D01*
X687612481Y-973428985D01*
X687731015Y-973547519D01*
X687824147Y-973686900D01*
X687888297Y-973841772D01*
X687921000Y-974006184D01*
X687921000Y-974173816D01*
X687888297Y-974338228D01*
X687824147Y-974493100D01*
X687731015Y-974632481D01*
X687612481Y-974751015D01*
X687473100Y-974844147D01*
X687318228Y-974908297D01*
X687153816Y-974941000D01*
X686986184Y-974941000D01*
X686821772Y-974908297D01*
X686666900Y-974844147D01*
X686527519Y-974751015D01*
X686408985Y-974632481D01*
X686315853Y-974493100D01*
X686251703Y-974338228D01*
X686219000Y-974173816D01*
X686219000Y-974006184D01*
X686251703Y-973841772D01*
X686315853Y-973686900D01*
X686408985Y-973547519D01*
X686527519Y-973428985D01*
X686666900Y-973335853D01*
X686821772Y-973271703D01*
X686986184Y-973239000D01*
X687153816Y-973239000D01*
X687318228Y-973271703D01*
G37*
G36*
X694938228Y-973271703D02*
G01*
X695093100Y-973335853D01*
X695232481Y-973428985D01*
X695351015Y-973547519D01*
X695444147Y-973686900D01*
X695508297Y-973841772D01*
X695541000Y-974006184D01*
X695541000Y-974173816D01*
X695508297Y-974338228D01*
X695444147Y-974493100D01*
X695351015Y-974632481D01*
X695232481Y-974751015D01*
X695093100Y-974844147D01*
X694938228Y-974908297D01*
X694773816Y-974941000D01*
X694606184Y-974941000D01*
X694441772Y-974908297D01*
X694286900Y-974844147D01*
X694147519Y-974751015D01*
X694028985Y-974632481D01*
X693935853Y-974493100D01*
X693871703Y-974338228D01*
X693839000Y-974173816D01*
X693839000Y-974006184D01*
X693871703Y-973841772D01*
X693935853Y-973686900D01*
X694028985Y-973547519D01*
X694147519Y-973428985D01*
X694286900Y-973335853D01*
X694441772Y-973271703D01*
X694606184Y-973239000D01*
X694773816Y-973239000D01*
X694938228Y-973271703D01*
G37*
G36*
X683508228Y-973271703D02*
G01*
X683663100Y-973335853D01*
X683802481Y-973428985D01*
X683921015Y-973547519D01*
X684014147Y-973686900D01*
X684078297Y-973841772D01*
X684111000Y-974006184D01*
X684111000Y-974173816D01*
X684078297Y-974338228D01*
X684014147Y-974493100D01*
X683921015Y-974632481D01*
X683802481Y-974751015D01*
X683663100Y-974844147D01*
X683508228Y-974908297D01*
X683343816Y-974941000D01*
X683176184Y-974941000D01*
X683011772Y-974908297D01*
X682856900Y-974844147D01*
X682717519Y-974751015D01*
X682598985Y-974632481D01*
X682505853Y-974493100D01*
X682441703Y-974338228D01*
X682409000Y-974173816D01*
X682409000Y-974006184D01*
X682441703Y-973841772D01*
X682505853Y-973686900D01*
X682598985Y-973547519D01*
X682717519Y-973428985D01*
X682856900Y-973335853D01*
X683011772Y-973271703D01*
X683176184Y-973239000D01*
X683343816Y-973239000D01*
X683508228Y-973271703D01*
G37*
G36*
X660663507Y-971892461D02*
G01*
X660781455Y-971915922D01*
X660873496Y-971954047D01*
X661003661Y-972007963D01*
X661203644Y-972141587D01*
X661373715Y-972311658D01*
X661507339Y-972511641D01*
X661599380Y-972733848D01*
X661633189Y-972903815D01*
X661646302Y-972969742D01*
X661646302Y-973210258D01*
X661599380Y-973446153D01*
X661561255Y-973538194D01*
X661507339Y-973668359D01*
X661373715Y-973868342D01*
X661203644Y-974038413D01*
X661003661Y-974172037D01*
X660873496Y-974225953D01*
X660781455Y-974264078D01*
X660545561Y-974311000D01*
X660305043Y-974311000D01*
X660069149Y-974264078D01*
X659977108Y-974225953D01*
X659846943Y-974172037D01*
X659646960Y-974038413D01*
X659476889Y-973868342D01*
X659343265Y-973668359D01*
X659289349Y-973538194D01*
X659251224Y-973446153D01*
X659204302Y-973210258D01*
X659204302Y-972969742D01*
X659217416Y-972903815D01*
X659251224Y-972733848D01*
X659343265Y-972511641D01*
X659476889Y-972311658D01*
X659646960Y-972141587D01*
X659846943Y-972007963D01*
X659977108Y-971954047D01*
X660069149Y-971915922D01*
X660187097Y-971892461D01*
X660305043Y-971869000D01*
X660545561Y-971869000D01*
X660663507Y-971892461D01*
G37*
G36*
X706368228Y-972001703D02*
G01*
X706523100Y-972065853D01*
X706662481Y-972158985D01*
X706781015Y-972277519D01*
X706874147Y-972416900D01*
X706938297Y-972571772D01*
X706971000Y-972736184D01*
X706971000Y-972903816D01*
X706938297Y-973068228D01*
X706874147Y-973223100D01*
X706781015Y-973362481D01*
X706662481Y-973481015D01*
X706523100Y-973574147D01*
X706368228Y-973638297D01*
X706203816Y-973671000D01*
X706036184Y-973671000D01*
X705871772Y-973638297D01*
X705716900Y-973574147D01*
X705577519Y-973481015D01*
X705458985Y-973362481D01*
X705365853Y-973223100D01*
X705301703Y-973068228D01*
X705269000Y-972903816D01*
X705269000Y-972736184D01*
X705301703Y-972571772D01*
X705365853Y-972416900D01*
X705458985Y-972277519D01*
X705577519Y-972158985D01*
X705716900Y-972065853D01*
X705871772Y-972001703D01*
X706036184Y-971969000D01*
X706203816Y-971969000D01*
X706368228Y-972001703D01*
G37*
G36*
X698748228Y-972001703D02*
G01*
X698903100Y-972065853D01*
X699042481Y-972158985D01*
X699161015Y-972277519D01*
X699254147Y-972416900D01*
X699318297Y-972571772D01*
X699351000Y-972736184D01*
X699351000Y-972903816D01*
X699318297Y-973068228D01*
X699254147Y-973223100D01*
X699161015Y-973362481D01*
X699042481Y-973481015D01*
X698903100Y-973574147D01*
X698748228Y-973638297D01*
X698583816Y-973671000D01*
X698416184Y-973671000D01*
X698251772Y-973638297D01*
X698096900Y-973574147D01*
X697957519Y-973481015D01*
X697838985Y-973362481D01*
X697745853Y-973223100D01*
X697681703Y-973068228D01*
X697649000Y-972903816D01*
X697649000Y-972736184D01*
X697681703Y-972571772D01*
X697745853Y-972416900D01*
X697838985Y-972277519D01*
X697957519Y-972158985D01*
X698096900Y-972065853D01*
X698251772Y-972001703D01*
X698416184Y-971969000D01*
X698583816Y-971969000D01*
X698748228Y-972001703D01*
G37*
G36*
X655663507Y-969392461D02*
G01*
X655781455Y-969415922D01*
X655873496Y-969454047D01*
X656003661Y-969507963D01*
X656203644Y-969641587D01*
X656373715Y-969811658D01*
X656507339Y-970011641D01*
X656599380Y-970233848D01*
X656646302Y-970469741D01*
X656646302Y-970710259D01*
X656599380Y-970946152D01*
X656507339Y-971168359D01*
X656373715Y-971368342D01*
X656203644Y-971538413D01*
X656003661Y-971672037D01*
X655873496Y-971725953D01*
X655781455Y-971764078D01*
X655545561Y-971811000D01*
X655305043Y-971811000D01*
X655069149Y-971764078D01*
X654977108Y-971725953D01*
X654846943Y-971672037D01*
X654646960Y-971538413D01*
X654476889Y-971368342D01*
X654343265Y-971168359D01*
X654251224Y-970946152D01*
X654204302Y-970710259D01*
X654204302Y-970469741D01*
X654251224Y-970233848D01*
X654343265Y-970011641D01*
X654476889Y-969811658D01*
X654646960Y-969641587D01*
X654846943Y-969507963D01*
X654977108Y-969454047D01*
X655069149Y-969415922D01*
X655187097Y-969392461D01*
X655305043Y-969369000D01*
X655545561Y-969369000D01*
X655663507Y-969392461D01*
G37*
G36*
X694938228Y-969461703D02*
G01*
X695093100Y-969525853D01*
X695232481Y-969618985D01*
X695351015Y-969737519D01*
X695444147Y-969876900D01*
X695508297Y-970031772D01*
X695541000Y-970196184D01*
X695541000Y-970363816D01*
X695508297Y-970528228D01*
X695444147Y-970683100D01*
X695351015Y-970822481D01*
X695232481Y-970941015D01*
X695093100Y-971034147D01*
X694938228Y-971098297D01*
X694773816Y-971131000D01*
X694606184Y-971131000D01*
X694441772Y-971098297D01*
X694286900Y-971034147D01*
X694147519Y-970941015D01*
X694028985Y-970822481D01*
X693935853Y-970683100D01*
X693871703Y-970528228D01*
X693839000Y-970363816D01*
X693839000Y-970196184D01*
X693871703Y-970031772D01*
X693935853Y-969876900D01*
X694028985Y-969737519D01*
X694147519Y-969618985D01*
X694286900Y-969525853D01*
X694441772Y-969461703D01*
X694606184Y-969429000D01*
X694773816Y-969429000D01*
X694938228Y-969461703D01*
G37*
G36*
X687318228Y-969461703D02*
G01*
X687473100Y-969525853D01*
X687612481Y-969618985D01*
X687731015Y-969737519D01*
X687824147Y-969876900D01*
X687888297Y-970031772D01*
X687921000Y-970196184D01*
X687921000Y-970363816D01*
X687888297Y-970528228D01*
X687824147Y-970683100D01*
X687731015Y-970822481D01*
X687612481Y-970941015D01*
X687473100Y-971034147D01*
X687318228Y-971098297D01*
X687153816Y-971131000D01*
X686986184Y-971131000D01*
X686821772Y-971098297D01*
X686666900Y-971034147D01*
X686527519Y-970941015D01*
X686408985Y-970822481D01*
X686315853Y-970683100D01*
X686251703Y-970528228D01*
X686219000Y-970363816D01*
X686219000Y-970196184D01*
X686251703Y-970031772D01*
X686315853Y-969876900D01*
X686408985Y-969737519D01*
X686527519Y-969618985D01*
X686666900Y-969525853D01*
X686821772Y-969461703D01*
X686986184Y-969429000D01*
X687153816Y-969429000D01*
X687318228Y-969461703D01*
G37*
G36*
X672078228Y-968191703D02*
G01*
X672233100Y-968255853D01*
X672372481Y-968348985D01*
X672491015Y-968467519D01*
X672584147Y-968606900D01*
X672648297Y-968761772D01*
X672681000Y-968926184D01*
X672681000Y-969093816D01*
X672648297Y-969258228D01*
X672584147Y-969413100D01*
X672491015Y-969552481D01*
X672372481Y-969671015D01*
X672233100Y-969764147D01*
X672078228Y-969828297D01*
X671913816Y-969861000D01*
X671746184Y-969861000D01*
X671581772Y-969828297D01*
X671426900Y-969764147D01*
X671287519Y-969671015D01*
X671168985Y-969552481D01*
X671075853Y-969413100D01*
X671011703Y-969258228D01*
X670979000Y-969093816D01*
X670979000Y-968926184D01*
X671011703Y-968761772D01*
X671075853Y-968606900D01*
X671168985Y-968467519D01*
X671287519Y-968348985D01*
X671426900Y-968255853D01*
X671581772Y-968191703D01*
X671746184Y-968159000D01*
X671913816Y-968159000D01*
X672078228Y-968191703D01*
G37*
G36*
X664458228Y-968191703D02*
G01*
X664613100Y-968255853D01*
X664752481Y-968348985D01*
X664871015Y-968467519D01*
X664964147Y-968606900D01*
X665028297Y-968761772D01*
X665061000Y-968926184D01*
X665061000Y-969093816D01*
X665028297Y-969258228D01*
X664964147Y-969413100D01*
X664871015Y-969552481D01*
X664752481Y-969671015D01*
X664613100Y-969764147D01*
X664458228Y-969828297D01*
X664293816Y-969861000D01*
X664126184Y-969861000D01*
X663961772Y-969828297D01*
X663806900Y-969764147D01*
X663667519Y-969671015D01*
X663548985Y-969552481D01*
X663455853Y-969413100D01*
X663391703Y-969258228D01*
X663359000Y-969093816D01*
X663359000Y-968926184D01*
X663391703Y-968761772D01*
X663455853Y-968606900D01*
X663548985Y-968467519D01*
X663667519Y-968348985D01*
X663806900Y-968255853D01*
X663961772Y-968191703D01*
X664126184Y-968159000D01*
X664293816Y-968159000D01*
X664458228Y-968191703D01*
G37*
G36*
X705229393Y-966489304D02*
G01*
X705466101Y-966587352D01*
X705466103Y-966587353D01*
X705679135Y-966729696D01*
X705860304Y-966910865D01*
X705928201Y-967012481D01*
X706002648Y-967123899D01*
X706100696Y-967360607D01*
X706150680Y-967611893D01*
X706150680Y-967868107D01*
X706100696Y-968119393D01*
X706002648Y-968356101D01*
X706002647Y-968356103D01*
X705860304Y-968569135D01*
X705679135Y-968750304D01*
X705466103Y-968892647D01*
X705466102Y-968892648D01*
X705466101Y-968892648D01*
X705229393Y-968990696D01*
X704978107Y-969040680D01*
X704721893Y-969040680D01*
X704470607Y-968990696D01*
X704233899Y-968892648D01*
X704233898Y-968892648D01*
X704233897Y-968892647D01*
X704020865Y-968750304D01*
X703839696Y-968569135D01*
X703697353Y-968356103D01*
X703697352Y-968356101D01*
X703599304Y-968119393D01*
X703549320Y-967868107D01*
X703549320Y-967611893D01*
X703599304Y-967360607D01*
X703697352Y-967123899D01*
X703771799Y-967012481D01*
X703839696Y-966910865D01*
X704020865Y-966729696D01*
X704233897Y-966587353D01*
X704233899Y-966587352D01*
X704470607Y-966489304D01*
X704721893Y-966439320D01*
X704978107Y-966439320D01*
X705229393Y-966489304D01*
G37*
G36*
X675221000Y-967321000D02*
G01*
X673519000Y-967321000D01*
X673519000Y-965619000D01*
X675221000Y-965619000D01*
X675221000Y-967321000D01*
G37*
G36*
X679618228Y-965651703D02*
G01*
X679773100Y-965715853D01*
X679912481Y-965808985D01*
X680031015Y-965927519D01*
X680124147Y-966066900D01*
X680188297Y-966221772D01*
X680221000Y-966386184D01*
X680221000Y-966553816D01*
X680188297Y-966718228D01*
X680124147Y-966873100D01*
X680031015Y-967012481D01*
X679912481Y-967131015D01*
X679773100Y-967224147D01*
X679618228Y-967288297D01*
X679453816Y-967321000D01*
X679286184Y-967321000D01*
X679121772Y-967288297D01*
X678966900Y-967224147D01*
X678827519Y-967131015D01*
X678708985Y-967012481D01*
X678615853Y-966873100D01*
X678551703Y-966718228D01*
X678519000Y-966553816D01*
X678519000Y-966386184D01*
X678551703Y-966221772D01*
X678615853Y-966066900D01*
X678708985Y-965927519D01*
X678827519Y-965808985D01*
X678966900Y-965715853D01*
X679121772Y-965651703D01*
X679286184Y-965619000D01*
X679453816Y-965619000D01*
X679618228Y-965651703D01*
G37*
G36*
X687318228Y-965611703D02*
G01*
X687473100Y-965675853D01*
X687612481Y-965768985D01*
X687731015Y-965887519D01*
X687824147Y-966026900D01*
X687888297Y-966181772D01*
X687921000Y-966346184D01*
X687921000Y-966513816D01*
X687888297Y-966678228D01*
X687824147Y-966833100D01*
X687731015Y-966972481D01*
X687612481Y-967091015D01*
X687473100Y-967184147D01*
X687318228Y-967248297D01*
X687153816Y-967281000D01*
X686986184Y-967281000D01*
X686821772Y-967248297D01*
X686666900Y-967184147D01*
X686527519Y-967091015D01*
X686408985Y-966972481D01*
X686315853Y-966833100D01*
X686251703Y-966678228D01*
X686219000Y-966513816D01*
X686219000Y-966346184D01*
X686251703Y-966181772D01*
X686315853Y-966026900D01*
X686408985Y-965887519D01*
X686527519Y-965768985D01*
X686666900Y-965675853D01*
X686821772Y-965611703D01*
X686986184Y-965579000D01*
X687153816Y-965579000D01*
X687318228Y-965611703D01*
G37*
G36*
X698081000Y-966051000D02*
G01*
X696379000Y-966051000D01*
X696379000Y-964349000D01*
X698081000Y-964349000D01*
X698081000Y-966051000D01*
G37*
G36*
X699978228Y-964381703D02*
G01*
X700133100Y-964445853D01*
X700272481Y-964538985D01*
X700391015Y-964657519D01*
X700484147Y-964796900D01*
X700548297Y-964951772D01*
X700581000Y-965116184D01*
X700581000Y-965283816D01*
X700548297Y-965448228D01*
X700484147Y-965603100D01*
X700391015Y-965742481D01*
X700272481Y-965861015D01*
X700133100Y-965954147D01*
X699978228Y-966018297D01*
X699813816Y-966051000D01*
X699646184Y-966051000D01*
X699481772Y-966018297D01*
X699326900Y-965954147D01*
X699187519Y-965861015D01*
X699068985Y-965742481D01*
X698975853Y-965603100D01*
X698911703Y-965448228D01*
X698879000Y-965283816D01*
X698879000Y-965116184D01*
X698911703Y-964951772D01*
X698975853Y-964796900D01*
X699068985Y-964657519D01*
X699187519Y-964538985D01*
X699326900Y-964445853D01*
X699481772Y-964381703D01*
X699646184Y-964349000D01*
X699813816Y-964349000D01*
X699978228Y-964381703D01*
G37*
G36*
X659509393Y-962679304D02*
G01*
X659746101Y-962777352D01*
X659746103Y-962777353D01*
X659959135Y-962919696D01*
X660140304Y-963100865D01*
X660257394Y-963276103D01*
X660282648Y-963313899D01*
X660380696Y-963550607D01*
X660430680Y-963801893D01*
X660430680Y-964058107D01*
X660380696Y-964309393D01*
X660282648Y-964546101D01*
X660282647Y-964546103D01*
X660140304Y-964759135D01*
X659959135Y-964940304D01*
X659746103Y-965082647D01*
X659746102Y-965082648D01*
X659746101Y-965082648D01*
X659509393Y-965180696D01*
X659258107Y-965230680D01*
X659001893Y-965230680D01*
X658750607Y-965180696D01*
X658513899Y-965082648D01*
X658513898Y-965082648D01*
X658513897Y-965082647D01*
X658300865Y-964940304D01*
X658119696Y-964759135D01*
X657977353Y-964546103D01*
X657977352Y-964546101D01*
X657879304Y-964309393D01*
X657829320Y-964058107D01*
X657829320Y-963801893D01*
X657879304Y-963550607D01*
X657977352Y-963313899D01*
X658002606Y-963276103D01*
X658119696Y-963100865D01*
X658300865Y-962919696D01*
X658513897Y-962777353D01*
X658513899Y-962777352D01*
X658750607Y-962679304D01*
X659001893Y-962629320D01*
X659258107Y-962629320D01*
X659509393Y-962679304D01*
G37*
G36*
X655699393Y-962679304D02*
G01*
X655936101Y-962777352D01*
X655936103Y-962777353D01*
X656149135Y-962919696D01*
X656330304Y-963100865D01*
X656447394Y-963276103D01*
X656472648Y-963313899D01*
X656570696Y-963550607D01*
X656620680Y-963801893D01*
X656620680Y-964058107D01*
X656570696Y-964309393D01*
X656472648Y-964546101D01*
X656472647Y-964546103D01*
X656330304Y-964759135D01*
X656149135Y-964940304D01*
X655936103Y-965082647D01*
X655936102Y-965082648D01*
X655936101Y-965082648D01*
X655699393Y-965180696D01*
X655448107Y-965230680D01*
X655191893Y-965230680D01*
X654940607Y-965180696D01*
X654703899Y-965082648D01*
X654703898Y-965082648D01*
X654703897Y-965082647D01*
X654490865Y-964940304D01*
X654309696Y-964759135D01*
X654167353Y-964546103D01*
X654167352Y-964546101D01*
X654069304Y-964309393D01*
X654019320Y-964058107D01*
X654019320Y-963801893D01*
X654069304Y-963550607D01*
X654167352Y-963313899D01*
X654192606Y-963276103D01*
X654309696Y-963100865D01*
X654490865Y-962919696D01*
X654703897Y-962777353D01*
X654703899Y-962777352D01*
X654940607Y-962679304D01*
X655191893Y-962629320D01*
X655448107Y-962629320D01*
X655699393Y-962679304D01*
G37*
G36*
X687921000Y-964781000D02*
G01*
X686219000Y-964781000D01*
X686219000Y-963079000D01*
X687921000Y-963079000D01*
X687921000Y-964781000D01*
G37*
G36*
X672078228Y-963111703D02*
G01*
X672233100Y-963175853D01*
X672372481Y-963268985D01*
X672491015Y-963387519D01*
X672584147Y-963526900D01*
X672648297Y-963681772D01*
X672681000Y-963846184D01*
X672681000Y-964013816D01*
X672648297Y-964178228D01*
X672584147Y-964333100D01*
X672491015Y-964472481D01*
X672372481Y-964591015D01*
X672233100Y-964684147D01*
X672078228Y-964748297D01*
X671913816Y-964781000D01*
X671746184Y-964781000D01*
X671581772Y-964748297D01*
X671426900Y-964684147D01*
X671287519Y-964591015D01*
X671168985Y-964472481D01*
X671075853Y-964333100D01*
X671011703Y-964178228D01*
X670979000Y-964013816D01*
X670979000Y-963846184D01*
X671011703Y-963681772D01*
X671075853Y-963526900D01*
X671168985Y-963387519D01*
X671287519Y-963268985D01*
X671426900Y-963175853D01*
X671581772Y-963111703D01*
X671746184Y-963079000D01*
X671913816Y-963079000D01*
X672078228Y-963111703D01*
G37*
G36*
X664458228Y-963111703D02*
G01*
X664613100Y-963175853D01*
X664752481Y-963268985D01*
X664871015Y-963387519D01*
X664964147Y-963526900D01*
X665028297Y-963681772D01*
X665061000Y-963846184D01*
X665061000Y-964013816D01*
X665028297Y-964178228D01*
X664964147Y-964333100D01*
X664871015Y-964472481D01*
X664752481Y-964591015D01*
X664613100Y-964684147D01*
X664458228Y-964748297D01*
X664293816Y-964781000D01*
X664126184Y-964781000D01*
X663961772Y-964748297D01*
X663806900Y-964684147D01*
X663667519Y-964591015D01*
X663548985Y-964472481D01*
X663455853Y-964333100D01*
X663391703Y-964178228D01*
X663359000Y-964013816D01*
X663359000Y-963846184D01*
X663391703Y-963681772D01*
X663455853Y-963526900D01*
X663548985Y-963387519D01*
X663667519Y-963268985D01*
X663806900Y-963175853D01*
X663961772Y-963111703D01*
X664126184Y-963079000D01*
X664293816Y-963079000D01*
X664458228Y-963111703D01*
G37*
G36*
X705229393Y-961409304D02*
G01*
X705466101Y-961507352D01*
X705466103Y-961507353D01*
X705679135Y-961649696D01*
X705860304Y-961830865D01*
X706002647Y-962043897D01*
X706002648Y-962043899D01*
X706100696Y-962280607D01*
X706150680Y-962531893D01*
X706150680Y-962788107D01*
X706100696Y-963039393D01*
X706002648Y-963276101D01*
X706002647Y-963276103D01*
X705860304Y-963489135D01*
X705679135Y-963670304D01*
X705466103Y-963812647D01*
X705466102Y-963812648D01*
X705466101Y-963812648D01*
X705229393Y-963910696D01*
X704978107Y-963960680D01*
X704721893Y-963960680D01*
X704470607Y-963910696D01*
X704233899Y-963812648D01*
X704233898Y-963812648D01*
X704233897Y-963812647D01*
X704020865Y-963670304D01*
X703839696Y-963489135D01*
X703697353Y-963276103D01*
X703697352Y-963276101D01*
X703599304Y-963039393D01*
X703549320Y-962788107D01*
X703549320Y-962531893D01*
X703599304Y-962280607D01*
X703697352Y-962043899D01*
X703697353Y-962043897D01*
X703839696Y-961830865D01*
X704020865Y-961649696D01*
X704233897Y-961507353D01*
X704233899Y-961507352D01*
X704470607Y-961409304D01*
X704721893Y-961359320D01*
X704978107Y-961359320D01*
X705229393Y-961409304D01*
G37*
M02*
