<?xml version="1.0" standalone="no"?>
 <!DOCTYPE svg PUBLIC "-//W3C//DTD SVG 1.1//EN" 
 "http://www.w3.org/Graphics/SVG/1.1/DTD/svg11.dtd"> 
<svg
  xmlns:svg="http://www.w3.org/2000/svg"
  xmlns="http://www.w3.org/2000/svg"
  xmlns:xlink="http://www.w3.org/1999/xlink"
  version="1.1"
  width="29.700220cm" height="21.000720cm" viewBox="0 0 116930 82680">
<title>SVG Picture created as 7segment-F_SilkS.svg date 2020/12/16 14:41:22 </title>
  <desc>Picture generated by PCBNEW </desc>
<g style="fill:#000000; fill-opacity:1;stroke:#000000; stroke-opacity:1;
stroke-linecap:round; stroke-linejoin:round;"
 transform="translate(0 0) scale(1 1)">
</g>
<g style="fill:#000000; fill-opacity:0.0; 
stroke:#000000; stroke-width:-0.000393701; stroke-opacity:1; 
stroke-linecap:round; stroke-linejoin:round;">
</g>
<g style="fill:#000000; fill-opacity:0.0; 
stroke:#000000; stroke-width:47.2441; stroke-opacity:1; 
stroke-linecap:round; stroke-linejoin:round;">
<path d="M39023 42543
L39023 41893
" />
<path d="M30976 42543
L39023 42543
" />
<path d="M30976 40456
L30976 42543
" />
<path d="M39023 40456
L30976 40456
" />
<path d="M39023 41106
L39023 40456
" />
<path d="M39023.6 41106.3 A393.701 393.701 0.0 0 0 39023.6 41893.7" />
<path d="M69023 42543
L69023 41893
" />
<path d="M60976 42543
L69023 42543
" />
<path d="M60976 40456
L60976 42543
" />
<path d="M69023 40456
L60976 40456
" />
<path d="M69023 41106
L69023 40456
" />
<path d="M69023.6 41106.3 A393.701 393.701 0.0 0 0 69023.6 41893.7" />
<path d="M59023 42543
L59023 41893
" />
<path d="M50976 42543
L59023 42543
" />
<path d="M50976 40456
L50976 42543
" />
<path d="M59023 40456
L50976 40456
" />
<path d="M59023 41106
L59023 40456
" />
<path d="M59023.6 41106.3 A393.701 393.701 0.0 0 0 59023.6 41893.7" />
<path d="M36023 45476
L36023 46000
" />
<path d="M35500 45476
L36023 45476
" />
<path d="M35000 45476
L35000 46523
" />
<path d="M35000 46523
L30976 46523
" />
<path d="M35000 45476
L30976 45476
" />
<path d="M30976 45476
L30976 46523
" />
<path d="M49023 42543
L49023 41893
" />
<path d="M40976 42543
L49023 42543
" />
<path d="M40976 40456
L40976 42543
" />
<path d="M49023 40456
L40976 40456
" />
<path d="M49023 41106
L49023 40456
" />
<path d="M49023.6 41106.3 A393.701 393.701 0.0 0 0 49023.6 41893.7" />
<path d="M69460 42488
L69460 40543
" />
<path d="M70539 42488
L70539 40543
" />
<path d="M69460 42488
L69584 42488
" />
<path d="M70415 42488
L70539 42488
" />
<path d="M69460 40543
L69584 40543
" />
<path d="M70415 40543
L70539 40543
" />
<path d="M59460 42488
L59460 40543
" />
<path d="M60539 42488
L60539 40543
" />
<path d="M59460 42488
L59584 42488
" />
<path d="M60415 42488
L60539 42488
" />
<path d="M59460 40543
L59584 40543
" />
<path d="M60415 40543
L60539 40543
" />
<path d="M39460 42488
L39460 40543
" />
<path d="M40539 42488
L40539 40543
" />
<path d="M39460 42488
L39584 42488
" />
<path d="M40415 42488
L40539 42488
" />
<path d="M39460 40543
L39584 40543
" />
<path d="M40415 40543
L40539 40543
" />
<path d="M49460 42488
L49460 40543
" />
<path d="M50539 42488
L50539 40543
" />
<path d="M49460 42488
L49584 42488
" />
<path d="M50415 42488
L50539 42488
" />
<path d="M49460 40543
L49584 40543
" />
<path d="M50415 40543
L50539 40543
" />
<path d="M69244 38362
L70755 38362
" />
<path d="M69244 37637
L70755 37637
" />
<path d="M64244 32862
L65755 32862
" />
<path d="M64244 32137
L65755 32137
" />
<path d="M64244 28862
L65755 28862
" />
<path d="M64244 28137
L65755 28137
" />
<path d="M64244 34862
L65755 34862
" />
<path d="M64244 34137
L65755 34137
" />
<path d="M64244 38362
L65755 38362
" />
<path d="M64244 37637
L65755 37637
" />
<path d="M64244 33862
L65755 33862
" />
<path d="M64244 33137
L65755 33137
" />
<path d="M64244 27862
L65755 27862
" />
<path d="M64244 27137
L65755 27137
" />
<path d="M64244 26862
L65755 26862
" />
<path d="M64244 26137
L65755 26137
" />
<path d="M59244 38362
L60755 38362
" />
<path d="M59244 37637
L60755 37637
" />
<path d="M54244 32862
L55755 32862
" />
<path d="M54244 32137
L55755 32137
" />
<path d="M54244 28862
L55755 28862
" />
<path d="M54244 28137
L55755 28137
" />
<path d="M54244 34862
L55755 34862
" />
<path d="M54244 34137
L55755 34137
" />
<path d="M54244 38362
L55755 38362
" />
<path d="M54244 37637
L55755 37637
" />
<path d="M54244 33862
L55755 33862
" />
<path d="M54244 33137
L55755 33137
" />
<path d="M54244 27862
L55755 27862
" />
<path d="M54244 27137
L55755 27137
" />
<path d="M54244 26862
L55755 26862
" />
<path d="M54244 26137
L55755 26137
" />
<path d="M49244 38362
L50755 38362
" />
<path d="M49244 37637
L50755 37637
" />
<path d="M44244 32862
L45755 32862
" />
<path d="M44244 32137
L45755 32137
" />
<path d="M44244 28862
L45755 28862
" />
<path d="M44244 28137
L45755 28137
" />
<path d="M44244 34862
L45755 34862
" />
<path d="M44244 34137
L45755 34137
" />
<path d="M44244 38362
L45755 38362
" />
<path d="M44244 37637
L45755 37637
" />
<path d="M44244 33862
L45755 33862
" />
<path d="M44244 33137
L45755 33137
" />
<path d="M44244 27862
L45755 27862
" />
<path d="M44244 27137
L45755 27137
" />
<path d="M44244 26862
L45755 26862
" />
<path d="M44244 26137
L45755 26137
" />
<path d="M39244 38362
L40755 38362
" />
<path d="M39244 37637
L40755 37637
" />
<path d="M34244 32862
L35755 32862
" />
<path d="M34244 32137
L35755 32137
" />
<path d="M34244 28862
L35755 28862
" />
<path d="M34244 28137
L35755 28137
" />
<path d="M34244 34862
L35755 34862
" />
<path d="M34244 34137
L35755 34137
" />
<path d="M34244 38362
L35755 38362
" />
<path d="M34244 37637
L35755 37637
" />
<path d="M34244 33862
L35755 33862
" />
<path d="M34244 33137
L35755 33137
" />
<path d="M34244 27862
L35755 27862
" />
<path d="M34244 27137
L35755 27137
" />
<path d="M34244 26862
L35755 26862
" />
<path d="M34244 26137
L35755 26137
" />
<path d="M69385 36925
L69385 36986
" />
<path d="M69385 36013
L69385 36074
" />
<path d="M69590.2 36925.2 A590.551 590.551 0.0 0 0 70409.9 36925.1" />
<path d="M70409.9 36074.9 A590.551 590.551 0.0 0 0 69590.2 36074.8" />
<path d="M69385.8 36986.4 A783.465 783.465 0.0 0 0 70658.4 36924.6" />
<path d="M70658.4 36075.4 A783.465 783.465 0.0 0 0 69385.8 36013.6" />
<path d="M65385 30925
L65385 30986
" />
<path d="M65385 30013
L65385 30074
" />
<path d="M65590.2 30925.2 A590.551 590.551 0.0 0 0 66409.9 30925.1" />
<path d="M66409.9 30074.9 A590.551 590.551 0.0 0 0 65590.2 30074.8" />
<path d="M65385.8 30986.4 A783.465 783.465 0.0 0 0 66658.4 30924.6" />
<path d="M66658.4 30075.4 A783.465 783.465 0.0 0 0 65385.8 30013.6" />
<path d="M61385 26925
L61385 26986
" />
<path d="M61385 26013
L61385 26074
" />
<path d="M61590.2 26925.2 A590.551 590.551 0.0 0 0 62409.9 26925.1" />
<path d="M62409.9 26074.9 A590.551 590.551 0.0 0 0 61590.2 26074.8" />
<path d="M61385.8 26986.4 A783.465 783.465 0.0 0 0 62658.4 26924.6" />
<path d="M62658.4 26075.4 A783.465 783.465 0.0 0 0 61385.8 26013.6" />
<path d="M61385 32925
L61385 32986
" />
<path d="M61385 32013
L61385 32074
" />
<path d="M61590.2 32925.2 A590.551 590.551 0.0 0 0 62409.9 32925.1" />
<path d="M62409.9 32074.9 A590.551 590.551 0.0 0 0 61590.2 32074.8" />
<path d="M61385.8 32986.4 A783.465 783.465 0.0 0 0 62658.4 32924.6" />
<path d="M62658.4 32075.4 A783.465 783.465 0.0 0 0 61385.8 32013.6" />
<path d="M65385 36925
L65385 36986
" />
<path d="M65385 36013
L65385 36074
" />
<path d="M65590.2 36925.2 A590.551 590.551 0.0 0 0 66409.9 36925.1" />
<path d="M66409.9 36074.9 A590.551 590.551 0.0 0 0 65590.2 36074.8" />
<path d="M65385.8 36986.4 A783.465 783.465 0.0 0 0 66658.4 36924.6" />
<path d="M66658.4 36075.4 A783.465 783.465 0.0 0 0 65385.8 36013.6" />
<path d="M67385 34925
L67385 34986
" />
<path d="M67385 34013
L67385 34074
" />
<path d="M67590.2 34925.2 A590.551 590.551 0.0 0 0 68409.9 34925.1" />
<path d="M68409.9 34074.9 A590.551 590.551 0.0 0 0 67590.2 34074.8" />
<path d="M67385.8 34986.4 A783.465 783.465 0.0 0 0 68658.4 34924.6" />
<path d="M68658.4 34075.4 A783.465 783.465 0.0 0 0 67385.8 34013.6" />
<path d="M67385 28925
L67385 28986
" />
<path d="M67385 28013
L67385 28074
" />
<path d="M67590.2 28925.2 A590.551 590.551 0.0 0 0 68409.9 28925.1" />
<path d="M68409.9 28074.9 A590.551 590.551 0.0 0 0 67590.2 28074.8" />
<path d="M67385.8 28986.4 A783.465 783.465 0.0 0 0 68658.4 28924.6" />
<path d="M68658.4 28075.4 A783.465 783.465 0.0 0 0 67385.8 28013.6" />
<path d="M65385 24925
L65385 24986
" />
<path d="M65385 24013
L65385 24074
" />
<path d="M65590.2 24925.2 A590.551 590.551 0.0 0 0 66409.9 24925.1" />
<path d="M66409.9 24074.9 A590.551 590.551 0.0 0 0 65590.2 24074.8" />
<path d="M65385.8 24986.4 A783.465 783.465 0.0 0 0 66658.4 24924.6" />
<path d="M66658.4 24075.4 A783.465 783.465 0.0 0 0 65385.8 24013.6" />
<path d="M59385 36925
L59385 36986
" />
<path d="M59385 36013
L59385 36074
" />
<path d="M59590.2 36925.2 A590.551 590.551 0.0 0 0 60409.9 36925.1" />
<path d="M60409.9 36074.9 A590.551 590.551 0.0 0 0 59590.2 36074.8" />
<path d="M59385.8 36986.4 A783.465 783.465 0.0 0 0 60658.4 36924.6" />
<path d="M60658.4 36075.4 A783.465 783.465 0.0 0 0 59385.8 36013.6" />
<path d="M55385 30925
L55385 30986
" />
<path d="M55385 30013
L55385 30074
" />
<path d="M55590.2 30925.2 A590.551 590.551 0.0 0 0 56409.9 30925.1" />
<path d="M56409.9 30074.9 A590.551 590.551 0.0 0 0 55590.2 30074.8" />
<path d="M55385.8 30986.4 A783.465 783.465 0.0 0 0 56658.4 30924.6" />
<path d="M56658.4 30075.4 A783.465 783.465 0.0 0 0 55385.8 30013.6" />
<path d="M51385 26925
L51385 26986
" />
<path d="M51385 26013
L51385 26074
" />
<path d="M51590.2 26925.2 A590.551 590.551 0.0 0 0 52409.9 26925.1" />
<path d="M52409.9 26074.9 A590.551 590.551 0.0 0 0 51590.2 26074.8" />
<path d="M51385.8 26986.4 A783.465 783.465 0.0 0 0 52658.4 26924.6" />
<path d="M52658.4 26075.4 A783.465 783.465 0.0 0 0 51385.8 26013.6" />
<path d="M51385 32925
L51385 32986
" />
<path d="M51385 32013
L51385 32074
" />
<path d="M51590.2 32925.2 A590.551 590.551 0.0 0 0 52409.9 32925.1" />
<path d="M52409.9 32074.9 A590.551 590.551 0.0 0 0 51590.2 32074.8" />
<path d="M51385.8 32986.4 A783.465 783.465 0.0 0 0 52658.4 32924.6" />
<path d="M52658.4 32075.4 A783.465 783.465 0.0 0 0 51385.8 32013.6" />
<path d="M55385 36925
L55385 36986
" />
<path d="M55385 36013
L55385 36074
" />
<path d="M55590.2 36925.2 A590.551 590.551 0.0 0 0 56409.9 36925.1" />
<path d="M56409.9 36074.9 A590.551 590.551 0.0 0 0 55590.2 36074.8" />
<path d="M55385.8 36986.4 A783.465 783.465 0.0 0 0 56658.4 36924.6" />
<path d="M56658.4 36075.4 A783.465 783.465 0.0 0 0 55385.8 36013.6" />
<path d="M57385 34925
L57385 34986
" />
<path d="M57385 34013
L57385 34074
" />
<path d="M57590.2 34925.2 A590.551 590.551 0.0 0 0 58409.9 34925.1" />
<path d="M58409.9 34074.9 A590.551 590.551 0.0 0 0 57590.2 34074.8" />
<path d="M57385.8 34986.4 A783.465 783.465 0.0 0 0 58658.4 34924.6" />
<path d="M58658.4 34075.4 A783.465 783.465 0.0 0 0 57385.8 34013.6" />
<path d="M57385 28925
L57385 28986
" />
<path d="M57385 28013
L57385 28074
" />
<path d="M57590.2 28925.2 A590.551 590.551 0.0 0 0 58409.9 28925.1" />
<path d="M58409.9 28074.9 A590.551 590.551 0.0 0 0 57590.2 28074.8" />
<path d="M57385.8 28986.4 A783.465 783.465 0.0 0 0 58658.4 28924.6" />
<path d="M58658.4 28075.4 A783.465 783.465 0.0 0 0 57385.8 28013.6" />
<path d="M55385 24925
L55385 24986
" />
<path d="M55385 24013
L55385 24074
" />
<path d="M55590.2 24925.2 A590.551 590.551 0.0 0 0 56409.9 24925.1" />
<path d="M56409.9 24074.9 A590.551 590.551 0.0 0 0 55590.2 24074.8" />
<path d="M55385.8 24986.4 A783.465 783.465 0.0 0 0 56658.4 24924.6" />
<path d="M56658.4 24075.4 A783.465 783.465 0.0 0 0 55385.8 24013.6" />
<path d="M63385 30925
L63385 30986
" />
<path d="M63385 30013
L63385 30074
" />
<path d="M63590.2 30925.2 A590.551 590.551 0.0 0 0 64409.9 30925.1" />
<path d="M64409.9 30074.9 A590.551 590.551 0.0 0 0 63590.2 30074.8" />
<path d="M63385.8 30986.4 A783.465 783.465 0.0 0 0 64658.4 30924.6" />
<path d="M64658.4 30075.4 A783.465 783.465 0.0 0 0 63385.8 30013.6" />
<path d="M61385 28925
L61385 28986
" />
<path d="M61385 28013
L61385 28074
" />
<path d="M61590.2 28925.2 A590.551 590.551 0.0 0 0 62409.9 28925.1" />
<path d="M62409.9 28074.9 A590.551 590.551 0.0 0 0 61590.2 28074.8" />
<path d="M61385.8 28986.4 A783.465 783.465 0.0 0 0 62658.4 28924.6" />
<path d="M62658.4 28075.4 A783.465 783.465 0.0 0 0 61385.8 28013.6" />
<path d="M61385 34925
L61385 34986
" />
<path d="M61385 34013
L61385 34074
" />
<path d="M61590.2 34925.2 A590.551 590.551 0.0 0 0 62409.9 34925.1" />
<path d="M62409.9 34074.9 A590.551 590.551 0.0 0 0 61590.2 34074.8" />
<path d="M61385.8 34986.4 A783.465 783.465 0.0 0 0 62658.4 34924.6" />
<path d="M62658.4 34075.4 A783.465 783.465 0.0 0 0 61385.8 34013.6" />
<path d="M63385 36925
L63385 36986
" />
<path d="M63385 36013
L63385 36074
" />
<path d="M63590.2 36925.2 A590.551 590.551 0.0 0 0 64409.9 36925.1" />
<path d="M64409.9 36074.9 A590.551 590.551 0.0 0 0 63590.2 36074.8" />
<path d="M63385.8 36986.4 A783.465 783.465 0.0 0 0 64658.4 36924.6" />
<path d="M64658.4 36075.4 A783.465 783.465 0.0 0 0 63385.8 36013.6" />
<path d="M67385 32925
L67385 32986
" />
<path d="M67385 32013
L67385 32074
" />
<path d="M67590.2 32925.2 A590.551 590.551 0.0 0 0 68409.9 32925.1" />
<path d="M68409.9 32074.9 A590.551 590.551 0.0 0 0 67590.2 32074.8" />
<path d="M67385.8 32986.4 A783.465 783.465 0.0 0 0 68658.4 32924.6" />
<path d="M68658.4 32075.4 A783.465 783.465 0.0 0 0 67385.8 32013.6" />
<path d="M67385 26925
L67385 26986
" />
<path d="M67385 26013
L67385 26074
" />
<path d="M67590.2 26925.2 A590.551 590.551 0.0 0 0 68409.9 26925.1" />
<path d="M68409.9 26074.9 A590.551 590.551 0.0 0 0 67590.2 26074.8" />
<path d="M67385.8 26986.4 A783.465 783.465 0.0 0 0 68658.4 26924.6" />
<path d="M68658.4 26075.4 A783.465 783.465 0.0 0 0 67385.8 26013.6" />
<path d="M63385 24925
L63385 24986
" />
<path d="M63385 24013
L63385 24074
" />
<path d="M63590.2 24925.2 A590.551 590.551 0.0 0 0 64409.9 24925.1" />
<path d="M64409.9 24074.9 A590.551 590.551 0.0 0 0 63590.2 24074.8" />
<path d="M63385.8 24986.4 A783.465 783.465 0.0 0 0 64658.4 24924.6" />
<path d="M64658.4 24075.4 A783.465 783.465 0.0 0 0 63385.8 24013.6" />
<path d="M53385 30925
L53385 30986
" />
<path d="M53385 30013
L53385 30074
" />
<path d="M53590.2 30925.2 A590.551 590.551 0.0 0 0 54409.9 30925.1" />
<path d="M54409.9 30074.9 A590.551 590.551 0.0 0 0 53590.2 30074.8" />
<path d="M53385.8 30986.4 A783.465 783.465 0.0 0 0 54658.4 30924.6" />
<path d="M54658.4 30075.4 A783.465 783.465 0.0 0 0 53385.8 30013.6" />
<path d="M51385 28925
L51385 28986
" />
<path d="M51385 28013
L51385 28074
" />
<path d="M51590.2 28925.2 A590.551 590.551 0.0 0 0 52409.9 28925.1" />
<path d="M52409.9 28074.9 A590.551 590.551 0.0 0 0 51590.2 28074.8" />
<path d="M51385.8 28986.4 A783.465 783.465 0.0 0 0 52658.4 28924.6" />
<path d="M52658.4 28075.4 A783.465 783.465 0.0 0 0 51385.8 28013.6" />
<path d="M51385 34925
L51385 34986
" />
<path d="M51385 34013
L51385 34074
" />
<path d="M51590.2 34925.2 A590.551 590.551 0.0 0 0 52409.9 34925.1" />
<path d="M52409.9 34074.9 A590.551 590.551 0.0 0 0 51590.2 34074.8" />
<path d="M51385.8 34986.4 A783.465 783.465 0.0 0 0 52658.4 34924.6" />
<path d="M52658.4 34075.4 A783.465 783.465 0.0 0 0 51385.8 34013.6" />
<path d="M53385 36925
L53385 36986
" />
<path d="M53385 36013
L53385 36074
" />
<path d="M53590.2 36925.2 A590.551 590.551 0.0 0 0 54409.9 36925.1" />
<path d="M54409.9 36074.9 A590.551 590.551 0.0 0 0 53590.2 36074.8" />
<path d="M53385.8 36986.4 A783.465 783.465 0.0 0 0 54658.4 36924.6" />
<path d="M54658.4 36075.4 A783.465 783.465 0.0 0 0 53385.8 36013.6" />
<path d="M57385 32925
L57385 32986
" />
<path d="M57385 32013
L57385 32074
" />
<path d="M57590.2 32925.2 A590.551 590.551 0.0 0 0 58409.9 32925.1" />
<path d="M58409.9 32074.9 A590.551 590.551 0.0 0 0 57590.2 32074.8" />
<path d="M57385.8 32986.4 A783.465 783.465 0.0 0 0 58658.4 32924.6" />
<path d="M58658.4 32075.4 A783.465 783.465 0.0 0 0 57385.8 32013.6" />
<path d="M57385 26925
L57385 26986
" />
<path d="M57385 26013
L57385 26074
" />
<path d="M57590.2 26925.2 A590.551 590.551 0.0 0 0 58409.9 26925.1" />
<path d="M58409.9 26074.9 A590.551 590.551 0.0 0 0 57590.2 26074.8" />
<path d="M57385.8 26986.4 A783.465 783.465 0.0 0 0 58658.4 26924.6" />
<path d="M58658.4 26075.4 A783.465 783.465 0.0 0 0 57385.8 26013.6" />
<path d="M53385 24925
L53385 24986
" />
<path d="M53385 24013
L53385 24074
" />
<path d="M53590.2 24925.2 A590.551 590.551 0.0 0 0 54409.9 24925.1" />
<path d="M54409.9 24074.9 A590.551 590.551 0.0 0 0 53590.2 24074.8" />
<path d="M53385.8 24986.4 A783.465 783.465 0.0 0 0 54658.4 24924.6" />
<path d="M54658.4 24075.4 A783.465 783.465 0.0 0 0 53385.8 24013.6" />
<path d="M49385 36925
L49385 36986
" />
<path d="M49385 36013
L49385 36074
" />
<path d="M49590.2 36925.2 A590.551 590.551 0.0 0 0 50409.9 36925.1" />
<path d="M50409.9 36074.9 A590.551 590.551 0.0 0 0 49590.2 36074.8" />
<path d="M49385.8 36986.4 A783.465 783.465 0.0 0 0 50658.4 36924.6" />
<path d="M50658.4 36075.4 A783.465 783.465 0.0 0 0 49385.8 36013.6" />
<path d="M45385 30925
L45385 30986
" />
<path d="M45385 30013
L45385 30074
" />
<path d="M45590.2 30925.2 A590.551 590.551 0.0 0 0 46409.9 30925.1" />
<path d="M46409.9 30074.9 A590.551 590.551 0.0 0 0 45590.2 30074.8" />
<path d="M45385.8 30986.4 A783.465 783.465 0.0 0 0 46658.4 30924.6" />
<path d="M46658.4 30075.4 A783.465 783.465 0.0 0 0 45385.8 30013.6" />
<path d="M41385 26925
L41385 26986
" />
<path d="M41385 26013
L41385 26074
" />
<path d="M41590.2 26925.2 A590.551 590.551 0.0 0 0 42409.9 26925.1" />
<path d="M42409.9 26074.9 A590.551 590.551 0.0 0 0 41590.2 26074.8" />
<path d="M41385.8 26986.4 A783.465 783.465 0.0 0 0 42658.4 26924.6" />
<path d="M42658.4 26075.4 A783.465 783.465 0.0 0 0 41385.8 26013.6" />
<path d="M41385 32925
L41385 32986
" />
<path d="M41385 32013
L41385 32074
" />
<path d="M41590.2 32925.2 A590.551 590.551 0.0 0 0 42409.9 32925.1" />
<path d="M42409.9 32074.9 A590.551 590.551 0.0 0 0 41590.2 32074.8" />
<path d="M41385.8 32986.4 A783.465 783.465 0.0 0 0 42658.4 32924.6" />
<path d="M42658.4 32075.4 A783.465 783.465 0.0 0 0 41385.8 32013.6" />
<path d="M45385 36925
L45385 36986
" />
<path d="M45385 36013
L45385 36074
" />
<path d="M45590.2 36925.2 A590.551 590.551 0.0 0 0 46409.9 36925.1" />
<path d="M46409.9 36074.9 A590.551 590.551 0.0 0 0 45590.2 36074.8" />
<path d="M45385.8 36986.4 A783.465 783.465 0.0 0 0 46658.4 36924.6" />
<path d="M46658.4 36075.4 A783.465 783.465 0.0 0 0 45385.8 36013.6" />
<path d="M47385 34925
L47385 34986
" />
<path d="M47385 34013
L47385 34074
" />
<path d="M47590.2 34925.2 A590.551 590.551 0.0 0 0 48409.9 34925.1" />
<path d="M48409.9 34074.9 A590.551 590.551 0.0 0 0 47590.2 34074.8" />
<path d="M47385.8 34986.4 A783.465 783.465 0.0 0 0 48658.4 34924.6" />
<path d="M48658.4 34075.4 A783.465 783.465 0.0 0 0 47385.8 34013.6" />
<path d="M47385 28925
L47385 28986
" />
<path d="M47385 28013
L47385 28074
" />
<path d="M47590.2 28925.2 A590.551 590.551 0.0 0 0 48409.9 28925.1" />
<path d="M48409.9 28074.9 A590.551 590.551 0.0 0 0 47590.2 28074.8" />
<path d="M47385.8 28986.4 A783.465 783.465 0.0 0 0 48658.4 28924.6" />
<path d="M48658.4 28075.4 A783.465 783.465 0.0 0 0 47385.8 28013.6" />
<path d="M45385 24925
L45385 24986
" />
<path d="M45385 24013
L45385 24074
" />
<path d="M45590.2 24925.2 A590.551 590.551 0.0 0 0 46409.9 24925.1" />
<path d="M46409.9 24074.9 A590.551 590.551 0.0 0 0 45590.2 24074.8" />
<path d="M45385.8 24986.4 A783.465 783.465 0.0 0 0 46658.4 24924.6" />
<path d="M46658.4 24075.4 A783.465 783.465 0.0 0 0 45385.8 24013.6" />
<path d="M39385 36925
L39385 36986
" />
<path d="M39385 36013
L39385 36074
" />
<path d="M39590.2 36925.2 A590.551 590.551 0.0 0 0 40409.9 36925.1" />
<path d="M40409.9 36074.9 A590.551 590.551 0.0 0 0 39590.2 36074.8" />
<path d="M39385.8 36986.4 A783.465 783.465 0.0 0 0 40658.4 36924.6" />
<path d="M40658.4 36075.4 A783.465 783.465 0.0 0 0 39385.8 36013.6" />
<path d="M35385 30925
L35385 30986
" />
<path d="M35385 30013
L35385 30074
" />
<path d="M35590.2 30925.2 A590.551 590.551 0.0 0 0 36409.9 30925.1" />
<path d="M36409.9 30074.9 A590.551 590.551 0.0 0 0 35590.2 30074.8" />
<path d="M35385.8 30986.4 A783.465 783.465 0.0 0 0 36658.4 30924.6" />
<path d="M36658.4 30075.4 A783.465 783.465 0.0 0 0 35385.8 30013.6" />
<path d="M31385 26925
L31385 26986
" />
<path d="M31385 26013
L31385 26074
" />
<path d="M31590.2 26925.2 A590.551 590.551 0.0 0 0 32409.9 26925.1" />
<path d="M32409.9 26074.9 A590.551 590.551 0.0 0 0 31590.2 26074.8" />
<path d="M31385.8 26986.4 A783.465 783.465 0.0 0 0 32658.4 26924.6" />
<path d="M32658.4 26075.4 A783.465 783.465 0.0 0 0 31385.8 26013.6" />
<path d="M31385 32925
L31385 32986
" />
<path d="M31385 32013
L31385 32074
" />
<path d="M31590.2 32925.2 A590.551 590.551 0.0 0 0 32409.9 32925.1" />
<path d="M32409.9 32074.9 A590.551 590.551 0.0 0 0 31590.2 32074.8" />
<path d="M31385.8 32986.4 A783.465 783.465 0.0 0 0 32658.4 32924.6" />
<path d="M32658.4 32075.4 A783.465 783.465 0.0 0 0 31385.8 32013.6" />
<path d="M35385 36925
L35385 36986
" />
<path d="M35385 36013
L35385 36074
" />
<path d="M35590.2 36925.2 A590.551 590.551 0.0 0 0 36409.9 36925.1" />
<path d="M36409.9 36074.9 A590.551 590.551 0.0 0 0 35590.2 36074.8" />
<path d="M35385.8 36986.4 A783.465 783.465 0.0 0 0 36658.4 36924.6" />
<path d="M36658.4 36075.4 A783.465 783.465 0.0 0 0 35385.8 36013.6" />
<path d="M37385 34925
L37385 34986
" />
<path d="M37385 34013
L37385 34074
" />
<path d="M37590.2 34925.2 A590.551 590.551 0.0 0 0 38409.9 34925.1" />
<path d="M38409.9 34074.9 A590.551 590.551 0.0 0 0 37590.2 34074.8" />
<path d="M37385.8 34986.4 A783.465 783.465 0.0 0 0 38658.4 34924.6" />
<path d="M38658.4 34075.4 A783.465 783.465 0.0 0 0 37385.8 34013.6" />
<path d="M37385 28925
L37385 28986
" />
<path d="M37385 28013
L37385 28074
" />
<path d="M37590.2 28925.2 A590.551 590.551 0.0 0 0 38409.9 28925.1" />
<path d="M38409.9 28074.9 A590.551 590.551 0.0 0 0 37590.2 28074.8" />
<path d="M37385.8 28986.4 A783.465 783.465 0.0 0 0 38658.4 28924.6" />
<path d="M38658.4 28075.4 A783.465 783.465 0.0 0 0 37385.8 28013.6" />
<path d="M35385 24925
L35385 24986
" />
<path d="M35385 24013
L35385 24074
" />
<path d="M35590.2 24925.2 A590.551 590.551 0.0 0 0 36409.9 24925.1" />
<path d="M36409.9 24074.9 A590.551 590.551 0.0 0 0 35590.2 24074.8" />
<path d="M35385.8 24986.4 A783.465 783.465 0.0 0 0 36658.4 24924.6" />
<path d="M36658.4 24075.4 A783.465 783.465 0.0 0 0 35385.8 24013.6" />
<path d="M43385 30925
L43385 30986
" />
<path d="M43385 30013
L43385 30074
" />
<path d="M43590.2 30925.2 A590.551 590.551 0.0 0 0 44409.9 30925.1" />
<path d="M44409.9 30074.9 A590.551 590.551 0.0 0 0 43590.2 30074.8" />
<path d="M43385.8 30986.4 A783.465 783.465 0.0 0 0 44658.4 30924.6" />
<path d="M44658.4 30075.4 A783.465 783.465 0.0 0 0 43385.8 30013.6" />
<path d="M41385 28925
L41385 28986
" />
<path d="M41385 28013
L41385 28074
" />
<path d="M41590.2 28925.2 A590.551 590.551 0.0 0 0 42409.9 28925.1" />
<path d="M42409.9 28074.9 A590.551 590.551 0.0 0 0 41590.2 28074.8" />
<path d="M41385.8 28986.4 A783.465 783.465 0.0 0 0 42658.4 28924.6" />
<path d="M42658.4 28075.4 A783.465 783.465 0.0 0 0 41385.8 28013.6" />
<path d="M41385 34925
L41385 34986
" />
<path d="M41385 34013
L41385 34074
" />
<path d="M41590.2 34925.2 A590.551 590.551 0.0 0 0 42409.9 34925.1" />
<path d="M42409.9 34074.9 A590.551 590.551 0.0 0 0 41590.2 34074.8" />
<path d="M41385.8 34986.4 A783.465 783.465 0.0 0 0 42658.4 34924.6" />
<path d="M42658.4 34075.4 A783.465 783.465 0.0 0 0 41385.8 34013.6" />
<path d="M43385 36925
L43385 36986
" />
<path d="M43385 36013
L43385 36074
" />
<path d="M43590.2 36925.2 A590.551 590.551 0.0 0 0 44409.9 36925.1" />
<path d="M44409.9 36074.9 A590.551 590.551 0.0 0 0 43590.2 36074.8" />
<path d="M43385.8 36986.4 A783.465 783.465 0.0 0 0 44658.4 36924.6" />
<path d="M44658.4 36075.4 A783.465 783.465 0.0 0 0 43385.8 36013.6" />
<path d="M47385 32925
L47385 32986
" />
<path d="M47385 32013
L47385 32074
" />
<path d="M47590.2 32925.2 A590.551 590.551 0.0 0 0 48409.9 32925.1" />
<path d="M48409.9 32074.9 A590.551 590.551 0.0 0 0 47590.2 32074.8" />
<path d="M47385.8 32986.4 A783.465 783.465 0.0 0 0 48658.4 32924.6" />
<path d="M48658.4 32075.4 A783.465 783.465 0.0 0 0 47385.8 32013.6" />
<path d="M47385 26925
L47385 26986
" />
<path d="M47385 26013
L47385 26074
" />
<path d="M47590.2 26925.2 A590.551 590.551 0.0 0 0 48409.9 26925.1" />
<path d="M48409.9 26074.9 A590.551 590.551 0.0 0 0 47590.2 26074.8" />
<path d="M47385.8 26986.4 A783.465 783.465 0.0 0 0 48658.4 26924.6" />
<path d="M48658.4 26075.4 A783.465 783.465 0.0 0 0 47385.8 26013.6" />
<path d="M43385 24925
L43385 24986
" />
<path d="M43385 24013
L43385 24074
" />
<path d="M43590.2 24925.2 A590.551 590.551 0.0 0 0 44409.9 24925.1" />
<path d="M44409.9 24074.9 A590.551 590.551 0.0 0 0 43590.2 24074.8" />
<path d="M43385.8 24986.4 A783.465 783.465 0.0 0 0 44658.4 24924.6" />
<path d="M44658.4 24075.4 A783.465 783.465 0.0 0 0 43385.8 24013.6" />
<path d="M33385 30925
L33385 30986
" />
<path d="M33385 30013
L33385 30074
" />
<path d="M33590.2 30925.2 A590.551 590.551 0.0 0 0 34409.9 30925.1" />
<path d="M34409.9 30074.9 A590.551 590.551 0.0 0 0 33590.2 30074.8" />
<path d="M33385.8 30986.4 A783.465 783.465 0.0 0 0 34658.4 30924.6" />
<path d="M34658.4 30075.4 A783.465 783.465 0.0 0 0 33385.8 30013.6" />
<path d="M31385 28925
L31385 28986
" />
<path d="M31385 28013
L31385 28074
" />
<path d="M31590.2 28925.2 A590.551 590.551 0.0 0 0 32409.9 28925.1" />
<path d="M32409.9 28074.9 A590.551 590.551 0.0 0 0 31590.2 28074.8" />
<path d="M31385.8 28986.4 A783.465 783.465 0.0 0 0 32658.4 28924.6" />
<path d="M32658.4 28075.4 A783.465 783.465 0.0 0 0 31385.8 28013.6" />
<path d="M31385 34925
L31385 34986
" />
<path d="M31385 34013
L31385 34074
" />
<path d="M31590.2 34925.2 A590.551 590.551 0.0 0 0 32409.9 34925.1" />
<path d="M32409.9 34074.9 A590.551 590.551 0.0 0 0 31590.2 34074.8" />
<path d="M31385.8 34986.4 A783.465 783.465 0.0 0 0 32658.4 34924.6" />
<path d="M32658.4 34075.4 A783.465 783.465 0.0 0 0 31385.8 34013.6" />
<path d="M33385 36925
L33385 36986
" />
<path d="M33385 36013
L33385 36074
" />
<path d="M33590.2 36925.2 A590.551 590.551 0.0 0 0 34409.9 36925.1" />
<path d="M34409.9 36074.9 A590.551 590.551 0.0 0 0 33590.2 36074.8" />
<path d="M33385.8 36986.4 A783.465 783.465 0.0 0 0 34658.4 36924.6" />
<path d="M34658.4 36075.4 A783.465 783.465 0.0 0 0 33385.8 36013.6" />
<path d="M37385 32925
L37385 32986
" />
<path d="M37385 32013
L37385 32074
" />
<path d="M37590.2 32925.2 A590.551 590.551 0.0 0 0 38409.9 32925.1" />
<path d="M38409.9 32074.9 A590.551 590.551 0.0 0 0 37590.2 32074.8" />
<path d="M37385.8 32986.4 A783.465 783.465 0.0 0 0 38658.4 32924.6" />
<path d="M38658.4 32075.4 A783.465 783.465 0.0 0 0 37385.8 32013.6" />
<path d="M37385 26925
L37385 26986
" />
<path d="M37385 26013
L37385 26074
" />
<path d="M37590.2 26925.2 A590.551 590.551 0.0 0 0 38409.9 26925.1" />
<path d="M38409.9 26074.9 A590.551 590.551 0.0 0 0 37590.2 26074.8" />
<path d="M37385.8 26986.4 A783.465 783.465 0.0 0 0 38658.4 26924.6" />
<path d="M38658.4 26075.4 A783.465 783.465 0.0 0 0 37385.8 26013.6" />
<path d="M33385 24925
L33385 24986
" />
<path d="M33385 24013
L33385 24074
" />
<path d="M33590.2 24925.2 A590.551 590.551 0.0 0 0 34409.9 24925.1" />
<path d="M34409.9 24074.9 A590.551 590.551 0.0 0 0 33590.2 24074.8" />
<path d="M33385.8 24986.4 A783.465 783.465 0.0 0 0 34658.4 24924.6" />
<path d="M34658.4 24075.4 A783.465 783.465 0.0 0 0 33385.8 24013.6" />
</g>
<g style="fill:#000000; fill-opacity:0.0; 
stroke:#000000; stroke-width:59.0551; stroke-opacity:1; 
stroke-linecap:round; stroke-linejoin:round;">
<text x="35000" y="41696.9"
textLength="864.173" font-size="524.934" lengthAdjust="spacingAndGlyphs"
text-anchor="middle" opacity="0">U1</text>
<path d="M34700 41284
L34700 41603
L34718 41640
L34737 41659
L34775 41678
L34850 41678
L34887 41659
L34906 41640
L34925 41603
L34925 41284
" />
<path d="M35318 41678
L35093 41678
" />
<path d="M35206 41678
L35206 41284
L35168 41340
L35131 41378
L35093 41396
" />
<text x="65000" y="41696.9"
textLength="864.173" font-size="524.934" lengthAdjust="spacingAndGlyphs"
text-anchor="middle" opacity="0">U4</text>
<path d="M64700 41284
L64700 41603
L64718 41640
L64737 41659
L64775 41678
L64850 41678
L64887 41659
L64906 41640
L64925 41603
L64925 41284
" />
<path d="M65281 41415
L65281 41678
" />
<path d="M65187 41265
L65093 41546
L65337 41546
" />
<text x="55000" y="41696.9"
textLength="864.173" font-size="524.934" lengthAdjust="spacingAndGlyphs"
text-anchor="middle" opacity="0">U3</text>
<path d="M54700 41284
L54700 41603
L54718 41640
L54737 41659
L54775 41678
L54850 41678
L54887 41659
L54906 41640
L54925 41603
L54925 41284
" />
<path d="M55074 41284
L55318 41284
L55187 41434
L55243 41434
L55281 41453
L55299 41471
L55318 41509
L55318 41603
L55299 41640
L55281 41659
L55243 41678
L55131 41678
L55093 41659
L55074 41640
" />
<text x="36417.3" y="46196.9"
textLength="751.687" font-size="524.934" lengthAdjust="spacingAndGlyphs"
text-anchor="middle" opacity="0">J1</text>
<path d="M36286 45784
L36286 46065
L36267 46121
L36229 46159
L36173 46178
L36136 46178
" />
<path d="M36679 46178
L36454 46178
" />
<path d="M36567 46178
L36567 45784
L36529 45840
L36492 45878
L36454 45896
" />
<text x="45000" y="41696.9"
textLength="864.173" font-size="524.934" lengthAdjust="spacingAndGlyphs"
text-anchor="middle" opacity="0">U2</text>
<path d="M44700 41284
L44700 41603
L44718 41640
L44737 41659
L44775 41678
L44850 41678
L44887 41659
L44906 41640
L44925 41603
L44925 41284
" />
<path d="M45093 41321
L45112 41303
L45149 41284
L45243 41284
L45281 41303
L45299 41321
L45318 41359
L45318 41396
L45299 41453
L45074 41678
L45318 41678
" />
<g transform="rotate(-90 70000 41515.7)">
<text x="70000" y="41712.6"
textLength="845.426" font-size="524.934" lengthAdjust="spacingAndGlyphs"
text-anchor="middle" opacity="0">C4</text>
</g>
<path d="M70140 41581
L70159 41600
L70178 41656
L70178 41693
L70159 41750
L70121 41787
L70084 41806
L70009 41825
L69953 41825
L69878 41806
L69840 41787
L69803 41750
L69784 41693
L69784 41656
L69803 41600
L69821 41581
" />
<path d="M69915 41243
L70178 41243
" />
<path d="M69765 41337
L70046 41431
L70046 41187
" />
<g transform="rotate(-90 60000 41515.7)">
<text x="60000" y="41712.6"
textLength="845.426" font-size="524.934" lengthAdjust="spacingAndGlyphs"
text-anchor="middle" opacity="0">C3</text>
</g>
<path d="M60140 41581
L60159 41600
L60178 41656
L60178 41693
L60159 41750
L60121 41787
L60084 41806
L60009 41825
L59953 41825
L59878 41806
L59840 41787
L59803 41750
L59784 41693
L59784 41656
L59803 41600
L59821 41581
" />
<path d="M59784 41450
L59784 41206
L59934 41337
L59934 41281
L59953 41243
L59971 41225
L60009 41206
L60103 41206
L60140 41225
L60159 41243
L60178 41281
L60178 41393
L60159 41431
L60140 41450
" />
<g transform="rotate(-90 40000 41515.7)">
<text x="40000" y="41712.6"
textLength="845.426" font-size="524.934" lengthAdjust="spacingAndGlyphs"
text-anchor="middle" opacity="0">C1</text>
</g>
<path d="M40140 41581
L40159 41600
L40178 41656
L40178 41693
L40159 41750
L40121 41787
L40084 41806
L40009 41825
L39953 41825
L39878 41806
L39840 41787
L39803 41750
L39784 41693
L39784 41656
L39803 41600
L39821 41581
" />
<path d="M40178 41206
L40178 41431
" />
<path d="M40178 41318
L39784 41318
L39840 41356
L39878 41393
L39896 41431
" />
<g transform="rotate(-90 50000 41515.7)">
<text x="50000" y="41712.6"
textLength="845.426" font-size="524.934" lengthAdjust="spacingAndGlyphs"
text-anchor="middle" opacity="0">C2</text>
</g>
<path d="M50140 41581
L50159 41600
L50178 41656
L50178 41693
L50159 41750
L50121 41787
L50084 41806
L50009 41825
L49953 41825
L49878 41806
L49840 41787
L49803 41750
L49784 41693
L49784 41656
L49803 41600
L49821 41581
" />
<path d="M49821 41431
L49803 41412
L49784 41375
L49784 41281
L49803 41243
L49821 41225
L49859 41206
L49896 41206
L49953 41225
L50178 41450
L50178 41206
" />
<text x="70000" y="38196.9"
textLength="1220.38" font-size="524.934" lengthAdjust="spacingAndGlyphs"
text-anchor="middle" opacity="0">R32</text>
<path d="M69746 38178
L69615 37990
" />
<path d="M69521 38178
L69521 37784
L69671 37784
L69709 37803
L69728 37821
L69746 37859
L69746 37915
L69728 37953
L69709 37971
L69671 37990
L69521 37990
" />
<path d="M69878 37784
L70121 37784
L69990 37934
L70046 37934
L70084 37953
L70103 37971
L70121 38009
L70121 38103
L70103 38140
L70084 38159
L70046 38178
L69934 38178
L69896 38159
L69878 38140
" />
<path d="M70271 37821
L70290 37803
L70328 37784
L70421 37784
L70459 37803
L70478 37821
L70496 37859
L70496 37896
L70478 37953
L70253 38178
L70496 38178
" />
<text x="65000" y="32696.9"
textLength="1220.38" font-size="524.934" lengthAdjust="spacingAndGlyphs"
text-anchor="middle" opacity="0">R31</text>
<path d="M64746 32678
L64615 32490
" />
<path d="M64521 32678
L64521 32284
L64671 32284
L64709 32303
L64728 32321
L64746 32359
L64746 32415
L64728 32453
L64709 32471
L64671 32490
L64521 32490
" />
<path d="M64878 32284
L65121 32284
L64990 32434
L65046 32434
L65084 32453
L65103 32471
L65121 32509
L65121 32603
L65103 32640
L65084 32659
L65046 32678
L64934 32678
L64896 32659
L64878 32640
" />
<path d="M65496 32678
L65271 32678
" />
<path d="M65384 32678
L65384 32284
L65346 32340
L65309 32378
L65271 32396
" />
<text x="65000" y="28696.9"
textLength="1220.38" font-size="524.934" lengthAdjust="spacingAndGlyphs"
text-anchor="middle" opacity="0">R30</text>
<path d="M64746 28678
L64615 28490
" />
<path d="M64521 28678
L64521 28284
L64671 28284
L64709 28303
L64728 28321
L64746 28359
L64746 28415
L64728 28453
L64709 28471
L64671 28490
L64521 28490
" />
<path d="M64878 28284
L65121 28284
L64990 28434
L65046 28434
L65084 28453
L65103 28471
L65121 28509
L65121 28603
L65103 28640
L65084 28659
L65046 28678
L64934 28678
L64896 28659
L64878 28640
" />
<path d="M65365 28284
L65403 28284
L65440 28303
L65459 28321
L65478 28359
L65496 28434
L65496 28528
L65478 28603
L65459 28640
L65440 28659
L65403 28678
L65365 28678
L65328 28659
L65309 28640
L65290 28603
L65271 28528
L65271 28434
L65290 28359
L65309 28321
L65328 28303
L65365 28284
" />
<text x="65000" y="34696.9"
textLength="1220.38" font-size="524.934" lengthAdjust="spacingAndGlyphs"
text-anchor="middle" opacity="0">R29</text>
<path d="M64746 34678
L64615 34490
" />
<path d="M64521 34678
L64521 34284
L64671 34284
L64709 34303
L64728 34321
L64746 34359
L64746 34415
L64728 34453
L64709 34471
L64671 34490
L64521 34490
" />
<path d="M64896 34321
L64915 34303
L64953 34284
L65046 34284
L65084 34303
L65103 34321
L65121 34359
L65121 34396
L65103 34453
L64878 34678
L65121 34678
" />
<path d="M65309 34678
L65384 34678
L65421 34659
L65440 34640
L65478 34584
L65496 34509
L65496 34359
L65478 34321
L65459 34303
L65421 34284
L65346 34284
L65309 34303
L65290 34321
L65271 34359
L65271 34453
L65290 34490
L65309 34509
L65346 34528
L65421 34528
L65459 34509
L65478 34490
L65496 34453
" />
<text x="65000" y="38196.9"
textLength="1220.38" font-size="524.934" lengthAdjust="spacingAndGlyphs"
text-anchor="middle" opacity="0">R28</text>
<path d="M64746 38178
L64615 37990
" />
<path d="M64521 38178
L64521 37784
L64671 37784
L64709 37803
L64728 37821
L64746 37859
L64746 37915
L64728 37953
L64709 37971
L64671 37990
L64521 37990
" />
<path d="M64896 37821
L64915 37803
L64953 37784
L65046 37784
L65084 37803
L65103 37821
L65121 37859
L65121 37896
L65103 37953
L64878 38178
L65121 38178
" />
<path d="M65346 37953
L65309 37934
L65290 37915
L65271 37878
L65271 37859
L65290 37821
L65309 37803
L65346 37784
L65421 37784
L65459 37803
L65478 37821
L65496 37859
L65496 37878
L65478 37915
L65459 37934
L65421 37953
L65346 37953
L65309 37971
L65290 37990
L65271 38028
L65271 38103
L65290 38140
L65309 38159
L65346 38178
L65421 38178
L65459 38159
L65478 38140
L65496 38103
L65496 38028
L65478 37990
L65459 37971
L65421 37953
" />
<text x="65000" y="33696.9"
textLength="1220.38" font-size="524.934" lengthAdjust="spacingAndGlyphs"
text-anchor="middle" opacity="0">R27</text>
<path d="M64746 33678
L64615 33490
" />
<path d="M64521 33678
L64521 33284
L64671 33284
L64709 33303
L64728 33321
L64746 33359
L64746 33415
L64728 33453
L64709 33471
L64671 33490
L64521 33490
" />
<path d="M64896 33321
L64915 33303
L64953 33284
L65046 33284
L65084 33303
L65103 33321
L65121 33359
L65121 33396
L65103 33453
L64878 33678
L65121 33678
" />
<path d="M65253 33284
L65515 33284
L65346 33678
" />
<text x="65000" y="27696.9"
textLength="1220.38" font-size="524.934" lengthAdjust="spacingAndGlyphs"
text-anchor="middle" opacity="0">R26</text>
<path d="M64746 27678
L64615 27490
" />
<path d="M64521 27678
L64521 27284
L64671 27284
L64709 27303
L64728 27321
L64746 27359
L64746 27415
L64728 27453
L64709 27471
L64671 27490
L64521 27490
" />
<path d="M64896 27321
L64915 27303
L64953 27284
L65046 27284
L65084 27303
L65103 27321
L65121 27359
L65121 27396
L65103 27453
L64878 27678
L65121 27678
" />
<path d="M65459 27284
L65384 27284
L65346 27303
L65328 27321
L65290 27378
L65271 27453
L65271 27603
L65290 27640
L65309 27659
L65346 27678
L65421 27678
L65459 27659
L65478 27640
L65496 27603
L65496 27509
L65478 27471
L65459 27453
L65421 27434
L65346 27434
L65309 27453
L65290 27471
L65271 27509
" />
<text x="65000" y="26696.9"
textLength="1220.38" font-size="524.934" lengthAdjust="spacingAndGlyphs"
text-anchor="middle" opacity="0">R25</text>
<path d="M64746 26678
L64615 26490
" />
<path d="M64521 26678
L64521 26284
L64671 26284
L64709 26303
L64728 26321
L64746 26359
L64746 26415
L64728 26453
L64709 26471
L64671 26490
L64521 26490
" />
<path d="M64896 26321
L64915 26303
L64953 26284
L65046 26284
L65084 26303
L65103 26321
L65121 26359
L65121 26396
L65103 26453
L64878 26678
L65121 26678
" />
<path d="M65478 26284
L65290 26284
L65271 26471
L65290 26453
L65328 26434
L65421 26434
L65459 26453
L65478 26471
L65496 26509
L65496 26603
L65478 26640
L65459 26659
L65421 26678
L65328 26678
L65290 26659
L65271 26640
" />
<text x="60000" y="38196.9"
textLength="1220.38" font-size="524.934" lengthAdjust="spacingAndGlyphs"
text-anchor="middle" opacity="0">R24</text>
<path d="M59746 38178
L59615 37990
" />
<path d="M59521 38178
L59521 37784
L59671 37784
L59709 37803
L59728 37821
L59746 37859
L59746 37915
L59728 37953
L59709 37971
L59671 37990
L59521 37990
" />
<path d="M59896 37821
L59915 37803
L59953 37784
L60046 37784
L60084 37803
L60103 37821
L60121 37859
L60121 37896
L60103 37953
L59878 38178
L60121 38178
" />
<path d="M60459 37915
L60459 38178
" />
<path d="M60365 37765
L60271 38046
L60515 38046
" />
<text x="55000" y="32696.9"
textLength="1220.38" font-size="524.934" lengthAdjust="spacingAndGlyphs"
text-anchor="middle" opacity="0">R23</text>
<path d="M54746 32678
L54615 32490
" />
<path d="M54521 32678
L54521 32284
L54671 32284
L54709 32303
L54728 32321
L54746 32359
L54746 32415
L54728 32453
L54709 32471
L54671 32490
L54521 32490
" />
<path d="M54896 32321
L54915 32303
L54953 32284
L55046 32284
L55084 32303
L55103 32321
L55121 32359
L55121 32396
L55103 32453
L54878 32678
L55121 32678
" />
<path d="M55253 32284
L55496 32284
L55365 32434
L55421 32434
L55459 32453
L55478 32471
L55496 32509
L55496 32603
L55478 32640
L55459 32659
L55421 32678
L55309 32678
L55271 32659
L55253 32640
" />
<text x="55000" y="28696.9"
textLength="1220.38" font-size="524.934" lengthAdjust="spacingAndGlyphs"
text-anchor="middle" opacity="0">R22</text>
<path d="M54746 28678
L54615 28490
" />
<path d="M54521 28678
L54521 28284
L54671 28284
L54709 28303
L54728 28321
L54746 28359
L54746 28415
L54728 28453
L54709 28471
L54671 28490
L54521 28490
" />
<path d="M54896 28321
L54915 28303
L54953 28284
L55046 28284
L55084 28303
L55103 28321
L55121 28359
L55121 28396
L55103 28453
L54878 28678
L55121 28678
" />
<path d="M55271 28321
L55290 28303
L55328 28284
L55421 28284
L55459 28303
L55478 28321
L55496 28359
L55496 28396
L55478 28453
L55253 28678
L55496 28678
" />
<text x="55000" y="34696.9"
textLength="1220.38" font-size="524.934" lengthAdjust="spacingAndGlyphs"
text-anchor="middle" opacity="0">R21</text>
<path d="M54746 34678
L54615 34490
" />
<path d="M54521 34678
L54521 34284
L54671 34284
L54709 34303
L54728 34321
L54746 34359
L54746 34415
L54728 34453
L54709 34471
L54671 34490
L54521 34490
" />
<path d="M54896 34321
L54915 34303
L54953 34284
L55046 34284
L55084 34303
L55103 34321
L55121 34359
L55121 34396
L55103 34453
L54878 34678
L55121 34678
" />
<path d="M55496 34678
L55271 34678
" />
<path d="M55384 34678
L55384 34284
L55346 34340
L55309 34378
L55271 34396
" />
<text x="55000" y="38196.9"
textLength="1220.38" font-size="524.934" lengthAdjust="spacingAndGlyphs"
text-anchor="middle" opacity="0">R20</text>
<path d="M54746 38178
L54615 37990
" />
<path d="M54521 38178
L54521 37784
L54671 37784
L54709 37803
L54728 37821
L54746 37859
L54746 37915
L54728 37953
L54709 37971
L54671 37990
L54521 37990
" />
<path d="M54896 37821
L54915 37803
L54953 37784
L55046 37784
L55084 37803
L55103 37821
L55121 37859
L55121 37896
L55103 37953
L54878 38178
L55121 38178
" />
<path d="M55365 37784
L55403 37784
L55440 37803
L55459 37821
L55478 37859
L55496 37934
L55496 38028
L55478 38103
L55459 38140
L55440 38159
L55403 38178
L55365 38178
L55328 38159
L55309 38140
L55290 38103
L55271 38028
L55271 37934
L55290 37859
L55309 37821
L55328 37803
L55365 37784
" />
<text x="55000" y="33696.9"
textLength="1220.38" font-size="524.934" lengthAdjust="spacingAndGlyphs"
text-anchor="middle" opacity="0">R19</text>
<path d="M54746 33678
L54615 33490
" />
<path d="M54521 33678
L54521 33284
L54671 33284
L54709 33303
L54728 33321
L54746 33359
L54746 33415
L54728 33453
L54709 33471
L54671 33490
L54521 33490
" />
<path d="M55121 33678
L54896 33678
" />
<path d="M55009 33678
L55009 33284
L54971 33340
L54934 33378
L54896 33396
" />
<path d="M55309 33678
L55384 33678
L55421 33659
L55440 33640
L55478 33584
L55496 33509
L55496 33359
L55478 33321
L55459 33303
L55421 33284
L55346 33284
L55309 33303
L55290 33321
L55271 33359
L55271 33453
L55290 33490
L55309 33509
L55346 33528
L55421 33528
L55459 33509
L55478 33490
L55496 33453
" />
<text x="55000" y="27696.9"
textLength="1220.38" font-size="524.934" lengthAdjust="spacingAndGlyphs"
text-anchor="middle" opacity="0">R18</text>
<path d="M54746 27678
L54615 27490
" />
<path d="M54521 27678
L54521 27284
L54671 27284
L54709 27303
L54728 27321
L54746 27359
L54746 27415
L54728 27453
L54709 27471
L54671 27490
L54521 27490
" />
<path d="M55121 27678
L54896 27678
" />
<path d="M55009 27678
L55009 27284
L54971 27340
L54934 27378
L54896 27396
" />
<path d="M55346 27453
L55309 27434
L55290 27415
L55271 27378
L55271 27359
L55290 27321
L55309 27303
L55346 27284
L55421 27284
L55459 27303
L55478 27321
L55496 27359
L55496 27378
L55478 27415
L55459 27434
L55421 27453
L55346 27453
L55309 27471
L55290 27490
L55271 27528
L55271 27603
L55290 27640
L55309 27659
L55346 27678
L55421 27678
L55459 27659
L55478 27640
L55496 27603
L55496 27528
L55478 27490
L55459 27471
L55421 27453
" />
<text x="55000" y="26696.9"
textLength="1220.38" font-size="524.934" lengthAdjust="spacingAndGlyphs"
text-anchor="middle" opacity="0">R17</text>
<path d="M54746 26678
L54615 26490
" />
<path d="M54521 26678
L54521 26284
L54671 26284
L54709 26303
L54728 26321
L54746 26359
L54746 26415
L54728 26453
L54709 26471
L54671 26490
L54521 26490
" />
<path d="M55121 26678
L54896 26678
" />
<path d="M55009 26678
L55009 26284
L54971 26340
L54934 26378
L54896 26396
" />
<path d="M55253 26284
L55515 26284
L55346 26678
" />
<text x="50000" y="38196.9"
textLength="1220.38" font-size="524.934" lengthAdjust="spacingAndGlyphs"
text-anchor="middle" opacity="0">R16</text>
<path d="M49746 38178
L49615 37990
" />
<path d="M49521 38178
L49521 37784
L49671 37784
L49709 37803
L49728 37821
L49746 37859
L49746 37915
L49728 37953
L49709 37971
L49671 37990
L49521 37990
" />
<path d="M50121 38178
L49896 38178
" />
<path d="M50009 38178
L50009 37784
L49971 37840
L49934 37878
L49896 37896
" />
<path d="M50459 37784
L50384 37784
L50346 37803
L50328 37821
L50290 37878
L50271 37953
L50271 38103
L50290 38140
L50309 38159
L50346 38178
L50421 38178
L50459 38159
L50478 38140
L50496 38103
L50496 38009
L50478 37971
L50459 37953
L50421 37934
L50346 37934
L50309 37953
L50290 37971
L50271 38009
" />
<text x="45000" y="32696.9"
textLength="1220.38" font-size="524.934" lengthAdjust="spacingAndGlyphs"
text-anchor="middle" opacity="0">R15</text>
<path d="M44746 32678
L44615 32490
" />
<path d="M44521 32678
L44521 32284
L44671 32284
L44709 32303
L44728 32321
L44746 32359
L44746 32415
L44728 32453
L44709 32471
L44671 32490
L44521 32490
" />
<path d="M45121 32678
L44896 32678
" />
<path d="M45009 32678
L45009 32284
L44971 32340
L44934 32378
L44896 32396
" />
<path d="M45478 32284
L45290 32284
L45271 32471
L45290 32453
L45328 32434
L45421 32434
L45459 32453
L45478 32471
L45496 32509
L45496 32603
L45478 32640
L45459 32659
L45421 32678
L45328 32678
L45290 32659
L45271 32640
" />
<text x="45000" y="28696.9"
textLength="1220.38" font-size="524.934" lengthAdjust="spacingAndGlyphs"
text-anchor="middle" opacity="0">R14</text>
<path d="M44746 28678
L44615 28490
" />
<path d="M44521 28678
L44521 28284
L44671 28284
L44709 28303
L44728 28321
L44746 28359
L44746 28415
L44728 28453
L44709 28471
L44671 28490
L44521 28490
" />
<path d="M45121 28678
L44896 28678
" />
<path d="M45009 28678
L45009 28284
L44971 28340
L44934 28378
L44896 28396
" />
<path d="M45459 28415
L45459 28678
" />
<path d="M45365 28265
L45271 28546
L45515 28546
" />
<text x="45000" y="34696.9"
textLength="1220.38" font-size="524.934" lengthAdjust="spacingAndGlyphs"
text-anchor="middle" opacity="0">R13</text>
<path d="M44746 34678
L44615 34490
" />
<path d="M44521 34678
L44521 34284
L44671 34284
L44709 34303
L44728 34321
L44746 34359
L44746 34415
L44728 34453
L44709 34471
L44671 34490
L44521 34490
" />
<path d="M45121 34678
L44896 34678
" />
<path d="M45009 34678
L45009 34284
L44971 34340
L44934 34378
L44896 34396
" />
<path d="M45253 34284
L45496 34284
L45365 34434
L45421 34434
L45459 34453
L45478 34471
L45496 34509
L45496 34603
L45478 34640
L45459 34659
L45421 34678
L45309 34678
L45271 34659
L45253 34640
" />
<text x="45000" y="38196.9"
textLength="1220.38" font-size="524.934" lengthAdjust="spacingAndGlyphs"
text-anchor="middle" opacity="0">R12</text>
<path d="M44746 38178
L44615 37990
" />
<path d="M44521 38178
L44521 37784
L44671 37784
L44709 37803
L44728 37821
L44746 37859
L44746 37915
L44728 37953
L44709 37971
L44671 37990
L44521 37990
" />
<path d="M45121 38178
L44896 38178
" />
<path d="M45009 38178
L45009 37784
L44971 37840
L44934 37878
L44896 37896
" />
<path d="M45271 37821
L45290 37803
L45328 37784
L45421 37784
L45459 37803
L45478 37821
L45496 37859
L45496 37896
L45478 37953
L45253 38178
L45496 38178
" />
<text x="45000" y="33696.9"
textLength="1220.38" font-size="524.934" lengthAdjust="spacingAndGlyphs"
text-anchor="middle" opacity="0">R11</text>
<path d="M44746 33678
L44615 33490
" />
<path d="M44521 33678
L44521 33284
L44671 33284
L44709 33303
L44728 33321
L44746 33359
L44746 33415
L44728 33453
L44709 33471
L44671 33490
L44521 33490
" />
<path d="M45121 33678
L44896 33678
" />
<path d="M45009 33678
L45009 33284
L44971 33340
L44934 33378
L44896 33396
" />
<path d="M45496 33678
L45271 33678
" />
<path d="M45384 33678
L45384 33284
L45346 33340
L45309 33378
L45271 33396
" />
<text x="45000" y="27696.9"
textLength="1220.38" font-size="524.934" lengthAdjust="spacingAndGlyphs"
text-anchor="middle" opacity="0">R10</text>
<path d="M44746 27678
L44615 27490
" />
<path d="M44521 27678
L44521 27284
L44671 27284
L44709 27303
L44728 27321
L44746 27359
L44746 27415
L44728 27453
L44709 27471
L44671 27490
L44521 27490
" />
<path d="M45121 27678
L44896 27678
" />
<path d="M45009 27678
L45009 27284
L44971 27340
L44934 27378
L44896 27396
" />
<path d="M45365 27284
L45403 27284
L45440 27303
L45459 27321
L45478 27359
L45496 27434
L45496 27528
L45478 27603
L45459 27640
L45440 27659
L45403 27678
L45365 27678
L45328 27659
L45309 27640
L45290 27603
L45271 27528
L45271 27434
L45290 27359
L45309 27321
L45328 27303
L45365 27284
" />
<text x="45000" y="26696.9"
textLength="845.426" font-size="524.934" lengthAdjust="spacingAndGlyphs"
text-anchor="middle" opacity="0">R9</text>
<path d="M44934 26678
L44803 26490
" />
<path d="M44709 26678
L44709 26284
L44859 26284
L44896 26303
L44915 26321
L44934 26359
L44934 26415
L44915 26453
L44896 26471
L44859 26490
L44709 26490
" />
<path d="M45121 26678
L45196 26678
L45234 26659
L45253 26640
L45290 26584
L45309 26509
L45309 26359
L45290 26321
L45271 26303
L45234 26284
L45159 26284
L45121 26303
L45103 26321
L45084 26359
L45084 26453
L45103 26490
L45121 26509
L45159 26528
L45234 26528
L45271 26509
L45290 26490
L45309 26453
" />
<text x="40000" y="38196.9"
textLength="845.426" font-size="524.934" lengthAdjust="spacingAndGlyphs"
text-anchor="middle" opacity="0">R8</text>
<path d="M39934 38178
L39803 37990
" />
<path d="M39709 38178
L39709 37784
L39859 37784
L39896 37803
L39915 37821
L39934 37859
L39934 37915
L39915 37953
L39896 37971
L39859 37990
L39709 37990
" />
<path d="M40159 37953
L40121 37934
L40103 37915
L40084 37878
L40084 37859
L40103 37821
L40121 37803
L40159 37784
L40234 37784
L40271 37803
L40290 37821
L40309 37859
L40309 37878
L40290 37915
L40271 37934
L40234 37953
L40159 37953
L40121 37971
L40103 37990
L40084 38028
L40084 38103
L40103 38140
L40121 38159
L40159 38178
L40234 38178
L40271 38159
L40290 38140
L40309 38103
L40309 38028
L40290 37990
L40271 37971
L40234 37953
" />
<text x="35000" y="32696.9"
textLength="845.426" font-size="524.934" lengthAdjust="spacingAndGlyphs"
text-anchor="middle" opacity="0">R7</text>
<path d="M34934 32678
L34803 32490
" />
<path d="M34709 32678
L34709 32284
L34859 32284
L34896 32303
L34915 32321
L34934 32359
L34934 32415
L34915 32453
L34896 32471
L34859 32490
L34709 32490
" />
<path d="M35065 32284
L35328 32284
L35159 32678
" />
<text x="35000" y="28696.9"
textLength="845.426" font-size="524.934" lengthAdjust="spacingAndGlyphs"
text-anchor="middle" opacity="0">R6</text>
<path d="M34934 28678
L34803 28490
" />
<path d="M34709 28678
L34709 28284
L34859 28284
L34896 28303
L34915 28321
L34934 28359
L34934 28415
L34915 28453
L34896 28471
L34859 28490
L34709 28490
" />
<path d="M35271 28284
L35196 28284
L35159 28303
L35140 28321
L35103 28378
L35084 28453
L35084 28603
L35103 28640
L35121 28659
L35159 28678
L35234 28678
L35271 28659
L35290 28640
L35309 28603
L35309 28509
L35290 28471
L35271 28453
L35234 28434
L35159 28434
L35121 28453
L35103 28471
L35084 28509
" />
<text x="35000" y="34696.9"
textLength="845.426" font-size="524.934" lengthAdjust="spacingAndGlyphs"
text-anchor="middle" opacity="0">R5</text>
<path d="M34934 34678
L34803 34490
" />
<path d="M34709 34678
L34709 34284
L34859 34284
L34896 34303
L34915 34321
L34934 34359
L34934 34415
L34915 34453
L34896 34471
L34859 34490
L34709 34490
" />
<path d="M35290 34284
L35103 34284
L35084 34471
L35103 34453
L35140 34434
L35234 34434
L35271 34453
L35290 34471
L35309 34509
L35309 34603
L35290 34640
L35271 34659
L35234 34678
L35140 34678
L35103 34659
L35084 34640
" />
<text x="35000" y="38196.9"
textLength="845.426" font-size="524.934" lengthAdjust="spacingAndGlyphs"
text-anchor="middle" opacity="0">R4</text>
<path d="M34934 38178
L34803 37990
" />
<path d="M34709 38178
L34709 37784
L34859 37784
L34896 37803
L34915 37821
L34934 37859
L34934 37915
L34915 37953
L34896 37971
L34859 37990
L34709 37990
" />
<path d="M35271 37915
L35271 38178
" />
<path d="M35178 37765
L35084 38046
L35328 38046
" />
<text x="35000" y="33696.9"
textLength="845.426" font-size="524.934" lengthAdjust="spacingAndGlyphs"
text-anchor="middle" opacity="0">R3</text>
<path d="M34934 33678
L34803 33490
" />
<path d="M34709 33678
L34709 33284
L34859 33284
L34896 33303
L34915 33321
L34934 33359
L34934 33415
L34915 33453
L34896 33471
L34859 33490
L34709 33490
" />
<path d="M35065 33284
L35309 33284
L35178 33434
L35234 33434
L35271 33453
L35290 33471
L35309 33509
L35309 33603
L35290 33640
L35271 33659
L35234 33678
L35121 33678
L35084 33659
L35065 33640
" />
<text x="35000" y="27696.9"
textLength="845.426" font-size="524.934" lengthAdjust="spacingAndGlyphs"
text-anchor="middle" opacity="0">R2</text>
<path d="M34934 27678
L34803 27490
" />
<path d="M34709 27678
L34709 27284
L34859 27284
L34896 27303
L34915 27321
L34934 27359
L34934 27415
L34915 27453
L34896 27471
L34859 27490
L34709 27490
" />
<path d="M35084 27321
L35103 27303
L35140 27284
L35234 27284
L35271 27303
L35290 27321
L35309 27359
L35309 27396
L35290 27453
L35065 27678
L35309 27678
" />
<text x="35000" y="26696.9"
textLength="845.426" font-size="524.934" lengthAdjust="spacingAndGlyphs"
text-anchor="middle" opacity="0">R1</text>
<path d="M34934 26678
L34803 26490
" />
<path d="M34709 26678
L34709 26284
L34859 26284
L34896 26303
L34915 26321
L34934 26359
L34934 26415
L34915 26453
L34896 26471
L34859 26490
L34709 26490
" />
<path d="M35309 26678
L35084 26678
" />
<path d="M35196 26678
L35196 26284
L35159 26340
L35121 26378
L35084 26396
" />
<text x="70000" y="35696.9"
textLength="1220.38" font-size="524.934" lengthAdjust="spacingAndGlyphs"
text-anchor="middle" opacity="0">D60</text>
<path d="M69521 35678
L69521 35284
L69615 35284
L69671 35303
L69709 35340
L69728 35378
L69746 35453
L69746 35509
L69728 35584
L69709 35621
L69671 35659
L69615 35678
L69521 35678
" />
<path d="M70084 35284
L70009 35284
L69971 35303
L69953 35321
L69915 35378
L69896 35453
L69896 35603
L69915 35640
L69934 35659
L69971 35678
L70046 35678
L70084 35659
L70103 35640
L70121 35603
L70121 35509
L70103 35471
L70084 35453
L70046 35434
L69971 35434
L69934 35453
L69915 35471
L69896 35509
" />
<path d="M70365 35284
L70403 35284
L70440 35303
L70459 35321
L70478 35359
L70496 35434
L70496 35528
L70478 35603
L70459 35640
L70440 35659
L70403 35678
L70365 35678
L70328 35659
L70309 35640
L70290 35603
L70271 35528
L70271 35434
L70290 35359
L70309 35321
L70328 35303
L70365 35284
" />
<text x="66000" y="29531.5"
textLength="1220.38" font-size="524.934" lengthAdjust="spacingAndGlyphs"
text-anchor="middle" opacity="0">D59</text>
<path d="M65521 29512
L65521 29119
L65615 29119
L65671 29137
L65709 29175
L65728 29212
L65746 29287
L65746 29344
L65728 29419
L65709 29456
L65671 29494
L65615 29512
L65521 29512
" />
<path d="M66103 29119
L65915 29119
L65896 29306
L65915 29287
L65953 29269
L66046 29269
L66084 29287
L66103 29306
L66121 29344
L66121 29437
L66103 29475
L66084 29494
L66046 29512
L65953 29512
L65915 29494
L65896 29475
" />
<path d="M66309 29512
L66384 29512
L66421 29494
L66440 29475
L66478 29419
L66496 29344
L66496 29194
L66478 29156
L66459 29137
L66421 29119
L66346 29119
L66309 29137
L66290 29156
L66271 29194
L66271 29287
L66290 29325
L66309 29344
L66346 29362
L66421 29362
L66459 29344
L66478 29325
L66496 29287
" />
<g transform="rotate(-90 63000 26500)">
<text x="63000" y="26696.9"
textLength="1220.38" font-size="524.934" lengthAdjust="spacingAndGlyphs"
text-anchor="middle" opacity="0">D58</text>
</g>
<path d="M63178 26978
L62784 26978
L62784 26884
L62803 26828
L62840 26790
L62878 26771
L62953 26753
L63009 26753
L63084 26771
L63121 26790
L63159 26828
L63178 26884
L63178 26978
" />
<path d="M62784 26396
L62784 26584
L62971 26603
L62953 26584
L62934 26546
L62934 26453
L62953 26415
L62971 26396
L63009 26378
L63103 26378
L63140 26396
L63159 26415
L63178 26453
L63178 26546
L63159 26584
L63140 26603
" />
<path d="M62953 26153
L62934 26190
L62915 26209
L62878 26228
L62859 26228
L62821 26209
L62803 26190
L62784 26153
L62784 26078
L62803 26040
L62821 26021
L62859 26003
L62878 26003
L62915 26021
L62934 26040
L62953 26078
L62953 26153
L62971 26190
L62990 26209
L63028 26228
L63103 26228
L63140 26209
L63159 26190
L63178 26153
L63178 26078
L63159 26040
L63140 26021
L63103 26003
L63028 26003
L62990 26021
L62971 26040
L62953 26078
" />
<g transform="rotate(-90 63000 32500)">
<text x="63000" y="32696.9"
textLength="1220.38" font-size="524.934" lengthAdjust="spacingAndGlyphs"
text-anchor="middle" opacity="0">D57</text>
</g>
<path d="M63178 32978
L62784 32978
L62784 32884
L62803 32828
L62840 32790
L62878 32771
L62953 32753
L63009 32753
L63084 32771
L63121 32790
L63159 32828
L63178 32884
L63178 32978
" />
<path d="M62784 32396
L62784 32584
L62971 32603
L62953 32584
L62934 32546
L62934 32453
L62953 32415
L62971 32396
L63009 32378
L63103 32378
L63140 32396
L63159 32415
L63178 32453
L63178 32546
L63159 32584
L63140 32603
" />
<path d="M62784 32246
L62784 31984
L63178 32153
" />
<text x="66000" y="35696.9"
textLength="1220.38" font-size="524.934" lengthAdjust="spacingAndGlyphs"
text-anchor="middle" opacity="0">D56</text>
<path d="M65521 35678
L65521 35284
L65615 35284
L65671 35303
L65709 35340
L65728 35378
L65746 35453
L65746 35509
L65728 35584
L65709 35621
L65671 35659
L65615 35678
L65521 35678
" />
<path d="M66103 35284
L65915 35284
L65896 35471
L65915 35453
L65953 35434
L66046 35434
L66084 35453
L66103 35471
L66121 35509
L66121 35603
L66103 35640
L66084 35659
L66046 35678
L65953 35678
L65915 35659
L65896 35640
" />
<path d="M66459 35284
L66384 35284
L66346 35303
L66328 35321
L66290 35378
L66271 35453
L66271 35603
L66290 35640
L66309 35659
L66346 35678
L66421 35678
L66459 35659
L66478 35640
L66496 35603
L66496 35509
L66478 35471
L66459 35453
L66421 35434
L66346 35434
L66309 35453
L66290 35471
L66271 35509
" />
<g transform="rotate(90 67000 34500)">
<text x="67000" y="34696.9"
textLength="1220.38" font-size="524.934" lengthAdjust="spacingAndGlyphs"
text-anchor="middle" opacity="0">D55</text>
</g>
<path d="M66821 34021
L67215 34021
L67215 34115
L67196 34171
L67159 34209
L67121 34228
L67046 34246
L66990 34246
L66915 34228
L66878 34209
L66840 34171
L66821 34115
L66821 34021
" />
<path d="M67215 34603
L67215 34415
L67028 34396
L67046 34415
L67065 34453
L67065 34546
L67046 34584
L67028 34603
L66990 34621
L66896 34621
L66859 34603
L66840 34584
L66821 34546
L66821 34453
L66840 34415
L66859 34396
" />
<path d="M67215 34978
L67215 34790
L67028 34771
L67046 34790
L67065 34828
L67065 34921
L67046 34959
L67028 34978
L66990 34996
L66896 34996
L66859 34978
L66840 34959
L66821 34921
L66821 34828
L66840 34790
L66859 34771
" />
<g transform="rotate(90 67000 28500)">
<text x="67000" y="28696.9"
textLength="1220.38" font-size="524.934" lengthAdjust="spacingAndGlyphs"
text-anchor="middle" opacity="0">D54</text>
</g>
<path d="M66821 28021
L67215 28021
L67215 28115
L67196 28171
L67159 28209
L67121 28228
L67046 28246
L66990 28246
L66915 28228
L66878 28209
L66840 28171
L66821 28115
L66821 28021
" />
<path d="M67215 28603
L67215 28415
L67028 28396
L67046 28415
L67065 28453
L67065 28546
L67046 28584
L67028 28603
L66990 28621
L66896 28621
L66859 28603
L66840 28584
L66821 28546
L66821 28453
L66840 28415
L66859 28396
" />
<path d="M67084 28959
L66821 28959
" />
<path d="M67234 28865
L66953 28771
L66953 29015
" />
<text x="66000" y="25696.9"
textLength="1220.38" font-size="524.934" lengthAdjust="spacingAndGlyphs"
text-anchor="middle" opacity="0">D53</text>
<path d="M65521 25678
L65521 25284
L65615 25284
L65671 25303
L65709 25340
L65728 25378
L65746 25453
L65746 25509
L65728 25584
L65709 25621
L65671 25659
L65615 25678
L65521 25678
" />
<path d="M66103 25284
L65915 25284
L65896 25471
L65915 25453
L65953 25434
L66046 25434
L66084 25453
L66103 25471
L66121 25509
L66121 25603
L66103 25640
L66084 25659
L66046 25678
L65953 25678
L65915 25659
L65896 25640
" />
<path d="M66253 25284
L66496 25284
L66365 25434
L66421 25434
L66459 25453
L66478 25471
L66496 25509
L66496 25603
L66478 25640
L66459 25659
L66421 25678
L66309 25678
L66271 25659
L66253 25640
" />
<text x="60000" y="35696.9"
textLength="1220.38" font-size="524.934" lengthAdjust="spacingAndGlyphs"
text-anchor="middle" opacity="0">D52</text>
<path d="M59521 35678
L59521 35284
L59615 35284
L59671 35303
L59709 35340
L59728 35378
L59746 35453
L59746 35509
L59728 35584
L59709 35621
L59671 35659
L59615 35678
L59521 35678
" />
<path d="M60103 35284
L59915 35284
L59896 35471
L59915 35453
L59953 35434
L60046 35434
L60084 35453
L60103 35471
L60121 35509
L60121 35603
L60103 35640
L60084 35659
L60046 35678
L59953 35678
L59915 35659
L59896 35640
" />
<path d="M60271 35321
L60290 35303
L60328 35284
L60421 35284
L60459 35303
L60478 35321
L60496 35359
L60496 35396
L60478 35453
L60253 35678
L60496 35678
" />
<text x="56000" y="29696.9"
textLength="1220.38" font-size="524.934" lengthAdjust="spacingAndGlyphs"
text-anchor="middle" opacity="0">D51</text>
<path d="M55521 29678
L55521 29284
L55615 29284
L55671 29303
L55709 29340
L55728 29378
L55746 29453
L55746 29509
L55728 29584
L55709 29621
L55671 29659
L55615 29678
L55521 29678
" />
<path d="M56103 29284
L55915 29284
L55896 29471
L55915 29453
L55953 29434
L56046 29434
L56084 29453
L56103 29471
L56121 29509
L56121 29603
L56103 29640
L56084 29659
L56046 29678
L55953 29678
L55915 29659
L55896 29640
" />
<path d="M56496 29678
L56271 29678
" />
<path d="M56384 29678
L56384 29284
L56346 29340
L56309 29378
L56271 29396
" />
<g transform="rotate(-90 53000 26500)">
<text x="53000" y="26696.9"
textLength="1220.38" font-size="524.934" lengthAdjust="spacingAndGlyphs"
text-anchor="middle" opacity="0">D50</text>
</g>
<path d="M53178 26978
L52784 26978
L52784 26884
L52803 26828
L52840 26790
L52878 26771
L52953 26753
L53009 26753
L53084 26771
L53121 26790
L53159 26828
L53178 26884
L53178 26978
" />
<path d="M52784 26396
L52784 26584
L52971 26603
L52953 26584
L52934 26546
L52934 26453
L52953 26415
L52971 26396
L53009 26378
L53103 26378
L53140 26396
L53159 26415
L53178 26453
L53178 26546
L53159 26584
L53140 26603
" />
<path d="M52784 26134
L52784 26096
L52803 26059
L52821 26040
L52859 26021
L52934 26003
L53028 26003
L53103 26021
L53140 26040
L53159 26059
L53178 26096
L53178 26134
L53159 26171
L53140 26190
L53103 26209
L53028 26228
L52934 26228
L52859 26209
L52821 26190
L52803 26171
L52784 26134
" />
<g transform="rotate(-90 53000 32500)">
<text x="53000" y="32696.9"
textLength="1220.38" font-size="524.934" lengthAdjust="spacingAndGlyphs"
text-anchor="middle" opacity="0">D49</text>
</g>
<path d="M53178 32978
L52784 32978
L52784 32884
L52803 32828
L52840 32790
L52878 32771
L52953 32753
L53009 32753
L53084 32771
L53121 32790
L53159 32828
L53178 32884
L53178 32978
" />
<path d="M52915 32415
L53178 32415
" />
<path d="M52765 32509
L53046 32603
L53046 32359
" />
<path d="M53178 32190
L53178 32115
L53159 32078
L53140 32059
L53084 32021
L53009 32003
L52859 32003
L52821 32021
L52803 32040
L52784 32078
L52784 32153
L52803 32190
L52821 32209
L52859 32228
L52953 32228
L52990 32209
L53009 32190
L53028 32153
L53028 32078
L53009 32040
L52990 32021
L52953 32003
" />
<text x="56000" y="35696.9"
textLength="1220.38" font-size="524.934" lengthAdjust="spacingAndGlyphs"
text-anchor="middle" opacity="0">D48</text>
<path d="M55521 35678
L55521 35284
L55615 35284
L55671 35303
L55709 35340
L55728 35378
L55746 35453
L55746 35509
L55728 35584
L55709 35621
L55671 35659
L55615 35678
L55521 35678
" />
<path d="M56084 35415
L56084 35678
" />
<path d="M55990 35265
L55896 35546
L56140 35546
" />
<path d="M56346 35453
L56309 35434
L56290 35415
L56271 35378
L56271 35359
L56290 35321
L56309 35303
L56346 35284
L56421 35284
L56459 35303
L56478 35321
L56496 35359
L56496 35378
L56478 35415
L56459 35434
L56421 35453
L56346 35453
L56309 35471
L56290 35490
L56271 35528
L56271 35603
L56290 35640
L56309 35659
L56346 35678
L56421 35678
L56459 35659
L56478 35640
L56496 35603
L56496 35528
L56478 35490
L56459 35471
L56421 35453
" />
<g transform="rotate(90 57000 34500)">
<text x="57000" y="34696.9"
textLength="1220.38" font-size="524.934" lengthAdjust="spacingAndGlyphs"
text-anchor="middle" opacity="0">D47</text>
</g>
<path d="M56821 34021
L57215 34021
L57215 34115
L57196 34171
L57159 34209
L57121 34228
L57046 34246
L56990 34246
L56915 34228
L56878 34209
L56840 34171
L56821 34115
L56821 34021
" />
<path d="M57084 34584
L56821 34584
" />
<path d="M57234 34490
L56953 34396
L56953 34640
" />
<path d="M57215 34753
L57215 35015
L56821 34846
" />
<g transform="rotate(90 57000 28500)">
<text x="57000" y="28696.9"
textLength="1220.38" font-size="524.934" lengthAdjust="spacingAndGlyphs"
text-anchor="middle" opacity="0">D46</text>
</g>
<path d="M56821 28021
L57215 28021
L57215 28115
L57196 28171
L57159 28209
L57121 28228
L57046 28246
L56990 28246
L56915 28228
L56878 28209
L56840 28171
L56821 28115
L56821 28021
" />
<path d="M57084 28584
L56821 28584
" />
<path d="M57234 28490
L56953 28396
L56953 28640
" />
<path d="M57215 28959
L57215 28884
L57196 28846
L57178 28828
L57121 28790
L57046 28771
L56896 28771
L56859 28790
L56840 28809
L56821 28846
L56821 28921
L56840 28959
L56859 28978
L56896 28996
L56990 28996
L57028 28978
L57046 28959
L57065 28921
L57065 28846
L57046 28809
L57028 28790
L56990 28771
" />
<text x="56000" y="25696.9"
textLength="1220.38" font-size="524.934" lengthAdjust="spacingAndGlyphs"
text-anchor="middle" opacity="0">D45</text>
<path d="M55521 25678
L55521 25284
L55615 25284
L55671 25303
L55709 25340
L55728 25378
L55746 25453
L55746 25509
L55728 25584
L55709 25621
L55671 25659
L55615 25678
L55521 25678
" />
<path d="M56084 25415
L56084 25678
" />
<path d="M55990 25265
L55896 25546
L56140 25546
" />
<path d="M56478 25284
L56290 25284
L56271 25471
L56290 25453
L56328 25434
L56421 25434
L56459 25453
L56478 25471
L56496 25509
L56496 25603
L56478 25640
L56459 25659
L56421 25678
L56328 25678
L56290 25659
L56271 25640
" />
<text x="64000" y="29531.5"
textLength="1220.38" font-size="524.934" lengthAdjust="spacingAndGlyphs"
text-anchor="middle" opacity="0">D44</text>
<path d="M63521 29512
L63521 29119
L63615 29119
L63671 29137
L63709 29175
L63728 29212
L63746 29287
L63746 29344
L63728 29419
L63709 29456
L63671 29494
L63615 29512
L63521 29512
" />
<path d="M64084 29250
L64084 29512
" />
<path d="M63990 29100
L63896 29381
L64140 29381
" />
<path d="M64459 29250
L64459 29512
" />
<path d="M64365 29100
L64271 29381
L64515 29381
" />
<g transform="rotate(-90 63000 28500)">
<text x="63000" y="28696.9"
textLength="1220.38" font-size="524.934" lengthAdjust="spacingAndGlyphs"
text-anchor="middle" opacity="0">D43</text>
</g>
<path d="M63178 28978
L62784 28978
L62784 28884
L62803 28828
L62840 28790
L62878 28771
L62953 28753
L63009 28753
L63084 28771
L63121 28790
L63159 28828
L63178 28884
L63178 28978
" />
<path d="M62915 28415
L63178 28415
" />
<path d="M62765 28509
L63046 28603
L63046 28359
" />
<path d="M62784 28246
L62784 28003
L62934 28134
L62934 28078
L62953 28040
L62971 28021
L63009 28003
L63103 28003
L63140 28021
L63159 28040
L63178 28078
L63178 28190
L63159 28228
L63140 28246
" />
<g transform="rotate(-90 63000 34500)">
<text x="63000" y="34696.9"
textLength="1220.38" font-size="524.934" lengthAdjust="spacingAndGlyphs"
text-anchor="middle" opacity="0">D42</text>
</g>
<path d="M63178 34978
L62784 34978
L62784 34884
L62803 34828
L62840 34790
L62878 34771
L62953 34753
L63009 34753
L63084 34771
L63121 34790
L63159 34828
L63178 34884
L63178 34978
" />
<path d="M62915 34415
L63178 34415
" />
<path d="M62765 34509
L63046 34603
L63046 34359
" />
<path d="M62821 34228
L62803 34209
L62784 34171
L62784 34078
L62803 34040
L62821 34021
L62859 34003
L62896 34003
L62953 34021
L63178 34246
L63178 34003
" />
<text x="64000" y="35696.9"
textLength="1220.38" font-size="524.934" lengthAdjust="spacingAndGlyphs"
text-anchor="middle" opacity="0">D41</text>
<path d="M63521 35678
L63521 35284
L63615 35284
L63671 35303
L63709 35340
L63728 35378
L63746 35453
L63746 35509
L63728 35584
L63709 35621
L63671 35659
L63615 35678
L63521 35678
" />
<path d="M64084 35415
L64084 35678
" />
<path d="M63990 35265
L63896 35546
L64140 35546
" />
<path d="M64496 35678
L64271 35678
" />
<path d="M64384 35678
L64384 35284
L64346 35340
L64309 35378
L64271 35396
" />
<g transform="rotate(90 67000 32500)">
<text x="67000" y="32696.9"
textLength="1220.38" font-size="524.934" lengthAdjust="spacingAndGlyphs"
text-anchor="middle" opacity="0">D40</text>
</g>
<path d="M66821 32021
L67215 32021
L67215 32115
L67196 32171
L67159 32209
L67121 32228
L67046 32246
L66990 32246
L66915 32228
L66878 32209
L66840 32171
L66821 32115
L66821 32021
" />
<path d="M67084 32584
L66821 32584
" />
<path d="M67234 32490
L66953 32396
L66953 32640
" />
<path d="M67215 32865
L67215 32903
L67196 32940
L67178 32959
L67140 32978
L67065 32996
L66971 32996
L66896 32978
L66859 32959
L66840 32940
L66821 32903
L66821 32865
L66840 32828
L66859 32809
L66896 32790
L66971 32771
L67065 32771
L67140 32790
L67178 32809
L67196 32828
L67215 32865
" />
<g transform="rotate(90 67000 26500)">
<text x="67000" y="26696.9"
textLength="1220.38" font-size="524.934" lengthAdjust="spacingAndGlyphs"
text-anchor="middle" opacity="0">D39</text>
</g>
<path d="M66821 26021
L67215 26021
L67215 26115
L67196 26171
L67159 26209
L67121 26228
L67046 26246
L66990 26246
L66915 26228
L66878 26209
L66840 26171
L66821 26115
L66821 26021
" />
<path d="M67215 26378
L67215 26621
L67065 26490
L67065 26546
L67046 26584
L67028 26603
L66990 26621
L66896 26621
L66859 26603
L66840 26584
L66821 26546
L66821 26434
L66840 26396
L66859 26378
" />
<path d="M66821 26809
L66821 26884
L66840 26921
L66859 26940
L66915 26978
L66990 26996
L67140 26996
L67178 26978
L67196 26959
L67215 26921
L67215 26846
L67196 26809
L67178 26790
L67140 26771
L67046 26771
L67009 26790
L66990 26809
L66971 26846
L66971 26921
L66990 26959
L67009 26978
L67046 26996
" />
<text x="64000" y="25696.9"
textLength="1220.38" font-size="524.934" lengthAdjust="spacingAndGlyphs"
text-anchor="middle" opacity="0">D38</text>
<path d="M63521 25678
L63521 25284
L63615 25284
L63671 25303
L63709 25340
L63728 25378
L63746 25453
L63746 25509
L63728 25584
L63709 25621
L63671 25659
L63615 25678
L63521 25678
" />
<path d="M63878 25284
L64121 25284
L63990 25434
L64046 25434
L64084 25453
L64103 25471
L64121 25509
L64121 25603
L64103 25640
L64084 25659
L64046 25678
L63934 25678
L63896 25659
L63878 25640
" />
<path d="M64346 25453
L64309 25434
L64290 25415
L64271 25378
L64271 25359
L64290 25321
L64309 25303
L64346 25284
L64421 25284
L64459 25303
L64478 25321
L64496 25359
L64496 25378
L64478 25415
L64459 25434
L64421 25453
L64346 25453
L64309 25471
L64290 25490
L64271 25528
L64271 25603
L64290 25640
L64309 25659
L64346 25678
L64421 25678
L64459 25659
L64478 25640
L64496 25603
L64496 25528
L64478 25490
L64459 25471
L64421 25453
" />
<text x="54000" y="29696.9"
textLength="1220.38" font-size="524.934" lengthAdjust="spacingAndGlyphs"
text-anchor="middle" opacity="0">D37</text>
<path d="M53521 29678
L53521 29284
L53615 29284
L53671 29303
L53709 29340
L53728 29378
L53746 29453
L53746 29509
L53728 29584
L53709 29621
L53671 29659
L53615 29678
L53521 29678
" />
<path d="M53878 29284
L54121 29284
L53990 29434
L54046 29434
L54084 29453
L54103 29471
L54121 29509
L54121 29603
L54103 29640
L54084 29659
L54046 29678
L53934 29678
L53896 29659
L53878 29640
" />
<path d="M54253 29284
L54515 29284
L54346 29678
" />
<g transform="rotate(-90 53000 28500)">
<text x="53000" y="28696.9"
textLength="1220.38" font-size="524.934" lengthAdjust="spacingAndGlyphs"
text-anchor="middle" opacity="0">D36</text>
</g>
<path d="M53178 28978
L52784 28978
L52784 28884
L52803 28828
L52840 28790
L52878 28771
L52953 28753
L53009 28753
L53084 28771
L53121 28790
L53159 28828
L53178 28884
L53178 28978
" />
<path d="M52784 28621
L52784 28378
L52934 28509
L52934 28453
L52953 28415
L52971 28396
L53009 28378
L53103 28378
L53140 28396
L53159 28415
L53178 28453
L53178 28565
L53159 28603
L53140 28621
" />
<path d="M52784 28040
L52784 28115
L52803 28153
L52821 28171
L52878 28209
L52953 28228
L53103 28228
L53140 28209
L53159 28190
L53178 28153
L53178 28078
L53159 28040
L53140 28021
L53103 28003
L53009 28003
L52971 28021
L52953 28040
L52934 28078
L52934 28153
L52953 28190
L52971 28209
L53009 28228
" />
<g transform="rotate(-90 53000 34500)">
<text x="53000" y="34696.9"
textLength="1220.38" font-size="524.934" lengthAdjust="spacingAndGlyphs"
text-anchor="middle" opacity="0">D35</text>
</g>
<path d="M53178 34978
L52784 34978
L52784 34884
L52803 34828
L52840 34790
L52878 34771
L52953 34753
L53009 34753
L53084 34771
L53121 34790
L53159 34828
L53178 34884
L53178 34978
" />
<path d="M52784 34621
L52784 34378
L52934 34509
L52934 34453
L52953 34415
L52971 34396
L53009 34378
L53103 34378
L53140 34396
L53159 34415
L53178 34453
L53178 34565
L53159 34603
L53140 34621
" />
<path d="M52784 34021
L52784 34209
L52971 34228
L52953 34209
L52934 34171
L52934 34078
L52953 34040
L52971 34021
L53009 34003
L53103 34003
L53140 34021
L53159 34040
L53178 34078
L53178 34171
L53159 34209
L53140 34228
" />
<text x="54000" y="35696.9"
textLength="1220.38" font-size="524.934" lengthAdjust="spacingAndGlyphs"
text-anchor="middle" opacity="0">D34</text>
<path d="M53521 35678
L53521 35284
L53615 35284
L53671 35303
L53709 35340
L53728 35378
L53746 35453
L53746 35509
L53728 35584
L53709 35621
L53671 35659
L53615 35678
L53521 35678
" />
<path d="M53878 35284
L54121 35284
L53990 35434
L54046 35434
L54084 35453
L54103 35471
L54121 35509
L54121 35603
L54103 35640
L54084 35659
L54046 35678
L53934 35678
L53896 35659
L53878 35640
" />
<path d="M54459 35415
L54459 35678
" />
<path d="M54365 35265
L54271 35546
L54515 35546
" />
<g transform="rotate(90 57000 32500)">
<text x="57000" y="32696.9"
textLength="1220.38" font-size="524.934" lengthAdjust="spacingAndGlyphs"
text-anchor="middle" opacity="0">D33</text>
</g>
<path d="M56821 32021
L57215 32021
L57215 32115
L57196 32171
L57159 32209
L57121 32228
L57046 32246
L56990 32246
L56915 32228
L56878 32209
L56840 32171
L56821 32115
L56821 32021
" />
<path d="M57215 32378
L57215 32621
L57065 32490
L57065 32546
L57046 32584
L57028 32603
L56990 32621
L56896 32621
L56859 32603
L56840 32584
L56821 32546
L56821 32434
L56840 32396
L56859 32378
" />
<path d="M57215 32753
L57215 32996
L57065 32865
L57065 32921
L57046 32959
L57028 32978
L56990 32996
L56896 32996
L56859 32978
L56840 32959
L56821 32921
L56821 32809
L56840 32771
L56859 32753
" />
<g transform="rotate(90 57000 26500)">
<text x="57000" y="26696.9"
textLength="1220.38" font-size="524.934" lengthAdjust="spacingAndGlyphs"
text-anchor="middle" opacity="0">D32</text>
</g>
<path d="M56821 26021
L57215 26021
L57215 26115
L57196 26171
L57159 26209
L57121 26228
L57046 26246
L56990 26246
L56915 26228
L56878 26209
L56840 26171
L56821 26115
L56821 26021
" />
<path d="M57215 26378
L57215 26621
L57065 26490
L57065 26546
L57046 26584
L57028 26603
L56990 26621
L56896 26621
L56859 26603
L56840 26584
L56821 26546
L56821 26434
L56840 26396
L56859 26378
" />
<path d="M57178 26771
L57196 26790
L57215 26828
L57215 26921
L57196 26959
L57178 26978
L57140 26996
L57103 26996
L57046 26978
L56821 26753
L56821 26996
" />
<text x="54000" y="25696.9"
textLength="1220.38" font-size="524.934" lengthAdjust="spacingAndGlyphs"
text-anchor="middle" opacity="0">D31</text>
<path d="M53521 25678
L53521 25284
L53615 25284
L53671 25303
L53709 25340
L53728 25378
L53746 25453
L53746 25509
L53728 25584
L53709 25621
L53671 25659
L53615 25678
L53521 25678
" />
<path d="M53878 25284
L54121 25284
L53990 25434
L54046 25434
L54084 25453
L54103 25471
L54121 25509
L54121 25603
L54103 25640
L54084 25659
L54046 25678
L53934 25678
L53896 25659
L53878 25640
" />
<path d="M54496 25678
L54271 25678
" />
<path d="M54384 25678
L54384 25284
L54346 25340
L54309 25378
L54271 25396
" />
<text x="50000" y="35696.9"
textLength="1220.38" font-size="524.934" lengthAdjust="spacingAndGlyphs"
text-anchor="middle" opacity="0">D30</text>
<path d="M49521 35678
L49521 35284
L49615 35284
L49671 35303
L49709 35340
L49728 35378
L49746 35453
L49746 35509
L49728 35584
L49709 35621
L49671 35659
L49615 35678
L49521 35678
" />
<path d="M49878 35284
L50121 35284
L49990 35434
L50046 35434
L50084 35453
L50103 35471
L50121 35509
L50121 35603
L50103 35640
L50084 35659
L50046 35678
L49934 35678
L49896 35659
L49878 35640
" />
<path d="M50365 35284
L50403 35284
L50440 35303
L50459 35321
L50478 35359
L50496 35434
L50496 35528
L50478 35603
L50459 35640
L50440 35659
L50403 35678
L50365 35678
L50328 35659
L50309 35640
L50290 35603
L50271 35528
L50271 35434
L50290 35359
L50309 35321
L50328 35303
L50365 35284
" />
<text x="46000" y="29696.9"
textLength="1220.38" font-size="524.934" lengthAdjust="spacingAndGlyphs"
text-anchor="middle" opacity="0">D29</text>
<path d="M45521 29678
L45521 29284
L45615 29284
L45671 29303
L45709 29340
L45728 29378
L45746 29453
L45746 29509
L45728 29584
L45709 29621
L45671 29659
L45615 29678
L45521 29678
" />
<path d="M45896 29321
L45915 29303
L45953 29284
L46046 29284
L46084 29303
L46103 29321
L46121 29359
L46121 29396
L46103 29453
L45878 29678
L46121 29678
" />
<path d="M46309 29678
L46384 29678
L46421 29659
L46440 29640
L46478 29584
L46496 29509
L46496 29359
L46478 29321
L46459 29303
L46421 29284
L46346 29284
L46309 29303
L46290 29321
L46271 29359
L46271 29453
L46290 29490
L46309 29509
L46346 29528
L46421 29528
L46459 29509
L46478 29490
L46496 29453
" />
<g transform="rotate(-90 43000 26500)">
<text x="43000" y="26696.9"
textLength="1220.38" font-size="524.934" lengthAdjust="spacingAndGlyphs"
text-anchor="middle" opacity="0">D28</text>
</g>
<path d="M43178 26978
L42784 26978
L42784 26884
L42803 26828
L42840 26790
L42878 26771
L42953 26753
L43009 26753
L43084 26771
L43121 26790
L43159 26828
L43178 26884
L43178 26978
" />
<path d="M42821 26603
L42803 26584
L42784 26546
L42784 26453
L42803 26415
L42821 26396
L42859 26378
L42896 26378
L42953 26396
L43178 26621
L43178 26378
" />
<path d="M42953 26153
L42934 26190
L42915 26209
L42878 26228
L42859 26228
L42821 26209
L42803 26190
L42784 26153
L42784 26078
L42803 26040
L42821 26021
L42859 26003
L42878 26003
L42915 26021
L42934 26040
L42953 26078
L42953 26153
L42971 26190
L42990 26209
L43028 26228
L43103 26228
L43140 26209
L43159 26190
L43178 26153
L43178 26078
L43159 26040
L43140 26021
L43103 26003
L43028 26003
L42990 26021
L42971 26040
L42953 26078
" />
<g transform="rotate(-90 43000 32500)">
<text x="43000" y="32696.9"
textLength="1220.38" font-size="524.934" lengthAdjust="spacingAndGlyphs"
text-anchor="middle" opacity="0">D27</text>
</g>
<path d="M43178 32978
L42784 32978
L42784 32884
L42803 32828
L42840 32790
L42878 32771
L42953 32753
L43009 32753
L43084 32771
L43121 32790
L43159 32828
L43178 32884
L43178 32978
" />
<path d="M42821 32603
L42803 32584
L42784 32546
L42784 32453
L42803 32415
L42821 32396
L42859 32378
L42896 32378
L42953 32396
L43178 32621
L43178 32378
" />
<path d="M42784 32246
L42784 31984
L43178 32153
" />
<text x="46000" y="35696.9"
textLength="1220.38" font-size="524.934" lengthAdjust="spacingAndGlyphs"
text-anchor="middle" opacity="0">D26</text>
<path d="M45521 35678
L45521 35284
L45615 35284
L45671 35303
L45709 35340
L45728 35378
L45746 35453
L45746 35509
L45728 35584
L45709 35621
L45671 35659
L45615 35678
L45521 35678
" />
<path d="M45896 35321
L45915 35303
L45953 35284
L46046 35284
L46084 35303
L46103 35321
L46121 35359
L46121 35396
L46103 35453
L45878 35678
L46121 35678
" />
<path d="M46459 35284
L46384 35284
L46346 35303
L46328 35321
L46290 35378
L46271 35453
L46271 35603
L46290 35640
L46309 35659
L46346 35678
L46421 35678
L46459 35659
L46478 35640
L46496 35603
L46496 35509
L46478 35471
L46459 35453
L46421 35434
L46346 35434
L46309 35453
L46290 35471
L46271 35509
" />
<g transform="rotate(90 47000 34500)">
<text x="47000" y="34696.9"
textLength="1220.38" font-size="524.934" lengthAdjust="spacingAndGlyphs"
text-anchor="middle" opacity="0">D25</text>
</g>
<path d="M46821 34021
L47215 34021
L47215 34115
L47196 34171
L47159 34209
L47121 34228
L47046 34246
L46990 34246
L46915 34228
L46878 34209
L46840 34171
L46821 34115
L46821 34021
" />
<path d="M47178 34396
L47196 34415
L47215 34453
L47215 34546
L47196 34584
L47178 34603
L47140 34621
L47103 34621
L47046 34603
L46821 34378
L46821 34621
" />
<path d="M47215 34978
L47215 34790
L47028 34771
L47046 34790
L47065 34828
L47065 34921
L47046 34959
L47028 34978
L46990 34996
L46896 34996
L46859 34978
L46840 34959
L46821 34921
L46821 34828
L46840 34790
L46859 34771
" />
<g transform="rotate(90 47000 28500)">
<text x="47000" y="28696.9"
textLength="1220.38" font-size="524.934" lengthAdjust="spacingAndGlyphs"
text-anchor="middle" opacity="0">D24</text>
</g>
<path d="M46821 28021
L47215 28021
L47215 28115
L47196 28171
L47159 28209
L47121 28228
L47046 28246
L46990 28246
L46915 28228
L46878 28209
L46840 28171
L46821 28115
L46821 28021
" />
<path d="M47178 28396
L47196 28415
L47215 28453
L47215 28546
L47196 28584
L47178 28603
L47140 28621
L47103 28621
L47046 28603
L46821 28378
L46821 28621
" />
<path d="M47084 28959
L46821 28959
" />
<path d="M47234 28865
L46953 28771
L46953 29015
" />
<text x="46000" y="25696.9"
textLength="1220.38" font-size="524.934" lengthAdjust="spacingAndGlyphs"
text-anchor="middle" opacity="0">D23</text>
<path d="M45521 25678
L45521 25284
L45615 25284
L45671 25303
L45709 25340
L45728 25378
L45746 25453
L45746 25509
L45728 25584
L45709 25621
L45671 25659
L45615 25678
L45521 25678
" />
<path d="M45896 25321
L45915 25303
L45953 25284
L46046 25284
L46084 25303
L46103 25321
L46121 25359
L46121 25396
L46103 25453
L45878 25678
L46121 25678
" />
<path d="M46253 25284
L46496 25284
L46365 25434
L46421 25434
L46459 25453
L46478 25471
L46496 25509
L46496 25603
L46478 25640
L46459 25659
L46421 25678
L46309 25678
L46271 25659
L46253 25640
" />
<text x="40000" y="35696.9"
textLength="1220.38" font-size="524.934" lengthAdjust="spacingAndGlyphs"
text-anchor="middle" opacity="0">D22</text>
<path d="M39521 35678
L39521 35284
L39615 35284
L39671 35303
L39709 35340
L39728 35378
L39746 35453
L39746 35509
L39728 35584
L39709 35621
L39671 35659
L39615 35678
L39521 35678
" />
<path d="M39896 35321
L39915 35303
L39953 35284
L40046 35284
L40084 35303
L40103 35321
L40121 35359
L40121 35396
L40103 35453
L39878 35678
L40121 35678
" />
<path d="M40271 35321
L40290 35303
L40328 35284
L40421 35284
L40459 35303
L40478 35321
L40496 35359
L40496 35396
L40478 35453
L40253 35678
L40496 35678
" />
<text x="36000" y="29696.9"
textLength="1220.38" font-size="524.934" lengthAdjust="spacingAndGlyphs"
text-anchor="middle" opacity="0">D21</text>
<path d="M35521 29678
L35521 29284
L35615 29284
L35671 29303
L35709 29340
L35728 29378
L35746 29453
L35746 29509
L35728 29584
L35709 29621
L35671 29659
L35615 29678
L35521 29678
" />
<path d="M35896 29321
L35915 29303
L35953 29284
L36046 29284
L36084 29303
L36103 29321
L36121 29359
L36121 29396
L36103 29453
L35878 29678
L36121 29678
" />
<path d="M36496 29678
L36271 29678
" />
<path d="M36384 29678
L36384 29284
L36346 29340
L36309 29378
L36271 29396
" />
<g transform="rotate(-90 33000 26500)">
<text x="33000" y="26696.9"
textLength="1220.38" font-size="524.934" lengthAdjust="spacingAndGlyphs"
text-anchor="middle" opacity="0">D20</text>
</g>
<path d="M33178 26978
L32784 26978
L32784 26884
L32803 26828
L32840 26790
L32878 26771
L32953 26753
L33009 26753
L33084 26771
L33121 26790
L33159 26828
L33178 26884
L33178 26978
" />
<path d="M32821 26603
L32803 26584
L32784 26546
L32784 26453
L32803 26415
L32821 26396
L32859 26378
L32896 26378
L32953 26396
L33178 26621
L33178 26378
" />
<path d="M32784 26134
L32784 26096
L32803 26059
L32821 26040
L32859 26021
L32934 26003
L33028 26003
L33103 26021
L33140 26040
L33159 26059
L33178 26096
L33178 26134
L33159 26171
L33140 26190
L33103 26209
L33028 26228
L32934 26228
L32859 26209
L32821 26190
L32803 26171
L32784 26134
" />
<g transform="rotate(-90 33000 32500)">
<text x="33000" y="32696.9"
textLength="1220.38" font-size="524.934" lengthAdjust="spacingAndGlyphs"
text-anchor="middle" opacity="0">D19</text>
</g>
<path d="M33178 32978
L32784 32978
L32784 32884
L32803 32828
L32840 32790
L32878 32771
L32953 32753
L33009 32753
L33084 32771
L33121 32790
L33159 32828
L33178 32884
L33178 32978
" />
<path d="M33178 32378
L33178 32603
" />
<path d="M33178 32490
L32784 32490
L32840 32528
L32878 32565
L32896 32603
" />
<path d="M33178 32190
L33178 32115
L33159 32078
L33140 32059
L33084 32021
L33009 32003
L32859 32003
L32821 32021
L32803 32040
L32784 32078
L32784 32153
L32803 32190
L32821 32209
L32859 32228
L32953 32228
L32990 32209
L33009 32190
L33028 32153
L33028 32078
L33009 32040
L32990 32021
L32953 32003
" />
<text x="36000" y="35696.9"
textLength="1220.38" font-size="524.934" lengthAdjust="spacingAndGlyphs"
text-anchor="middle" opacity="0">D18</text>
<path d="M35521 35678
L35521 35284
L35615 35284
L35671 35303
L35709 35340
L35728 35378
L35746 35453
L35746 35509
L35728 35584
L35709 35621
L35671 35659
L35615 35678
L35521 35678
" />
<path d="M36121 35678
L35896 35678
" />
<path d="M36009 35678
L36009 35284
L35971 35340
L35934 35378
L35896 35396
" />
<path d="M36346 35453
L36309 35434
L36290 35415
L36271 35378
L36271 35359
L36290 35321
L36309 35303
L36346 35284
L36421 35284
L36459 35303
L36478 35321
L36496 35359
L36496 35378
L36478 35415
L36459 35434
L36421 35453
L36346 35453
L36309 35471
L36290 35490
L36271 35528
L36271 35603
L36290 35640
L36309 35659
L36346 35678
L36421 35678
L36459 35659
L36478 35640
L36496 35603
L36496 35528
L36478 35490
L36459 35471
L36421 35453
" />
<g transform="rotate(90 37000 34500)">
<text x="37000" y="34696.9"
textLength="1220.38" font-size="524.934" lengthAdjust="spacingAndGlyphs"
text-anchor="middle" opacity="0">D17</text>
</g>
<path d="M36821 34021
L37215 34021
L37215 34115
L37196 34171
L37159 34209
L37121 34228
L37046 34246
L36990 34246
L36915 34228
L36878 34209
L36840 34171
L36821 34115
L36821 34021
" />
<path d="M36821 34621
L36821 34396
" />
<path d="M36821 34509
L37215 34509
L37159 34471
L37121 34434
L37103 34396
" />
<path d="M37215 34753
L37215 35015
L36821 34846
" />
<g transform="rotate(90 37000 28500)">
<text x="37000" y="28696.9"
textLength="1220.38" font-size="524.934" lengthAdjust="spacingAndGlyphs"
text-anchor="middle" opacity="0">D16</text>
</g>
<path d="M36821 28021
L37215 28021
L37215 28115
L37196 28171
L37159 28209
L37121 28228
L37046 28246
L36990 28246
L36915 28228
L36878 28209
L36840 28171
L36821 28115
L36821 28021
" />
<path d="M36821 28621
L36821 28396
" />
<path d="M36821 28509
L37215 28509
L37159 28471
L37121 28434
L37103 28396
" />
<path d="M37215 28959
L37215 28884
L37196 28846
L37178 28828
L37121 28790
L37046 28771
L36896 28771
L36859 28790
L36840 28809
L36821 28846
L36821 28921
L36840 28959
L36859 28978
L36896 28996
L36990 28996
L37028 28978
L37046 28959
L37065 28921
L37065 28846
L37046 28809
L37028 28790
L36990 28771
" />
<text x="36000" y="25696.9"
textLength="1220.38" font-size="524.934" lengthAdjust="spacingAndGlyphs"
text-anchor="middle" opacity="0">D15</text>
<path d="M35521 25678
L35521 25284
L35615 25284
L35671 25303
L35709 25340
L35728 25378
L35746 25453
L35746 25509
L35728 25584
L35709 25621
L35671 25659
L35615 25678
L35521 25678
" />
<path d="M36121 25678
L35896 25678
" />
<path d="M36009 25678
L36009 25284
L35971 25340
L35934 25378
L35896 25396
" />
<path d="M36478 25284
L36290 25284
L36271 25471
L36290 25453
L36328 25434
L36421 25434
L36459 25453
L36478 25471
L36496 25509
L36496 25603
L36478 25640
L36459 25659
L36421 25678
L36328 25678
L36290 25659
L36271 25640
" />
<text x="44000" y="29696.9"
textLength="1220.38" font-size="524.934" lengthAdjust="spacingAndGlyphs"
text-anchor="middle" opacity="0">D14</text>
<path d="M43521 29678
L43521 29284
L43615 29284
L43671 29303
L43709 29340
L43728 29378
L43746 29453
L43746 29509
L43728 29584
L43709 29621
L43671 29659
L43615 29678
L43521 29678
" />
<path d="M44121 29678
L43896 29678
" />
<path d="M44009 29678
L44009 29284
L43971 29340
L43934 29378
L43896 29396
" />
<path d="M44459 29415
L44459 29678
" />
<path d="M44365 29265
L44271 29546
L44515 29546
" />
<g transform="rotate(-90 43000 28500)">
<text x="43000" y="28696.9"
textLength="1220.38" font-size="524.934" lengthAdjust="spacingAndGlyphs"
text-anchor="middle" opacity="0">D13</text>
</g>
<path d="M43178 28978
L42784 28978
L42784 28884
L42803 28828
L42840 28790
L42878 28771
L42953 28753
L43009 28753
L43084 28771
L43121 28790
L43159 28828
L43178 28884
L43178 28978
" />
<path d="M43178 28378
L43178 28603
" />
<path d="M43178 28490
L42784 28490
L42840 28528
L42878 28565
L42896 28603
" />
<path d="M42784 28246
L42784 28003
L42934 28134
L42934 28078
L42953 28040
L42971 28021
L43009 28003
L43103 28003
L43140 28021
L43159 28040
L43178 28078
L43178 28190
L43159 28228
L43140 28246
" />
<g transform="rotate(-90 43000 34500)">
<text x="43000" y="34696.9"
textLength="1220.38" font-size="524.934" lengthAdjust="spacingAndGlyphs"
text-anchor="middle" opacity="0">D12</text>
</g>
<path d="M43178 34978
L42784 34978
L42784 34884
L42803 34828
L42840 34790
L42878 34771
L42953 34753
L43009 34753
L43084 34771
L43121 34790
L43159 34828
L43178 34884
L43178 34978
" />
<path d="M43178 34378
L43178 34603
" />
<path d="M43178 34490
L42784 34490
L42840 34528
L42878 34565
L42896 34603
" />
<path d="M42821 34228
L42803 34209
L42784 34171
L42784 34078
L42803 34040
L42821 34021
L42859 34003
L42896 34003
L42953 34021
L43178 34246
L43178 34003
" />
<text x="44000" y="35696.9"
textLength="1220.38" font-size="524.934" lengthAdjust="spacingAndGlyphs"
text-anchor="middle" opacity="0">D11</text>
<path d="M43521 35678
L43521 35284
L43615 35284
L43671 35303
L43709 35340
L43728 35378
L43746 35453
L43746 35509
L43728 35584
L43709 35621
L43671 35659
L43615 35678
L43521 35678
" />
<path d="M44121 35678
L43896 35678
" />
<path d="M44009 35678
L44009 35284
L43971 35340
L43934 35378
L43896 35396
" />
<path d="M44496 35678
L44271 35678
" />
<path d="M44384 35678
L44384 35284
L44346 35340
L44309 35378
L44271 35396
" />
<g transform="rotate(90 47000 32500)">
<text x="47000" y="32696.9"
textLength="1220.38" font-size="524.934" lengthAdjust="spacingAndGlyphs"
text-anchor="middle" opacity="0">D10</text>
</g>
<path d="M46821 32021
L47215 32021
L47215 32115
L47196 32171
L47159 32209
L47121 32228
L47046 32246
L46990 32246
L46915 32228
L46878 32209
L46840 32171
L46821 32115
L46821 32021
" />
<path d="M46821 32621
L46821 32396
" />
<path d="M46821 32509
L47215 32509
L47159 32471
L47121 32434
L47103 32396
" />
<path d="M47215 32865
L47215 32903
L47196 32940
L47178 32959
L47140 32978
L47065 32996
L46971 32996
L46896 32978
L46859 32959
L46840 32940
L46821 32903
L46821 32865
L46840 32828
L46859 32809
L46896 32790
L46971 32771
L47065 32771
L47140 32790
L47178 32809
L47196 32828
L47215 32865
" />
<g transform="rotate(90 47000 26500)">
<text x="47000" y="26696.9"
textLength="845.426" font-size="524.934" lengthAdjust="spacingAndGlyphs"
text-anchor="middle" opacity="0">D9</text>
</g>
<path d="M46821 26209
L47215 26209
L47215 26303
L47196 26359
L47159 26396
L47121 26415
L47046 26434
L46990 26434
L46915 26415
L46878 26396
L46840 26359
L46821 26303
L46821 26209
" />
<path d="M46821 26621
L46821 26696
L46840 26734
L46859 26753
L46915 26790
L46990 26809
L47140 26809
L47178 26790
L47196 26771
L47215 26734
L47215 26659
L47196 26621
L47178 26603
L47140 26584
L47046 26584
L47009 26603
L46990 26621
L46971 26659
L46971 26734
L46990 26771
L47009 26790
L47046 26809
" />
<text x="44000" y="25696.9"
textLength="845.426" font-size="524.934" lengthAdjust="spacingAndGlyphs"
text-anchor="middle" opacity="0">D8</text>
<path d="M43709 25678
L43709 25284
L43803 25284
L43859 25303
L43896 25340
L43915 25378
L43934 25453
L43934 25509
L43915 25584
L43896 25621
L43859 25659
L43803 25678
L43709 25678
" />
<path d="M44159 25453
L44121 25434
L44103 25415
L44084 25378
L44084 25359
L44103 25321
L44121 25303
L44159 25284
L44234 25284
L44271 25303
L44290 25321
L44309 25359
L44309 25378
L44290 25415
L44271 25434
L44234 25453
L44159 25453
L44121 25471
L44103 25490
L44084 25528
L44084 25603
L44103 25640
L44121 25659
L44159 25678
L44234 25678
L44271 25659
L44290 25640
L44309 25603
L44309 25528
L44290 25490
L44271 25471
L44234 25453
" />
<text x="34000" y="29696.9"
textLength="845.426" font-size="524.934" lengthAdjust="spacingAndGlyphs"
text-anchor="middle" opacity="0">D7</text>
<path d="M33709 29678
L33709 29284
L33803 29284
L33859 29303
L33896 29340
L33915 29378
L33934 29453
L33934 29509
L33915 29584
L33896 29621
L33859 29659
L33803 29678
L33709 29678
" />
<path d="M34065 29284
L34328 29284
L34159 29678
" />
<g transform="rotate(-90 33000 28500)">
<text x="33000" y="28696.9"
textLength="845.426" font-size="524.934" lengthAdjust="spacingAndGlyphs"
text-anchor="middle" opacity="0">D6</text>
</g>
<path d="M33178 28790
L32784 28790
L32784 28696
L32803 28640
L32840 28603
L32878 28584
L32953 28565
L33009 28565
L33084 28584
L33121 28603
L33159 28640
L33178 28696
L33178 28790
" />
<path d="M32784 28228
L32784 28303
L32803 28340
L32821 28359
L32878 28396
L32953 28415
L33103 28415
L33140 28396
L33159 28378
L33178 28340
L33178 28265
L33159 28228
L33140 28209
L33103 28190
L33009 28190
L32971 28209
L32953 28228
L32934 28265
L32934 28340
L32953 28378
L32971 28396
L33009 28415
" />
<g transform="rotate(-90 33000 34500)">
<text x="33000" y="34696.9"
textLength="845.426" font-size="524.934" lengthAdjust="spacingAndGlyphs"
text-anchor="middle" opacity="0">D5</text>
</g>
<path d="M33178 34790
L32784 34790
L32784 34696
L32803 34640
L32840 34603
L32878 34584
L32953 34565
L33009 34565
L33084 34584
L33121 34603
L33159 34640
L33178 34696
L33178 34790
" />
<path d="M32784 34209
L32784 34396
L32971 34415
L32953 34396
L32934 34359
L32934 34265
L32953 34228
L32971 34209
L33009 34190
L33103 34190
L33140 34209
L33159 34228
L33178 34265
L33178 34359
L33159 34396
L33140 34415
" />
<text x="34000" y="35696.9"
textLength="845.426" font-size="524.934" lengthAdjust="spacingAndGlyphs"
text-anchor="middle" opacity="0">D4</text>
<path d="M33709 35678
L33709 35284
L33803 35284
L33859 35303
L33896 35340
L33915 35378
L33934 35453
L33934 35509
L33915 35584
L33896 35621
L33859 35659
L33803 35678
L33709 35678
" />
<path d="M34271 35415
L34271 35678
" />
<path d="M34178 35265
L34084 35546
L34328 35546
" />
<g transform="rotate(90 37000 32500)">
<text x="37000" y="32696.9"
textLength="845.426" font-size="524.934" lengthAdjust="spacingAndGlyphs"
text-anchor="middle" opacity="0">D3</text>
</g>
<path d="M36821 32209
L37215 32209
L37215 32303
L37196 32359
L37159 32396
L37121 32415
L37046 32434
L36990 32434
L36915 32415
L36878 32396
L36840 32359
L36821 32303
L36821 32209
" />
<path d="M37215 32565
L37215 32809
L37065 32678
L37065 32734
L37046 32771
L37028 32790
L36990 32809
L36896 32809
L36859 32790
L36840 32771
L36821 32734
L36821 32621
L36840 32584
L36859 32565
" />
<g transform="rotate(90 37000 26500)">
<text x="37000" y="26696.9"
textLength="845.426" font-size="524.934" lengthAdjust="spacingAndGlyphs"
text-anchor="middle" opacity="0">D2</text>
</g>
<path d="M36821 26209
L37215 26209
L37215 26303
L37196 26359
L37159 26396
L37121 26415
L37046 26434
L36990 26434
L36915 26415
L36878 26396
L36840 26359
L36821 26303
L36821 26209
" />
<path d="M37178 26584
L37196 26603
L37215 26640
L37215 26734
L37196 26771
L37178 26790
L37140 26809
L37103 26809
L37046 26790
L36821 26565
L36821 26809
" />
<text x="34000" y="25696.9"
textLength="845.426" font-size="524.934" lengthAdjust="spacingAndGlyphs"
text-anchor="middle" opacity="0">D1</text>
<path d="M33709 25678
L33709 25284
L33803 25284
L33859 25303
L33896 25340
L33915 25378
L33934 25453
L33934 25509
L33915 25584
L33896 25621
L33859 25659
L33803 25678
L33709 25678
" />
<path d="M34309 25678
L34084 25678
" />
<path d="M34196 25678
L34196 25284
L34159 25340
L34121 25378
L34084 25396
" />
<g >
</g>
</g> 
</svg>
