G04 #@! TF.GenerationSoftware,KiCad,Pcbnew,5.1.6+dfsg1-1*
G04 #@! TF.CreationDate,2020-12-17T15:22:49-07:00*
G04 #@! TF.ProjectId,7segment,37736567-6d65-46e7-942e-6b696361645f,rev?*
G04 #@! TF.SameCoordinates,Original*
G04 #@! TF.FileFunction,Legend,Top*
G04 #@! TF.FilePolarity,Positive*
%FSLAX46Y46*%
G04 Gerber Fmt 4.6, Leading zero omitted, Abs format (unit mm)*
G04 Created by KiCad (PCBNEW 5.1.6+dfsg1-1) date 2020-12-17 15:22:49*
%MOMM*%
%LPD*%
G01*
G04 APERTURE LIST*
%ADD10C,0.100000*%
%ADD11C,0.500000*%
%ADD12C,0.120000*%
%ADD13C,0.150000*%
G04 APERTURE END LIST*
D10*
X164535047Y-112449809D02*
X164649333Y-112487904D01*
X164839809Y-112487904D01*
X164916000Y-112449809D01*
X164954095Y-112411714D01*
X164992190Y-112335523D01*
X164992190Y-112259333D01*
X164954095Y-112183142D01*
X164916000Y-112145047D01*
X164839809Y-112106952D01*
X164687428Y-112068857D01*
X164611238Y-112030761D01*
X164573142Y-111992666D01*
X164535047Y-111916476D01*
X164535047Y-111840285D01*
X164573142Y-111764095D01*
X164611238Y-111726000D01*
X164687428Y-111687904D01*
X164877904Y-111687904D01*
X164992190Y-111726000D01*
X165639809Y-112449809D02*
X165563619Y-112487904D01*
X165411238Y-112487904D01*
X165335047Y-112449809D01*
X165296952Y-112373619D01*
X165296952Y-112068857D01*
X165335047Y-111992666D01*
X165411238Y-111954571D01*
X165563619Y-111954571D01*
X165639809Y-111992666D01*
X165677904Y-112068857D01*
X165677904Y-112145047D01*
X165296952Y-112221238D01*
X166020761Y-112487904D02*
X166020761Y-111954571D01*
X166020761Y-112106952D02*
X166058857Y-112030761D01*
X166096952Y-111992666D01*
X166173142Y-111954571D01*
X166249333Y-111954571D01*
X166516000Y-112487904D02*
X166516000Y-111954571D01*
X166516000Y-111687904D02*
X166477904Y-111726000D01*
X166516000Y-111764095D01*
X166554095Y-111726000D01*
X166516000Y-111687904D01*
X166516000Y-111764095D01*
X167239809Y-112487904D02*
X167239809Y-112068857D01*
X167201714Y-111992666D01*
X167125523Y-111954571D01*
X166973142Y-111954571D01*
X166896952Y-111992666D01*
X167239809Y-112449809D02*
X167163619Y-112487904D01*
X166973142Y-112487904D01*
X166896952Y-112449809D01*
X166858857Y-112373619D01*
X166858857Y-112297428D01*
X166896952Y-112221238D01*
X166973142Y-112183142D01*
X167163619Y-112183142D01*
X167239809Y-112145047D01*
X167735047Y-112487904D02*
X167658857Y-112449809D01*
X167620761Y-112373619D01*
X167620761Y-111687904D01*
X165449333Y-112987904D02*
X165601714Y-112987904D01*
X165677904Y-113026000D01*
X165754095Y-113102190D01*
X165792190Y-113254571D01*
X165792190Y-113521238D01*
X165754095Y-113673619D01*
X165677904Y-113749809D01*
X165601714Y-113787904D01*
X165449333Y-113787904D01*
X165373142Y-113749809D01*
X165296952Y-113673619D01*
X165258857Y-113521238D01*
X165258857Y-113254571D01*
X165296952Y-113102190D01*
X165373142Y-113026000D01*
X165449333Y-112987904D01*
X166477904Y-113254571D02*
X166477904Y-113787904D01*
X166135047Y-113254571D02*
X166135047Y-113673619D01*
X166173142Y-113749809D01*
X166249333Y-113787904D01*
X166363619Y-113787904D01*
X166439809Y-113749809D01*
X166477904Y-113711714D01*
X166744571Y-113254571D02*
X167049333Y-113254571D01*
X166858857Y-112987904D02*
X166858857Y-113673619D01*
X166896952Y-113749809D01*
X166973142Y-113787904D01*
X167049333Y-113787904D01*
X84271047Y-112449809D02*
X84385333Y-112487904D01*
X84575809Y-112487904D01*
X84652000Y-112449809D01*
X84690095Y-112411714D01*
X84728190Y-112335523D01*
X84728190Y-112259333D01*
X84690095Y-112183142D01*
X84652000Y-112145047D01*
X84575809Y-112106952D01*
X84423428Y-112068857D01*
X84347238Y-112030761D01*
X84309142Y-111992666D01*
X84271047Y-111916476D01*
X84271047Y-111840285D01*
X84309142Y-111764095D01*
X84347238Y-111726000D01*
X84423428Y-111687904D01*
X84613904Y-111687904D01*
X84728190Y-111726000D01*
X85375809Y-112449809D02*
X85299619Y-112487904D01*
X85147238Y-112487904D01*
X85071047Y-112449809D01*
X85032952Y-112373619D01*
X85032952Y-112068857D01*
X85071047Y-111992666D01*
X85147238Y-111954571D01*
X85299619Y-111954571D01*
X85375809Y-111992666D01*
X85413904Y-112068857D01*
X85413904Y-112145047D01*
X85032952Y-112221238D01*
X85756761Y-112487904D02*
X85756761Y-111954571D01*
X85756761Y-112106952D02*
X85794857Y-112030761D01*
X85832952Y-111992666D01*
X85909142Y-111954571D01*
X85985333Y-111954571D01*
X86252000Y-112487904D02*
X86252000Y-111954571D01*
X86252000Y-111687904D02*
X86213904Y-111726000D01*
X86252000Y-111764095D01*
X86290095Y-111726000D01*
X86252000Y-111687904D01*
X86252000Y-111764095D01*
X86975809Y-112487904D02*
X86975809Y-112068857D01*
X86937714Y-111992666D01*
X86861523Y-111954571D01*
X86709142Y-111954571D01*
X86632952Y-111992666D01*
X86975809Y-112449809D02*
X86899619Y-112487904D01*
X86709142Y-112487904D01*
X86632952Y-112449809D01*
X86594857Y-112373619D01*
X86594857Y-112297428D01*
X86632952Y-112221238D01*
X86709142Y-112183142D01*
X86899619Y-112183142D01*
X86975809Y-112145047D01*
X87471047Y-112487904D02*
X87394857Y-112449809D01*
X87356761Y-112373619D01*
X87356761Y-111687904D01*
X85490095Y-113787904D02*
X85490095Y-112987904D01*
X85871047Y-113254571D02*
X85871047Y-113787904D01*
X85871047Y-113330761D02*
X85909142Y-113292666D01*
X85985333Y-113254571D01*
X86099619Y-113254571D01*
X86175809Y-113292666D01*
X86213904Y-113368857D01*
X86213904Y-113787904D01*
X97077857Y-115716190D02*
X97327857Y-116216190D01*
X97577857Y-115716190D01*
X98113571Y-116192380D02*
X98042142Y-116216190D01*
X97899285Y-116216190D01*
X97827857Y-116192380D01*
X97792142Y-116144761D01*
X97792142Y-115954285D01*
X97827857Y-115906666D01*
X97899285Y-115882857D01*
X98042142Y-115882857D01*
X98113571Y-115906666D01*
X98149285Y-115954285D01*
X98149285Y-116001904D01*
X97792142Y-116049523D01*
X98470714Y-116216190D02*
X98470714Y-115882857D01*
X98470714Y-115978095D02*
X98506428Y-115930476D01*
X98542142Y-115906666D01*
X98613571Y-115882857D01*
X98685000Y-115882857D01*
X99899285Y-116216190D02*
X99470714Y-116216190D01*
X99685000Y-116216190D02*
X99685000Y-115716190D01*
X99613571Y-115787619D01*
X99542142Y-115835238D01*
X99470714Y-115859047D01*
X100220714Y-116168571D02*
X100256428Y-116192380D01*
X100220714Y-116216190D01*
X100185000Y-116192380D01*
X100220714Y-116168571D01*
X100220714Y-116216190D01*
X100720714Y-115716190D02*
X100792142Y-115716190D01*
X100863571Y-115740000D01*
X100899285Y-115763809D01*
X100935000Y-115811428D01*
X100970714Y-115906666D01*
X100970714Y-116025714D01*
X100935000Y-116120952D01*
X100899285Y-116168571D01*
X100863571Y-116192380D01*
X100792142Y-116216190D01*
X100720714Y-116216190D01*
X100649285Y-116192380D01*
X100613571Y-116168571D01*
X100577857Y-116120952D01*
X100542142Y-116025714D01*
X100542142Y-115906666D01*
X100577857Y-115811428D01*
X100613571Y-115763809D01*
X100649285Y-115740000D01*
X100720714Y-115716190D01*
X98042142Y-117066190D02*
X97792142Y-116828095D01*
X97613571Y-117066190D02*
X97613571Y-116566190D01*
X97899285Y-116566190D01*
X97970714Y-116590000D01*
X98006428Y-116613809D01*
X98042142Y-116661428D01*
X98042142Y-116732857D01*
X98006428Y-116780476D01*
X97970714Y-116804285D01*
X97899285Y-116828095D01*
X97613571Y-116828095D01*
X98649285Y-117042380D02*
X98577857Y-117066190D01*
X98435000Y-117066190D01*
X98363571Y-117042380D01*
X98327857Y-116994761D01*
X98327857Y-116804285D01*
X98363571Y-116756666D01*
X98435000Y-116732857D01*
X98577857Y-116732857D01*
X98649285Y-116756666D01*
X98685000Y-116804285D01*
X98685000Y-116851904D01*
X98327857Y-116899523D01*
X98935000Y-116732857D02*
X99113571Y-117066190D01*
X99292142Y-116732857D01*
X100113571Y-116613809D02*
X100149285Y-116590000D01*
X100220714Y-116566190D01*
X100399285Y-116566190D01*
X100470714Y-116590000D01*
X100506428Y-116613809D01*
X100542142Y-116661428D01*
X100542142Y-116709047D01*
X100506428Y-116780476D01*
X100077857Y-117066190D01*
X100542142Y-117066190D01*
X93827857Y-118106666D02*
X93792142Y-118082857D01*
X93720714Y-118011428D01*
X93685000Y-117963809D01*
X93649285Y-117892380D01*
X93613571Y-117773333D01*
X93613571Y-117678095D01*
X93649285Y-117559047D01*
X93685000Y-117487619D01*
X93720714Y-117440000D01*
X93792142Y-117368571D01*
X93827857Y-117344761D01*
X94542142Y-117868571D02*
X94506428Y-117892380D01*
X94399285Y-117916190D01*
X94327857Y-117916190D01*
X94220714Y-117892380D01*
X94149285Y-117844761D01*
X94113571Y-117797142D01*
X94077857Y-117701904D01*
X94077857Y-117630476D01*
X94113571Y-117535238D01*
X94149285Y-117487619D01*
X94220714Y-117440000D01*
X94327857Y-117416190D01*
X94399285Y-117416190D01*
X94506428Y-117440000D01*
X94542142Y-117463809D01*
X94792142Y-118106666D02*
X94827857Y-118082857D01*
X94899285Y-118011428D01*
X94935000Y-117963809D01*
X94970714Y-117892380D01*
X95006428Y-117773333D01*
X95006428Y-117678095D01*
X94970714Y-117559047D01*
X94935000Y-117487619D01*
X94899285Y-117440000D01*
X94827857Y-117368571D01*
X94792142Y-117344761D01*
X96185000Y-117654285D02*
X96292142Y-117678095D01*
X96327857Y-117701904D01*
X96363571Y-117749523D01*
X96363571Y-117820952D01*
X96327857Y-117868571D01*
X96292142Y-117892380D01*
X96220714Y-117916190D01*
X95935000Y-117916190D01*
X95935000Y-117416190D01*
X96185000Y-117416190D01*
X96256428Y-117440000D01*
X96292142Y-117463809D01*
X96327857Y-117511428D01*
X96327857Y-117559047D01*
X96292142Y-117606666D01*
X96256428Y-117630476D01*
X96185000Y-117654285D01*
X95935000Y-117654285D01*
X96685000Y-117916190D02*
X96685000Y-117582857D01*
X96685000Y-117678095D02*
X96720714Y-117630476D01*
X96756428Y-117606666D01*
X96827857Y-117582857D01*
X96899285Y-117582857D01*
X97470714Y-117916190D02*
X97470714Y-117654285D01*
X97435000Y-117606666D01*
X97363571Y-117582857D01*
X97220714Y-117582857D01*
X97149285Y-117606666D01*
X97470714Y-117892380D02*
X97399285Y-117916190D01*
X97220714Y-117916190D01*
X97149285Y-117892380D01*
X97113571Y-117844761D01*
X97113571Y-117797142D01*
X97149285Y-117749523D01*
X97220714Y-117725714D01*
X97399285Y-117725714D01*
X97470714Y-117701904D01*
X98149285Y-117916190D02*
X98149285Y-117416190D01*
X98149285Y-117892380D02*
X98077857Y-117916190D01*
X97935000Y-117916190D01*
X97863571Y-117892380D01*
X97827857Y-117868571D01*
X97792142Y-117820952D01*
X97792142Y-117678095D01*
X97827857Y-117630476D01*
X97863571Y-117606666D01*
X97935000Y-117582857D01*
X98077857Y-117582857D01*
X98149285Y-117606666D01*
X99506428Y-117916190D02*
X99256428Y-117678095D01*
X99077857Y-117916190D02*
X99077857Y-117416190D01*
X99363571Y-117416190D01*
X99435000Y-117440000D01*
X99470714Y-117463809D01*
X99506428Y-117511428D01*
X99506428Y-117582857D01*
X99470714Y-117630476D01*
X99435000Y-117654285D01*
X99363571Y-117678095D01*
X99077857Y-117678095D01*
X99935000Y-117916190D02*
X99863571Y-117892380D01*
X99827857Y-117868571D01*
X99792142Y-117820952D01*
X99792142Y-117678095D01*
X99827857Y-117630476D01*
X99863571Y-117606666D01*
X99935000Y-117582857D01*
X100042142Y-117582857D01*
X100113571Y-117606666D01*
X100149285Y-117630476D01*
X100185000Y-117678095D01*
X100185000Y-117820952D01*
X100149285Y-117868571D01*
X100113571Y-117892380D01*
X100042142Y-117916190D01*
X99935000Y-117916190D01*
X100435000Y-117582857D02*
X100613571Y-117916190D01*
X100792142Y-117582857D02*
X100613571Y-117916190D01*
X100542142Y-118035238D01*
X100506428Y-118059047D01*
X100435000Y-118082857D01*
X101113571Y-117892380D02*
X101113571Y-117916190D01*
X101077857Y-117963809D01*
X101042142Y-117987619D01*
X101970714Y-117463809D02*
X102006428Y-117440000D01*
X102077857Y-117416190D01*
X102256428Y-117416190D01*
X102327857Y-117440000D01*
X102363571Y-117463809D01*
X102399285Y-117511428D01*
X102399285Y-117559047D01*
X102363571Y-117630476D01*
X101935000Y-117916190D01*
X102399285Y-117916190D01*
X102863571Y-117416190D02*
X102935000Y-117416190D01*
X103006428Y-117440000D01*
X103042142Y-117463809D01*
X103077857Y-117511428D01*
X103113571Y-117606666D01*
X103113571Y-117725714D01*
X103077857Y-117820952D01*
X103042142Y-117868571D01*
X103006428Y-117892380D01*
X102935000Y-117916190D01*
X102863571Y-117916190D01*
X102792142Y-117892380D01*
X102756428Y-117868571D01*
X102720714Y-117820952D01*
X102685000Y-117725714D01*
X102685000Y-117606666D01*
X102720714Y-117511428D01*
X102756428Y-117463809D01*
X102792142Y-117440000D01*
X102863571Y-117416190D01*
X103399285Y-117463809D02*
X103435000Y-117440000D01*
X103506428Y-117416190D01*
X103685000Y-117416190D01*
X103756428Y-117440000D01*
X103792142Y-117463809D01*
X103827857Y-117511428D01*
X103827857Y-117559047D01*
X103792142Y-117630476D01*
X103363571Y-117916190D01*
X103827857Y-117916190D01*
X104292142Y-117416190D02*
X104363571Y-117416190D01*
X104435000Y-117440000D01*
X104470714Y-117463809D01*
X104506428Y-117511428D01*
X104542142Y-117606666D01*
X104542142Y-117725714D01*
X104506428Y-117820952D01*
X104470714Y-117868571D01*
X104435000Y-117892380D01*
X104363571Y-117916190D01*
X104292142Y-117916190D01*
X104220714Y-117892380D01*
X104185000Y-117868571D01*
X104149285Y-117820952D01*
X104113571Y-117725714D01*
X104113571Y-117606666D01*
X104149285Y-117511428D01*
X104185000Y-117463809D01*
X104220714Y-117440000D01*
X104292142Y-117416190D01*
D11*
X104603428Y-116617523D02*
X103174857Y-116617523D01*
X103174857Y-112617523D01*
X105603428Y-114522285D02*
X106603428Y-114522285D01*
X107032000Y-116617523D02*
X105603428Y-116617523D01*
X105603428Y-112617523D01*
X107032000Y-112617523D01*
X108317714Y-116617523D02*
X108317714Y-112617523D01*
X109032000Y-112617523D01*
X109460571Y-112808000D01*
X109746285Y-113188952D01*
X109889142Y-113569904D01*
X110032000Y-114331809D01*
X110032000Y-114903238D01*
X109889142Y-115665142D01*
X109746285Y-116046095D01*
X109460571Y-116427047D01*
X109032000Y-116617523D01*
X108317714Y-116617523D01*
X113317714Y-112617523D02*
X115317714Y-112617523D01*
X114032000Y-116617523D01*
X118603428Y-116427047D02*
X119032000Y-116617523D01*
X119746285Y-116617523D01*
X120032000Y-116427047D01*
X120174857Y-116236571D01*
X120317714Y-115855619D01*
X120317714Y-115474666D01*
X120174857Y-115093714D01*
X120032000Y-114903238D01*
X119746285Y-114712761D01*
X119174857Y-114522285D01*
X118889142Y-114331809D01*
X118746285Y-114141333D01*
X118603428Y-113760380D01*
X118603428Y-113379428D01*
X118746285Y-112998476D01*
X118889142Y-112808000D01*
X119174857Y-112617523D01*
X119889142Y-112617523D01*
X120317714Y-112808000D01*
X122746285Y-116427047D02*
X122460571Y-116617523D01*
X121889142Y-116617523D01*
X121603428Y-116427047D01*
X121460571Y-116046095D01*
X121460571Y-114522285D01*
X121603428Y-114141333D01*
X121889142Y-113950857D01*
X122460571Y-113950857D01*
X122746285Y-114141333D01*
X122889142Y-114522285D01*
X122889142Y-114903238D01*
X121460571Y-115284190D01*
X125460571Y-113950857D02*
X125460571Y-117188952D01*
X125317714Y-117569904D01*
X125174857Y-117760380D01*
X124889142Y-117950857D01*
X124460571Y-117950857D01*
X124174857Y-117760380D01*
X125460571Y-116427047D02*
X125174857Y-116617523D01*
X124603428Y-116617523D01*
X124317714Y-116427047D01*
X124174857Y-116236571D01*
X124032000Y-115855619D01*
X124032000Y-114712761D01*
X124174857Y-114331809D01*
X124317714Y-114141333D01*
X124603428Y-113950857D01*
X125174857Y-113950857D01*
X125460571Y-114141333D01*
X126889142Y-116617523D02*
X126889142Y-113950857D01*
X126889142Y-114331809D02*
X127032000Y-114141333D01*
X127317714Y-113950857D01*
X127746285Y-113950857D01*
X128032000Y-114141333D01*
X128174857Y-114522285D01*
X128174857Y-116617523D01*
X128174857Y-114522285D02*
X128317714Y-114141333D01*
X128603428Y-113950857D01*
X129032000Y-113950857D01*
X129317714Y-114141333D01*
X129460571Y-114522285D01*
X129460571Y-116617523D01*
X132032000Y-116427047D02*
X131746285Y-116617523D01*
X131174857Y-116617523D01*
X130889142Y-116427047D01*
X130746285Y-116046095D01*
X130746285Y-114522285D01*
X130889142Y-114141333D01*
X131174857Y-113950857D01*
X131746285Y-113950857D01*
X132032000Y-114141333D01*
X132174857Y-114522285D01*
X132174857Y-114903238D01*
X130746285Y-115284190D01*
X133460571Y-113950857D02*
X133460571Y-116617523D01*
X133460571Y-114331809D02*
X133603428Y-114141333D01*
X133889142Y-113950857D01*
X134317714Y-113950857D01*
X134603428Y-114141333D01*
X134746285Y-114522285D01*
X134746285Y-116617523D01*
X135746285Y-113950857D02*
X136889142Y-113950857D01*
X136174857Y-112617523D02*
X136174857Y-116046095D01*
X136317714Y-116427047D01*
X136603428Y-116617523D01*
X136889142Y-116617523D01*
X140174857Y-116617523D02*
X140174857Y-112617523D01*
X140889142Y-112617523D01*
X141317714Y-112808000D01*
X141603428Y-113188952D01*
X141746285Y-113569904D01*
X141889142Y-114331809D01*
X141889142Y-114903238D01*
X141746285Y-115665142D01*
X141603428Y-116046095D01*
X141317714Y-116427047D01*
X140889142Y-116617523D01*
X140174857Y-116617523D01*
X143174857Y-116617523D02*
X143174857Y-113950857D01*
X143174857Y-112617523D02*
X143032000Y-112808000D01*
X143174857Y-112998476D01*
X143317714Y-112808000D01*
X143174857Y-112617523D01*
X143174857Y-112998476D01*
X144460571Y-116427047D02*
X144746285Y-116617523D01*
X145317714Y-116617523D01*
X145603428Y-116427047D01*
X145746285Y-116046095D01*
X145746285Y-115855619D01*
X145603428Y-115474666D01*
X145317714Y-115284190D01*
X144889142Y-115284190D01*
X144603428Y-115093714D01*
X144460571Y-114712761D01*
X144460571Y-114522285D01*
X144603428Y-114141333D01*
X144889142Y-113950857D01*
X145317714Y-113950857D01*
X145603428Y-114141333D01*
X147032000Y-113950857D02*
X147032000Y-117950857D01*
X147032000Y-114141333D02*
X147317714Y-113950857D01*
X147889142Y-113950857D01*
X148174857Y-114141333D01*
X148317714Y-114331809D01*
X148460571Y-114712761D01*
X148460571Y-115855619D01*
X148317714Y-116236571D01*
X148174857Y-116427047D01*
X147889142Y-116617523D01*
X147317714Y-116617523D01*
X147032000Y-116427047D01*
X150174857Y-116617523D02*
X149889142Y-116427047D01*
X149746285Y-116046095D01*
X149746285Y-112617523D01*
X152603428Y-116617523D02*
X152603428Y-114522285D01*
X152460571Y-114141333D01*
X152174857Y-113950857D01*
X151603428Y-113950857D01*
X151317714Y-114141333D01*
X152603428Y-116427047D02*
X152317714Y-116617523D01*
X151603428Y-116617523D01*
X151317714Y-116427047D01*
X151174857Y-116046095D01*
X151174857Y-115665142D01*
X151317714Y-115284190D01*
X151603428Y-115093714D01*
X152317714Y-115093714D01*
X152603428Y-114903238D01*
X153746285Y-113950857D02*
X154460571Y-116617523D01*
X155174857Y-113950857D02*
X154460571Y-116617523D01*
X154174857Y-117569904D01*
X154032000Y-117760380D01*
X153746285Y-117950857D01*
D10*
X162922666Y-117456000D02*
X162846476Y-117417904D01*
X162732190Y-117417904D01*
X162617904Y-117456000D01*
X162541714Y-117532190D01*
X162503619Y-117608380D01*
X162465523Y-117760761D01*
X162465523Y-117875047D01*
X162503619Y-118027428D01*
X162541714Y-118103619D01*
X162617904Y-118179809D01*
X162732190Y-118217904D01*
X162808380Y-118217904D01*
X162922666Y-118179809D01*
X162960761Y-118141714D01*
X162960761Y-117875047D01*
X162808380Y-117875047D01*
X163303619Y-118217904D02*
X163303619Y-117417904D01*
X163760761Y-118217904D01*
X163760761Y-117417904D01*
X164141714Y-118217904D02*
X164141714Y-117417904D01*
X164332190Y-117417904D01*
X164446476Y-117456000D01*
X164522666Y-117532190D01*
X164560761Y-117608380D01*
X164598857Y-117760761D01*
X164598857Y-117875047D01*
X164560761Y-118027428D01*
X164522666Y-118103619D01*
X164446476Y-118179809D01*
X164332190Y-118217904D01*
X164141714Y-118217904D01*
X165551238Y-117913142D02*
X166160761Y-117913142D01*
X165856000Y-118217904D02*
X165856000Y-117608380D01*
X166922666Y-117417904D02*
X166541714Y-117417904D01*
X166503619Y-117798857D01*
X166541714Y-117760761D01*
X166617904Y-117722666D01*
X166808380Y-117722666D01*
X166884571Y-117760761D01*
X166922666Y-117798857D01*
X166960761Y-117875047D01*
X166960761Y-118065523D01*
X166922666Y-118141714D01*
X166884571Y-118179809D01*
X166808380Y-118217904D01*
X166617904Y-118217904D01*
X166541714Y-118179809D01*
X166503619Y-118141714D01*
X167189333Y-117417904D02*
X167456000Y-118217904D01*
X167722666Y-117417904D01*
X168560761Y-118179809D02*
X168675047Y-118217904D01*
X168865523Y-118217904D01*
X168941714Y-118179809D01*
X168979809Y-118141714D01*
X169017904Y-118065523D01*
X169017904Y-117989333D01*
X168979809Y-117913142D01*
X168941714Y-117875047D01*
X168865523Y-117836952D01*
X168713142Y-117798857D01*
X168636952Y-117760761D01*
X168598857Y-117722666D01*
X168560761Y-117646476D01*
X168560761Y-117570285D01*
X168598857Y-117494095D01*
X168636952Y-117456000D01*
X168713142Y-117417904D01*
X168903619Y-117417904D01*
X169017904Y-117456000D01*
X169322666Y-118179809D02*
X169436952Y-118217904D01*
X169627428Y-118217904D01*
X169703619Y-118179809D01*
X169741714Y-118141714D01*
X169779809Y-118065523D01*
X169779809Y-117989333D01*
X169741714Y-117913142D01*
X169703619Y-117875047D01*
X169627428Y-117836952D01*
X169475047Y-117798857D01*
X169398857Y-117760761D01*
X169360761Y-117722666D01*
X169322666Y-117646476D01*
X169322666Y-117570285D01*
X169360761Y-117494095D01*
X169398857Y-117456000D01*
X169475047Y-117417904D01*
X169665523Y-117417904D01*
X169779809Y-117456000D01*
X171189333Y-118141714D02*
X171151238Y-118179809D01*
X171036952Y-118217904D01*
X170960761Y-118217904D01*
X170846476Y-118179809D01*
X170770285Y-118103619D01*
X170732190Y-118027428D01*
X170694095Y-117875047D01*
X170694095Y-117760761D01*
X170732190Y-117608380D01*
X170770285Y-117532190D01*
X170846476Y-117456000D01*
X170960761Y-117417904D01*
X171036952Y-117417904D01*
X171151238Y-117456000D01*
X171189333Y-117494095D01*
X171646476Y-118217904D02*
X171570285Y-118179809D01*
X171532190Y-118103619D01*
X171532190Y-117417904D01*
X171951238Y-118217904D02*
X171951238Y-117417904D01*
X172027428Y-117913142D02*
X172256000Y-118217904D01*
X172256000Y-117684571D02*
X171951238Y-117989333D01*
X173208380Y-118217904D02*
X173208380Y-117417904D01*
X173398857Y-117417904D01*
X173513142Y-117456000D01*
X173589333Y-117532190D01*
X173627428Y-117608380D01*
X173665523Y-117760761D01*
X173665523Y-117875047D01*
X173627428Y-118027428D01*
X173589333Y-118103619D01*
X173513142Y-118179809D01*
X173398857Y-118217904D01*
X173208380Y-118217904D01*
X174351238Y-118217904D02*
X174351238Y-117798857D01*
X174313142Y-117722666D01*
X174236952Y-117684571D01*
X174084571Y-117684571D01*
X174008380Y-117722666D01*
X174351238Y-118179809D02*
X174275047Y-118217904D01*
X174084571Y-118217904D01*
X174008380Y-118179809D01*
X173970285Y-118103619D01*
X173970285Y-118027428D01*
X174008380Y-117951238D01*
X174084571Y-117913142D01*
X174275047Y-117913142D01*
X174351238Y-117875047D01*
X174617904Y-117684571D02*
X174922666Y-117684571D01*
X174732190Y-117417904D02*
X174732190Y-118103619D01*
X174770285Y-118179809D01*
X174846476Y-118217904D01*
X174922666Y-118217904D01*
X79102666Y-117456000D02*
X79026476Y-117417904D01*
X78912190Y-117417904D01*
X78797904Y-117456000D01*
X78721714Y-117532190D01*
X78683619Y-117608380D01*
X78645523Y-117760761D01*
X78645523Y-117875047D01*
X78683619Y-118027428D01*
X78721714Y-118103619D01*
X78797904Y-118179809D01*
X78912190Y-118217904D01*
X78988380Y-118217904D01*
X79102666Y-118179809D01*
X79140761Y-118141714D01*
X79140761Y-117875047D01*
X78988380Y-117875047D01*
X79483619Y-118217904D02*
X79483619Y-117417904D01*
X79940761Y-118217904D01*
X79940761Y-117417904D01*
X80321714Y-118217904D02*
X80321714Y-117417904D01*
X80512190Y-117417904D01*
X80626476Y-117456000D01*
X80702666Y-117532190D01*
X80740761Y-117608380D01*
X80778857Y-117760761D01*
X80778857Y-117875047D01*
X80740761Y-118027428D01*
X80702666Y-118103619D01*
X80626476Y-118179809D01*
X80512190Y-118217904D01*
X80321714Y-118217904D01*
X81731238Y-117913142D02*
X82340761Y-117913142D01*
X82036000Y-118217904D02*
X82036000Y-117608380D01*
X83102666Y-117417904D02*
X82721714Y-117417904D01*
X82683619Y-117798857D01*
X82721714Y-117760761D01*
X82797904Y-117722666D01*
X82988380Y-117722666D01*
X83064571Y-117760761D01*
X83102666Y-117798857D01*
X83140761Y-117875047D01*
X83140761Y-118065523D01*
X83102666Y-118141714D01*
X83064571Y-118179809D01*
X82988380Y-118217904D01*
X82797904Y-118217904D01*
X82721714Y-118179809D01*
X82683619Y-118141714D01*
X83369333Y-117417904D02*
X83636000Y-118217904D01*
X83902666Y-117417904D01*
X84740761Y-118179809D02*
X84855047Y-118217904D01*
X85045523Y-118217904D01*
X85121714Y-118179809D01*
X85159809Y-118141714D01*
X85197904Y-118065523D01*
X85197904Y-117989333D01*
X85159809Y-117913142D01*
X85121714Y-117875047D01*
X85045523Y-117836952D01*
X84893142Y-117798857D01*
X84816952Y-117760761D01*
X84778857Y-117722666D01*
X84740761Y-117646476D01*
X84740761Y-117570285D01*
X84778857Y-117494095D01*
X84816952Y-117456000D01*
X84893142Y-117417904D01*
X85083619Y-117417904D01*
X85197904Y-117456000D01*
X85502666Y-118179809D02*
X85616952Y-118217904D01*
X85807428Y-118217904D01*
X85883619Y-118179809D01*
X85921714Y-118141714D01*
X85959809Y-118065523D01*
X85959809Y-117989333D01*
X85921714Y-117913142D01*
X85883619Y-117875047D01*
X85807428Y-117836952D01*
X85655047Y-117798857D01*
X85578857Y-117760761D01*
X85540761Y-117722666D01*
X85502666Y-117646476D01*
X85502666Y-117570285D01*
X85540761Y-117494095D01*
X85578857Y-117456000D01*
X85655047Y-117417904D01*
X85845523Y-117417904D01*
X85959809Y-117456000D01*
X87369333Y-118141714D02*
X87331238Y-118179809D01*
X87216952Y-118217904D01*
X87140761Y-118217904D01*
X87026476Y-118179809D01*
X86950285Y-118103619D01*
X86912190Y-118027428D01*
X86874095Y-117875047D01*
X86874095Y-117760761D01*
X86912190Y-117608380D01*
X86950285Y-117532190D01*
X87026476Y-117456000D01*
X87140761Y-117417904D01*
X87216952Y-117417904D01*
X87331238Y-117456000D01*
X87369333Y-117494095D01*
X87826476Y-118217904D02*
X87750285Y-118179809D01*
X87712190Y-118103619D01*
X87712190Y-117417904D01*
X88131238Y-118217904D02*
X88131238Y-117417904D01*
X88207428Y-117913142D02*
X88436000Y-118217904D01*
X88436000Y-117684571D02*
X88131238Y-117989333D01*
X89388380Y-118217904D02*
X89388380Y-117417904D01*
X89578857Y-117417904D01*
X89693142Y-117456000D01*
X89769333Y-117532190D01*
X89807428Y-117608380D01*
X89845523Y-117760761D01*
X89845523Y-117875047D01*
X89807428Y-118027428D01*
X89769333Y-118103619D01*
X89693142Y-118179809D01*
X89578857Y-118217904D01*
X89388380Y-118217904D01*
X90531238Y-118217904D02*
X90531238Y-117798857D01*
X90493142Y-117722666D01*
X90416952Y-117684571D01*
X90264571Y-117684571D01*
X90188380Y-117722666D01*
X90531238Y-118179809D02*
X90455047Y-118217904D01*
X90264571Y-118217904D01*
X90188380Y-118179809D01*
X90150285Y-118103619D01*
X90150285Y-118027428D01*
X90188380Y-117951238D01*
X90264571Y-117913142D01*
X90455047Y-117913142D01*
X90531238Y-117875047D01*
X90797904Y-117684571D02*
X91102666Y-117684571D01*
X90912190Y-117417904D02*
X90912190Y-118103619D01*
X90950285Y-118179809D01*
X91026476Y-118217904D01*
X91102666Y-118217904D01*
D12*
X175066000Y-117154000D02*
X175066000Y-114494000D01*
X164846000Y-117154000D02*
X175066000Y-117154000D01*
X164846000Y-114494000D02*
X175066000Y-114494000D01*
X164846000Y-117154000D02*
X164846000Y-114494000D01*
X163576000Y-117154000D02*
X162246000Y-117154000D01*
X162246000Y-117154000D02*
X162246000Y-115824000D01*
X174134000Y-113323000D02*
X174134000Y-113638000D01*
X174134000Y-110898000D02*
X174134000Y-111213000D01*
X169194000Y-113323000D02*
X169194000Y-113638000D01*
X169194000Y-110898000D02*
X169194000Y-111213000D01*
X169194000Y-113638000D02*
X174134000Y-113638000D01*
X169194000Y-110898000D02*
X174134000Y-110898000D01*
X99120000Y-104410000D02*
X99120000Y-102760000D01*
X99120000Y-102760000D02*
X78680000Y-102760000D01*
X78680000Y-102760000D02*
X78680000Y-108060000D01*
X78680000Y-108060000D02*
X99120000Y-108060000D01*
X99120000Y-108060000D02*
X99120000Y-106410000D01*
X99120000Y-106410000D02*
G75*
G02*
X99120000Y-104410000I0J1000000D01*
G01*
X124520000Y-104410000D02*
X124520000Y-102760000D01*
X124520000Y-102760000D02*
X104080000Y-102760000D01*
X104080000Y-102760000D02*
X104080000Y-108060000D01*
X104080000Y-108060000D02*
X124520000Y-108060000D01*
X124520000Y-108060000D02*
X124520000Y-106410000D01*
X124520000Y-106410000D02*
G75*
G02*
X124520000Y-104410000I0J1000000D01*
G01*
X149920000Y-104410000D02*
X149920000Y-102760000D01*
X149920000Y-102760000D02*
X129480000Y-102760000D01*
X129480000Y-102760000D02*
X129480000Y-108060000D01*
X129480000Y-108060000D02*
X149920000Y-108060000D01*
X149920000Y-108060000D02*
X149920000Y-106410000D01*
X149920000Y-106410000D02*
G75*
G02*
X149920000Y-104410000I0J1000000D01*
G01*
X175320000Y-104410000D02*
X175320000Y-102760000D01*
X175320000Y-102760000D02*
X154880000Y-102760000D01*
X154880000Y-102760000D02*
X154880000Y-108060000D01*
X154880000Y-108060000D02*
X175320000Y-108060000D01*
X175320000Y-108060000D02*
X175320000Y-106410000D01*
X175320000Y-106410000D02*
G75*
G02*
X175320000Y-104410000I0J1000000D01*
G01*
X91754000Y-117154000D02*
X91754000Y-114494000D01*
X81534000Y-117154000D02*
X91754000Y-117154000D01*
X81534000Y-114494000D02*
X91754000Y-114494000D01*
X81534000Y-117154000D02*
X81534000Y-114494000D01*
X80264000Y-117154000D02*
X78934000Y-117154000D01*
X78934000Y-117154000D02*
X78934000Y-115824000D01*
X153455000Y-104250000D02*
X153770000Y-104250000D01*
X151030000Y-104250000D02*
X151345000Y-104250000D01*
X153455000Y-109190000D02*
X153770000Y-109190000D01*
X151030000Y-109190000D02*
X151345000Y-109190000D01*
X153770000Y-109190000D02*
X153770000Y-104250000D01*
X151030000Y-109190000D02*
X151030000Y-104250000D01*
X102655000Y-104250000D02*
X102970000Y-104250000D01*
X100230000Y-104250000D02*
X100545000Y-104250000D01*
X102655000Y-109190000D02*
X102970000Y-109190000D01*
X100230000Y-109190000D02*
X100545000Y-109190000D01*
X102970000Y-109190000D02*
X102970000Y-104250000D01*
X100230000Y-109190000D02*
X100230000Y-104250000D01*
X128055000Y-104250000D02*
X128370000Y-104250000D01*
X125630000Y-104250000D02*
X125945000Y-104250000D01*
X128055000Y-109190000D02*
X128370000Y-109190000D01*
X125630000Y-109190000D02*
X125945000Y-109190000D01*
X128370000Y-109190000D02*
X128370000Y-104250000D01*
X125630000Y-109190000D02*
X125630000Y-104250000D01*
X163180000Y-81630000D02*
X167020000Y-81630000D01*
X163180000Y-83470000D02*
X167020000Y-83470000D01*
X163180000Y-71470000D02*
X167020000Y-71470000D01*
X163180000Y-73310000D02*
X167020000Y-73310000D01*
X163180000Y-86710000D02*
X167020000Y-86710000D01*
X163180000Y-88550000D02*
X167020000Y-88550000D01*
X163180000Y-95600000D02*
X167020000Y-95600000D01*
X163180000Y-97440000D02*
X167020000Y-97440000D01*
X163180000Y-84170000D02*
X167020000Y-84170000D01*
X163180000Y-86010000D02*
X167020000Y-86010000D01*
X163180000Y-68930000D02*
X167020000Y-68930000D01*
X163180000Y-70770000D02*
X167020000Y-70770000D01*
X163180000Y-66390000D02*
X167020000Y-66390000D01*
X163180000Y-68230000D02*
X167020000Y-68230000D01*
X150480000Y-95600000D02*
X154320000Y-95600000D01*
X150480000Y-97440000D02*
X154320000Y-97440000D01*
X137780000Y-81630000D02*
X141620000Y-81630000D01*
X137780000Y-83470000D02*
X141620000Y-83470000D01*
X137780000Y-71470000D02*
X141620000Y-71470000D01*
X137780000Y-73310000D02*
X141620000Y-73310000D01*
X137780000Y-86710000D02*
X141620000Y-86710000D01*
X137780000Y-88550000D02*
X141620000Y-88550000D01*
X137780000Y-95600000D02*
X141620000Y-95600000D01*
X137780000Y-97440000D02*
X141620000Y-97440000D01*
X137780000Y-84170000D02*
X141620000Y-84170000D01*
X137780000Y-86010000D02*
X141620000Y-86010000D01*
X137780000Y-68930000D02*
X141620000Y-68930000D01*
X137780000Y-70770000D02*
X141620000Y-70770000D01*
X137780000Y-66390000D02*
X141620000Y-66390000D01*
X137780000Y-68230000D02*
X141620000Y-68230000D01*
X125080000Y-95600000D02*
X128920000Y-95600000D01*
X125080000Y-97440000D02*
X128920000Y-97440000D01*
X112380000Y-81630000D02*
X116220000Y-81630000D01*
X112380000Y-83470000D02*
X116220000Y-83470000D01*
X112380000Y-71470000D02*
X116220000Y-71470000D01*
X112380000Y-73310000D02*
X116220000Y-73310000D01*
X112380000Y-86710000D02*
X116220000Y-86710000D01*
X112380000Y-88550000D02*
X116220000Y-88550000D01*
X112380000Y-95600000D02*
X116220000Y-95600000D01*
X112380000Y-97440000D02*
X116220000Y-97440000D01*
X112380000Y-84170000D02*
X116220000Y-84170000D01*
X112380000Y-86010000D02*
X116220000Y-86010000D01*
X112380000Y-68930000D02*
X116220000Y-68930000D01*
X112380000Y-70770000D02*
X116220000Y-70770000D01*
X112380000Y-66390000D02*
X116220000Y-66390000D01*
X112380000Y-68230000D02*
X116220000Y-68230000D01*
X99680000Y-95600000D02*
X103520000Y-95600000D01*
X99680000Y-97440000D02*
X103520000Y-97440000D01*
X86980000Y-81630000D02*
X90820000Y-81630000D01*
X86980000Y-83470000D02*
X90820000Y-83470000D01*
X86980000Y-71470000D02*
X90820000Y-71470000D01*
X86980000Y-73310000D02*
X90820000Y-73310000D01*
X86980000Y-86710000D02*
X90820000Y-86710000D01*
X86980000Y-88550000D02*
X90820000Y-88550000D01*
X86980000Y-95600000D02*
X90820000Y-95600000D01*
X86980000Y-97440000D02*
X90820000Y-97440000D01*
X86980000Y-84170000D02*
X90820000Y-84170000D01*
X86980000Y-86010000D02*
X90820000Y-86010000D01*
X86980000Y-68930000D02*
X90820000Y-68930000D01*
X86980000Y-70770000D02*
X90820000Y-70770000D01*
X86980000Y-66390000D02*
X90820000Y-66390000D01*
X86980000Y-68230000D02*
X90820000Y-68230000D01*
X166080000Y-76234000D02*
X166080000Y-76390000D01*
X166080000Y-78550000D02*
X166080000Y-78706000D01*
X168681130Y-78549837D02*
G75*
G02*
X166599039Y-78550000I-1041130J1079837D01*
G01*
X168681130Y-76390163D02*
G75*
G03*
X166599039Y-76390000I-1041130J-1079837D01*
G01*
X169312335Y-78548608D02*
G75*
G02*
X166080000Y-78705516I-1672335J1078608D01*
G01*
X169312335Y-76391392D02*
G75*
G03*
X166080000Y-76234484I-1672335J-1078608D01*
G01*
X155920000Y-66074000D02*
X155920000Y-66230000D01*
X155920000Y-68390000D02*
X155920000Y-68546000D01*
X158521130Y-68389837D02*
G75*
G02*
X156439039Y-68390000I-1041130J1079837D01*
G01*
X158521130Y-66230163D02*
G75*
G03*
X156439039Y-66230000I-1041130J-1079837D01*
G01*
X159152335Y-68388608D02*
G75*
G02*
X155920000Y-68545516I-1672335J1078608D01*
G01*
X159152335Y-66231392D02*
G75*
G03*
X155920000Y-66074484I-1672335J-1078608D01*
G01*
X155920000Y-81314000D02*
X155920000Y-81470000D01*
X155920000Y-83630000D02*
X155920000Y-83786000D01*
X158521130Y-83629837D02*
G75*
G02*
X156439039Y-83630000I-1041130J1079837D01*
G01*
X158521130Y-81470163D02*
G75*
G03*
X156439039Y-81470000I-1041130J-1079837D01*
G01*
X159152335Y-83628608D02*
G75*
G02*
X155920000Y-83785516I-1672335J1078608D01*
G01*
X159152335Y-81471392D02*
G75*
G03*
X155920000Y-81314484I-1672335J-1078608D01*
G01*
X166080000Y-91474000D02*
X166080000Y-91630000D01*
X166080000Y-93790000D02*
X166080000Y-93946000D01*
X168681130Y-93789837D02*
G75*
G02*
X166599039Y-93790000I-1041130J1079837D01*
G01*
X168681130Y-91630163D02*
G75*
G03*
X166599039Y-91630000I-1041130J-1079837D01*
G01*
X169312335Y-93788608D02*
G75*
G02*
X166080000Y-93945516I-1672335J1078608D01*
G01*
X169312335Y-91631392D02*
G75*
G03*
X166080000Y-91474484I-1672335J-1078608D01*
G01*
X171160000Y-86394000D02*
X171160000Y-86550000D01*
X171160000Y-88710000D02*
X171160000Y-88866000D01*
X173761130Y-88709837D02*
G75*
G02*
X171679039Y-88710000I-1041130J1079837D01*
G01*
X173761130Y-86550163D02*
G75*
G03*
X171679039Y-86550000I-1041130J-1079837D01*
G01*
X174392335Y-88708608D02*
G75*
G02*
X171160000Y-88865516I-1672335J1078608D01*
G01*
X174392335Y-86551392D02*
G75*
G03*
X171160000Y-86394484I-1672335J-1078608D01*
G01*
X171160000Y-71154000D02*
X171160000Y-71310000D01*
X171160000Y-73470000D02*
X171160000Y-73626000D01*
X173761130Y-73469837D02*
G75*
G02*
X171679039Y-73470000I-1041130J1079837D01*
G01*
X173761130Y-71310163D02*
G75*
G03*
X171679039Y-71310000I-1041130J-1079837D01*
G01*
X174392335Y-73468608D02*
G75*
G02*
X171160000Y-73625516I-1672335J1078608D01*
G01*
X174392335Y-71311392D02*
G75*
G03*
X171160000Y-71154484I-1672335J-1078608D01*
G01*
X166080000Y-60994000D02*
X166080000Y-61150000D01*
X166080000Y-63310000D02*
X166080000Y-63466000D01*
X168681130Y-63309837D02*
G75*
G02*
X166599039Y-63310000I-1041130J1079837D01*
G01*
X168681130Y-61150163D02*
G75*
G03*
X166599039Y-61150000I-1041130J-1079837D01*
G01*
X169312335Y-63308608D02*
G75*
G02*
X166080000Y-63465516I-1672335J1078608D01*
G01*
X169312335Y-61151392D02*
G75*
G03*
X166080000Y-60994484I-1672335J-1078608D01*
G01*
X150840000Y-91474000D02*
X150840000Y-91630000D01*
X150840000Y-93790000D02*
X150840000Y-93946000D01*
X153441130Y-93789837D02*
G75*
G02*
X151359039Y-93790000I-1041130J1079837D01*
G01*
X153441130Y-91630163D02*
G75*
G03*
X151359039Y-91630000I-1041130J-1079837D01*
G01*
X154072335Y-93788608D02*
G75*
G02*
X150840000Y-93945516I-1672335J1078608D01*
G01*
X154072335Y-91631392D02*
G75*
G03*
X150840000Y-91474484I-1672335J-1078608D01*
G01*
X140680000Y-76234000D02*
X140680000Y-76390000D01*
X140680000Y-78550000D02*
X140680000Y-78706000D01*
X143281130Y-78549837D02*
G75*
G02*
X141199039Y-78550000I-1041130J1079837D01*
G01*
X143281130Y-76390163D02*
G75*
G03*
X141199039Y-76390000I-1041130J-1079837D01*
G01*
X143912335Y-78548608D02*
G75*
G02*
X140680000Y-78705516I-1672335J1078608D01*
G01*
X143912335Y-76391392D02*
G75*
G03*
X140680000Y-76234484I-1672335J-1078608D01*
G01*
X130520000Y-66074000D02*
X130520000Y-66230000D01*
X130520000Y-68390000D02*
X130520000Y-68546000D01*
X133121130Y-68389837D02*
G75*
G02*
X131039039Y-68390000I-1041130J1079837D01*
G01*
X133121130Y-66230163D02*
G75*
G03*
X131039039Y-66230000I-1041130J-1079837D01*
G01*
X133752335Y-68388608D02*
G75*
G02*
X130520000Y-68545516I-1672335J1078608D01*
G01*
X133752335Y-66231392D02*
G75*
G03*
X130520000Y-66074484I-1672335J-1078608D01*
G01*
X130520000Y-81314000D02*
X130520000Y-81470000D01*
X130520000Y-83630000D02*
X130520000Y-83786000D01*
X133121130Y-83629837D02*
G75*
G02*
X131039039Y-83630000I-1041130J1079837D01*
G01*
X133121130Y-81470163D02*
G75*
G03*
X131039039Y-81470000I-1041130J-1079837D01*
G01*
X133752335Y-83628608D02*
G75*
G02*
X130520000Y-83785516I-1672335J1078608D01*
G01*
X133752335Y-81471392D02*
G75*
G03*
X130520000Y-81314484I-1672335J-1078608D01*
G01*
X140680000Y-91474000D02*
X140680000Y-91630000D01*
X140680000Y-93790000D02*
X140680000Y-93946000D01*
X143281130Y-93789837D02*
G75*
G02*
X141199039Y-93790000I-1041130J1079837D01*
G01*
X143281130Y-91630163D02*
G75*
G03*
X141199039Y-91630000I-1041130J-1079837D01*
G01*
X143912335Y-93788608D02*
G75*
G02*
X140680000Y-93945516I-1672335J1078608D01*
G01*
X143912335Y-91631392D02*
G75*
G03*
X140680000Y-91474484I-1672335J-1078608D01*
G01*
X145760000Y-86394000D02*
X145760000Y-86550000D01*
X145760000Y-88710000D02*
X145760000Y-88866000D01*
X148361130Y-88709837D02*
G75*
G02*
X146279039Y-88710000I-1041130J1079837D01*
G01*
X148361130Y-86550163D02*
G75*
G03*
X146279039Y-86550000I-1041130J-1079837D01*
G01*
X148992335Y-88708608D02*
G75*
G02*
X145760000Y-88865516I-1672335J1078608D01*
G01*
X148992335Y-86551392D02*
G75*
G03*
X145760000Y-86394484I-1672335J-1078608D01*
G01*
X145760000Y-71154000D02*
X145760000Y-71310000D01*
X145760000Y-73470000D02*
X145760000Y-73626000D01*
X148361130Y-73469837D02*
G75*
G02*
X146279039Y-73470000I-1041130J1079837D01*
G01*
X148361130Y-71310163D02*
G75*
G03*
X146279039Y-71310000I-1041130J-1079837D01*
G01*
X148992335Y-73468608D02*
G75*
G02*
X145760000Y-73625516I-1672335J1078608D01*
G01*
X148992335Y-71311392D02*
G75*
G03*
X145760000Y-71154484I-1672335J-1078608D01*
G01*
X140680000Y-60994000D02*
X140680000Y-61150000D01*
X140680000Y-63310000D02*
X140680000Y-63466000D01*
X143281130Y-63309837D02*
G75*
G02*
X141199039Y-63310000I-1041130J1079837D01*
G01*
X143281130Y-61150163D02*
G75*
G03*
X141199039Y-61150000I-1041130J-1079837D01*
G01*
X143912335Y-63308608D02*
G75*
G02*
X140680000Y-63465516I-1672335J1078608D01*
G01*
X143912335Y-61151392D02*
G75*
G03*
X140680000Y-60994484I-1672335J-1078608D01*
G01*
X161000000Y-76234000D02*
X161000000Y-76390000D01*
X161000000Y-78550000D02*
X161000000Y-78706000D01*
X163601130Y-78549837D02*
G75*
G02*
X161519039Y-78550000I-1041130J1079837D01*
G01*
X163601130Y-76390163D02*
G75*
G03*
X161519039Y-76390000I-1041130J-1079837D01*
G01*
X164232335Y-78548608D02*
G75*
G02*
X161000000Y-78705516I-1672335J1078608D01*
G01*
X164232335Y-76391392D02*
G75*
G03*
X161000000Y-76234484I-1672335J-1078608D01*
G01*
X155920000Y-71154000D02*
X155920000Y-71310000D01*
X155920000Y-73470000D02*
X155920000Y-73626000D01*
X158521130Y-73469837D02*
G75*
G02*
X156439039Y-73470000I-1041130J1079837D01*
G01*
X158521130Y-71310163D02*
G75*
G03*
X156439039Y-71310000I-1041130J-1079837D01*
G01*
X159152335Y-73468608D02*
G75*
G02*
X155920000Y-73625516I-1672335J1078608D01*
G01*
X159152335Y-71311392D02*
G75*
G03*
X155920000Y-71154484I-1672335J-1078608D01*
G01*
X155920000Y-86394000D02*
X155920000Y-86550000D01*
X155920000Y-88710000D02*
X155920000Y-88866000D01*
X158521130Y-88709837D02*
G75*
G02*
X156439039Y-88710000I-1041130J1079837D01*
G01*
X158521130Y-86550163D02*
G75*
G03*
X156439039Y-86550000I-1041130J-1079837D01*
G01*
X159152335Y-88708608D02*
G75*
G02*
X155920000Y-88865516I-1672335J1078608D01*
G01*
X159152335Y-86551392D02*
G75*
G03*
X155920000Y-86394484I-1672335J-1078608D01*
G01*
X161000000Y-91474000D02*
X161000000Y-91630000D01*
X161000000Y-93790000D02*
X161000000Y-93946000D01*
X163601130Y-93789837D02*
G75*
G02*
X161519039Y-93790000I-1041130J1079837D01*
G01*
X163601130Y-91630163D02*
G75*
G03*
X161519039Y-91630000I-1041130J-1079837D01*
G01*
X164232335Y-93788608D02*
G75*
G02*
X161000000Y-93945516I-1672335J1078608D01*
G01*
X164232335Y-91631392D02*
G75*
G03*
X161000000Y-91474484I-1672335J-1078608D01*
G01*
X171160000Y-81314000D02*
X171160000Y-81470000D01*
X171160000Y-83630000D02*
X171160000Y-83786000D01*
X173761130Y-83629837D02*
G75*
G02*
X171679039Y-83630000I-1041130J1079837D01*
G01*
X173761130Y-81470163D02*
G75*
G03*
X171679039Y-81470000I-1041130J-1079837D01*
G01*
X174392335Y-83628608D02*
G75*
G02*
X171160000Y-83785516I-1672335J1078608D01*
G01*
X174392335Y-81471392D02*
G75*
G03*
X171160000Y-81314484I-1672335J-1078608D01*
G01*
X171160000Y-66074000D02*
X171160000Y-66230000D01*
X171160000Y-68390000D02*
X171160000Y-68546000D01*
X173761130Y-68389837D02*
G75*
G02*
X171679039Y-68390000I-1041130J1079837D01*
G01*
X173761130Y-66230163D02*
G75*
G03*
X171679039Y-66230000I-1041130J-1079837D01*
G01*
X174392335Y-68388608D02*
G75*
G02*
X171160000Y-68545516I-1672335J1078608D01*
G01*
X174392335Y-66231392D02*
G75*
G03*
X171160000Y-66074484I-1672335J-1078608D01*
G01*
X161000000Y-60994000D02*
X161000000Y-61150000D01*
X161000000Y-63310000D02*
X161000000Y-63466000D01*
X163601130Y-63309837D02*
G75*
G02*
X161519039Y-63310000I-1041130J1079837D01*
G01*
X163601130Y-61150163D02*
G75*
G03*
X161519039Y-61150000I-1041130J-1079837D01*
G01*
X164232335Y-63308608D02*
G75*
G02*
X161000000Y-63465516I-1672335J1078608D01*
G01*
X164232335Y-61151392D02*
G75*
G03*
X161000000Y-60994484I-1672335J-1078608D01*
G01*
X135600000Y-76234000D02*
X135600000Y-76390000D01*
X135600000Y-78550000D02*
X135600000Y-78706000D01*
X138201130Y-78549837D02*
G75*
G02*
X136119039Y-78550000I-1041130J1079837D01*
G01*
X138201130Y-76390163D02*
G75*
G03*
X136119039Y-76390000I-1041130J-1079837D01*
G01*
X138832335Y-78548608D02*
G75*
G02*
X135600000Y-78705516I-1672335J1078608D01*
G01*
X138832335Y-76391392D02*
G75*
G03*
X135600000Y-76234484I-1672335J-1078608D01*
G01*
X130520000Y-71154000D02*
X130520000Y-71310000D01*
X130520000Y-73470000D02*
X130520000Y-73626000D01*
X133121130Y-73469837D02*
G75*
G02*
X131039039Y-73470000I-1041130J1079837D01*
G01*
X133121130Y-71310163D02*
G75*
G03*
X131039039Y-71310000I-1041130J-1079837D01*
G01*
X133752335Y-73468608D02*
G75*
G02*
X130520000Y-73625516I-1672335J1078608D01*
G01*
X133752335Y-71311392D02*
G75*
G03*
X130520000Y-71154484I-1672335J-1078608D01*
G01*
X130520000Y-86394000D02*
X130520000Y-86550000D01*
X130520000Y-88710000D02*
X130520000Y-88866000D01*
X133121130Y-88709837D02*
G75*
G02*
X131039039Y-88710000I-1041130J1079837D01*
G01*
X133121130Y-86550163D02*
G75*
G03*
X131039039Y-86550000I-1041130J-1079837D01*
G01*
X133752335Y-88708608D02*
G75*
G02*
X130520000Y-88865516I-1672335J1078608D01*
G01*
X133752335Y-86551392D02*
G75*
G03*
X130520000Y-86394484I-1672335J-1078608D01*
G01*
X135600000Y-91474000D02*
X135600000Y-91630000D01*
X135600000Y-93790000D02*
X135600000Y-93946000D01*
X138201130Y-93789837D02*
G75*
G02*
X136119039Y-93790000I-1041130J1079837D01*
G01*
X138201130Y-91630163D02*
G75*
G03*
X136119039Y-91630000I-1041130J-1079837D01*
G01*
X138832335Y-93788608D02*
G75*
G02*
X135600000Y-93945516I-1672335J1078608D01*
G01*
X138832335Y-91631392D02*
G75*
G03*
X135600000Y-91474484I-1672335J-1078608D01*
G01*
X145760000Y-81314000D02*
X145760000Y-81470000D01*
X145760000Y-83630000D02*
X145760000Y-83786000D01*
X148361130Y-83629837D02*
G75*
G02*
X146279039Y-83630000I-1041130J1079837D01*
G01*
X148361130Y-81470163D02*
G75*
G03*
X146279039Y-81470000I-1041130J-1079837D01*
G01*
X148992335Y-83628608D02*
G75*
G02*
X145760000Y-83785516I-1672335J1078608D01*
G01*
X148992335Y-81471392D02*
G75*
G03*
X145760000Y-81314484I-1672335J-1078608D01*
G01*
X145760000Y-66074000D02*
X145760000Y-66230000D01*
X145760000Y-68390000D02*
X145760000Y-68546000D01*
X148361130Y-68389837D02*
G75*
G02*
X146279039Y-68390000I-1041130J1079837D01*
G01*
X148361130Y-66230163D02*
G75*
G03*
X146279039Y-66230000I-1041130J-1079837D01*
G01*
X148992335Y-68388608D02*
G75*
G02*
X145760000Y-68545516I-1672335J1078608D01*
G01*
X148992335Y-66231392D02*
G75*
G03*
X145760000Y-66074484I-1672335J-1078608D01*
G01*
X135600000Y-60994000D02*
X135600000Y-61150000D01*
X135600000Y-63310000D02*
X135600000Y-63466000D01*
X138201130Y-63309837D02*
G75*
G02*
X136119039Y-63310000I-1041130J1079837D01*
G01*
X138201130Y-61150163D02*
G75*
G03*
X136119039Y-61150000I-1041130J-1079837D01*
G01*
X138832335Y-63308608D02*
G75*
G02*
X135600000Y-63465516I-1672335J1078608D01*
G01*
X138832335Y-61151392D02*
G75*
G03*
X135600000Y-60994484I-1672335J-1078608D01*
G01*
X125440000Y-91474000D02*
X125440000Y-91630000D01*
X125440000Y-93790000D02*
X125440000Y-93946000D01*
X128041130Y-93789837D02*
G75*
G02*
X125959039Y-93790000I-1041130J1079837D01*
G01*
X128041130Y-91630163D02*
G75*
G03*
X125959039Y-91630000I-1041130J-1079837D01*
G01*
X128672335Y-93788608D02*
G75*
G02*
X125440000Y-93945516I-1672335J1078608D01*
G01*
X128672335Y-91631392D02*
G75*
G03*
X125440000Y-91474484I-1672335J-1078608D01*
G01*
X115280000Y-76234000D02*
X115280000Y-76390000D01*
X115280000Y-78550000D02*
X115280000Y-78706000D01*
X117881130Y-78549837D02*
G75*
G02*
X115799039Y-78550000I-1041130J1079837D01*
G01*
X117881130Y-76390163D02*
G75*
G03*
X115799039Y-76390000I-1041130J-1079837D01*
G01*
X118512335Y-78548608D02*
G75*
G02*
X115280000Y-78705516I-1672335J1078608D01*
G01*
X118512335Y-76391392D02*
G75*
G03*
X115280000Y-76234484I-1672335J-1078608D01*
G01*
X105120000Y-66074000D02*
X105120000Y-66230000D01*
X105120000Y-68390000D02*
X105120000Y-68546000D01*
X107721130Y-68389837D02*
G75*
G02*
X105639039Y-68390000I-1041130J1079837D01*
G01*
X107721130Y-66230163D02*
G75*
G03*
X105639039Y-66230000I-1041130J-1079837D01*
G01*
X108352335Y-68388608D02*
G75*
G02*
X105120000Y-68545516I-1672335J1078608D01*
G01*
X108352335Y-66231392D02*
G75*
G03*
X105120000Y-66074484I-1672335J-1078608D01*
G01*
X105120000Y-81314000D02*
X105120000Y-81470000D01*
X105120000Y-83630000D02*
X105120000Y-83786000D01*
X107721130Y-83629837D02*
G75*
G02*
X105639039Y-83630000I-1041130J1079837D01*
G01*
X107721130Y-81470163D02*
G75*
G03*
X105639039Y-81470000I-1041130J-1079837D01*
G01*
X108352335Y-83628608D02*
G75*
G02*
X105120000Y-83785516I-1672335J1078608D01*
G01*
X108352335Y-81471392D02*
G75*
G03*
X105120000Y-81314484I-1672335J-1078608D01*
G01*
X115280000Y-91474000D02*
X115280000Y-91630000D01*
X115280000Y-93790000D02*
X115280000Y-93946000D01*
X117881130Y-93789837D02*
G75*
G02*
X115799039Y-93790000I-1041130J1079837D01*
G01*
X117881130Y-91630163D02*
G75*
G03*
X115799039Y-91630000I-1041130J-1079837D01*
G01*
X118512335Y-93788608D02*
G75*
G02*
X115280000Y-93945516I-1672335J1078608D01*
G01*
X118512335Y-91631392D02*
G75*
G03*
X115280000Y-91474484I-1672335J-1078608D01*
G01*
X120360000Y-86394000D02*
X120360000Y-86550000D01*
X120360000Y-88710000D02*
X120360000Y-88866000D01*
X122961130Y-88709837D02*
G75*
G02*
X120879039Y-88710000I-1041130J1079837D01*
G01*
X122961130Y-86550163D02*
G75*
G03*
X120879039Y-86550000I-1041130J-1079837D01*
G01*
X123592335Y-88708608D02*
G75*
G02*
X120360000Y-88865516I-1672335J1078608D01*
G01*
X123592335Y-86551392D02*
G75*
G03*
X120360000Y-86394484I-1672335J-1078608D01*
G01*
X120360000Y-71154000D02*
X120360000Y-71310000D01*
X120360000Y-73470000D02*
X120360000Y-73626000D01*
X122961130Y-73469837D02*
G75*
G02*
X120879039Y-73470000I-1041130J1079837D01*
G01*
X122961130Y-71310163D02*
G75*
G03*
X120879039Y-71310000I-1041130J-1079837D01*
G01*
X123592335Y-73468608D02*
G75*
G02*
X120360000Y-73625516I-1672335J1078608D01*
G01*
X123592335Y-71311392D02*
G75*
G03*
X120360000Y-71154484I-1672335J-1078608D01*
G01*
X115280000Y-60994000D02*
X115280000Y-61150000D01*
X115280000Y-63310000D02*
X115280000Y-63466000D01*
X117881130Y-63309837D02*
G75*
G02*
X115799039Y-63310000I-1041130J1079837D01*
G01*
X117881130Y-61150163D02*
G75*
G03*
X115799039Y-61150000I-1041130J-1079837D01*
G01*
X118512335Y-63308608D02*
G75*
G02*
X115280000Y-63465516I-1672335J1078608D01*
G01*
X118512335Y-61151392D02*
G75*
G03*
X115280000Y-60994484I-1672335J-1078608D01*
G01*
X100040000Y-91474000D02*
X100040000Y-91630000D01*
X100040000Y-93790000D02*
X100040000Y-93946000D01*
X102641130Y-93789837D02*
G75*
G02*
X100559039Y-93790000I-1041130J1079837D01*
G01*
X102641130Y-91630163D02*
G75*
G03*
X100559039Y-91630000I-1041130J-1079837D01*
G01*
X103272335Y-93788608D02*
G75*
G02*
X100040000Y-93945516I-1672335J1078608D01*
G01*
X103272335Y-91631392D02*
G75*
G03*
X100040000Y-91474484I-1672335J-1078608D01*
G01*
X89880000Y-76234000D02*
X89880000Y-76390000D01*
X89880000Y-78550000D02*
X89880000Y-78706000D01*
X92481130Y-78549837D02*
G75*
G02*
X90399039Y-78550000I-1041130J1079837D01*
G01*
X92481130Y-76390163D02*
G75*
G03*
X90399039Y-76390000I-1041130J-1079837D01*
G01*
X93112335Y-78548608D02*
G75*
G02*
X89880000Y-78705516I-1672335J1078608D01*
G01*
X93112335Y-76391392D02*
G75*
G03*
X89880000Y-76234484I-1672335J-1078608D01*
G01*
X79720000Y-66074000D02*
X79720000Y-66230000D01*
X79720000Y-68390000D02*
X79720000Y-68546000D01*
X82321130Y-68389837D02*
G75*
G02*
X80239039Y-68390000I-1041130J1079837D01*
G01*
X82321130Y-66230163D02*
G75*
G03*
X80239039Y-66230000I-1041130J-1079837D01*
G01*
X82952335Y-68388608D02*
G75*
G02*
X79720000Y-68545516I-1672335J1078608D01*
G01*
X82952335Y-66231392D02*
G75*
G03*
X79720000Y-66074484I-1672335J-1078608D01*
G01*
X79720000Y-81314000D02*
X79720000Y-81470000D01*
X79720000Y-83630000D02*
X79720000Y-83786000D01*
X82321130Y-83629837D02*
G75*
G02*
X80239039Y-83630000I-1041130J1079837D01*
G01*
X82321130Y-81470163D02*
G75*
G03*
X80239039Y-81470000I-1041130J-1079837D01*
G01*
X82952335Y-83628608D02*
G75*
G02*
X79720000Y-83785516I-1672335J1078608D01*
G01*
X82952335Y-81471392D02*
G75*
G03*
X79720000Y-81314484I-1672335J-1078608D01*
G01*
X89880000Y-91474000D02*
X89880000Y-91630000D01*
X89880000Y-93790000D02*
X89880000Y-93946000D01*
X92481130Y-93789837D02*
G75*
G02*
X90399039Y-93790000I-1041130J1079837D01*
G01*
X92481130Y-91630163D02*
G75*
G03*
X90399039Y-91630000I-1041130J-1079837D01*
G01*
X93112335Y-93788608D02*
G75*
G02*
X89880000Y-93945516I-1672335J1078608D01*
G01*
X93112335Y-91631392D02*
G75*
G03*
X89880000Y-91474484I-1672335J-1078608D01*
G01*
X94960000Y-86394000D02*
X94960000Y-86550000D01*
X94960000Y-88710000D02*
X94960000Y-88866000D01*
X97561130Y-88709837D02*
G75*
G02*
X95479039Y-88710000I-1041130J1079837D01*
G01*
X97561130Y-86550163D02*
G75*
G03*
X95479039Y-86550000I-1041130J-1079837D01*
G01*
X98192335Y-88708608D02*
G75*
G02*
X94960000Y-88865516I-1672335J1078608D01*
G01*
X98192335Y-86551392D02*
G75*
G03*
X94960000Y-86394484I-1672335J-1078608D01*
G01*
X94960000Y-71154000D02*
X94960000Y-71310000D01*
X94960000Y-73470000D02*
X94960000Y-73626000D01*
X97561130Y-73469837D02*
G75*
G02*
X95479039Y-73470000I-1041130J1079837D01*
G01*
X97561130Y-71310163D02*
G75*
G03*
X95479039Y-71310000I-1041130J-1079837D01*
G01*
X98192335Y-73468608D02*
G75*
G02*
X94960000Y-73625516I-1672335J1078608D01*
G01*
X98192335Y-71311392D02*
G75*
G03*
X94960000Y-71154484I-1672335J-1078608D01*
G01*
X89880000Y-60994000D02*
X89880000Y-61150000D01*
X89880000Y-63310000D02*
X89880000Y-63466000D01*
X92481130Y-63309837D02*
G75*
G02*
X90399039Y-63310000I-1041130J1079837D01*
G01*
X92481130Y-61150163D02*
G75*
G03*
X90399039Y-61150000I-1041130J-1079837D01*
G01*
X93112335Y-63308608D02*
G75*
G02*
X89880000Y-63465516I-1672335J1078608D01*
G01*
X93112335Y-61151392D02*
G75*
G03*
X89880000Y-60994484I-1672335J-1078608D01*
G01*
X110200000Y-76234000D02*
X110200000Y-76390000D01*
X110200000Y-78550000D02*
X110200000Y-78706000D01*
X112801130Y-78549837D02*
G75*
G02*
X110719039Y-78550000I-1041130J1079837D01*
G01*
X112801130Y-76390163D02*
G75*
G03*
X110719039Y-76390000I-1041130J-1079837D01*
G01*
X113432335Y-78548608D02*
G75*
G02*
X110200000Y-78705516I-1672335J1078608D01*
G01*
X113432335Y-76391392D02*
G75*
G03*
X110200000Y-76234484I-1672335J-1078608D01*
G01*
X105120000Y-71154000D02*
X105120000Y-71310000D01*
X105120000Y-73470000D02*
X105120000Y-73626000D01*
X107721130Y-73469837D02*
G75*
G02*
X105639039Y-73470000I-1041130J1079837D01*
G01*
X107721130Y-71310163D02*
G75*
G03*
X105639039Y-71310000I-1041130J-1079837D01*
G01*
X108352335Y-73468608D02*
G75*
G02*
X105120000Y-73625516I-1672335J1078608D01*
G01*
X108352335Y-71311392D02*
G75*
G03*
X105120000Y-71154484I-1672335J-1078608D01*
G01*
X105120000Y-86394000D02*
X105120000Y-86550000D01*
X105120000Y-88710000D02*
X105120000Y-88866000D01*
X107721130Y-88709837D02*
G75*
G02*
X105639039Y-88710000I-1041130J1079837D01*
G01*
X107721130Y-86550163D02*
G75*
G03*
X105639039Y-86550000I-1041130J-1079837D01*
G01*
X108352335Y-88708608D02*
G75*
G02*
X105120000Y-88865516I-1672335J1078608D01*
G01*
X108352335Y-86551392D02*
G75*
G03*
X105120000Y-86394484I-1672335J-1078608D01*
G01*
X110200000Y-91474000D02*
X110200000Y-91630000D01*
X110200000Y-93790000D02*
X110200000Y-93946000D01*
X112801130Y-93789837D02*
G75*
G02*
X110719039Y-93790000I-1041130J1079837D01*
G01*
X112801130Y-91630163D02*
G75*
G03*
X110719039Y-91630000I-1041130J-1079837D01*
G01*
X113432335Y-93788608D02*
G75*
G02*
X110200000Y-93945516I-1672335J1078608D01*
G01*
X113432335Y-91631392D02*
G75*
G03*
X110200000Y-91474484I-1672335J-1078608D01*
G01*
X120360000Y-81314000D02*
X120360000Y-81470000D01*
X120360000Y-83630000D02*
X120360000Y-83786000D01*
X122961130Y-83629837D02*
G75*
G02*
X120879039Y-83630000I-1041130J1079837D01*
G01*
X122961130Y-81470163D02*
G75*
G03*
X120879039Y-81470000I-1041130J-1079837D01*
G01*
X123592335Y-83628608D02*
G75*
G02*
X120360000Y-83785516I-1672335J1078608D01*
G01*
X123592335Y-81471392D02*
G75*
G03*
X120360000Y-81314484I-1672335J-1078608D01*
G01*
X120360000Y-66074000D02*
X120360000Y-66230000D01*
X120360000Y-68390000D02*
X120360000Y-68546000D01*
X122961130Y-68389837D02*
G75*
G02*
X120879039Y-68390000I-1041130J1079837D01*
G01*
X122961130Y-66230163D02*
G75*
G03*
X120879039Y-66230000I-1041130J-1079837D01*
G01*
X123592335Y-68388608D02*
G75*
G02*
X120360000Y-68545516I-1672335J1078608D01*
G01*
X123592335Y-66231392D02*
G75*
G03*
X120360000Y-66074484I-1672335J-1078608D01*
G01*
X110200000Y-60994000D02*
X110200000Y-61150000D01*
X110200000Y-63310000D02*
X110200000Y-63466000D01*
X112801130Y-63309837D02*
G75*
G02*
X110719039Y-63310000I-1041130J1079837D01*
G01*
X112801130Y-61150163D02*
G75*
G03*
X110719039Y-61150000I-1041130J-1079837D01*
G01*
X113432335Y-63308608D02*
G75*
G02*
X110200000Y-63465516I-1672335J1078608D01*
G01*
X113432335Y-61151392D02*
G75*
G03*
X110200000Y-60994484I-1672335J-1078608D01*
G01*
X84800000Y-76234000D02*
X84800000Y-76390000D01*
X84800000Y-78550000D02*
X84800000Y-78706000D01*
X87401130Y-78549837D02*
G75*
G02*
X85319039Y-78550000I-1041130J1079837D01*
G01*
X87401130Y-76390163D02*
G75*
G03*
X85319039Y-76390000I-1041130J-1079837D01*
G01*
X88032335Y-78548608D02*
G75*
G02*
X84800000Y-78705516I-1672335J1078608D01*
G01*
X88032335Y-76391392D02*
G75*
G03*
X84800000Y-76234484I-1672335J-1078608D01*
G01*
X79720000Y-71154000D02*
X79720000Y-71310000D01*
X79720000Y-73470000D02*
X79720000Y-73626000D01*
X82321130Y-73469837D02*
G75*
G02*
X80239039Y-73470000I-1041130J1079837D01*
G01*
X82321130Y-71310163D02*
G75*
G03*
X80239039Y-71310000I-1041130J-1079837D01*
G01*
X82952335Y-73468608D02*
G75*
G02*
X79720000Y-73625516I-1672335J1078608D01*
G01*
X82952335Y-71311392D02*
G75*
G03*
X79720000Y-71154484I-1672335J-1078608D01*
G01*
X79720000Y-86394000D02*
X79720000Y-86550000D01*
X79720000Y-88710000D02*
X79720000Y-88866000D01*
X82321130Y-88709837D02*
G75*
G02*
X80239039Y-88710000I-1041130J1079837D01*
G01*
X82321130Y-86550163D02*
G75*
G03*
X80239039Y-86550000I-1041130J-1079837D01*
G01*
X82952335Y-88708608D02*
G75*
G02*
X79720000Y-88865516I-1672335J1078608D01*
G01*
X82952335Y-86551392D02*
G75*
G03*
X79720000Y-86394484I-1672335J-1078608D01*
G01*
X84800000Y-91474000D02*
X84800000Y-91630000D01*
X84800000Y-93790000D02*
X84800000Y-93946000D01*
X87401130Y-93789837D02*
G75*
G02*
X85319039Y-93790000I-1041130J1079837D01*
G01*
X87401130Y-91630163D02*
G75*
G03*
X85319039Y-91630000I-1041130J-1079837D01*
G01*
X88032335Y-93788608D02*
G75*
G02*
X84800000Y-93945516I-1672335J1078608D01*
G01*
X88032335Y-91631392D02*
G75*
G03*
X84800000Y-91474484I-1672335J-1078608D01*
G01*
X94960000Y-81314000D02*
X94960000Y-81470000D01*
X94960000Y-83630000D02*
X94960000Y-83786000D01*
X97561130Y-83629837D02*
G75*
G02*
X95479039Y-83630000I-1041130J1079837D01*
G01*
X97561130Y-81470163D02*
G75*
G03*
X95479039Y-81470000I-1041130J-1079837D01*
G01*
X98192335Y-83628608D02*
G75*
G02*
X94960000Y-83785516I-1672335J1078608D01*
G01*
X98192335Y-81471392D02*
G75*
G03*
X94960000Y-81314484I-1672335J-1078608D01*
G01*
X94960000Y-66074000D02*
X94960000Y-66230000D01*
X94960000Y-68390000D02*
X94960000Y-68546000D01*
X97561130Y-68389837D02*
G75*
G02*
X95479039Y-68390000I-1041130J1079837D01*
G01*
X97561130Y-66230163D02*
G75*
G03*
X95479039Y-66230000I-1041130J-1079837D01*
G01*
X98192335Y-68388608D02*
G75*
G02*
X94960000Y-68545516I-1672335J1078608D01*
G01*
X98192335Y-66231392D02*
G75*
G03*
X94960000Y-66074484I-1672335J-1078608D01*
G01*
X84800000Y-60994000D02*
X84800000Y-61150000D01*
X84800000Y-63310000D02*
X84800000Y-63466000D01*
X87401130Y-63309837D02*
G75*
G02*
X85319039Y-63310000I-1041130J1079837D01*
G01*
X87401130Y-61150163D02*
G75*
G03*
X85319039Y-61150000I-1041130J-1079837D01*
G01*
X88032335Y-63308608D02*
G75*
G02*
X84800000Y-63465516I-1672335J1078608D01*
G01*
X88032335Y-61151392D02*
G75*
G03*
X84800000Y-60994484I-1672335J-1078608D01*
G01*
D13*
X163242666Y-113244380D02*
X163242666Y-113958666D01*
X163195047Y-114101523D01*
X163099809Y-114196761D01*
X162956952Y-114244380D01*
X162861714Y-114244380D01*
X163671238Y-113339619D02*
X163718857Y-113292000D01*
X163814095Y-113244380D01*
X164052190Y-113244380D01*
X164147428Y-113292000D01*
X164195047Y-113339619D01*
X164242666Y-113434857D01*
X164242666Y-113530095D01*
X164195047Y-113672952D01*
X163623619Y-114244380D01*
X164242666Y-114244380D01*
X171497333Y-112625142D02*
X171449714Y-112672761D01*
X171306857Y-112720380D01*
X171211619Y-112720380D01*
X171068761Y-112672761D01*
X170973523Y-112577523D01*
X170925904Y-112482285D01*
X170878285Y-112291809D01*
X170878285Y-112148952D01*
X170925904Y-111958476D01*
X170973523Y-111863238D01*
X171068761Y-111768000D01*
X171211619Y-111720380D01*
X171306857Y-111720380D01*
X171449714Y-111768000D01*
X171497333Y-111815619D01*
X172354476Y-112053714D02*
X172354476Y-112720380D01*
X172116380Y-111672761D02*
X171878285Y-112387047D01*
X172497333Y-112387047D01*
X88138095Y-104862380D02*
X88138095Y-105671904D01*
X88185714Y-105767142D01*
X88233333Y-105814761D01*
X88328571Y-105862380D01*
X88519047Y-105862380D01*
X88614285Y-105814761D01*
X88661904Y-105767142D01*
X88709523Y-105671904D01*
X88709523Y-104862380D01*
X89709523Y-105862380D02*
X89138095Y-105862380D01*
X89423809Y-105862380D02*
X89423809Y-104862380D01*
X89328571Y-105005238D01*
X89233333Y-105100476D01*
X89138095Y-105148095D01*
X113538095Y-104862380D02*
X113538095Y-105671904D01*
X113585714Y-105767142D01*
X113633333Y-105814761D01*
X113728571Y-105862380D01*
X113919047Y-105862380D01*
X114014285Y-105814761D01*
X114061904Y-105767142D01*
X114109523Y-105671904D01*
X114109523Y-104862380D01*
X114538095Y-104957619D02*
X114585714Y-104910000D01*
X114680952Y-104862380D01*
X114919047Y-104862380D01*
X115014285Y-104910000D01*
X115061904Y-104957619D01*
X115109523Y-105052857D01*
X115109523Y-105148095D01*
X115061904Y-105290952D01*
X114490476Y-105862380D01*
X115109523Y-105862380D01*
X138938095Y-104862380D02*
X138938095Y-105671904D01*
X138985714Y-105767142D01*
X139033333Y-105814761D01*
X139128571Y-105862380D01*
X139319047Y-105862380D01*
X139414285Y-105814761D01*
X139461904Y-105767142D01*
X139509523Y-105671904D01*
X139509523Y-104862380D01*
X139890476Y-104862380D02*
X140509523Y-104862380D01*
X140176190Y-105243333D01*
X140319047Y-105243333D01*
X140414285Y-105290952D01*
X140461904Y-105338571D01*
X140509523Y-105433809D01*
X140509523Y-105671904D01*
X140461904Y-105767142D01*
X140414285Y-105814761D01*
X140319047Y-105862380D01*
X140033333Y-105862380D01*
X139938095Y-105814761D01*
X139890476Y-105767142D01*
X164338095Y-104862380D02*
X164338095Y-105671904D01*
X164385714Y-105767142D01*
X164433333Y-105814761D01*
X164528571Y-105862380D01*
X164719047Y-105862380D01*
X164814285Y-105814761D01*
X164861904Y-105767142D01*
X164909523Y-105671904D01*
X164909523Y-104862380D01*
X165814285Y-105195714D02*
X165814285Y-105862380D01*
X165576190Y-104814761D02*
X165338095Y-105529047D01*
X165957142Y-105529047D01*
X79930666Y-113244380D02*
X79930666Y-113958666D01*
X79883047Y-114101523D01*
X79787809Y-114196761D01*
X79644952Y-114244380D01*
X79549714Y-114244380D01*
X80930666Y-114244380D02*
X80359238Y-114244380D01*
X80644952Y-114244380D02*
X80644952Y-113244380D01*
X80549714Y-113387238D01*
X80454476Y-113482476D01*
X80359238Y-113530095D01*
X152757142Y-106886666D02*
X152804761Y-106934285D01*
X152852380Y-107077142D01*
X152852380Y-107172380D01*
X152804761Y-107315238D01*
X152709523Y-107410476D01*
X152614285Y-107458095D01*
X152423809Y-107505714D01*
X152280952Y-107505714D01*
X152090476Y-107458095D01*
X151995238Y-107410476D01*
X151900000Y-107315238D01*
X151852380Y-107172380D01*
X151852380Y-107077142D01*
X151900000Y-106934285D01*
X151947619Y-106886666D01*
X151852380Y-106553333D02*
X151852380Y-105934285D01*
X152233333Y-106267619D01*
X152233333Y-106124761D01*
X152280952Y-106029523D01*
X152328571Y-105981904D01*
X152423809Y-105934285D01*
X152661904Y-105934285D01*
X152757142Y-105981904D01*
X152804761Y-106029523D01*
X152852380Y-106124761D01*
X152852380Y-106410476D01*
X152804761Y-106505714D01*
X152757142Y-106553333D01*
X101957142Y-106886666D02*
X102004761Y-106934285D01*
X102052380Y-107077142D01*
X102052380Y-107172380D01*
X102004761Y-107315238D01*
X101909523Y-107410476D01*
X101814285Y-107458095D01*
X101623809Y-107505714D01*
X101480952Y-107505714D01*
X101290476Y-107458095D01*
X101195238Y-107410476D01*
X101100000Y-107315238D01*
X101052380Y-107172380D01*
X101052380Y-107077142D01*
X101100000Y-106934285D01*
X101147619Y-106886666D01*
X102052380Y-105934285D02*
X102052380Y-106505714D01*
X102052380Y-106220000D02*
X101052380Y-106220000D01*
X101195238Y-106315238D01*
X101290476Y-106410476D01*
X101338095Y-106505714D01*
X127357142Y-106886666D02*
X127404761Y-106934285D01*
X127452380Y-107077142D01*
X127452380Y-107172380D01*
X127404761Y-107315238D01*
X127309523Y-107410476D01*
X127214285Y-107458095D01*
X127023809Y-107505714D01*
X126880952Y-107505714D01*
X126690476Y-107458095D01*
X126595238Y-107410476D01*
X126500000Y-107315238D01*
X126452380Y-107172380D01*
X126452380Y-107077142D01*
X126500000Y-106934285D01*
X126547619Y-106886666D01*
X126547619Y-106505714D02*
X126500000Y-106458095D01*
X126452380Y-106362857D01*
X126452380Y-106124761D01*
X126500000Y-106029523D01*
X126547619Y-105981904D01*
X126642857Y-105934285D01*
X126738095Y-105934285D01*
X126880952Y-105981904D01*
X127452380Y-106553333D01*
X127452380Y-105934285D01*
X164457142Y-83002380D02*
X164123809Y-82526190D01*
X163885714Y-83002380D02*
X163885714Y-82002380D01*
X164266666Y-82002380D01*
X164361904Y-82050000D01*
X164409523Y-82097619D01*
X164457142Y-82192857D01*
X164457142Y-82335714D01*
X164409523Y-82430952D01*
X164361904Y-82478571D01*
X164266666Y-82526190D01*
X163885714Y-82526190D01*
X164790476Y-82002380D02*
X165409523Y-82002380D01*
X165076190Y-82383333D01*
X165219047Y-82383333D01*
X165314285Y-82430952D01*
X165361904Y-82478571D01*
X165409523Y-82573809D01*
X165409523Y-82811904D01*
X165361904Y-82907142D01*
X165314285Y-82954761D01*
X165219047Y-83002380D01*
X164933333Y-83002380D01*
X164838095Y-82954761D01*
X164790476Y-82907142D01*
X166361904Y-83002380D02*
X165790476Y-83002380D01*
X166076190Y-83002380D02*
X166076190Y-82002380D01*
X165980952Y-82145238D01*
X165885714Y-82240476D01*
X165790476Y-82288095D01*
X164457142Y-72842380D02*
X164123809Y-72366190D01*
X163885714Y-72842380D02*
X163885714Y-71842380D01*
X164266666Y-71842380D01*
X164361904Y-71890000D01*
X164409523Y-71937619D01*
X164457142Y-72032857D01*
X164457142Y-72175714D01*
X164409523Y-72270952D01*
X164361904Y-72318571D01*
X164266666Y-72366190D01*
X163885714Y-72366190D01*
X164790476Y-71842380D02*
X165409523Y-71842380D01*
X165076190Y-72223333D01*
X165219047Y-72223333D01*
X165314285Y-72270952D01*
X165361904Y-72318571D01*
X165409523Y-72413809D01*
X165409523Y-72651904D01*
X165361904Y-72747142D01*
X165314285Y-72794761D01*
X165219047Y-72842380D01*
X164933333Y-72842380D01*
X164838095Y-72794761D01*
X164790476Y-72747142D01*
X166028571Y-71842380D02*
X166123809Y-71842380D01*
X166219047Y-71890000D01*
X166266666Y-71937619D01*
X166314285Y-72032857D01*
X166361904Y-72223333D01*
X166361904Y-72461428D01*
X166314285Y-72651904D01*
X166266666Y-72747142D01*
X166219047Y-72794761D01*
X166123809Y-72842380D01*
X166028571Y-72842380D01*
X165933333Y-72794761D01*
X165885714Y-72747142D01*
X165838095Y-72651904D01*
X165790476Y-72461428D01*
X165790476Y-72223333D01*
X165838095Y-72032857D01*
X165885714Y-71937619D01*
X165933333Y-71890000D01*
X166028571Y-71842380D01*
X164457142Y-88082380D02*
X164123809Y-87606190D01*
X163885714Y-88082380D02*
X163885714Y-87082380D01*
X164266666Y-87082380D01*
X164361904Y-87130000D01*
X164409523Y-87177619D01*
X164457142Y-87272857D01*
X164457142Y-87415714D01*
X164409523Y-87510952D01*
X164361904Y-87558571D01*
X164266666Y-87606190D01*
X163885714Y-87606190D01*
X164838095Y-87177619D02*
X164885714Y-87130000D01*
X164980952Y-87082380D01*
X165219047Y-87082380D01*
X165314285Y-87130000D01*
X165361904Y-87177619D01*
X165409523Y-87272857D01*
X165409523Y-87368095D01*
X165361904Y-87510952D01*
X164790476Y-88082380D01*
X165409523Y-88082380D01*
X165885714Y-88082380D02*
X166076190Y-88082380D01*
X166171428Y-88034761D01*
X166219047Y-87987142D01*
X166314285Y-87844285D01*
X166361904Y-87653809D01*
X166361904Y-87272857D01*
X166314285Y-87177619D01*
X166266666Y-87130000D01*
X166171428Y-87082380D01*
X165980952Y-87082380D01*
X165885714Y-87130000D01*
X165838095Y-87177619D01*
X165790476Y-87272857D01*
X165790476Y-87510952D01*
X165838095Y-87606190D01*
X165885714Y-87653809D01*
X165980952Y-87701428D01*
X166171428Y-87701428D01*
X166266666Y-87653809D01*
X166314285Y-87606190D01*
X166361904Y-87510952D01*
X164457142Y-96972380D02*
X164123809Y-96496190D01*
X163885714Y-96972380D02*
X163885714Y-95972380D01*
X164266666Y-95972380D01*
X164361904Y-96020000D01*
X164409523Y-96067619D01*
X164457142Y-96162857D01*
X164457142Y-96305714D01*
X164409523Y-96400952D01*
X164361904Y-96448571D01*
X164266666Y-96496190D01*
X163885714Y-96496190D01*
X164838095Y-96067619D02*
X164885714Y-96020000D01*
X164980952Y-95972380D01*
X165219047Y-95972380D01*
X165314285Y-96020000D01*
X165361904Y-96067619D01*
X165409523Y-96162857D01*
X165409523Y-96258095D01*
X165361904Y-96400952D01*
X164790476Y-96972380D01*
X165409523Y-96972380D01*
X165980952Y-96400952D02*
X165885714Y-96353333D01*
X165838095Y-96305714D01*
X165790476Y-96210476D01*
X165790476Y-96162857D01*
X165838095Y-96067619D01*
X165885714Y-96020000D01*
X165980952Y-95972380D01*
X166171428Y-95972380D01*
X166266666Y-96020000D01*
X166314285Y-96067619D01*
X166361904Y-96162857D01*
X166361904Y-96210476D01*
X166314285Y-96305714D01*
X166266666Y-96353333D01*
X166171428Y-96400952D01*
X165980952Y-96400952D01*
X165885714Y-96448571D01*
X165838095Y-96496190D01*
X165790476Y-96591428D01*
X165790476Y-96781904D01*
X165838095Y-96877142D01*
X165885714Y-96924761D01*
X165980952Y-96972380D01*
X166171428Y-96972380D01*
X166266666Y-96924761D01*
X166314285Y-96877142D01*
X166361904Y-96781904D01*
X166361904Y-96591428D01*
X166314285Y-96496190D01*
X166266666Y-96448571D01*
X166171428Y-96400952D01*
X164457142Y-85542380D02*
X164123809Y-85066190D01*
X163885714Y-85542380D02*
X163885714Y-84542380D01*
X164266666Y-84542380D01*
X164361904Y-84590000D01*
X164409523Y-84637619D01*
X164457142Y-84732857D01*
X164457142Y-84875714D01*
X164409523Y-84970952D01*
X164361904Y-85018571D01*
X164266666Y-85066190D01*
X163885714Y-85066190D01*
X164838095Y-84637619D02*
X164885714Y-84590000D01*
X164980952Y-84542380D01*
X165219047Y-84542380D01*
X165314285Y-84590000D01*
X165361904Y-84637619D01*
X165409523Y-84732857D01*
X165409523Y-84828095D01*
X165361904Y-84970952D01*
X164790476Y-85542380D01*
X165409523Y-85542380D01*
X165742857Y-84542380D02*
X166409523Y-84542380D01*
X165980952Y-85542380D01*
X164457142Y-70302380D02*
X164123809Y-69826190D01*
X163885714Y-70302380D02*
X163885714Y-69302380D01*
X164266666Y-69302380D01*
X164361904Y-69350000D01*
X164409523Y-69397619D01*
X164457142Y-69492857D01*
X164457142Y-69635714D01*
X164409523Y-69730952D01*
X164361904Y-69778571D01*
X164266666Y-69826190D01*
X163885714Y-69826190D01*
X164838095Y-69397619D02*
X164885714Y-69350000D01*
X164980952Y-69302380D01*
X165219047Y-69302380D01*
X165314285Y-69350000D01*
X165361904Y-69397619D01*
X165409523Y-69492857D01*
X165409523Y-69588095D01*
X165361904Y-69730952D01*
X164790476Y-70302380D01*
X165409523Y-70302380D01*
X166266666Y-69302380D02*
X166076190Y-69302380D01*
X165980952Y-69350000D01*
X165933333Y-69397619D01*
X165838095Y-69540476D01*
X165790476Y-69730952D01*
X165790476Y-70111904D01*
X165838095Y-70207142D01*
X165885714Y-70254761D01*
X165980952Y-70302380D01*
X166171428Y-70302380D01*
X166266666Y-70254761D01*
X166314285Y-70207142D01*
X166361904Y-70111904D01*
X166361904Y-69873809D01*
X166314285Y-69778571D01*
X166266666Y-69730952D01*
X166171428Y-69683333D01*
X165980952Y-69683333D01*
X165885714Y-69730952D01*
X165838095Y-69778571D01*
X165790476Y-69873809D01*
X164457142Y-67762380D02*
X164123809Y-67286190D01*
X163885714Y-67762380D02*
X163885714Y-66762380D01*
X164266666Y-66762380D01*
X164361904Y-66810000D01*
X164409523Y-66857619D01*
X164457142Y-66952857D01*
X164457142Y-67095714D01*
X164409523Y-67190952D01*
X164361904Y-67238571D01*
X164266666Y-67286190D01*
X163885714Y-67286190D01*
X164838095Y-66857619D02*
X164885714Y-66810000D01*
X164980952Y-66762380D01*
X165219047Y-66762380D01*
X165314285Y-66810000D01*
X165361904Y-66857619D01*
X165409523Y-66952857D01*
X165409523Y-67048095D01*
X165361904Y-67190952D01*
X164790476Y-67762380D01*
X165409523Y-67762380D01*
X166314285Y-66762380D02*
X165838095Y-66762380D01*
X165790476Y-67238571D01*
X165838095Y-67190952D01*
X165933333Y-67143333D01*
X166171428Y-67143333D01*
X166266666Y-67190952D01*
X166314285Y-67238571D01*
X166361904Y-67333809D01*
X166361904Y-67571904D01*
X166314285Y-67667142D01*
X166266666Y-67714761D01*
X166171428Y-67762380D01*
X165933333Y-67762380D01*
X165838095Y-67714761D01*
X165790476Y-67667142D01*
X151757142Y-96972380D02*
X151423809Y-96496190D01*
X151185714Y-96972380D02*
X151185714Y-95972380D01*
X151566666Y-95972380D01*
X151661904Y-96020000D01*
X151709523Y-96067619D01*
X151757142Y-96162857D01*
X151757142Y-96305714D01*
X151709523Y-96400952D01*
X151661904Y-96448571D01*
X151566666Y-96496190D01*
X151185714Y-96496190D01*
X152138095Y-96067619D02*
X152185714Y-96020000D01*
X152280952Y-95972380D01*
X152519047Y-95972380D01*
X152614285Y-96020000D01*
X152661904Y-96067619D01*
X152709523Y-96162857D01*
X152709523Y-96258095D01*
X152661904Y-96400952D01*
X152090476Y-96972380D01*
X152709523Y-96972380D01*
X153566666Y-96305714D02*
X153566666Y-96972380D01*
X153328571Y-95924761D02*
X153090476Y-96639047D01*
X153709523Y-96639047D01*
X139057142Y-83002380D02*
X138723809Y-82526190D01*
X138485714Y-83002380D02*
X138485714Y-82002380D01*
X138866666Y-82002380D01*
X138961904Y-82050000D01*
X139009523Y-82097619D01*
X139057142Y-82192857D01*
X139057142Y-82335714D01*
X139009523Y-82430952D01*
X138961904Y-82478571D01*
X138866666Y-82526190D01*
X138485714Y-82526190D01*
X139438095Y-82097619D02*
X139485714Y-82050000D01*
X139580952Y-82002380D01*
X139819047Y-82002380D01*
X139914285Y-82050000D01*
X139961904Y-82097619D01*
X140009523Y-82192857D01*
X140009523Y-82288095D01*
X139961904Y-82430952D01*
X139390476Y-83002380D01*
X140009523Y-83002380D01*
X140342857Y-82002380D02*
X140961904Y-82002380D01*
X140628571Y-82383333D01*
X140771428Y-82383333D01*
X140866666Y-82430952D01*
X140914285Y-82478571D01*
X140961904Y-82573809D01*
X140961904Y-82811904D01*
X140914285Y-82907142D01*
X140866666Y-82954761D01*
X140771428Y-83002380D01*
X140485714Y-83002380D01*
X140390476Y-82954761D01*
X140342857Y-82907142D01*
X139057142Y-72842380D02*
X138723809Y-72366190D01*
X138485714Y-72842380D02*
X138485714Y-71842380D01*
X138866666Y-71842380D01*
X138961904Y-71890000D01*
X139009523Y-71937619D01*
X139057142Y-72032857D01*
X139057142Y-72175714D01*
X139009523Y-72270952D01*
X138961904Y-72318571D01*
X138866666Y-72366190D01*
X138485714Y-72366190D01*
X139438095Y-71937619D02*
X139485714Y-71890000D01*
X139580952Y-71842380D01*
X139819047Y-71842380D01*
X139914285Y-71890000D01*
X139961904Y-71937619D01*
X140009523Y-72032857D01*
X140009523Y-72128095D01*
X139961904Y-72270952D01*
X139390476Y-72842380D01*
X140009523Y-72842380D01*
X140390476Y-71937619D02*
X140438095Y-71890000D01*
X140533333Y-71842380D01*
X140771428Y-71842380D01*
X140866666Y-71890000D01*
X140914285Y-71937619D01*
X140961904Y-72032857D01*
X140961904Y-72128095D01*
X140914285Y-72270952D01*
X140342857Y-72842380D01*
X140961904Y-72842380D01*
X139057142Y-88082380D02*
X138723809Y-87606190D01*
X138485714Y-88082380D02*
X138485714Y-87082380D01*
X138866666Y-87082380D01*
X138961904Y-87130000D01*
X139009523Y-87177619D01*
X139057142Y-87272857D01*
X139057142Y-87415714D01*
X139009523Y-87510952D01*
X138961904Y-87558571D01*
X138866666Y-87606190D01*
X138485714Y-87606190D01*
X139438095Y-87177619D02*
X139485714Y-87130000D01*
X139580952Y-87082380D01*
X139819047Y-87082380D01*
X139914285Y-87130000D01*
X139961904Y-87177619D01*
X140009523Y-87272857D01*
X140009523Y-87368095D01*
X139961904Y-87510952D01*
X139390476Y-88082380D01*
X140009523Y-88082380D01*
X140961904Y-88082380D02*
X140390476Y-88082380D01*
X140676190Y-88082380D02*
X140676190Y-87082380D01*
X140580952Y-87225238D01*
X140485714Y-87320476D01*
X140390476Y-87368095D01*
X139057142Y-96972380D02*
X138723809Y-96496190D01*
X138485714Y-96972380D02*
X138485714Y-95972380D01*
X138866666Y-95972380D01*
X138961904Y-96020000D01*
X139009523Y-96067619D01*
X139057142Y-96162857D01*
X139057142Y-96305714D01*
X139009523Y-96400952D01*
X138961904Y-96448571D01*
X138866666Y-96496190D01*
X138485714Y-96496190D01*
X139438095Y-96067619D02*
X139485714Y-96020000D01*
X139580952Y-95972380D01*
X139819047Y-95972380D01*
X139914285Y-96020000D01*
X139961904Y-96067619D01*
X140009523Y-96162857D01*
X140009523Y-96258095D01*
X139961904Y-96400952D01*
X139390476Y-96972380D01*
X140009523Y-96972380D01*
X140628571Y-95972380D02*
X140723809Y-95972380D01*
X140819047Y-96020000D01*
X140866666Y-96067619D01*
X140914285Y-96162857D01*
X140961904Y-96353333D01*
X140961904Y-96591428D01*
X140914285Y-96781904D01*
X140866666Y-96877142D01*
X140819047Y-96924761D01*
X140723809Y-96972380D01*
X140628571Y-96972380D01*
X140533333Y-96924761D01*
X140485714Y-96877142D01*
X140438095Y-96781904D01*
X140390476Y-96591428D01*
X140390476Y-96353333D01*
X140438095Y-96162857D01*
X140485714Y-96067619D01*
X140533333Y-96020000D01*
X140628571Y-95972380D01*
X139057142Y-85542380D02*
X138723809Y-85066190D01*
X138485714Y-85542380D02*
X138485714Y-84542380D01*
X138866666Y-84542380D01*
X138961904Y-84590000D01*
X139009523Y-84637619D01*
X139057142Y-84732857D01*
X139057142Y-84875714D01*
X139009523Y-84970952D01*
X138961904Y-85018571D01*
X138866666Y-85066190D01*
X138485714Y-85066190D01*
X140009523Y-85542380D02*
X139438095Y-85542380D01*
X139723809Y-85542380D02*
X139723809Y-84542380D01*
X139628571Y-84685238D01*
X139533333Y-84780476D01*
X139438095Y-84828095D01*
X140485714Y-85542380D02*
X140676190Y-85542380D01*
X140771428Y-85494761D01*
X140819047Y-85447142D01*
X140914285Y-85304285D01*
X140961904Y-85113809D01*
X140961904Y-84732857D01*
X140914285Y-84637619D01*
X140866666Y-84590000D01*
X140771428Y-84542380D01*
X140580952Y-84542380D01*
X140485714Y-84590000D01*
X140438095Y-84637619D01*
X140390476Y-84732857D01*
X140390476Y-84970952D01*
X140438095Y-85066190D01*
X140485714Y-85113809D01*
X140580952Y-85161428D01*
X140771428Y-85161428D01*
X140866666Y-85113809D01*
X140914285Y-85066190D01*
X140961904Y-84970952D01*
X139057142Y-70302380D02*
X138723809Y-69826190D01*
X138485714Y-70302380D02*
X138485714Y-69302380D01*
X138866666Y-69302380D01*
X138961904Y-69350000D01*
X139009523Y-69397619D01*
X139057142Y-69492857D01*
X139057142Y-69635714D01*
X139009523Y-69730952D01*
X138961904Y-69778571D01*
X138866666Y-69826190D01*
X138485714Y-69826190D01*
X140009523Y-70302380D02*
X139438095Y-70302380D01*
X139723809Y-70302380D02*
X139723809Y-69302380D01*
X139628571Y-69445238D01*
X139533333Y-69540476D01*
X139438095Y-69588095D01*
X140580952Y-69730952D02*
X140485714Y-69683333D01*
X140438095Y-69635714D01*
X140390476Y-69540476D01*
X140390476Y-69492857D01*
X140438095Y-69397619D01*
X140485714Y-69350000D01*
X140580952Y-69302380D01*
X140771428Y-69302380D01*
X140866666Y-69350000D01*
X140914285Y-69397619D01*
X140961904Y-69492857D01*
X140961904Y-69540476D01*
X140914285Y-69635714D01*
X140866666Y-69683333D01*
X140771428Y-69730952D01*
X140580952Y-69730952D01*
X140485714Y-69778571D01*
X140438095Y-69826190D01*
X140390476Y-69921428D01*
X140390476Y-70111904D01*
X140438095Y-70207142D01*
X140485714Y-70254761D01*
X140580952Y-70302380D01*
X140771428Y-70302380D01*
X140866666Y-70254761D01*
X140914285Y-70207142D01*
X140961904Y-70111904D01*
X140961904Y-69921428D01*
X140914285Y-69826190D01*
X140866666Y-69778571D01*
X140771428Y-69730952D01*
X139057142Y-67762380D02*
X138723809Y-67286190D01*
X138485714Y-67762380D02*
X138485714Y-66762380D01*
X138866666Y-66762380D01*
X138961904Y-66810000D01*
X139009523Y-66857619D01*
X139057142Y-66952857D01*
X139057142Y-67095714D01*
X139009523Y-67190952D01*
X138961904Y-67238571D01*
X138866666Y-67286190D01*
X138485714Y-67286190D01*
X140009523Y-67762380D02*
X139438095Y-67762380D01*
X139723809Y-67762380D02*
X139723809Y-66762380D01*
X139628571Y-66905238D01*
X139533333Y-67000476D01*
X139438095Y-67048095D01*
X140342857Y-66762380D02*
X141009523Y-66762380D01*
X140580952Y-67762380D01*
X126357142Y-96972380D02*
X126023809Y-96496190D01*
X125785714Y-96972380D02*
X125785714Y-95972380D01*
X126166666Y-95972380D01*
X126261904Y-96020000D01*
X126309523Y-96067619D01*
X126357142Y-96162857D01*
X126357142Y-96305714D01*
X126309523Y-96400952D01*
X126261904Y-96448571D01*
X126166666Y-96496190D01*
X125785714Y-96496190D01*
X127309523Y-96972380D02*
X126738095Y-96972380D01*
X127023809Y-96972380D02*
X127023809Y-95972380D01*
X126928571Y-96115238D01*
X126833333Y-96210476D01*
X126738095Y-96258095D01*
X128166666Y-95972380D02*
X127976190Y-95972380D01*
X127880952Y-96020000D01*
X127833333Y-96067619D01*
X127738095Y-96210476D01*
X127690476Y-96400952D01*
X127690476Y-96781904D01*
X127738095Y-96877142D01*
X127785714Y-96924761D01*
X127880952Y-96972380D01*
X128071428Y-96972380D01*
X128166666Y-96924761D01*
X128214285Y-96877142D01*
X128261904Y-96781904D01*
X128261904Y-96543809D01*
X128214285Y-96448571D01*
X128166666Y-96400952D01*
X128071428Y-96353333D01*
X127880952Y-96353333D01*
X127785714Y-96400952D01*
X127738095Y-96448571D01*
X127690476Y-96543809D01*
X113657142Y-83002380D02*
X113323809Y-82526190D01*
X113085714Y-83002380D02*
X113085714Y-82002380D01*
X113466666Y-82002380D01*
X113561904Y-82050000D01*
X113609523Y-82097619D01*
X113657142Y-82192857D01*
X113657142Y-82335714D01*
X113609523Y-82430952D01*
X113561904Y-82478571D01*
X113466666Y-82526190D01*
X113085714Y-82526190D01*
X114609523Y-83002380D02*
X114038095Y-83002380D01*
X114323809Y-83002380D02*
X114323809Y-82002380D01*
X114228571Y-82145238D01*
X114133333Y-82240476D01*
X114038095Y-82288095D01*
X115514285Y-82002380D02*
X115038095Y-82002380D01*
X114990476Y-82478571D01*
X115038095Y-82430952D01*
X115133333Y-82383333D01*
X115371428Y-82383333D01*
X115466666Y-82430952D01*
X115514285Y-82478571D01*
X115561904Y-82573809D01*
X115561904Y-82811904D01*
X115514285Y-82907142D01*
X115466666Y-82954761D01*
X115371428Y-83002380D01*
X115133333Y-83002380D01*
X115038095Y-82954761D01*
X114990476Y-82907142D01*
X113657142Y-72842380D02*
X113323809Y-72366190D01*
X113085714Y-72842380D02*
X113085714Y-71842380D01*
X113466666Y-71842380D01*
X113561904Y-71890000D01*
X113609523Y-71937619D01*
X113657142Y-72032857D01*
X113657142Y-72175714D01*
X113609523Y-72270952D01*
X113561904Y-72318571D01*
X113466666Y-72366190D01*
X113085714Y-72366190D01*
X114609523Y-72842380D02*
X114038095Y-72842380D01*
X114323809Y-72842380D02*
X114323809Y-71842380D01*
X114228571Y-71985238D01*
X114133333Y-72080476D01*
X114038095Y-72128095D01*
X115466666Y-72175714D02*
X115466666Y-72842380D01*
X115228571Y-71794761D02*
X114990476Y-72509047D01*
X115609523Y-72509047D01*
X113657142Y-88082380D02*
X113323809Y-87606190D01*
X113085714Y-88082380D02*
X113085714Y-87082380D01*
X113466666Y-87082380D01*
X113561904Y-87130000D01*
X113609523Y-87177619D01*
X113657142Y-87272857D01*
X113657142Y-87415714D01*
X113609523Y-87510952D01*
X113561904Y-87558571D01*
X113466666Y-87606190D01*
X113085714Y-87606190D01*
X114609523Y-88082380D02*
X114038095Y-88082380D01*
X114323809Y-88082380D02*
X114323809Y-87082380D01*
X114228571Y-87225238D01*
X114133333Y-87320476D01*
X114038095Y-87368095D01*
X114942857Y-87082380D02*
X115561904Y-87082380D01*
X115228571Y-87463333D01*
X115371428Y-87463333D01*
X115466666Y-87510952D01*
X115514285Y-87558571D01*
X115561904Y-87653809D01*
X115561904Y-87891904D01*
X115514285Y-87987142D01*
X115466666Y-88034761D01*
X115371428Y-88082380D01*
X115085714Y-88082380D01*
X114990476Y-88034761D01*
X114942857Y-87987142D01*
X113657142Y-96972380D02*
X113323809Y-96496190D01*
X113085714Y-96972380D02*
X113085714Y-95972380D01*
X113466666Y-95972380D01*
X113561904Y-96020000D01*
X113609523Y-96067619D01*
X113657142Y-96162857D01*
X113657142Y-96305714D01*
X113609523Y-96400952D01*
X113561904Y-96448571D01*
X113466666Y-96496190D01*
X113085714Y-96496190D01*
X114609523Y-96972380D02*
X114038095Y-96972380D01*
X114323809Y-96972380D02*
X114323809Y-95972380D01*
X114228571Y-96115238D01*
X114133333Y-96210476D01*
X114038095Y-96258095D01*
X114990476Y-96067619D02*
X115038095Y-96020000D01*
X115133333Y-95972380D01*
X115371428Y-95972380D01*
X115466666Y-96020000D01*
X115514285Y-96067619D01*
X115561904Y-96162857D01*
X115561904Y-96258095D01*
X115514285Y-96400952D01*
X114942857Y-96972380D01*
X115561904Y-96972380D01*
X113657142Y-85542380D02*
X113323809Y-85066190D01*
X113085714Y-85542380D02*
X113085714Y-84542380D01*
X113466666Y-84542380D01*
X113561904Y-84590000D01*
X113609523Y-84637619D01*
X113657142Y-84732857D01*
X113657142Y-84875714D01*
X113609523Y-84970952D01*
X113561904Y-85018571D01*
X113466666Y-85066190D01*
X113085714Y-85066190D01*
X114609523Y-85542380D02*
X114038095Y-85542380D01*
X114323809Y-85542380D02*
X114323809Y-84542380D01*
X114228571Y-84685238D01*
X114133333Y-84780476D01*
X114038095Y-84828095D01*
X115561904Y-85542380D02*
X114990476Y-85542380D01*
X115276190Y-85542380D02*
X115276190Y-84542380D01*
X115180952Y-84685238D01*
X115085714Y-84780476D01*
X114990476Y-84828095D01*
X113657142Y-70302380D02*
X113323809Y-69826190D01*
X113085714Y-70302380D02*
X113085714Y-69302380D01*
X113466666Y-69302380D01*
X113561904Y-69350000D01*
X113609523Y-69397619D01*
X113657142Y-69492857D01*
X113657142Y-69635714D01*
X113609523Y-69730952D01*
X113561904Y-69778571D01*
X113466666Y-69826190D01*
X113085714Y-69826190D01*
X114609523Y-70302380D02*
X114038095Y-70302380D01*
X114323809Y-70302380D02*
X114323809Y-69302380D01*
X114228571Y-69445238D01*
X114133333Y-69540476D01*
X114038095Y-69588095D01*
X115228571Y-69302380D02*
X115323809Y-69302380D01*
X115419047Y-69350000D01*
X115466666Y-69397619D01*
X115514285Y-69492857D01*
X115561904Y-69683333D01*
X115561904Y-69921428D01*
X115514285Y-70111904D01*
X115466666Y-70207142D01*
X115419047Y-70254761D01*
X115323809Y-70302380D01*
X115228571Y-70302380D01*
X115133333Y-70254761D01*
X115085714Y-70207142D01*
X115038095Y-70111904D01*
X114990476Y-69921428D01*
X114990476Y-69683333D01*
X115038095Y-69492857D01*
X115085714Y-69397619D01*
X115133333Y-69350000D01*
X115228571Y-69302380D01*
X114133333Y-67762380D02*
X113800000Y-67286190D01*
X113561904Y-67762380D02*
X113561904Y-66762380D01*
X113942857Y-66762380D01*
X114038095Y-66810000D01*
X114085714Y-66857619D01*
X114133333Y-66952857D01*
X114133333Y-67095714D01*
X114085714Y-67190952D01*
X114038095Y-67238571D01*
X113942857Y-67286190D01*
X113561904Y-67286190D01*
X114609523Y-67762380D02*
X114800000Y-67762380D01*
X114895238Y-67714761D01*
X114942857Y-67667142D01*
X115038095Y-67524285D01*
X115085714Y-67333809D01*
X115085714Y-66952857D01*
X115038095Y-66857619D01*
X114990476Y-66810000D01*
X114895238Y-66762380D01*
X114704761Y-66762380D01*
X114609523Y-66810000D01*
X114561904Y-66857619D01*
X114514285Y-66952857D01*
X114514285Y-67190952D01*
X114561904Y-67286190D01*
X114609523Y-67333809D01*
X114704761Y-67381428D01*
X114895238Y-67381428D01*
X114990476Y-67333809D01*
X115038095Y-67286190D01*
X115085714Y-67190952D01*
X101433333Y-96972380D02*
X101100000Y-96496190D01*
X100861904Y-96972380D02*
X100861904Y-95972380D01*
X101242857Y-95972380D01*
X101338095Y-96020000D01*
X101385714Y-96067619D01*
X101433333Y-96162857D01*
X101433333Y-96305714D01*
X101385714Y-96400952D01*
X101338095Y-96448571D01*
X101242857Y-96496190D01*
X100861904Y-96496190D01*
X102004761Y-96400952D02*
X101909523Y-96353333D01*
X101861904Y-96305714D01*
X101814285Y-96210476D01*
X101814285Y-96162857D01*
X101861904Y-96067619D01*
X101909523Y-96020000D01*
X102004761Y-95972380D01*
X102195238Y-95972380D01*
X102290476Y-96020000D01*
X102338095Y-96067619D01*
X102385714Y-96162857D01*
X102385714Y-96210476D01*
X102338095Y-96305714D01*
X102290476Y-96353333D01*
X102195238Y-96400952D01*
X102004761Y-96400952D01*
X101909523Y-96448571D01*
X101861904Y-96496190D01*
X101814285Y-96591428D01*
X101814285Y-96781904D01*
X101861904Y-96877142D01*
X101909523Y-96924761D01*
X102004761Y-96972380D01*
X102195238Y-96972380D01*
X102290476Y-96924761D01*
X102338095Y-96877142D01*
X102385714Y-96781904D01*
X102385714Y-96591428D01*
X102338095Y-96496190D01*
X102290476Y-96448571D01*
X102195238Y-96400952D01*
X88733333Y-83002380D02*
X88400000Y-82526190D01*
X88161904Y-83002380D02*
X88161904Y-82002380D01*
X88542857Y-82002380D01*
X88638095Y-82050000D01*
X88685714Y-82097619D01*
X88733333Y-82192857D01*
X88733333Y-82335714D01*
X88685714Y-82430952D01*
X88638095Y-82478571D01*
X88542857Y-82526190D01*
X88161904Y-82526190D01*
X89066666Y-82002380D02*
X89733333Y-82002380D01*
X89304761Y-83002380D01*
X88733333Y-72842380D02*
X88400000Y-72366190D01*
X88161904Y-72842380D02*
X88161904Y-71842380D01*
X88542857Y-71842380D01*
X88638095Y-71890000D01*
X88685714Y-71937619D01*
X88733333Y-72032857D01*
X88733333Y-72175714D01*
X88685714Y-72270952D01*
X88638095Y-72318571D01*
X88542857Y-72366190D01*
X88161904Y-72366190D01*
X89590476Y-71842380D02*
X89400000Y-71842380D01*
X89304761Y-71890000D01*
X89257142Y-71937619D01*
X89161904Y-72080476D01*
X89114285Y-72270952D01*
X89114285Y-72651904D01*
X89161904Y-72747142D01*
X89209523Y-72794761D01*
X89304761Y-72842380D01*
X89495238Y-72842380D01*
X89590476Y-72794761D01*
X89638095Y-72747142D01*
X89685714Y-72651904D01*
X89685714Y-72413809D01*
X89638095Y-72318571D01*
X89590476Y-72270952D01*
X89495238Y-72223333D01*
X89304761Y-72223333D01*
X89209523Y-72270952D01*
X89161904Y-72318571D01*
X89114285Y-72413809D01*
X88733333Y-88082380D02*
X88400000Y-87606190D01*
X88161904Y-88082380D02*
X88161904Y-87082380D01*
X88542857Y-87082380D01*
X88638095Y-87130000D01*
X88685714Y-87177619D01*
X88733333Y-87272857D01*
X88733333Y-87415714D01*
X88685714Y-87510952D01*
X88638095Y-87558571D01*
X88542857Y-87606190D01*
X88161904Y-87606190D01*
X89638095Y-87082380D02*
X89161904Y-87082380D01*
X89114285Y-87558571D01*
X89161904Y-87510952D01*
X89257142Y-87463333D01*
X89495238Y-87463333D01*
X89590476Y-87510952D01*
X89638095Y-87558571D01*
X89685714Y-87653809D01*
X89685714Y-87891904D01*
X89638095Y-87987142D01*
X89590476Y-88034761D01*
X89495238Y-88082380D01*
X89257142Y-88082380D01*
X89161904Y-88034761D01*
X89114285Y-87987142D01*
X88733333Y-96972380D02*
X88400000Y-96496190D01*
X88161904Y-96972380D02*
X88161904Y-95972380D01*
X88542857Y-95972380D01*
X88638095Y-96020000D01*
X88685714Y-96067619D01*
X88733333Y-96162857D01*
X88733333Y-96305714D01*
X88685714Y-96400952D01*
X88638095Y-96448571D01*
X88542857Y-96496190D01*
X88161904Y-96496190D01*
X89590476Y-96305714D02*
X89590476Y-96972380D01*
X89352380Y-95924761D02*
X89114285Y-96639047D01*
X89733333Y-96639047D01*
X88733333Y-85542380D02*
X88400000Y-85066190D01*
X88161904Y-85542380D02*
X88161904Y-84542380D01*
X88542857Y-84542380D01*
X88638095Y-84590000D01*
X88685714Y-84637619D01*
X88733333Y-84732857D01*
X88733333Y-84875714D01*
X88685714Y-84970952D01*
X88638095Y-85018571D01*
X88542857Y-85066190D01*
X88161904Y-85066190D01*
X89066666Y-84542380D02*
X89685714Y-84542380D01*
X89352380Y-84923333D01*
X89495238Y-84923333D01*
X89590476Y-84970952D01*
X89638095Y-85018571D01*
X89685714Y-85113809D01*
X89685714Y-85351904D01*
X89638095Y-85447142D01*
X89590476Y-85494761D01*
X89495238Y-85542380D01*
X89209523Y-85542380D01*
X89114285Y-85494761D01*
X89066666Y-85447142D01*
X88733333Y-70302380D02*
X88400000Y-69826190D01*
X88161904Y-70302380D02*
X88161904Y-69302380D01*
X88542857Y-69302380D01*
X88638095Y-69350000D01*
X88685714Y-69397619D01*
X88733333Y-69492857D01*
X88733333Y-69635714D01*
X88685714Y-69730952D01*
X88638095Y-69778571D01*
X88542857Y-69826190D01*
X88161904Y-69826190D01*
X89114285Y-69397619D02*
X89161904Y-69350000D01*
X89257142Y-69302380D01*
X89495238Y-69302380D01*
X89590476Y-69350000D01*
X89638095Y-69397619D01*
X89685714Y-69492857D01*
X89685714Y-69588095D01*
X89638095Y-69730952D01*
X89066666Y-70302380D01*
X89685714Y-70302380D01*
X88733333Y-67762380D02*
X88400000Y-67286190D01*
X88161904Y-67762380D02*
X88161904Y-66762380D01*
X88542857Y-66762380D01*
X88638095Y-66810000D01*
X88685714Y-66857619D01*
X88733333Y-66952857D01*
X88733333Y-67095714D01*
X88685714Y-67190952D01*
X88638095Y-67238571D01*
X88542857Y-67286190D01*
X88161904Y-67286190D01*
X89685714Y-67762380D02*
X89114285Y-67762380D01*
X89400000Y-67762380D02*
X89400000Y-66762380D01*
X89304761Y-66905238D01*
X89209523Y-67000476D01*
X89114285Y-67048095D01*
X166425714Y-74962380D02*
X166425714Y-73962380D01*
X166663809Y-73962380D01*
X166806666Y-74010000D01*
X166901904Y-74105238D01*
X166949523Y-74200476D01*
X166997142Y-74390952D01*
X166997142Y-74533809D01*
X166949523Y-74724285D01*
X166901904Y-74819523D01*
X166806666Y-74914761D01*
X166663809Y-74962380D01*
X166425714Y-74962380D01*
X167901904Y-73962380D02*
X167425714Y-73962380D01*
X167378095Y-74438571D01*
X167425714Y-74390952D01*
X167520952Y-74343333D01*
X167759047Y-74343333D01*
X167854285Y-74390952D01*
X167901904Y-74438571D01*
X167949523Y-74533809D01*
X167949523Y-74771904D01*
X167901904Y-74867142D01*
X167854285Y-74914761D01*
X167759047Y-74962380D01*
X167520952Y-74962380D01*
X167425714Y-74914761D01*
X167378095Y-74867142D01*
X168425714Y-74962380D02*
X168616190Y-74962380D01*
X168711428Y-74914761D01*
X168759047Y-74867142D01*
X168854285Y-74724285D01*
X168901904Y-74533809D01*
X168901904Y-74152857D01*
X168854285Y-74057619D01*
X168806666Y-74010000D01*
X168711428Y-73962380D01*
X168520952Y-73962380D01*
X168425714Y-74010000D01*
X168378095Y-74057619D01*
X168330476Y-74152857D01*
X168330476Y-74390952D01*
X168378095Y-74486190D01*
X168425714Y-74533809D01*
X168520952Y-74581428D01*
X168711428Y-74581428D01*
X168806666Y-74533809D01*
X168854285Y-74486190D01*
X168901904Y-74390952D01*
X160472380Y-68524285D02*
X159472380Y-68524285D01*
X159472380Y-68286190D01*
X159520000Y-68143333D01*
X159615238Y-68048095D01*
X159710476Y-68000476D01*
X159900952Y-67952857D01*
X160043809Y-67952857D01*
X160234285Y-68000476D01*
X160329523Y-68048095D01*
X160424761Y-68143333D01*
X160472380Y-68286190D01*
X160472380Y-68524285D01*
X159472380Y-67048095D02*
X159472380Y-67524285D01*
X159948571Y-67571904D01*
X159900952Y-67524285D01*
X159853333Y-67429047D01*
X159853333Y-67190952D01*
X159900952Y-67095714D01*
X159948571Y-67048095D01*
X160043809Y-67000476D01*
X160281904Y-67000476D01*
X160377142Y-67048095D01*
X160424761Y-67095714D01*
X160472380Y-67190952D01*
X160472380Y-67429047D01*
X160424761Y-67524285D01*
X160377142Y-67571904D01*
X159900952Y-66429047D02*
X159853333Y-66524285D01*
X159805714Y-66571904D01*
X159710476Y-66619523D01*
X159662857Y-66619523D01*
X159567619Y-66571904D01*
X159520000Y-66524285D01*
X159472380Y-66429047D01*
X159472380Y-66238571D01*
X159520000Y-66143333D01*
X159567619Y-66095714D01*
X159662857Y-66048095D01*
X159710476Y-66048095D01*
X159805714Y-66095714D01*
X159853333Y-66143333D01*
X159900952Y-66238571D01*
X159900952Y-66429047D01*
X159948571Y-66524285D01*
X159996190Y-66571904D01*
X160091428Y-66619523D01*
X160281904Y-66619523D01*
X160377142Y-66571904D01*
X160424761Y-66524285D01*
X160472380Y-66429047D01*
X160472380Y-66238571D01*
X160424761Y-66143333D01*
X160377142Y-66095714D01*
X160281904Y-66048095D01*
X160091428Y-66048095D01*
X159996190Y-66095714D01*
X159948571Y-66143333D01*
X159900952Y-66238571D01*
X160472380Y-83764285D02*
X159472380Y-83764285D01*
X159472380Y-83526190D01*
X159520000Y-83383333D01*
X159615238Y-83288095D01*
X159710476Y-83240476D01*
X159900952Y-83192857D01*
X160043809Y-83192857D01*
X160234285Y-83240476D01*
X160329523Y-83288095D01*
X160424761Y-83383333D01*
X160472380Y-83526190D01*
X160472380Y-83764285D01*
X159472380Y-82288095D02*
X159472380Y-82764285D01*
X159948571Y-82811904D01*
X159900952Y-82764285D01*
X159853333Y-82669047D01*
X159853333Y-82430952D01*
X159900952Y-82335714D01*
X159948571Y-82288095D01*
X160043809Y-82240476D01*
X160281904Y-82240476D01*
X160377142Y-82288095D01*
X160424761Y-82335714D01*
X160472380Y-82430952D01*
X160472380Y-82669047D01*
X160424761Y-82764285D01*
X160377142Y-82811904D01*
X159472380Y-81907142D02*
X159472380Y-81240476D01*
X160472380Y-81669047D01*
X166425714Y-90622380D02*
X166425714Y-89622380D01*
X166663809Y-89622380D01*
X166806666Y-89670000D01*
X166901904Y-89765238D01*
X166949523Y-89860476D01*
X166997142Y-90050952D01*
X166997142Y-90193809D01*
X166949523Y-90384285D01*
X166901904Y-90479523D01*
X166806666Y-90574761D01*
X166663809Y-90622380D01*
X166425714Y-90622380D01*
X167901904Y-89622380D02*
X167425714Y-89622380D01*
X167378095Y-90098571D01*
X167425714Y-90050952D01*
X167520952Y-90003333D01*
X167759047Y-90003333D01*
X167854285Y-90050952D01*
X167901904Y-90098571D01*
X167949523Y-90193809D01*
X167949523Y-90431904D01*
X167901904Y-90527142D01*
X167854285Y-90574761D01*
X167759047Y-90622380D01*
X167520952Y-90622380D01*
X167425714Y-90574761D01*
X167378095Y-90527142D01*
X168806666Y-89622380D02*
X168616190Y-89622380D01*
X168520952Y-89670000D01*
X168473333Y-89717619D01*
X168378095Y-89860476D01*
X168330476Y-90050952D01*
X168330476Y-90431904D01*
X168378095Y-90527142D01*
X168425714Y-90574761D01*
X168520952Y-90622380D01*
X168711428Y-90622380D01*
X168806666Y-90574761D01*
X168854285Y-90527142D01*
X168901904Y-90431904D01*
X168901904Y-90193809D01*
X168854285Y-90098571D01*
X168806666Y-90050952D01*
X168711428Y-90003333D01*
X168520952Y-90003333D01*
X168425714Y-90050952D01*
X168378095Y-90098571D01*
X168330476Y-90193809D01*
X169727619Y-86415714D02*
X170727619Y-86415714D01*
X170727619Y-86653809D01*
X170680000Y-86796666D01*
X170584761Y-86891904D01*
X170489523Y-86939523D01*
X170299047Y-86987142D01*
X170156190Y-86987142D01*
X169965714Y-86939523D01*
X169870476Y-86891904D01*
X169775238Y-86796666D01*
X169727619Y-86653809D01*
X169727619Y-86415714D01*
X170727619Y-87891904D02*
X170727619Y-87415714D01*
X170251428Y-87368095D01*
X170299047Y-87415714D01*
X170346666Y-87510952D01*
X170346666Y-87749047D01*
X170299047Y-87844285D01*
X170251428Y-87891904D01*
X170156190Y-87939523D01*
X169918095Y-87939523D01*
X169822857Y-87891904D01*
X169775238Y-87844285D01*
X169727619Y-87749047D01*
X169727619Y-87510952D01*
X169775238Y-87415714D01*
X169822857Y-87368095D01*
X170727619Y-88844285D02*
X170727619Y-88368095D01*
X170251428Y-88320476D01*
X170299047Y-88368095D01*
X170346666Y-88463333D01*
X170346666Y-88701428D01*
X170299047Y-88796666D01*
X170251428Y-88844285D01*
X170156190Y-88891904D01*
X169918095Y-88891904D01*
X169822857Y-88844285D01*
X169775238Y-88796666D01*
X169727619Y-88701428D01*
X169727619Y-88463333D01*
X169775238Y-88368095D01*
X169822857Y-88320476D01*
X169727619Y-71175714D02*
X170727619Y-71175714D01*
X170727619Y-71413809D01*
X170680000Y-71556666D01*
X170584761Y-71651904D01*
X170489523Y-71699523D01*
X170299047Y-71747142D01*
X170156190Y-71747142D01*
X169965714Y-71699523D01*
X169870476Y-71651904D01*
X169775238Y-71556666D01*
X169727619Y-71413809D01*
X169727619Y-71175714D01*
X170727619Y-72651904D02*
X170727619Y-72175714D01*
X170251428Y-72128095D01*
X170299047Y-72175714D01*
X170346666Y-72270952D01*
X170346666Y-72509047D01*
X170299047Y-72604285D01*
X170251428Y-72651904D01*
X170156190Y-72699523D01*
X169918095Y-72699523D01*
X169822857Y-72651904D01*
X169775238Y-72604285D01*
X169727619Y-72509047D01*
X169727619Y-72270952D01*
X169775238Y-72175714D01*
X169822857Y-72128095D01*
X170394285Y-73556666D02*
X169727619Y-73556666D01*
X170775238Y-73318571D02*
X170060952Y-73080476D01*
X170060952Y-73699523D01*
X166425714Y-65222380D02*
X166425714Y-64222380D01*
X166663809Y-64222380D01*
X166806666Y-64270000D01*
X166901904Y-64365238D01*
X166949523Y-64460476D01*
X166997142Y-64650952D01*
X166997142Y-64793809D01*
X166949523Y-64984285D01*
X166901904Y-65079523D01*
X166806666Y-65174761D01*
X166663809Y-65222380D01*
X166425714Y-65222380D01*
X167901904Y-64222380D02*
X167425714Y-64222380D01*
X167378095Y-64698571D01*
X167425714Y-64650952D01*
X167520952Y-64603333D01*
X167759047Y-64603333D01*
X167854285Y-64650952D01*
X167901904Y-64698571D01*
X167949523Y-64793809D01*
X167949523Y-65031904D01*
X167901904Y-65127142D01*
X167854285Y-65174761D01*
X167759047Y-65222380D01*
X167520952Y-65222380D01*
X167425714Y-65174761D01*
X167378095Y-65127142D01*
X168282857Y-64222380D02*
X168901904Y-64222380D01*
X168568571Y-64603333D01*
X168711428Y-64603333D01*
X168806666Y-64650952D01*
X168854285Y-64698571D01*
X168901904Y-64793809D01*
X168901904Y-65031904D01*
X168854285Y-65127142D01*
X168806666Y-65174761D01*
X168711428Y-65222380D01*
X168425714Y-65222380D01*
X168330476Y-65174761D01*
X168282857Y-65127142D01*
X151185714Y-90622380D02*
X151185714Y-89622380D01*
X151423809Y-89622380D01*
X151566666Y-89670000D01*
X151661904Y-89765238D01*
X151709523Y-89860476D01*
X151757142Y-90050952D01*
X151757142Y-90193809D01*
X151709523Y-90384285D01*
X151661904Y-90479523D01*
X151566666Y-90574761D01*
X151423809Y-90622380D01*
X151185714Y-90622380D01*
X152661904Y-89622380D02*
X152185714Y-89622380D01*
X152138095Y-90098571D01*
X152185714Y-90050952D01*
X152280952Y-90003333D01*
X152519047Y-90003333D01*
X152614285Y-90050952D01*
X152661904Y-90098571D01*
X152709523Y-90193809D01*
X152709523Y-90431904D01*
X152661904Y-90527142D01*
X152614285Y-90574761D01*
X152519047Y-90622380D01*
X152280952Y-90622380D01*
X152185714Y-90574761D01*
X152138095Y-90527142D01*
X153090476Y-89717619D02*
X153138095Y-89670000D01*
X153233333Y-89622380D01*
X153471428Y-89622380D01*
X153566666Y-89670000D01*
X153614285Y-89717619D01*
X153661904Y-89812857D01*
X153661904Y-89908095D01*
X153614285Y-90050952D01*
X153042857Y-90622380D01*
X153661904Y-90622380D01*
X141025714Y-75382380D02*
X141025714Y-74382380D01*
X141263809Y-74382380D01*
X141406666Y-74430000D01*
X141501904Y-74525238D01*
X141549523Y-74620476D01*
X141597142Y-74810952D01*
X141597142Y-74953809D01*
X141549523Y-75144285D01*
X141501904Y-75239523D01*
X141406666Y-75334761D01*
X141263809Y-75382380D01*
X141025714Y-75382380D01*
X142501904Y-74382380D02*
X142025714Y-74382380D01*
X141978095Y-74858571D01*
X142025714Y-74810952D01*
X142120952Y-74763333D01*
X142359047Y-74763333D01*
X142454285Y-74810952D01*
X142501904Y-74858571D01*
X142549523Y-74953809D01*
X142549523Y-75191904D01*
X142501904Y-75287142D01*
X142454285Y-75334761D01*
X142359047Y-75382380D01*
X142120952Y-75382380D01*
X142025714Y-75334761D01*
X141978095Y-75287142D01*
X143501904Y-75382380D02*
X142930476Y-75382380D01*
X143216190Y-75382380D02*
X143216190Y-74382380D01*
X143120952Y-74525238D01*
X143025714Y-74620476D01*
X142930476Y-74668095D01*
X135072380Y-68524285D02*
X134072380Y-68524285D01*
X134072380Y-68286190D01*
X134120000Y-68143333D01*
X134215238Y-68048095D01*
X134310476Y-68000476D01*
X134500952Y-67952857D01*
X134643809Y-67952857D01*
X134834285Y-68000476D01*
X134929523Y-68048095D01*
X135024761Y-68143333D01*
X135072380Y-68286190D01*
X135072380Y-68524285D01*
X134072380Y-67048095D02*
X134072380Y-67524285D01*
X134548571Y-67571904D01*
X134500952Y-67524285D01*
X134453333Y-67429047D01*
X134453333Y-67190952D01*
X134500952Y-67095714D01*
X134548571Y-67048095D01*
X134643809Y-67000476D01*
X134881904Y-67000476D01*
X134977142Y-67048095D01*
X135024761Y-67095714D01*
X135072380Y-67190952D01*
X135072380Y-67429047D01*
X135024761Y-67524285D01*
X134977142Y-67571904D01*
X134072380Y-66381428D02*
X134072380Y-66286190D01*
X134120000Y-66190952D01*
X134167619Y-66143333D01*
X134262857Y-66095714D01*
X134453333Y-66048095D01*
X134691428Y-66048095D01*
X134881904Y-66095714D01*
X134977142Y-66143333D01*
X135024761Y-66190952D01*
X135072380Y-66286190D01*
X135072380Y-66381428D01*
X135024761Y-66476666D01*
X134977142Y-66524285D01*
X134881904Y-66571904D01*
X134691428Y-66619523D01*
X134453333Y-66619523D01*
X134262857Y-66571904D01*
X134167619Y-66524285D01*
X134120000Y-66476666D01*
X134072380Y-66381428D01*
X135072380Y-83764285D02*
X134072380Y-83764285D01*
X134072380Y-83526190D01*
X134120000Y-83383333D01*
X134215238Y-83288095D01*
X134310476Y-83240476D01*
X134500952Y-83192857D01*
X134643809Y-83192857D01*
X134834285Y-83240476D01*
X134929523Y-83288095D01*
X135024761Y-83383333D01*
X135072380Y-83526190D01*
X135072380Y-83764285D01*
X134405714Y-82335714D02*
X135072380Y-82335714D01*
X134024761Y-82573809D02*
X134739047Y-82811904D01*
X134739047Y-82192857D01*
X135072380Y-81764285D02*
X135072380Y-81573809D01*
X135024761Y-81478571D01*
X134977142Y-81430952D01*
X134834285Y-81335714D01*
X134643809Y-81288095D01*
X134262857Y-81288095D01*
X134167619Y-81335714D01*
X134120000Y-81383333D01*
X134072380Y-81478571D01*
X134072380Y-81669047D01*
X134120000Y-81764285D01*
X134167619Y-81811904D01*
X134262857Y-81859523D01*
X134500952Y-81859523D01*
X134596190Y-81811904D01*
X134643809Y-81764285D01*
X134691428Y-81669047D01*
X134691428Y-81478571D01*
X134643809Y-81383333D01*
X134596190Y-81335714D01*
X134500952Y-81288095D01*
X141025714Y-90622380D02*
X141025714Y-89622380D01*
X141263809Y-89622380D01*
X141406666Y-89670000D01*
X141501904Y-89765238D01*
X141549523Y-89860476D01*
X141597142Y-90050952D01*
X141597142Y-90193809D01*
X141549523Y-90384285D01*
X141501904Y-90479523D01*
X141406666Y-90574761D01*
X141263809Y-90622380D01*
X141025714Y-90622380D01*
X142454285Y-89955714D02*
X142454285Y-90622380D01*
X142216190Y-89574761D02*
X141978095Y-90289047D01*
X142597142Y-90289047D01*
X143120952Y-90050952D02*
X143025714Y-90003333D01*
X142978095Y-89955714D01*
X142930476Y-89860476D01*
X142930476Y-89812857D01*
X142978095Y-89717619D01*
X143025714Y-89670000D01*
X143120952Y-89622380D01*
X143311428Y-89622380D01*
X143406666Y-89670000D01*
X143454285Y-89717619D01*
X143501904Y-89812857D01*
X143501904Y-89860476D01*
X143454285Y-89955714D01*
X143406666Y-90003333D01*
X143311428Y-90050952D01*
X143120952Y-90050952D01*
X143025714Y-90098571D01*
X142978095Y-90146190D01*
X142930476Y-90241428D01*
X142930476Y-90431904D01*
X142978095Y-90527142D01*
X143025714Y-90574761D01*
X143120952Y-90622380D01*
X143311428Y-90622380D01*
X143406666Y-90574761D01*
X143454285Y-90527142D01*
X143501904Y-90431904D01*
X143501904Y-90241428D01*
X143454285Y-90146190D01*
X143406666Y-90098571D01*
X143311428Y-90050952D01*
X144327619Y-86415714D02*
X145327619Y-86415714D01*
X145327619Y-86653809D01*
X145280000Y-86796666D01*
X145184761Y-86891904D01*
X145089523Y-86939523D01*
X144899047Y-86987142D01*
X144756190Y-86987142D01*
X144565714Y-86939523D01*
X144470476Y-86891904D01*
X144375238Y-86796666D01*
X144327619Y-86653809D01*
X144327619Y-86415714D01*
X144994285Y-87844285D02*
X144327619Y-87844285D01*
X145375238Y-87606190D02*
X144660952Y-87368095D01*
X144660952Y-87987142D01*
X145327619Y-88272857D02*
X145327619Y-88939523D01*
X144327619Y-88510952D01*
X144327619Y-71175714D02*
X145327619Y-71175714D01*
X145327619Y-71413809D01*
X145280000Y-71556666D01*
X145184761Y-71651904D01*
X145089523Y-71699523D01*
X144899047Y-71747142D01*
X144756190Y-71747142D01*
X144565714Y-71699523D01*
X144470476Y-71651904D01*
X144375238Y-71556666D01*
X144327619Y-71413809D01*
X144327619Y-71175714D01*
X144994285Y-72604285D02*
X144327619Y-72604285D01*
X145375238Y-72366190D02*
X144660952Y-72128095D01*
X144660952Y-72747142D01*
X145327619Y-73556666D02*
X145327619Y-73366190D01*
X145280000Y-73270952D01*
X145232380Y-73223333D01*
X145089523Y-73128095D01*
X144899047Y-73080476D01*
X144518095Y-73080476D01*
X144422857Y-73128095D01*
X144375238Y-73175714D01*
X144327619Y-73270952D01*
X144327619Y-73461428D01*
X144375238Y-73556666D01*
X144422857Y-73604285D01*
X144518095Y-73651904D01*
X144756190Y-73651904D01*
X144851428Y-73604285D01*
X144899047Y-73556666D01*
X144946666Y-73461428D01*
X144946666Y-73270952D01*
X144899047Y-73175714D01*
X144851428Y-73128095D01*
X144756190Y-73080476D01*
X141025714Y-65222380D02*
X141025714Y-64222380D01*
X141263809Y-64222380D01*
X141406666Y-64270000D01*
X141501904Y-64365238D01*
X141549523Y-64460476D01*
X141597142Y-64650952D01*
X141597142Y-64793809D01*
X141549523Y-64984285D01*
X141501904Y-65079523D01*
X141406666Y-65174761D01*
X141263809Y-65222380D01*
X141025714Y-65222380D01*
X142454285Y-64555714D02*
X142454285Y-65222380D01*
X142216190Y-64174761D02*
X141978095Y-64889047D01*
X142597142Y-64889047D01*
X143454285Y-64222380D02*
X142978095Y-64222380D01*
X142930476Y-64698571D01*
X142978095Y-64650952D01*
X143073333Y-64603333D01*
X143311428Y-64603333D01*
X143406666Y-64650952D01*
X143454285Y-64698571D01*
X143501904Y-64793809D01*
X143501904Y-65031904D01*
X143454285Y-65127142D01*
X143406666Y-65174761D01*
X143311428Y-65222380D01*
X143073333Y-65222380D01*
X142978095Y-65174761D01*
X142930476Y-65127142D01*
X161345714Y-74962380D02*
X161345714Y-73962380D01*
X161583809Y-73962380D01*
X161726666Y-74010000D01*
X161821904Y-74105238D01*
X161869523Y-74200476D01*
X161917142Y-74390952D01*
X161917142Y-74533809D01*
X161869523Y-74724285D01*
X161821904Y-74819523D01*
X161726666Y-74914761D01*
X161583809Y-74962380D01*
X161345714Y-74962380D01*
X162774285Y-74295714D02*
X162774285Y-74962380D01*
X162536190Y-73914761D02*
X162298095Y-74629047D01*
X162917142Y-74629047D01*
X163726666Y-74295714D02*
X163726666Y-74962380D01*
X163488571Y-73914761D02*
X163250476Y-74629047D01*
X163869523Y-74629047D01*
X160472380Y-73604285D02*
X159472380Y-73604285D01*
X159472380Y-73366190D01*
X159520000Y-73223333D01*
X159615238Y-73128095D01*
X159710476Y-73080476D01*
X159900952Y-73032857D01*
X160043809Y-73032857D01*
X160234285Y-73080476D01*
X160329523Y-73128095D01*
X160424761Y-73223333D01*
X160472380Y-73366190D01*
X160472380Y-73604285D01*
X159805714Y-72175714D02*
X160472380Y-72175714D01*
X159424761Y-72413809D02*
X160139047Y-72651904D01*
X160139047Y-72032857D01*
X159472380Y-71747142D02*
X159472380Y-71128095D01*
X159853333Y-71461428D01*
X159853333Y-71318571D01*
X159900952Y-71223333D01*
X159948571Y-71175714D01*
X160043809Y-71128095D01*
X160281904Y-71128095D01*
X160377142Y-71175714D01*
X160424761Y-71223333D01*
X160472380Y-71318571D01*
X160472380Y-71604285D01*
X160424761Y-71699523D01*
X160377142Y-71747142D01*
X160472380Y-88844285D02*
X159472380Y-88844285D01*
X159472380Y-88606190D01*
X159520000Y-88463333D01*
X159615238Y-88368095D01*
X159710476Y-88320476D01*
X159900952Y-88272857D01*
X160043809Y-88272857D01*
X160234285Y-88320476D01*
X160329523Y-88368095D01*
X160424761Y-88463333D01*
X160472380Y-88606190D01*
X160472380Y-88844285D01*
X159805714Y-87415714D02*
X160472380Y-87415714D01*
X159424761Y-87653809D02*
X160139047Y-87891904D01*
X160139047Y-87272857D01*
X159567619Y-86939523D02*
X159520000Y-86891904D01*
X159472380Y-86796666D01*
X159472380Y-86558571D01*
X159520000Y-86463333D01*
X159567619Y-86415714D01*
X159662857Y-86368095D01*
X159758095Y-86368095D01*
X159900952Y-86415714D01*
X160472380Y-86987142D01*
X160472380Y-86368095D01*
X161345714Y-90622380D02*
X161345714Y-89622380D01*
X161583809Y-89622380D01*
X161726666Y-89670000D01*
X161821904Y-89765238D01*
X161869523Y-89860476D01*
X161917142Y-90050952D01*
X161917142Y-90193809D01*
X161869523Y-90384285D01*
X161821904Y-90479523D01*
X161726666Y-90574761D01*
X161583809Y-90622380D01*
X161345714Y-90622380D01*
X162774285Y-89955714D02*
X162774285Y-90622380D01*
X162536190Y-89574761D02*
X162298095Y-90289047D01*
X162917142Y-90289047D01*
X163821904Y-90622380D02*
X163250476Y-90622380D01*
X163536190Y-90622380D02*
X163536190Y-89622380D01*
X163440952Y-89765238D01*
X163345714Y-89860476D01*
X163250476Y-89908095D01*
X169727619Y-81335714D02*
X170727619Y-81335714D01*
X170727619Y-81573809D01*
X170680000Y-81716666D01*
X170584761Y-81811904D01*
X170489523Y-81859523D01*
X170299047Y-81907142D01*
X170156190Y-81907142D01*
X169965714Y-81859523D01*
X169870476Y-81811904D01*
X169775238Y-81716666D01*
X169727619Y-81573809D01*
X169727619Y-81335714D01*
X170394285Y-82764285D02*
X169727619Y-82764285D01*
X170775238Y-82526190D02*
X170060952Y-82288095D01*
X170060952Y-82907142D01*
X170727619Y-83478571D02*
X170727619Y-83573809D01*
X170680000Y-83669047D01*
X170632380Y-83716666D01*
X170537142Y-83764285D01*
X170346666Y-83811904D01*
X170108571Y-83811904D01*
X169918095Y-83764285D01*
X169822857Y-83716666D01*
X169775238Y-83669047D01*
X169727619Y-83573809D01*
X169727619Y-83478571D01*
X169775238Y-83383333D01*
X169822857Y-83335714D01*
X169918095Y-83288095D01*
X170108571Y-83240476D01*
X170346666Y-83240476D01*
X170537142Y-83288095D01*
X170632380Y-83335714D01*
X170680000Y-83383333D01*
X170727619Y-83478571D01*
X169727619Y-66095714D02*
X170727619Y-66095714D01*
X170727619Y-66333809D01*
X170680000Y-66476666D01*
X170584761Y-66571904D01*
X170489523Y-66619523D01*
X170299047Y-66667142D01*
X170156190Y-66667142D01*
X169965714Y-66619523D01*
X169870476Y-66571904D01*
X169775238Y-66476666D01*
X169727619Y-66333809D01*
X169727619Y-66095714D01*
X170727619Y-67000476D02*
X170727619Y-67619523D01*
X170346666Y-67286190D01*
X170346666Y-67429047D01*
X170299047Y-67524285D01*
X170251428Y-67571904D01*
X170156190Y-67619523D01*
X169918095Y-67619523D01*
X169822857Y-67571904D01*
X169775238Y-67524285D01*
X169727619Y-67429047D01*
X169727619Y-67143333D01*
X169775238Y-67048095D01*
X169822857Y-67000476D01*
X169727619Y-68095714D02*
X169727619Y-68286190D01*
X169775238Y-68381428D01*
X169822857Y-68429047D01*
X169965714Y-68524285D01*
X170156190Y-68571904D01*
X170537142Y-68571904D01*
X170632380Y-68524285D01*
X170680000Y-68476666D01*
X170727619Y-68381428D01*
X170727619Y-68190952D01*
X170680000Y-68095714D01*
X170632380Y-68048095D01*
X170537142Y-68000476D01*
X170299047Y-68000476D01*
X170203809Y-68048095D01*
X170156190Y-68095714D01*
X170108571Y-68190952D01*
X170108571Y-68381428D01*
X170156190Y-68476666D01*
X170203809Y-68524285D01*
X170299047Y-68571904D01*
X161345714Y-65222380D02*
X161345714Y-64222380D01*
X161583809Y-64222380D01*
X161726666Y-64270000D01*
X161821904Y-64365238D01*
X161869523Y-64460476D01*
X161917142Y-64650952D01*
X161917142Y-64793809D01*
X161869523Y-64984285D01*
X161821904Y-65079523D01*
X161726666Y-65174761D01*
X161583809Y-65222380D01*
X161345714Y-65222380D01*
X162250476Y-64222380D02*
X162869523Y-64222380D01*
X162536190Y-64603333D01*
X162679047Y-64603333D01*
X162774285Y-64650952D01*
X162821904Y-64698571D01*
X162869523Y-64793809D01*
X162869523Y-65031904D01*
X162821904Y-65127142D01*
X162774285Y-65174761D01*
X162679047Y-65222380D01*
X162393333Y-65222380D01*
X162298095Y-65174761D01*
X162250476Y-65127142D01*
X163440952Y-64650952D02*
X163345714Y-64603333D01*
X163298095Y-64555714D01*
X163250476Y-64460476D01*
X163250476Y-64412857D01*
X163298095Y-64317619D01*
X163345714Y-64270000D01*
X163440952Y-64222380D01*
X163631428Y-64222380D01*
X163726666Y-64270000D01*
X163774285Y-64317619D01*
X163821904Y-64412857D01*
X163821904Y-64460476D01*
X163774285Y-64555714D01*
X163726666Y-64603333D01*
X163631428Y-64650952D01*
X163440952Y-64650952D01*
X163345714Y-64698571D01*
X163298095Y-64746190D01*
X163250476Y-64841428D01*
X163250476Y-65031904D01*
X163298095Y-65127142D01*
X163345714Y-65174761D01*
X163440952Y-65222380D01*
X163631428Y-65222380D01*
X163726666Y-65174761D01*
X163774285Y-65127142D01*
X163821904Y-65031904D01*
X163821904Y-64841428D01*
X163774285Y-64746190D01*
X163726666Y-64698571D01*
X163631428Y-64650952D01*
X135945714Y-75382380D02*
X135945714Y-74382380D01*
X136183809Y-74382380D01*
X136326666Y-74430000D01*
X136421904Y-74525238D01*
X136469523Y-74620476D01*
X136517142Y-74810952D01*
X136517142Y-74953809D01*
X136469523Y-75144285D01*
X136421904Y-75239523D01*
X136326666Y-75334761D01*
X136183809Y-75382380D01*
X135945714Y-75382380D01*
X136850476Y-74382380D02*
X137469523Y-74382380D01*
X137136190Y-74763333D01*
X137279047Y-74763333D01*
X137374285Y-74810952D01*
X137421904Y-74858571D01*
X137469523Y-74953809D01*
X137469523Y-75191904D01*
X137421904Y-75287142D01*
X137374285Y-75334761D01*
X137279047Y-75382380D01*
X136993333Y-75382380D01*
X136898095Y-75334761D01*
X136850476Y-75287142D01*
X137802857Y-74382380D02*
X138469523Y-74382380D01*
X138040952Y-75382380D01*
X135072380Y-73604285D02*
X134072380Y-73604285D01*
X134072380Y-73366190D01*
X134120000Y-73223333D01*
X134215238Y-73128095D01*
X134310476Y-73080476D01*
X134500952Y-73032857D01*
X134643809Y-73032857D01*
X134834285Y-73080476D01*
X134929523Y-73128095D01*
X135024761Y-73223333D01*
X135072380Y-73366190D01*
X135072380Y-73604285D01*
X134072380Y-72699523D02*
X134072380Y-72080476D01*
X134453333Y-72413809D01*
X134453333Y-72270952D01*
X134500952Y-72175714D01*
X134548571Y-72128095D01*
X134643809Y-72080476D01*
X134881904Y-72080476D01*
X134977142Y-72128095D01*
X135024761Y-72175714D01*
X135072380Y-72270952D01*
X135072380Y-72556666D01*
X135024761Y-72651904D01*
X134977142Y-72699523D01*
X134072380Y-71223333D02*
X134072380Y-71413809D01*
X134120000Y-71509047D01*
X134167619Y-71556666D01*
X134310476Y-71651904D01*
X134500952Y-71699523D01*
X134881904Y-71699523D01*
X134977142Y-71651904D01*
X135024761Y-71604285D01*
X135072380Y-71509047D01*
X135072380Y-71318571D01*
X135024761Y-71223333D01*
X134977142Y-71175714D01*
X134881904Y-71128095D01*
X134643809Y-71128095D01*
X134548571Y-71175714D01*
X134500952Y-71223333D01*
X134453333Y-71318571D01*
X134453333Y-71509047D01*
X134500952Y-71604285D01*
X134548571Y-71651904D01*
X134643809Y-71699523D01*
X135072380Y-88844285D02*
X134072380Y-88844285D01*
X134072380Y-88606190D01*
X134120000Y-88463333D01*
X134215238Y-88368095D01*
X134310476Y-88320476D01*
X134500952Y-88272857D01*
X134643809Y-88272857D01*
X134834285Y-88320476D01*
X134929523Y-88368095D01*
X135024761Y-88463333D01*
X135072380Y-88606190D01*
X135072380Y-88844285D01*
X134072380Y-87939523D02*
X134072380Y-87320476D01*
X134453333Y-87653809D01*
X134453333Y-87510952D01*
X134500952Y-87415714D01*
X134548571Y-87368095D01*
X134643809Y-87320476D01*
X134881904Y-87320476D01*
X134977142Y-87368095D01*
X135024761Y-87415714D01*
X135072380Y-87510952D01*
X135072380Y-87796666D01*
X135024761Y-87891904D01*
X134977142Y-87939523D01*
X134072380Y-86415714D02*
X134072380Y-86891904D01*
X134548571Y-86939523D01*
X134500952Y-86891904D01*
X134453333Y-86796666D01*
X134453333Y-86558571D01*
X134500952Y-86463333D01*
X134548571Y-86415714D01*
X134643809Y-86368095D01*
X134881904Y-86368095D01*
X134977142Y-86415714D01*
X135024761Y-86463333D01*
X135072380Y-86558571D01*
X135072380Y-86796666D01*
X135024761Y-86891904D01*
X134977142Y-86939523D01*
X135945714Y-90622380D02*
X135945714Y-89622380D01*
X136183809Y-89622380D01*
X136326666Y-89670000D01*
X136421904Y-89765238D01*
X136469523Y-89860476D01*
X136517142Y-90050952D01*
X136517142Y-90193809D01*
X136469523Y-90384285D01*
X136421904Y-90479523D01*
X136326666Y-90574761D01*
X136183809Y-90622380D01*
X135945714Y-90622380D01*
X136850476Y-89622380D02*
X137469523Y-89622380D01*
X137136190Y-90003333D01*
X137279047Y-90003333D01*
X137374285Y-90050952D01*
X137421904Y-90098571D01*
X137469523Y-90193809D01*
X137469523Y-90431904D01*
X137421904Y-90527142D01*
X137374285Y-90574761D01*
X137279047Y-90622380D01*
X136993333Y-90622380D01*
X136898095Y-90574761D01*
X136850476Y-90527142D01*
X138326666Y-89955714D02*
X138326666Y-90622380D01*
X138088571Y-89574761D02*
X137850476Y-90289047D01*
X138469523Y-90289047D01*
X144327619Y-81335714D02*
X145327619Y-81335714D01*
X145327619Y-81573809D01*
X145280000Y-81716666D01*
X145184761Y-81811904D01*
X145089523Y-81859523D01*
X144899047Y-81907142D01*
X144756190Y-81907142D01*
X144565714Y-81859523D01*
X144470476Y-81811904D01*
X144375238Y-81716666D01*
X144327619Y-81573809D01*
X144327619Y-81335714D01*
X145327619Y-82240476D02*
X145327619Y-82859523D01*
X144946666Y-82526190D01*
X144946666Y-82669047D01*
X144899047Y-82764285D01*
X144851428Y-82811904D01*
X144756190Y-82859523D01*
X144518095Y-82859523D01*
X144422857Y-82811904D01*
X144375238Y-82764285D01*
X144327619Y-82669047D01*
X144327619Y-82383333D01*
X144375238Y-82288095D01*
X144422857Y-82240476D01*
X145327619Y-83192857D02*
X145327619Y-83811904D01*
X144946666Y-83478571D01*
X144946666Y-83621428D01*
X144899047Y-83716666D01*
X144851428Y-83764285D01*
X144756190Y-83811904D01*
X144518095Y-83811904D01*
X144422857Y-83764285D01*
X144375238Y-83716666D01*
X144327619Y-83621428D01*
X144327619Y-83335714D01*
X144375238Y-83240476D01*
X144422857Y-83192857D01*
X144327619Y-66095714D02*
X145327619Y-66095714D01*
X145327619Y-66333809D01*
X145280000Y-66476666D01*
X145184761Y-66571904D01*
X145089523Y-66619523D01*
X144899047Y-66667142D01*
X144756190Y-66667142D01*
X144565714Y-66619523D01*
X144470476Y-66571904D01*
X144375238Y-66476666D01*
X144327619Y-66333809D01*
X144327619Y-66095714D01*
X145327619Y-67000476D02*
X145327619Y-67619523D01*
X144946666Y-67286190D01*
X144946666Y-67429047D01*
X144899047Y-67524285D01*
X144851428Y-67571904D01*
X144756190Y-67619523D01*
X144518095Y-67619523D01*
X144422857Y-67571904D01*
X144375238Y-67524285D01*
X144327619Y-67429047D01*
X144327619Y-67143333D01*
X144375238Y-67048095D01*
X144422857Y-67000476D01*
X145232380Y-68000476D02*
X145280000Y-68048095D01*
X145327619Y-68143333D01*
X145327619Y-68381428D01*
X145280000Y-68476666D01*
X145232380Y-68524285D01*
X145137142Y-68571904D01*
X145041904Y-68571904D01*
X144899047Y-68524285D01*
X144327619Y-67952857D01*
X144327619Y-68571904D01*
X135945714Y-65222380D02*
X135945714Y-64222380D01*
X136183809Y-64222380D01*
X136326666Y-64270000D01*
X136421904Y-64365238D01*
X136469523Y-64460476D01*
X136517142Y-64650952D01*
X136517142Y-64793809D01*
X136469523Y-64984285D01*
X136421904Y-65079523D01*
X136326666Y-65174761D01*
X136183809Y-65222380D01*
X135945714Y-65222380D01*
X136850476Y-64222380D02*
X137469523Y-64222380D01*
X137136190Y-64603333D01*
X137279047Y-64603333D01*
X137374285Y-64650952D01*
X137421904Y-64698571D01*
X137469523Y-64793809D01*
X137469523Y-65031904D01*
X137421904Y-65127142D01*
X137374285Y-65174761D01*
X137279047Y-65222380D01*
X136993333Y-65222380D01*
X136898095Y-65174761D01*
X136850476Y-65127142D01*
X138421904Y-65222380D02*
X137850476Y-65222380D01*
X138136190Y-65222380D02*
X138136190Y-64222380D01*
X138040952Y-64365238D01*
X137945714Y-64460476D01*
X137850476Y-64508095D01*
X125785714Y-90622380D02*
X125785714Y-89622380D01*
X126023809Y-89622380D01*
X126166666Y-89670000D01*
X126261904Y-89765238D01*
X126309523Y-89860476D01*
X126357142Y-90050952D01*
X126357142Y-90193809D01*
X126309523Y-90384285D01*
X126261904Y-90479523D01*
X126166666Y-90574761D01*
X126023809Y-90622380D01*
X125785714Y-90622380D01*
X126690476Y-89622380D02*
X127309523Y-89622380D01*
X126976190Y-90003333D01*
X127119047Y-90003333D01*
X127214285Y-90050952D01*
X127261904Y-90098571D01*
X127309523Y-90193809D01*
X127309523Y-90431904D01*
X127261904Y-90527142D01*
X127214285Y-90574761D01*
X127119047Y-90622380D01*
X126833333Y-90622380D01*
X126738095Y-90574761D01*
X126690476Y-90527142D01*
X127928571Y-89622380D02*
X128023809Y-89622380D01*
X128119047Y-89670000D01*
X128166666Y-89717619D01*
X128214285Y-89812857D01*
X128261904Y-90003333D01*
X128261904Y-90241428D01*
X128214285Y-90431904D01*
X128166666Y-90527142D01*
X128119047Y-90574761D01*
X128023809Y-90622380D01*
X127928571Y-90622380D01*
X127833333Y-90574761D01*
X127785714Y-90527142D01*
X127738095Y-90431904D01*
X127690476Y-90241428D01*
X127690476Y-90003333D01*
X127738095Y-89812857D01*
X127785714Y-89717619D01*
X127833333Y-89670000D01*
X127928571Y-89622380D01*
X115625714Y-75382380D02*
X115625714Y-74382380D01*
X115863809Y-74382380D01*
X116006666Y-74430000D01*
X116101904Y-74525238D01*
X116149523Y-74620476D01*
X116197142Y-74810952D01*
X116197142Y-74953809D01*
X116149523Y-75144285D01*
X116101904Y-75239523D01*
X116006666Y-75334761D01*
X115863809Y-75382380D01*
X115625714Y-75382380D01*
X116578095Y-74477619D02*
X116625714Y-74430000D01*
X116720952Y-74382380D01*
X116959047Y-74382380D01*
X117054285Y-74430000D01*
X117101904Y-74477619D01*
X117149523Y-74572857D01*
X117149523Y-74668095D01*
X117101904Y-74810952D01*
X116530476Y-75382380D01*
X117149523Y-75382380D01*
X117625714Y-75382380D02*
X117816190Y-75382380D01*
X117911428Y-75334761D01*
X117959047Y-75287142D01*
X118054285Y-75144285D01*
X118101904Y-74953809D01*
X118101904Y-74572857D01*
X118054285Y-74477619D01*
X118006666Y-74430000D01*
X117911428Y-74382380D01*
X117720952Y-74382380D01*
X117625714Y-74430000D01*
X117578095Y-74477619D01*
X117530476Y-74572857D01*
X117530476Y-74810952D01*
X117578095Y-74906190D01*
X117625714Y-74953809D01*
X117720952Y-75001428D01*
X117911428Y-75001428D01*
X118006666Y-74953809D01*
X118054285Y-74906190D01*
X118101904Y-74810952D01*
X109672380Y-68524285D02*
X108672380Y-68524285D01*
X108672380Y-68286190D01*
X108720000Y-68143333D01*
X108815238Y-68048095D01*
X108910476Y-68000476D01*
X109100952Y-67952857D01*
X109243809Y-67952857D01*
X109434285Y-68000476D01*
X109529523Y-68048095D01*
X109624761Y-68143333D01*
X109672380Y-68286190D01*
X109672380Y-68524285D01*
X108767619Y-67571904D02*
X108720000Y-67524285D01*
X108672380Y-67429047D01*
X108672380Y-67190952D01*
X108720000Y-67095714D01*
X108767619Y-67048095D01*
X108862857Y-67000476D01*
X108958095Y-67000476D01*
X109100952Y-67048095D01*
X109672380Y-67619523D01*
X109672380Y-67000476D01*
X109100952Y-66429047D02*
X109053333Y-66524285D01*
X109005714Y-66571904D01*
X108910476Y-66619523D01*
X108862857Y-66619523D01*
X108767619Y-66571904D01*
X108720000Y-66524285D01*
X108672380Y-66429047D01*
X108672380Y-66238571D01*
X108720000Y-66143333D01*
X108767619Y-66095714D01*
X108862857Y-66048095D01*
X108910476Y-66048095D01*
X109005714Y-66095714D01*
X109053333Y-66143333D01*
X109100952Y-66238571D01*
X109100952Y-66429047D01*
X109148571Y-66524285D01*
X109196190Y-66571904D01*
X109291428Y-66619523D01*
X109481904Y-66619523D01*
X109577142Y-66571904D01*
X109624761Y-66524285D01*
X109672380Y-66429047D01*
X109672380Y-66238571D01*
X109624761Y-66143333D01*
X109577142Y-66095714D01*
X109481904Y-66048095D01*
X109291428Y-66048095D01*
X109196190Y-66095714D01*
X109148571Y-66143333D01*
X109100952Y-66238571D01*
X109672380Y-83764285D02*
X108672380Y-83764285D01*
X108672380Y-83526190D01*
X108720000Y-83383333D01*
X108815238Y-83288095D01*
X108910476Y-83240476D01*
X109100952Y-83192857D01*
X109243809Y-83192857D01*
X109434285Y-83240476D01*
X109529523Y-83288095D01*
X109624761Y-83383333D01*
X109672380Y-83526190D01*
X109672380Y-83764285D01*
X108767619Y-82811904D02*
X108720000Y-82764285D01*
X108672380Y-82669047D01*
X108672380Y-82430952D01*
X108720000Y-82335714D01*
X108767619Y-82288095D01*
X108862857Y-82240476D01*
X108958095Y-82240476D01*
X109100952Y-82288095D01*
X109672380Y-82859523D01*
X109672380Y-82240476D01*
X108672380Y-81907142D02*
X108672380Y-81240476D01*
X109672380Y-81669047D01*
X115625714Y-90622380D02*
X115625714Y-89622380D01*
X115863809Y-89622380D01*
X116006666Y-89670000D01*
X116101904Y-89765238D01*
X116149523Y-89860476D01*
X116197142Y-90050952D01*
X116197142Y-90193809D01*
X116149523Y-90384285D01*
X116101904Y-90479523D01*
X116006666Y-90574761D01*
X115863809Y-90622380D01*
X115625714Y-90622380D01*
X116578095Y-89717619D02*
X116625714Y-89670000D01*
X116720952Y-89622380D01*
X116959047Y-89622380D01*
X117054285Y-89670000D01*
X117101904Y-89717619D01*
X117149523Y-89812857D01*
X117149523Y-89908095D01*
X117101904Y-90050952D01*
X116530476Y-90622380D01*
X117149523Y-90622380D01*
X118006666Y-89622380D02*
X117816190Y-89622380D01*
X117720952Y-89670000D01*
X117673333Y-89717619D01*
X117578095Y-89860476D01*
X117530476Y-90050952D01*
X117530476Y-90431904D01*
X117578095Y-90527142D01*
X117625714Y-90574761D01*
X117720952Y-90622380D01*
X117911428Y-90622380D01*
X118006666Y-90574761D01*
X118054285Y-90527142D01*
X118101904Y-90431904D01*
X118101904Y-90193809D01*
X118054285Y-90098571D01*
X118006666Y-90050952D01*
X117911428Y-90003333D01*
X117720952Y-90003333D01*
X117625714Y-90050952D01*
X117578095Y-90098571D01*
X117530476Y-90193809D01*
X118927619Y-86415714D02*
X119927619Y-86415714D01*
X119927619Y-86653809D01*
X119880000Y-86796666D01*
X119784761Y-86891904D01*
X119689523Y-86939523D01*
X119499047Y-86987142D01*
X119356190Y-86987142D01*
X119165714Y-86939523D01*
X119070476Y-86891904D01*
X118975238Y-86796666D01*
X118927619Y-86653809D01*
X118927619Y-86415714D01*
X119832380Y-87368095D02*
X119880000Y-87415714D01*
X119927619Y-87510952D01*
X119927619Y-87749047D01*
X119880000Y-87844285D01*
X119832380Y-87891904D01*
X119737142Y-87939523D01*
X119641904Y-87939523D01*
X119499047Y-87891904D01*
X118927619Y-87320476D01*
X118927619Y-87939523D01*
X119927619Y-88844285D02*
X119927619Y-88368095D01*
X119451428Y-88320476D01*
X119499047Y-88368095D01*
X119546666Y-88463333D01*
X119546666Y-88701428D01*
X119499047Y-88796666D01*
X119451428Y-88844285D01*
X119356190Y-88891904D01*
X119118095Y-88891904D01*
X119022857Y-88844285D01*
X118975238Y-88796666D01*
X118927619Y-88701428D01*
X118927619Y-88463333D01*
X118975238Y-88368095D01*
X119022857Y-88320476D01*
X118927619Y-71175714D02*
X119927619Y-71175714D01*
X119927619Y-71413809D01*
X119880000Y-71556666D01*
X119784761Y-71651904D01*
X119689523Y-71699523D01*
X119499047Y-71747142D01*
X119356190Y-71747142D01*
X119165714Y-71699523D01*
X119070476Y-71651904D01*
X118975238Y-71556666D01*
X118927619Y-71413809D01*
X118927619Y-71175714D01*
X119832380Y-72128095D02*
X119880000Y-72175714D01*
X119927619Y-72270952D01*
X119927619Y-72509047D01*
X119880000Y-72604285D01*
X119832380Y-72651904D01*
X119737142Y-72699523D01*
X119641904Y-72699523D01*
X119499047Y-72651904D01*
X118927619Y-72080476D01*
X118927619Y-72699523D01*
X119594285Y-73556666D02*
X118927619Y-73556666D01*
X119975238Y-73318571D02*
X119260952Y-73080476D01*
X119260952Y-73699523D01*
X115625714Y-65222380D02*
X115625714Y-64222380D01*
X115863809Y-64222380D01*
X116006666Y-64270000D01*
X116101904Y-64365238D01*
X116149523Y-64460476D01*
X116197142Y-64650952D01*
X116197142Y-64793809D01*
X116149523Y-64984285D01*
X116101904Y-65079523D01*
X116006666Y-65174761D01*
X115863809Y-65222380D01*
X115625714Y-65222380D01*
X116578095Y-64317619D02*
X116625714Y-64270000D01*
X116720952Y-64222380D01*
X116959047Y-64222380D01*
X117054285Y-64270000D01*
X117101904Y-64317619D01*
X117149523Y-64412857D01*
X117149523Y-64508095D01*
X117101904Y-64650952D01*
X116530476Y-65222380D01*
X117149523Y-65222380D01*
X117482857Y-64222380D02*
X118101904Y-64222380D01*
X117768571Y-64603333D01*
X117911428Y-64603333D01*
X118006666Y-64650952D01*
X118054285Y-64698571D01*
X118101904Y-64793809D01*
X118101904Y-65031904D01*
X118054285Y-65127142D01*
X118006666Y-65174761D01*
X117911428Y-65222380D01*
X117625714Y-65222380D01*
X117530476Y-65174761D01*
X117482857Y-65127142D01*
X100385714Y-90622380D02*
X100385714Y-89622380D01*
X100623809Y-89622380D01*
X100766666Y-89670000D01*
X100861904Y-89765238D01*
X100909523Y-89860476D01*
X100957142Y-90050952D01*
X100957142Y-90193809D01*
X100909523Y-90384285D01*
X100861904Y-90479523D01*
X100766666Y-90574761D01*
X100623809Y-90622380D01*
X100385714Y-90622380D01*
X101338095Y-89717619D02*
X101385714Y-89670000D01*
X101480952Y-89622380D01*
X101719047Y-89622380D01*
X101814285Y-89670000D01*
X101861904Y-89717619D01*
X101909523Y-89812857D01*
X101909523Y-89908095D01*
X101861904Y-90050952D01*
X101290476Y-90622380D01*
X101909523Y-90622380D01*
X102290476Y-89717619D02*
X102338095Y-89670000D01*
X102433333Y-89622380D01*
X102671428Y-89622380D01*
X102766666Y-89670000D01*
X102814285Y-89717619D01*
X102861904Y-89812857D01*
X102861904Y-89908095D01*
X102814285Y-90050952D01*
X102242857Y-90622380D01*
X102861904Y-90622380D01*
X90225714Y-75382380D02*
X90225714Y-74382380D01*
X90463809Y-74382380D01*
X90606666Y-74430000D01*
X90701904Y-74525238D01*
X90749523Y-74620476D01*
X90797142Y-74810952D01*
X90797142Y-74953809D01*
X90749523Y-75144285D01*
X90701904Y-75239523D01*
X90606666Y-75334761D01*
X90463809Y-75382380D01*
X90225714Y-75382380D01*
X91178095Y-74477619D02*
X91225714Y-74430000D01*
X91320952Y-74382380D01*
X91559047Y-74382380D01*
X91654285Y-74430000D01*
X91701904Y-74477619D01*
X91749523Y-74572857D01*
X91749523Y-74668095D01*
X91701904Y-74810952D01*
X91130476Y-75382380D01*
X91749523Y-75382380D01*
X92701904Y-75382380D02*
X92130476Y-75382380D01*
X92416190Y-75382380D02*
X92416190Y-74382380D01*
X92320952Y-74525238D01*
X92225714Y-74620476D01*
X92130476Y-74668095D01*
X84272380Y-68524285D02*
X83272380Y-68524285D01*
X83272380Y-68286190D01*
X83320000Y-68143333D01*
X83415238Y-68048095D01*
X83510476Y-68000476D01*
X83700952Y-67952857D01*
X83843809Y-67952857D01*
X84034285Y-68000476D01*
X84129523Y-68048095D01*
X84224761Y-68143333D01*
X84272380Y-68286190D01*
X84272380Y-68524285D01*
X83367619Y-67571904D02*
X83320000Y-67524285D01*
X83272380Y-67429047D01*
X83272380Y-67190952D01*
X83320000Y-67095714D01*
X83367619Y-67048095D01*
X83462857Y-67000476D01*
X83558095Y-67000476D01*
X83700952Y-67048095D01*
X84272380Y-67619523D01*
X84272380Y-67000476D01*
X83272380Y-66381428D02*
X83272380Y-66286190D01*
X83320000Y-66190952D01*
X83367619Y-66143333D01*
X83462857Y-66095714D01*
X83653333Y-66048095D01*
X83891428Y-66048095D01*
X84081904Y-66095714D01*
X84177142Y-66143333D01*
X84224761Y-66190952D01*
X84272380Y-66286190D01*
X84272380Y-66381428D01*
X84224761Y-66476666D01*
X84177142Y-66524285D01*
X84081904Y-66571904D01*
X83891428Y-66619523D01*
X83653333Y-66619523D01*
X83462857Y-66571904D01*
X83367619Y-66524285D01*
X83320000Y-66476666D01*
X83272380Y-66381428D01*
X84272380Y-83764285D02*
X83272380Y-83764285D01*
X83272380Y-83526190D01*
X83320000Y-83383333D01*
X83415238Y-83288095D01*
X83510476Y-83240476D01*
X83700952Y-83192857D01*
X83843809Y-83192857D01*
X84034285Y-83240476D01*
X84129523Y-83288095D01*
X84224761Y-83383333D01*
X84272380Y-83526190D01*
X84272380Y-83764285D01*
X84272380Y-82240476D02*
X84272380Y-82811904D01*
X84272380Y-82526190D02*
X83272380Y-82526190D01*
X83415238Y-82621428D01*
X83510476Y-82716666D01*
X83558095Y-82811904D01*
X84272380Y-81764285D02*
X84272380Y-81573809D01*
X84224761Y-81478571D01*
X84177142Y-81430952D01*
X84034285Y-81335714D01*
X83843809Y-81288095D01*
X83462857Y-81288095D01*
X83367619Y-81335714D01*
X83320000Y-81383333D01*
X83272380Y-81478571D01*
X83272380Y-81669047D01*
X83320000Y-81764285D01*
X83367619Y-81811904D01*
X83462857Y-81859523D01*
X83700952Y-81859523D01*
X83796190Y-81811904D01*
X83843809Y-81764285D01*
X83891428Y-81669047D01*
X83891428Y-81478571D01*
X83843809Y-81383333D01*
X83796190Y-81335714D01*
X83700952Y-81288095D01*
X90225714Y-90622380D02*
X90225714Y-89622380D01*
X90463809Y-89622380D01*
X90606666Y-89670000D01*
X90701904Y-89765238D01*
X90749523Y-89860476D01*
X90797142Y-90050952D01*
X90797142Y-90193809D01*
X90749523Y-90384285D01*
X90701904Y-90479523D01*
X90606666Y-90574761D01*
X90463809Y-90622380D01*
X90225714Y-90622380D01*
X91749523Y-90622380D02*
X91178095Y-90622380D01*
X91463809Y-90622380D02*
X91463809Y-89622380D01*
X91368571Y-89765238D01*
X91273333Y-89860476D01*
X91178095Y-89908095D01*
X92320952Y-90050952D02*
X92225714Y-90003333D01*
X92178095Y-89955714D01*
X92130476Y-89860476D01*
X92130476Y-89812857D01*
X92178095Y-89717619D01*
X92225714Y-89670000D01*
X92320952Y-89622380D01*
X92511428Y-89622380D01*
X92606666Y-89670000D01*
X92654285Y-89717619D01*
X92701904Y-89812857D01*
X92701904Y-89860476D01*
X92654285Y-89955714D01*
X92606666Y-90003333D01*
X92511428Y-90050952D01*
X92320952Y-90050952D01*
X92225714Y-90098571D01*
X92178095Y-90146190D01*
X92130476Y-90241428D01*
X92130476Y-90431904D01*
X92178095Y-90527142D01*
X92225714Y-90574761D01*
X92320952Y-90622380D01*
X92511428Y-90622380D01*
X92606666Y-90574761D01*
X92654285Y-90527142D01*
X92701904Y-90431904D01*
X92701904Y-90241428D01*
X92654285Y-90146190D01*
X92606666Y-90098571D01*
X92511428Y-90050952D01*
X93527619Y-86415714D02*
X94527619Y-86415714D01*
X94527619Y-86653809D01*
X94480000Y-86796666D01*
X94384761Y-86891904D01*
X94289523Y-86939523D01*
X94099047Y-86987142D01*
X93956190Y-86987142D01*
X93765714Y-86939523D01*
X93670476Y-86891904D01*
X93575238Y-86796666D01*
X93527619Y-86653809D01*
X93527619Y-86415714D01*
X93527619Y-87939523D02*
X93527619Y-87368095D01*
X93527619Y-87653809D02*
X94527619Y-87653809D01*
X94384761Y-87558571D01*
X94289523Y-87463333D01*
X94241904Y-87368095D01*
X94527619Y-88272857D02*
X94527619Y-88939523D01*
X93527619Y-88510952D01*
X93527619Y-71175714D02*
X94527619Y-71175714D01*
X94527619Y-71413809D01*
X94480000Y-71556666D01*
X94384761Y-71651904D01*
X94289523Y-71699523D01*
X94099047Y-71747142D01*
X93956190Y-71747142D01*
X93765714Y-71699523D01*
X93670476Y-71651904D01*
X93575238Y-71556666D01*
X93527619Y-71413809D01*
X93527619Y-71175714D01*
X93527619Y-72699523D02*
X93527619Y-72128095D01*
X93527619Y-72413809D02*
X94527619Y-72413809D01*
X94384761Y-72318571D01*
X94289523Y-72223333D01*
X94241904Y-72128095D01*
X94527619Y-73556666D02*
X94527619Y-73366190D01*
X94480000Y-73270952D01*
X94432380Y-73223333D01*
X94289523Y-73128095D01*
X94099047Y-73080476D01*
X93718095Y-73080476D01*
X93622857Y-73128095D01*
X93575238Y-73175714D01*
X93527619Y-73270952D01*
X93527619Y-73461428D01*
X93575238Y-73556666D01*
X93622857Y-73604285D01*
X93718095Y-73651904D01*
X93956190Y-73651904D01*
X94051428Y-73604285D01*
X94099047Y-73556666D01*
X94146666Y-73461428D01*
X94146666Y-73270952D01*
X94099047Y-73175714D01*
X94051428Y-73128095D01*
X93956190Y-73080476D01*
X90225714Y-65222380D02*
X90225714Y-64222380D01*
X90463809Y-64222380D01*
X90606666Y-64270000D01*
X90701904Y-64365238D01*
X90749523Y-64460476D01*
X90797142Y-64650952D01*
X90797142Y-64793809D01*
X90749523Y-64984285D01*
X90701904Y-65079523D01*
X90606666Y-65174761D01*
X90463809Y-65222380D01*
X90225714Y-65222380D01*
X91749523Y-65222380D02*
X91178095Y-65222380D01*
X91463809Y-65222380D02*
X91463809Y-64222380D01*
X91368571Y-64365238D01*
X91273333Y-64460476D01*
X91178095Y-64508095D01*
X92654285Y-64222380D02*
X92178095Y-64222380D01*
X92130476Y-64698571D01*
X92178095Y-64650952D01*
X92273333Y-64603333D01*
X92511428Y-64603333D01*
X92606666Y-64650952D01*
X92654285Y-64698571D01*
X92701904Y-64793809D01*
X92701904Y-65031904D01*
X92654285Y-65127142D01*
X92606666Y-65174761D01*
X92511428Y-65222380D01*
X92273333Y-65222380D01*
X92178095Y-65174761D01*
X92130476Y-65127142D01*
X110545714Y-75382380D02*
X110545714Y-74382380D01*
X110783809Y-74382380D01*
X110926666Y-74430000D01*
X111021904Y-74525238D01*
X111069523Y-74620476D01*
X111117142Y-74810952D01*
X111117142Y-74953809D01*
X111069523Y-75144285D01*
X111021904Y-75239523D01*
X110926666Y-75334761D01*
X110783809Y-75382380D01*
X110545714Y-75382380D01*
X112069523Y-75382380D02*
X111498095Y-75382380D01*
X111783809Y-75382380D02*
X111783809Y-74382380D01*
X111688571Y-74525238D01*
X111593333Y-74620476D01*
X111498095Y-74668095D01*
X112926666Y-74715714D02*
X112926666Y-75382380D01*
X112688571Y-74334761D02*
X112450476Y-75049047D01*
X113069523Y-75049047D01*
X109672380Y-73604285D02*
X108672380Y-73604285D01*
X108672380Y-73366190D01*
X108720000Y-73223333D01*
X108815238Y-73128095D01*
X108910476Y-73080476D01*
X109100952Y-73032857D01*
X109243809Y-73032857D01*
X109434285Y-73080476D01*
X109529523Y-73128095D01*
X109624761Y-73223333D01*
X109672380Y-73366190D01*
X109672380Y-73604285D01*
X109672380Y-72080476D02*
X109672380Y-72651904D01*
X109672380Y-72366190D02*
X108672380Y-72366190D01*
X108815238Y-72461428D01*
X108910476Y-72556666D01*
X108958095Y-72651904D01*
X108672380Y-71747142D02*
X108672380Y-71128095D01*
X109053333Y-71461428D01*
X109053333Y-71318571D01*
X109100952Y-71223333D01*
X109148571Y-71175714D01*
X109243809Y-71128095D01*
X109481904Y-71128095D01*
X109577142Y-71175714D01*
X109624761Y-71223333D01*
X109672380Y-71318571D01*
X109672380Y-71604285D01*
X109624761Y-71699523D01*
X109577142Y-71747142D01*
X109672380Y-88844285D02*
X108672380Y-88844285D01*
X108672380Y-88606190D01*
X108720000Y-88463333D01*
X108815238Y-88368095D01*
X108910476Y-88320476D01*
X109100952Y-88272857D01*
X109243809Y-88272857D01*
X109434285Y-88320476D01*
X109529523Y-88368095D01*
X109624761Y-88463333D01*
X109672380Y-88606190D01*
X109672380Y-88844285D01*
X109672380Y-87320476D02*
X109672380Y-87891904D01*
X109672380Y-87606190D02*
X108672380Y-87606190D01*
X108815238Y-87701428D01*
X108910476Y-87796666D01*
X108958095Y-87891904D01*
X108767619Y-86939523D02*
X108720000Y-86891904D01*
X108672380Y-86796666D01*
X108672380Y-86558571D01*
X108720000Y-86463333D01*
X108767619Y-86415714D01*
X108862857Y-86368095D01*
X108958095Y-86368095D01*
X109100952Y-86415714D01*
X109672380Y-86987142D01*
X109672380Y-86368095D01*
X110545714Y-90622380D02*
X110545714Y-89622380D01*
X110783809Y-89622380D01*
X110926666Y-89670000D01*
X111021904Y-89765238D01*
X111069523Y-89860476D01*
X111117142Y-90050952D01*
X111117142Y-90193809D01*
X111069523Y-90384285D01*
X111021904Y-90479523D01*
X110926666Y-90574761D01*
X110783809Y-90622380D01*
X110545714Y-90622380D01*
X112069523Y-90622380D02*
X111498095Y-90622380D01*
X111783809Y-90622380D02*
X111783809Y-89622380D01*
X111688571Y-89765238D01*
X111593333Y-89860476D01*
X111498095Y-89908095D01*
X113021904Y-90622380D02*
X112450476Y-90622380D01*
X112736190Y-90622380D02*
X112736190Y-89622380D01*
X112640952Y-89765238D01*
X112545714Y-89860476D01*
X112450476Y-89908095D01*
X118927619Y-81335714D02*
X119927619Y-81335714D01*
X119927619Y-81573809D01*
X119880000Y-81716666D01*
X119784761Y-81811904D01*
X119689523Y-81859523D01*
X119499047Y-81907142D01*
X119356190Y-81907142D01*
X119165714Y-81859523D01*
X119070476Y-81811904D01*
X118975238Y-81716666D01*
X118927619Y-81573809D01*
X118927619Y-81335714D01*
X118927619Y-82859523D02*
X118927619Y-82288095D01*
X118927619Y-82573809D02*
X119927619Y-82573809D01*
X119784761Y-82478571D01*
X119689523Y-82383333D01*
X119641904Y-82288095D01*
X119927619Y-83478571D02*
X119927619Y-83573809D01*
X119880000Y-83669047D01*
X119832380Y-83716666D01*
X119737142Y-83764285D01*
X119546666Y-83811904D01*
X119308571Y-83811904D01*
X119118095Y-83764285D01*
X119022857Y-83716666D01*
X118975238Y-83669047D01*
X118927619Y-83573809D01*
X118927619Y-83478571D01*
X118975238Y-83383333D01*
X119022857Y-83335714D01*
X119118095Y-83288095D01*
X119308571Y-83240476D01*
X119546666Y-83240476D01*
X119737142Y-83288095D01*
X119832380Y-83335714D01*
X119880000Y-83383333D01*
X119927619Y-83478571D01*
X118927619Y-66571904D02*
X119927619Y-66571904D01*
X119927619Y-66810000D01*
X119880000Y-66952857D01*
X119784761Y-67048095D01*
X119689523Y-67095714D01*
X119499047Y-67143333D01*
X119356190Y-67143333D01*
X119165714Y-67095714D01*
X119070476Y-67048095D01*
X118975238Y-66952857D01*
X118927619Y-66810000D01*
X118927619Y-66571904D01*
X118927619Y-67619523D02*
X118927619Y-67810000D01*
X118975238Y-67905238D01*
X119022857Y-67952857D01*
X119165714Y-68048095D01*
X119356190Y-68095714D01*
X119737142Y-68095714D01*
X119832380Y-68048095D01*
X119880000Y-68000476D01*
X119927619Y-67905238D01*
X119927619Y-67714761D01*
X119880000Y-67619523D01*
X119832380Y-67571904D01*
X119737142Y-67524285D01*
X119499047Y-67524285D01*
X119403809Y-67571904D01*
X119356190Y-67619523D01*
X119308571Y-67714761D01*
X119308571Y-67905238D01*
X119356190Y-68000476D01*
X119403809Y-68048095D01*
X119499047Y-68095714D01*
X111021904Y-65222380D02*
X111021904Y-64222380D01*
X111260000Y-64222380D01*
X111402857Y-64270000D01*
X111498095Y-64365238D01*
X111545714Y-64460476D01*
X111593333Y-64650952D01*
X111593333Y-64793809D01*
X111545714Y-64984285D01*
X111498095Y-65079523D01*
X111402857Y-65174761D01*
X111260000Y-65222380D01*
X111021904Y-65222380D01*
X112164761Y-64650952D02*
X112069523Y-64603333D01*
X112021904Y-64555714D01*
X111974285Y-64460476D01*
X111974285Y-64412857D01*
X112021904Y-64317619D01*
X112069523Y-64270000D01*
X112164761Y-64222380D01*
X112355238Y-64222380D01*
X112450476Y-64270000D01*
X112498095Y-64317619D01*
X112545714Y-64412857D01*
X112545714Y-64460476D01*
X112498095Y-64555714D01*
X112450476Y-64603333D01*
X112355238Y-64650952D01*
X112164761Y-64650952D01*
X112069523Y-64698571D01*
X112021904Y-64746190D01*
X111974285Y-64841428D01*
X111974285Y-65031904D01*
X112021904Y-65127142D01*
X112069523Y-65174761D01*
X112164761Y-65222380D01*
X112355238Y-65222380D01*
X112450476Y-65174761D01*
X112498095Y-65127142D01*
X112545714Y-65031904D01*
X112545714Y-64841428D01*
X112498095Y-64746190D01*
X112450476Y-64698571D01*
X112355238Y-64650952D01*
X85621904Y-75382380D02*
X85621904Y-74382380D01*
X85860000Y-74382380D01*
X86002857Y-74430000D01*
X86098095Y-74525238D01*
X86145714Y-74620476D01*
X86193333Y-74810952D01*
X86193333Y-74953809D01*
X86145714Y-75144285D01*
X86098095Y-75239523D01*
X86002857Y-75334761D01*
X85860000Y-75382380D01*
X85621904Y-75382380D01*
X86526666Y-74382380D02*
X87193333Y-74382380D01*
X86764761Y-75382380D01*
X84272380Y-73128095D02*
X83272380Y-73128095D01*
X83272380Y-72890000D01*
X83320000Y-72747142D01*
X83415238Y-72651904D01*
X83510476Y-72604285D01*
X83700952Y-72556666D01*
X83843809Y-72556666D01*
X84034285Y-72604285D01*
X84129523Y-72651904D01*
X84224761Y-72747142D01*
X84272380Y-72890000D01*
X84272380Y-73128095D01*
X83272380Y-71699523D02*
X83272380Y-71890000D01*
X83320000Y-71985238D01*
X83367619Y-72032857D01*
X83510476Y-72128095D01*
X83700952Y-72175714D01*
X84081904Y-72175714D01*
X84177142Y-72128095D01*
X84224761Y-72080476D01*
X84272380Y-71985238D01*
X84272380Y-71794761D01*
X84224761Y-71699523D01*
X84177142Y-71651904D01*
X84081904Y-71604285D01*
X83843809Y-71604285D01*
X83748571Y-71651904D01*
X83700952Y-71699523D01*
X83653333Y-71794761D01*
X83653333Y-71985238D01*
X83700952Y-72080476D01*
X83748571Y-72128095D01*
X83843809Y-72175714D01*
X84272380Y-88368095D02*
X83272380Y-88368095D01*
X83272380Y-88130000D01*
X83320000Y-87987142D01*
X83415238Y-87891904D01*
X83510476Y-87844285D01*
X83700952Y-87796666D01*
X83843809Y-87796666D01*
X84034285Y-87844285D01*
X84129523Y-87891904D01*
X84224761Y-87987142D01*
X84272380Y-88130000D01*
X84272380Y-88368095D01*
X83272380Y-86891904D02*
X83272380Y-87368095D01*
X83748571Y-87415714D01*
X83700952Y-87368095D01*
X83653333Y-87272857D01*
X83653333Y-87034761D01*
X83700952Y-86939523D01*
X83748571Y-86891904D01*
X83843809Y-86844285D01*
X84081904Y-86844285D01*
X84177142Y-86891904D01*
X84224761Y-86939523D01*
X84272380Y-87034761D01*
X84272380Y-87272857D01*
X84224761Y-87368095D01*
X84177142Y-87415714D01*
X85621904Y-90622380D02*
X85621904Y-89622380D01*
X85860000Y-89622380D01*
X86002857Y-89670000D01*
X86098095Y-89765238D01*
X86145714Y-89860476D01*
X86193333Y-90050952D01*
X86193333Y-90193809D01*
X86145714Y-90384285D01*
X86098095Y-90479523D01*
X86002857Y-90574761D01*
X85860000Y-90622380D01*
X85621904Y-90622380D01*
X87050476Y-89955714D02*
X87050476Y-90622380D01*
X86812380Y-89574761D02*
X86574285Y-90289047D01*
X87193333Y-90289047D01*
X93527619Y-81811904D02*
X94527619Y-81811904D01*
X94527619Y-82050000D01*
X94480000Y-82192857D01*
X94384761Y-82288095D01*
X94289523Y-82335714D01*
X94099047Y-82383333D01*
X93956190Y-82383333D01*
X93765714Y-82335714D01*
X93670476Y-82288095D01*
X93575238Y-82192857D01*
X93527619Y-82050000D01*
X93527619Y-81811904D01*
X94527619Y-82716666D02*
X94527619Y-83335714D01*
X94146666Y-83002380D01*
X94146666Y-83145238D01*
X94099047Y-83240476D01*
X94051428Y-83288095D01*
X93956190Y-83335714D01*
X93718095Y-83335714D01*
X93622857Y-83288095D01*
X93575238Y-83240476D01*
X93527619Y-83145238D01*
X93527619Y-82859523D01*
X93575238Y-82764285D01*
X93622857Y-82716666D01*
X93527619Y-66571904D02*
X94527619Y-66571904D01*
X94527619Y-66810000D01*
X94480000Y-66952857D01*
X94384761Y-67048095D01*
X94289523Y-67095714D01*
X94099047Y-67143333D01*
X93956190Y-67143333D01*
X93765714Y-67095714D01*
X93670476Y-67048095D01*
X93575238Y-66952857D01*
X93527619Y-66810000D01*
X93527619Y-66571904D01*
X94432380Y-67524285D02*
X94480000Y-67571904D01*
X94527619Y-67667142D01*
X94527619Y-67905238D01*
X94480000Y-68000476D01*
X94432380Y-68048095D01*
X94337142Y-68095714D01*
X94241904Y-68095714D01*
X94099047Y-68048095D01*
X93527619Y-67476666D01*
X93527619Y-68095714D01*
X85621904Y-65222380D02*
X85621904Y-64222380D01*
X85860000Y-64222380D01*
X86002857Y-64270000D01*
X86098095Y-64365238D01*
X86145714Y-64460476D01*
X86193333Y-64650952D01*
X86193333Y-64793809D01*
X86145714Y-64984285D01*
X86098095Y-65079523D01*
X86002857Y-65174761D01*
X85860000Y-65222380D01*
X85621904Y-65222380D01*
X87145714Y-65222380D02*
X86574285Y-65222380D01*
X86860000Y-65222380D02*
X86860000Y-64222380D01*
X86764761Y-64365238D01*
X86669523Y-64460476D01*
X86574285Y-64508095D01*
M02*
