%FSLAX45Y45*%
G04 Gerber Fmt 4.5, Leading zero omitted, Abs format (unit mm)*
G04 Created by KiCad (PCBNEW 5.1.6+dfsg1-1) date 2020-12-16 14:59:28*
%MOMM*%
%LPD*%
G01*
G04 APERTURE LIST*
%ADD10C,0.200000*%
%ADD11C,0.300000*%
G04 APERTURE END LIST*
D10*
X10698800Y-10597200D02*
X10738800Y-10637200D01*
X10738800Y-10597200D02*
X10698800Y-10637200D01*
X12299000Y-10648000D02*
X12339000Y-10688000D01*
X12339000Y-10648000D02*
X12299000Y-10688000D01*
X13238800Y-10597200D02*
X13278800Y-10637200D01*
X13278800Y-10597200D02*
X13238800Y-10637200D01*
X14839000Y-10648000D02*
X14879000Y-10688000D01*
X14879000Y-10648000D02*
X14839000Y-10688000D01*
X17379000Y-10648000D02*
X17419000Y-10688000D01*
X17419000Y-10648000D02*
X17379000Y-10688000D01*
X8793000Y-11303000D02*
G75*
G03*
X8793000Y-11303000I-30000J0D01*
G01*
X16256000Y-6696000D02*
X16256000Y-6766000D01*
X16221000Y-6731000D02*
X16291000Y-6731000D01*
X16764000Y-6696000D02*
X16764000Y-6766000D01*
X16729000Y-6731000D02*
X16799000Y-6731000D01*
X13716000Y-8474000D02*
X13716000Y-8544000D01*
X13681000Y-8509000D02*
X13751000Y-8509000D01*
X14224000Y-8474000D02*
X14224000Y-8544000D01*
X14189000Y-8509000D02*
X14259000Y-8509000D01*
X13716000Y-6696000D02*
X13716000Y-6766000D01*
X13681000Y-6731000D02*
X13751000Y-6731000D01*
X14224000Y-6696000D02*
X14224000Y-6766000D01*
X14189000Y-6731000D02*
X14259000Y-6731000D01*
X11176000Y-8728000D02*
X11176000Y-8798000D01*
X11141000Y-8763000D02*
X11211000Y-8763000D01*
X11684000Y-8728000D02*
X11684000Y-8798000D01*
X11649000Y-8763000D02*
X11719000Y-8763000D01*
X13716000Y-6950000D02*
X13716000Y-7020000D01*
X13681000Y-6985000D02*
X13751000Y-6985000D01*
X14224000Y-6950000D02*
X14224000Y-7020000D01*
X14189000Y-6985000D02*
X14259000Y-6985000D01*
X9906000Y-9617000D02*
X9906000Y-9687000D01*
X9871000Y-9652000D02*
X9941000Y-9652000D01*
X10414000Y-9617000D02*
X10414000Y-9687000D01*
X10379000Y-9652000D02*
X10449000Y-9652000D01*
X16256000Y-7204000D02*
X16256000Y-7274000D01*
X16221000Y-7239000D02*
X16291000Y-7239000D01*
X16764000Y-7204000D02*
X16764000Y-7274000D01*
X16729000Y-7239000D02*
X16799000Y-7239000D01*
X13716000Y-8728000D02*
X13716000Y-8798000D01*
X13681000Y-8763000D02*
X13751000Y-8763000D01*
X14224000Y-8728000D02*
X14224000Y-8798000D01*
X14189000Y-8763000D02*
X14259000Y-8763000D01*
X16256000Y-8220000D02*
X16256000Y-8290000D01*
X16221000Y-8255000D02*
X16291000Y-8255000D01*
X16764000Y-8220000D02*
X16764000Y-8290000D01*
X16729000Y-8255000D02*
X16799000Y-8255000D01*
X8636000Y-7204000D02*
X8636000Y-7274000D01*
X8601000Y-7239000D02*
X8671000Y-7239000D01*
X9144000Y-7204000D02*
X9144000Y-7274000D01*
X9109000Y-7239000D02*
X9179000Y-7239000D01*
X8636000Y-8220000D02*
X8636000Y-8290000D01*
X8601000Y-8255000D02*
X8671000Y-8255000D01*
X9144000Y-8220000D02*
X9144000Y-8290000D01*
X9109000Y-8255000D02*
X9179000Y-8255000D01*
X14986000Y-9617000D02*
X14986000Y-9687000D01*
X14951000Y-9652000D02*
X15021000Y-9652000D01*
X15494000Y-9617000D02*
X15494000Y-9687000D01*
X15459000Y-9652000D02*
X15529000Y-9652000D01*
X11176000Y-6696000D02*
X11176000Y-6766000D01*
X11141000Y-6731000D02*
X11211000Y-6731000D01*
X11684000Y-6696000D02*
X11684000Y-6766000D01*
X11649000Y-6731000D02*
X11719000Y-6731000D01*
X11176000Y-9617000D02*
X11176000Y-9687000D01*
X11141000Y-9652000D02*
X11211000Y-9652000D01*
X11684000Y-9617000D02*
X11684000Y-9687000D01*
X11649000Y-9652000D02*
X11719000Y-9652000D01*
X11176000Y-6950000D02*
X11176000Y-7020000D01*
X11141000Y-6985000D02*
X11211000Y-6985000D01*
X11684000Y-6950000D02*
X11684000Y-7020000D01*
X11649000Y-6985000D02*
X11719000Y-6985000D01*
X12446000Y-9617000D02*
X12446000Y-9687000D01*
X12411000Y-9652000D02*
X12481000Y-9652000D01*
X12954000Y-9617000D02*
X12954000Y-9687000D01*
X12919000Y-9652000D02*
X12989000Y-9652000D01*
X11176000Y-8220000D02*
X11176000Y-8290000D01*
X11141000Y-8255000D02*
X11211000Y-8255000D01*
X11684000Y-8220000D02*
X11684000Y-8290000D01*
X11649000Y-8255000D02*
X11719000Y-8255000D01*
X16256000Y-6950000D02*
X16256000Y-7020000D01*
X16221000Y-6985000D02*
X16291000Y-6985000D01*
X16764000Y-6950000D02*
X16764000Y-7020000D01*
X16729000Y-6985000D02*
X16799000Y-6985000D01*
X17526000Y-9617000D02*
X17526000Y-9687000D01*
X17491000Y-9652000D02*
X17561000Y-9652000D01*
X18034000Y-9617000D02*
X18034000Y-9687000D01*
X17999000Y-9652000D02*
X18069000Y-9652000D01*
X16256000Y-8728000D02*
X16256000Y-8798000D01*
X16221000Y-8763000D02*
X16291000Y-8763000D01*
X16764000Y-8728000D02*
X16764000Y-8798000D01*
X16729000Y-8763000D02*
X16799000Y-8763000D01*
X16256000Y-9617000D02*
X16256000Y-9687000D01*
X16221000Y-9652000D02*
X16291000Y-9652000D01*
X16764000Y-9617000D02*
X16764000Y-9687000D01*
X16729000Y-9652000D02*
X16799000Y-9652000D01*
X13716000Y-7204000D02*
X13716000Y-7274000D01*
X13681000Y-7239000D02*
X13751000Y-7239000D01*
X14224000Y-7204000D02*
X14224000Y-7274000D01*
X14189000Y-7239000D02*
X14259000Y-7239000D01*
X8636000Y-9617000D02*
X8636000Y-9687000D01*
X8601000Y-9652000D02*
X8671000Y-9652000D01*
X9144000Y-9617000D02*
X9144000Y-9687000D01*
X9109000Y-9652000D02*
X9179000Y-9652000D01*
X11176000Y-8474000D02*
X11176000Y-8544000D01*
X11141000Y-8509000D02*
X11211000Y-8509000D01*
X11684000Y-8474000D02*
X11684000Y-8544000D01*
X11649000Y-8509000D02*
X11719000Y-8509000D01*
X11176000Y-7204000D02*
X11176000Y-7274000D01*
X11141000Y-7239000D02*
X11211000Y-7239000D01*
X11684000Y-7204000D02*
X11684000Y-7274000D01*
X11649000Y-7239000D02*
X11719000Y-7239000D01*
X8636000Y-8728000D02*
X8636000Y-8798000D01*
X8601000Y-8763000D02*
X8671000Y-8763000D01*
X9144000Y-8728000D02*
X9144000Y-8798000D01*
X9109000Y-8763000D02*
X9179000Y-8763000D01*
X13716000Y-8220000D02*
X13716000Y-8290000D01*
X13681000Y-8255000D02*
X13751000Y-8255000D01*
X14224000Y-8220000D02*
X14224000Y-8290000D01*
X14189000Y-8255000D02*
X14259000Y-8255000D01*
X8636000Y-6696000D02*
X8636000Y-6766000D01*
X8601000Y-6731000D02*
X8671000Y-6731000D01*
X9144000Y-6696000D02*
X9144000Y-6766000D01*
X9109000Y-6731000D02*
X9179000Y-6731000D01*
X8636000Y-8474000D02*
X8636000Y-8544000D01*
X8601000Y-8509000D02*
X8671000Y-8509000D01*
X9144000Y-8474000D02*
X9144000Y-8544000D01*
X9109000Y-8509000D02*
X9179000Y-8509000D01*
X8636000Y-6950000D02*
X8636000Y-7020000D01*
X8601000Y-6985000D02*
X8671000Y-6985000D01*
X9144000Y-6950000D02*
X9144000Y-7020000D01*
X9109000Y-6985000D02*
X9179000Y-6985000D01*
X16256000Y-8474000D02*
X16256000Y-8544000D01*
X16221000Y-8509000D02*
X16291000Y-8509000D01*
X16764000Y-8474000D02*
X16764000Y-8544000D01*
X16729000Y-8509000D02*
X16799000Y-8509000D01*
X13716000Y-9617000D02*
X13716000Y-9687000D01*
X13681000Y-9652000D02*
X13751000Y-9652000D01*
X14224000Y-9617000D02*
X14224000Y-9687000D01*
X14189000Y-9652000D02*
X14259000Y-9652000D01*
X10569285Y-10188285D02*
X10569285Y-10131716D01*
X10512716Y-10131716D01*
X10512716Y-10188285D01*
X10569285Y-10188285D01*
X10569285Y-10950285D02*
X10569285Y-10893716D01*
X10512716Y-10893716D01*
X10512716Y-10950285D01*
X10569285Y-10950285D01*
X10823285Y-10188285D02*
X10823285Y-10131716D01*
X10766716Y-10131716D01*
X10766716Y-10188285D01*
X10823285Y-10188285D01*
X10823285Y-10950285D02*
X10823285Y-10893716D01*
X10766716Y-10893716D01*
X10766716Y-10950285D01*
X10823285Y-10950285D01*
X11077285Y-10188285D02*
X11077285Y-10131716D01*
X11020716Y-10131716D01*
X11020716Y-10188285D01*
X11077285Y-10188285D01*
X11077285Y-10950285D02*
X11077285Y-10893716D01*
X11020716Y-10893716D01*
X11020716Y-10950285D01*
X11077285Y-10950285D01*
X11331284Y-10188285D02*
X11331284Y-10131716D01*
X11274715Y-10131716D01*
X11274715Y-10188285D01*
X11331284Y-10188285D01*
X11331284Y-10950285D02*
X11331284Y-10893716D01*
X11274715Y-10893716D01*
X11274715Y-10950285D01*
X11331284Y-10950285D01*
X11585284Y-10188285D02*
X11585284Y-10131716D01*
X11528715Y-10131716D01*
X11528715Y-10188285D01*
X11585284Y-10188285D01*
X11585284Y-10950285D02*
X11585284Y-10893716D01*
X11528715Y-10893716D01*
X11528715Y-10950285D01*
X11585284Y-10950285D01*
X11839284Y-10188285D02*
X11839284Y-10131716D01*
X11782715Y-10131716D01*
X11782715Y-10188285D01*
X11839284Y-10188285D01*
X11839284Y-10950285D02*
X11839284Y-10893716D01*
X11782715Y-10893716D01*
X11782715Y-10950285D01*
X11839284Y-10950285D01*
X12093284Y-10188285D02*
X12093284Y-10131716D01*
X12036715Y-10131716D01*
X12036715Y-10188285D01*
X12093284Y-10188285D01*
X12093284Y-10950285D02*
X12093284Y-10893716D01*
X12036715Y-10893716D01*
X12036715Y-10950285D01*
X12093284Y-10950285D01*
X12347284Y-10188285D02*
X12347284Y-10131716D01*
X12290715Y-10131716D01*
X12290715Y-10188285D01*
X12347284Y-10188285D01*
X12347284Y-10950285D02*
X12347284Y-10893716D01*
X12290715Y-10893716D01*
X12290715Y-10950285D01*
X12347284Y-10950285D01*
X10188285Y-10323285D02*
X10188285Y-10266716D01*
X10131716Y-10266716D01*
X10131716Y-10323285D01*
X10188285Y-10323285D01*
X10188285Y-10823285D02*
X10188285Y-10766716D01*
X10131716Y-10766716D01*
X10131716Y-10823285D01*
X10188285Y-10823285D01*
X13109284Y-10188285D02*
X13109284Y-10131716D01*
X13052715Y-10131716D01*
X13052715Y-10188285D01*
X13109284Y-10188285D01*
X13109284Y-10950285D02*
X13109284Y-10893716D01*
X13052715Y-10893716D01*
X13052715Y-10950285D01*
X13109284Y-10950285D01*
X13363284Y-10188285D02*
X13363284Y-10131716D01*
X13306715Y-10131716D01*
X13306715Y-10188285D01*
X13363284Y-10188285D01*
X13363284Y-10950285D02*
X13363284Y-10893716D01*
X13306715Y-10893716D01*
X13306715Y-10950285D01*
X13363284Y-10950285D01*
X13617284Y-10188285D02*
X13617284Y-10131716D01*
X13560715Y-10131716D01*
X13560715Y-10188285D01*
X13617284Y-10188285D01*
X13617284Y-10950285D02*
X13617284Y-10893716D01*
X13560715Y-10893716D01*
X13560715Y-10950285D01*
X13617284Y-10950285D01*
X13871284Y-10188285D02*
X13871284Y-10131716D01*
X13814715Y-10131716D01*
X13814715Y-10188285D01*
X13871284Y-10188285D01*
X13871284Y-10950285D02*
X13871284Y-10893716D01*
X13814715Y-10893716D01*
X13814715Y-10950285D01*
X13871284Y-10950285D01*
X14125284Y-10188285D02*
X14125284Y-10131716D01*
X14068715Y-10131716D01*
X14068715Y-10188285D01*
X14125284Y-10188285D01*
X14125284Y-10950285D02*
X14125284Y-10893716D01*
X14068715Y-10893716D01*
X14068715Y-10950285D01*
X14125284Y-10950285D01*
X14379284Y-10188285D02*
X14379284Y-10131716D01*
X14322715Y-10131716D01*
X14322715Y-10188285D01*
X14379284Y-10188285D01*
X14379284Y-10950285D02*
X14379284Y-10893716D01*
X14322715Y-10893716D01*
X14322715Y-10950285D01*
X14379284Y-10950285D01*
X14633284Y-10188285D02*
X14633284Y-10131716D01*
X14576715Y-10131716D01*
X14576715Y-10188285D01*
X14633284Y-10188285D01*
X14633284Y-10950285D02*
X14633284Y-10893716D01*
X14576715Y-10893716D01*
X14576715Y-10950285D01*
X14633284Y-10950285D01*
X14887284Y-10188285D02*
X14887284Y-10131716D01*
X14830715Y-10131716D01*
X14830715Y-10188285D01*
X14887284Y-10188285D01*
X14887284Y-10950285D02*
X14887284Y-10893716D01*
X14830715Y-10893716D01*
X14830715Y-10950285D01*
X14887284Y-10950285D01*
X8029284Y-10188285D02*
X8029284Y-10131716D01*
X7972715Y-10131716D01*
X7972715Y-10188285D01*
X8029284Y-10188285D01*
X8029284Y-10950285D02*
X8029284Y-10893716D01*
X7972715Y-10893716D01*
X7972715Y-10950285D01*
X8029284Y-10950285D01*
X8283284Y-10188285D02*
X8283284Y-10131716D01*
X8226715Y-10131716D01*
X8226715Y-10188285D01*
X8283284Y-10188285D01*
X8283284Y-10950285D02*
X8283284Y-10893716D01*
X8226715Y-10893716D01*
X8226715Y-10950285D01*
X8283284Y-10950285D01*
X8537285Y-10188285D02*
X8537285Y-10131716D01*
X8480716Y-10131716D01*
X8480716Y-10188285D01*
X8537285Y-10188285D01*
X8537285Y-10950285D02*
X8537285Y-10893716D01*
X8480716Y-10893716D01*
X8480716Y-10950285D01*
X8537285Y-10950285D01*
X8791285Y-10188285D02*
X8791285Y-10131716D01*
X8734716Y-10131716D01*
X8734716Y-10188285D01*
X8791285Y-10188285D01*
X8791285Y-10950285D02*
X8791285Y-10893716D01*
X8734716Y-10893716D01*
X8734716Y-10950285D01*
X8791285Y-10950285D01*
X9045285Y-10188285D02*
X9045285Y-10131716D01*
X8988716Y-10131716D01*
X8988716Y-10188285D01*
X9045285Y-10188285D01*
X9045285Y-10950285D02*
X9045285Y-10893716D01*
X8988716Y-10893716D01*
X8988716Y-10950285D01*
X9045285Y-10950285D01*
X9299285Y-10188285D02*
X9299285Y-10131716D01*
X9242716Y-10131716D01*
X9242716Y-10188285D01*
X9299285Y-10188285D01*
X9299285Y-10950285D02*
X9299285Y-10893716D01*
X9242716Y-10893716D01*
X9242716Y-10950285D01*
X9299285Y-10950285D01*
X9553285Y-10188285D02*
X9553285Y-10131716D01*
X9496716Y-10131716D01*
X9496716Y-10188285D01*
X9553285Y-10188285D01*
X9553285Y-10950285D02*
X9553285Y-10893716D01*
X9496716Y-10893716D01*
X9496716Y-10950285D01*
X9553285Y-10950285D01*
X9807285Y-10188285D02*
X9807285Y-10131716D01*
X9750716Y-10131716D01*
X9750716Y-10188285D01*
X9807285Y-10188285D01*
X9807285Y-10950285D02*
X9807285Y-10893716D01*
X9750716Y-10893716D01*
X9750716Y-10950285D01*
X9807285Y-10950285D01*
X15649284Y-10188285D02*
X15649284Y-10131716D01*
X15592715Y-10131716D01*
X15592715Y-10188285D01*
X15649284Y-10188285D01*
X15649284Y-10950285D02*
X15649284Y-10893716D01*
X15592715Y-10893716D01*
X15592715Y-10950285D01*
X15649284Y-10950285D01*
X15903284Y-10188285D02*
X15903284Y-10131716D01*
X15846715Y-10131716D01*
X15846715Y-10188285D01*
X15903284Y-10188285D01*
X15903284Y-10950285D02*
X15903284Y-10893716D01*
X15846715Y-10893716D01*
X15846715Y-10950285D01*
X15903284Y-10950285D01*
X16157284Y-10188285D02*
X16157284Y-10131716D01*
X16100715Y-10131716D01*
X16100715Y-10188285D01*
X16157284Y-10188285D01*
X16157284Y-10950285D02*
X16157284Y-10893716D01*
X16100715Y-10893716D01*
X16100715Y-10950285D01*
X16157284Y-10950285D01*
X16411284Y-10188285D02*
X16411284Y-10131716D01*
X16354715Y-10131716D01*
X16354715Y-10188285D01*
X16411284Y-10188285D01*
X16411284Y-10950285D02*
X16411284Y-10893716D01*
X16354715Y-10893716D01*
X16354715Y-10950285D01*
X16411284Y-10950285D01*
X16665284Y-10188285D02*
X16665284Y-10131716D01*
X16608715Y-10131716D01*
X16608715Y-10188285D01*
X16665284Y-10188285D01*
X16665284Y-10950285D02*
X16665284Y-10893716D01*
X16608715Y-10893716D01*
X16608715Y-10950285D01*
X16665284Y-10950285D01*
X16919285Y-10188285D02*
X16919285Y-10131716D01*
X16862716Y-10131716D01*
X16862716Y-10188285D01*
X16919285Y-10188285D01*
X16919285Y-10950285D02*
X16919285Y-10893716D01*
X16862716Y-10893716D01*
X16862716Y-10950285D01*
X16919285Y-10950285D01*
X17173285Y-10188285D02*
X17173285Y-10131716D01*
X17116716Y-10131716D01*
X17116716Y-10188285D01*
X17173285Y-10188285D01*
X17173285Y-10950285D02*
X17173285Y-10893716D01*
X17116716Y-10893716D01*
X17116716Y-10950285D01*
X17173285Y-10950285D01*
X17427285Y-10188285D02*
X17427285Y-10131716D01*
X17370716Y-10131716D01*
X17370716Y-10188285D01*
X17427285Y-10188285D01*
X17427285Y-10950285D02*
X17427285Y-10893716D01*
X17370716Y-10893716D01*
X17370716Y-10950285D01*
X17427285Y-10950285D01*
X17808285Y-10323285D02*
X17808285Y-10266716D01*
X17751716Y-10266716D01*
X17751716Y-10323285D01*
X17808285Y-10323285D01*
X17808285Y-10823285D02*
X17808285Y-10766716D01*
X17751716Y-10766716D01*
X17751716Y-10823285D01*
X17808285Y-10823285D01*
X12728284Y-10323285D02*
X12728284Y-10266716D01*
X12671715Y-10266716D01*
X12671715Y-10323285D01*
X12728284Y-10323285D01*
X12728284Y-10823285D02*
X12728284Y-10766716D01*
X12671715Y-10766716D01*
X12671715Y-10823285D01*
X12728284Y-10823285D01*
X15268284Y-10323285D02*
X15268284Y-10266716D01*
X15211715Y-10266716D01*
X15211715Y-10323285D01*
X15268284Y-10323285D01*
X15268284Y-10823285D02*
X15268284Y-10766716D01*
X15211715Y-10766716D01*
X15211715Y-10823285D01*
X15268284Y-10823285D01*
X15621000Y-7284000D02*
X15666000Y-7239000D01*
X15621000Y-7194000D01*
X15576000Y-7239000D01*
X15621000Y-7284000D01*
X15875000Y-7284000D02*
X15920000Y-7239000D01*
X15875000Y-7194000D01*
X15830000Y-7239000D01*
X15875000Y-7284000D01*
X11557000Y-7792000D02*
X11602000Y-7747000D01*
X11557000Y-7702000D01*
X11512000Y-7747000D01*
X11557000Y-7792000D01*
X11811000Y-7792000D02*
X11856000Y-7747000D01*
X11811000Y-7702000D01*
X11766000Y-7747000D01*
X11811000Y-7792000D01*
X17145000Y-8808000D02*
X17190000Y-8763000D01*
X17145000Y-8718000D01*
X17100000Y-8763000D01*
X17145000Y-8808000D01*
X17399000Y-8808000D02*
X17444000Y-8763000D01*
X17399000Y-8718000D01*
X17354000Y-8763000D01*
X17399000Y-8808000D01*
X16637000Y-7792000D02*
X16682000Y-7747000D01*
X16637000Y-7702000D01*
X16592000Y-7747000D01*
X16637000Y-7792000D01*
X16891000Y-7792000D02*
X16936000Y-7747000D01*
X16891000Y-7702000D01*
X16846000Y-7747000D01*
X16891000Y-7792000D01*
X10033000Y-9316000D02*
X10078000Y-9271000D01*
X10033000Y-9226000D01*
X9988000Y-9271000D01*
X10033000Y-9316000D01*
X10287000Y-9316000D02*
X10332000Y-9271000D01*
X10287000Y-9226000D01*
X10242000Y-9271000D01*
X10287000Y-9316000D01*
X11557000Y-6268000D02*
X11602000Y-6223000D01*
X11557000Y-6178000D01*
X11512000Y-6223000D01*
X11557000Y-6268000D01*
X11811000Y-6268000D02*
X11856000Y-6223000D01*
X11811000Y-6178000D01*
X11766000Y-6223000D01*
X11811000Y-6268000D01*
X10541000Y-7284000D02*
X10586000Y-7239000D01*
X10541000Y-7194000D01*
X10496000Y-7239000D01*
X10541000Y-7284000D01*
X10795000Y-7284000D02*
X10840000Y-7239000D01*
X10795000Y-7194000D01*
X10750000Y-7239000D01*
X10795000Y-7284000D01*
X11557000Y-9316000D02*
X11602000Y-9271000D01*
X11557000Y-9226000D01*
X11512000Y-9271000D01*
X11557000Y-9316000D01*
X11811000Y-9316000D02*
X11856000Y-9271000D01*
X11811000Y-9226000D01*
X11766000Y-9271000D01*
X11811000Y-9316000D01*
X14605000Y-8808000D02*
X14650000Y-8763000D01*
X14605000Y-8718000D01*
X14560000Y-8763000D01*
X14605000Y-8808000D01*
X14859000Y-8808000D02*
X14904000Y-8763000D01*
X14859000Y-8718000D01*
X14814000Y-8763000D01*
X14859000Y-8808000D01*
X13081000Y-6776000D02*
X13126000Y-6731000D01*
X13081000Y-6686000D01*
X13036000Y-6731000D01*
X13081000Y-6776000D01*
X13335000Y-6776000D02*
X13380000Y-6731000D01*
X13335000Y-6686000D01*
X13290000Y-6731000D01*
X13335000Y-6776000D01*
X9525000Y-7284000D02*
X9570000Y-7239000D01*
X9525000Y-7194000D01*
X9480000Y-7239000D01*
X9525000Y-7284000D01*
X9779000Y-7284000D02*
X9824000Y-7239000D01*
X9779000Y-7194000D01*
X9734000Y-7239000D01*
X9779000Y-7284000D01*
X10541000Y-6776000D02*
X10586000Y-6731000D01*
X10541000Y-6686000D01*
X10496000Y-6731000D01*
X10541000Y-6776000D01*
X10795000Y-6776000D02*
X10840000Y-6731000D01*
X10795000Y-6686000D01*
X10750000Y-6731000D01*
X10795000Y-6776000D01*
X14605000Y-8300000D02*
X14650000Y-8255000D01*
X14605000Y-8210000D01*
X14560000Y-8255000D01*
X14605000Y-8300000D01*
X14859000Y-8300000D02*
X14904000Y-8255000D01*
X14859000Y-8210000D01*
X14814000Y-8255000D01*
X14859000Y-8300000D01*
X10541000Y-8808000D02*
X10586000Y-8763000D01*
X10541000Y-8718000D01*
X10496000Y-8763000D01*
X10541000Y-8808000D01*
X10795000Y-8808000D02*
X10840000Y-8763000D01*
X10795000Y-8718000D01*
X10750000Y-8763000D01*
X10795000Y-8808000D01*
X15621000Y-6776000D02*
X15666000Y-6731000D01*
X15621000Y-6686000D01*
X15576000Y-6731000D01*
X15621000Y-6776000D01*
X15875000Y-6776000D02*
X15920000Y-6731000D01*
X15875000Y-6686000D01*
X15830000Y-6731000D01*
X15875000Y-6776000D01*
X8509000Y-7792000D02*
X8554000Y-7747000D01*
X8509000Y-7702000D01*
X8464000Y-7747000D01*
X8509000Y-7792000D01*
X8763000Y-7792000D02*
X8808000Y-7747000D01*
X8763000Y-7702000D01*
X8718000Y-7747000D01*
X8763000Y-7792000D01*
X11049000Y-7792000D02*
X11094000Y-7747000D01*
X11049000Y-7702000D01*
X11004000Y-7747000D01*
X11049000Y-7792000D01*
X11303000Y-7792000D02*
X11348000Y-7747000D01*
X11303000Y-7702000D01*
X11258000Y-7747000D01*
X11303000Y-7792000D01*
X15113000Y-9316000D02*
X15158000Y-9271000D01*
X15113000Y-9226000D01*
X15068000Y-9271000D01*
X15113000Y-9316000D01*
X15367000Y-9316000D02*
X15412000Y-9271000D01*
X15367000Y-9226000D01*
X15322000Y-9271000D01*
X15367000Y-9316000D01*
X15621000Y-8300000D02*
X15666000Y-8255000D01*
X15621000Y-8210000D01*
X15576000Y-8255000D01*
X15621000Y-8300000D01*
X15875000Y-8300000D02*
X15920000Y-8255000D01*
X15875000Y-8210000D01*
X15830000Y-8255000D01*
X15875000Y-8300000D01*
X13081000Y-8808000D02*
X13126000Y-8763000D01*
X13081000Y-8718000D01*
X13036000Y-8763000D01*
X13081000Y-8808000D01*
X13335000Y-8808000D02*
X13380000Y-8763000D01*
X13335000Y-8718000D01*
X13290000Y-8763000D01*
X13335000Y-8808000D01*
X14097000Y-7792000D02*
X14142000Y-7747000D01*
X14097000Y-7702000D01*
X14052000Y-7747000D01*
X14097000Y-7792000D01*
X14351000Y-7792000D02*
X14396000Y-7747000D01*
X14351000Y-7702000D01*
X14306000Y-7747000D01*
X14351000Y-7792000D01*
X11049000Y-6268000D02*
X11094000Y-6223000D01*
X11049000Y-6178000D01*
X11004000Y-6223000D01*
X11049000Y-6268000D01*
X11303000Y-6268000D02*
X11348000Y-6223000D01*
X11303000Y-6178000D01*
X11258000Y-6223000D01*
X11303000Y-6268000D01*
X16637000Y-6268000D02*
X16682000Y-6223000D01*
X16637000Y-6178000D01*
X16592000Y-6223000D01*
X16637000Y-6268000D01*
X16891000Y-6268000D02*
X16936000Y-6223000D01*
X16891000Y-6178000D01*
X16846000Y-6223000D01*
X16891000Y-6268000D01*
X9525000Y-8300000D02*
X9570000Y-8255000D01*
X9525000Y-8210000D01*
X9480000Y-8255000D01*
X9525000Y-8300000D01*
X9779000Y-8300000D02*
X9824000Y-8255000D01*
X9779000Y-8210000D01*
X9734000Y-8255000D01*
X9779000Y-8300000D01*
X8001000Y-8300000D02*
X8046000Y-8255000D01*
X8001000Y-8210000D01*
X7956000Y-8255000D01*
X8001000Y-8300000D01*
X8255000Y-8300000D02*
X8300000Y-8255000D01*
X8255000Y-8210000D01*
X8210000Y-8255000D01*
X8255000Y-8300000D01*
X9525000Y-6776000D02*
X9570000Y-6731000D01*
X9525000Y-6686000D01*
X9480000Y-6731000D01*
X9525000Y-6776000D01*
X9779000Y-6776000D02*
X9824000Y-6731000D01*
X9779000Y-6686000D01*
X9734000Y-6731000D01*
X9779000Y-6776000D01*
X12573000Y-9316000D02*
X12618000Y-9271000D01*
X12573000Y-9226000D01*
X12528000Y-9271000D01*
X12573000Y-9316000D01*
X12827000Y-9316000D02*
X12872000Y-9271000D01*
X12827000Y-9226000D01*
X12782000Y-9271000D01*
X12827000Y-9316000D01*
X11049000Y-9316000D02*
X11094000Y-9271000D01*
X11049000Y-9226000D01*
X11004000Y-9271000D01*
X11049000Y-9316000D01*
X11303000Y-9316000D02*
X11348000Y-9271000D01*
X11303000Y-9226000D01*
X11258000Y-9271000D01*
X11303000Y-9316000D01*
X13081000Y-7284000D02*
X13126000Y-7239000D01*
X13081000Y-7194000D01*
X13036000Y-7239000D01*
X13081000Y-7284000D01*
X13335000Y-7284000D02*
X13380000Y-7239000D01*
X13335000Y-7194000D01*
X13290000Y-7239000D01*
X13335000Y-7284000D01*
X15621000Y-8808000D02*
X15666000Y-8763000D01*
X15621000Y-8718000D01*
X15576000Y-8763000D01*
X15621000Y-8808000D01*
X15875000Y-8808000D02*
X15920000Y-8763000D01*
X15875000Y-8718000D01*
X15830000Y-8763000D01*
X15875000Y-8808000D01*
X10541000Y-8300000D02*
X10586000Y-8255000D01*
X10541000Y-8210000D01*
X10496000Y-8255000D01*
X10541000Y-8300000D01*
X10795000Y-8300000D02*
X10840000Y-8255000D01*
X10795000Y-8210000D01*
X10750000Y-8255000D01*
X10795000Y-8300000D01*
X8001000Y-6776000D02*
X8046000Y-6731000D01*
X8001000Y-6686000D01*
X7956000Y-6731000D01*
X8001000Y-6776000D01*
X8255000Y-6776000D02*
X8300000Y-6731000D01*
X8255000Y-6686000D01*
X8210000Y-6731000D01*
X8255000Y-6776000D01*
X13589000Y-7792000D02*
X13634000Y-7747000D01*
X13589000Y-7702000D01*
X13544000Y-7747000D01*
X13589000Y-7792000D01*
X13843000Y-7792000D02*
X13888000Y-7747000D01*
X13843000Y-7702000D01*
X13798000Y-7747000D01*
X13843000Y-7792000D01*
X8509000Y-6268000D02*
X8554000Y-6223000D01*
X8509000Y-6178000D01*
X8464000Y-6223000D01*
X8509000Y-6268000D01*
X8763000Y-6268000D02*
X8808000Y-6223000D01*
X8763000Y-6178000D01*
X8718000Y-6223000D01*
X8763000Y-6268000D01*
X17145000Y-6776000D02*
X17190000Y-6731000D01*
X17145000Y-6686000D01*
X17100000Y-6731000D01*
X17145000Y-6776000D01*
X17399000Y-6776000D02*
X17444000Y-6731000D01*
X17399000Y-6686000D01*
X17354000Y-6731000D01*
X17399000Y-6776000D01*
X13589000Y-6268000D02*
X13634000Y-6223000D01*
X13589000Y-6178000D01*
X13544000Y-6223000D01*
X13589000Y-6268000D01*
X13843000Y-6268000D02*
X13888000Y-6223000D01*
X13843000Y-6178000D01*
X13798000Y-6223000D01*
X13843000Y-6268000D01*
X14097000Y-9316000D02*
X14142000Y-9271000D01*
X14097000Y-9226000D01*
X14052000Y-9271000D01*
X14097000Y-9316000D01*
X14351000Y-9316000D02*
X14396000Y-9271000D01*
X14351000Y-9226000D01*
X14306000Y-9271000D01*
X14351000Y-9316000D01*
X13081000Y-8300000D02*
X13126000Y-8255000D01*
X13081000Y-8210000D01*
X13036000Y-8255000D01*
X13081000Y-8300000D01*
X13335000Y-8300000D02*
X13380000Y-8255000D01*
X13335000Y-8210000D01*
X13290000Y-8255000D01*
X13335000Y-8300000D01*
X9525000Y-8808000D02*
X9570000Y-8763000D01*
X9525000Y-8718000D01*
X9480000Y-8763000D01*
X9525000Y-8808000D01*
X9779000Y-8808000D02*
X9824000Y-8763000D01*
X9779000Y-8718000D01*
X9734000Y-8763000D01*
X9779000Y-8808000D01*
X9017000Y-7792000D02*
X9062000Y-7747000D01*
X9017000Y-7702000D01*
X8972000Y-7747000D01*
X9017000Y-7792000D01*
X9271000Y-7792000D02*
X9316000Y-7747000D01*
X9271000Y-7702000D01*
X9226000Y-7747000D01*
X9271000Y-7792000D01*
X8001000Y-7284000D02*
X8046000Y-7239000D01*
X8001000Y-7194000D01*
X7956000Y-7239000D01*
X8001000Y-7284000D01*
X8255000Y-7284000D02*
X8300000Y-7239000D01*
X8255000Y-7194000D01*
X8210000Y-7239000D01*
X8255000Y-7284000D01*
X17145000Y-8300000D02*
X17190000Y-8255000D01*
X17145000Y-8210000D01*
X17100000Y-8255000D01*
X17145000Y-8300000D01*
X17399000Y-8300000D02*
X17444000Y-8255000D01*
X17399000Y-8210000D01*
X17354000Y-8255000D01*
X17399000Y-8300000D01*
X16129000Y-7792000D02*
X16174000Y-7747000D01*
X16129000Y-7702000D01*
X16084000Y-7747000D01*
X16129000Y-7792000D01*
X16383000Y-7792000D02*
X16428000Y-7747000D01*
X16383000Y-7702000D01*
X16338000Y-7747000D01*
X16383000Y-7792000D01*
X8001000Y-8808000D02*
X8046000Y-8763000D01*
X8001000Y-8718000D01*
X7956000Y-8763000D01*
X8001000Y-8808000D01*
X8255000Y-8808000D02*
X8300000Y-8763000D01*
X8255000Y-8718000D01*
X8210000Y-8763000D01*
X8255000Y-8808000D01*
X12065000Y-8808000D02*
X12110000Y-8763000D01*
X12065000Y-8718000D01*
X12020000Y-8763000D01*
X12065000Y-8808000D01*
X12319000Y-8808000D02*
X12364000Y-8763000D01*
X12319000Y-8718000D01*
X12274000Y-8763000D01*
X12319000Y-8808000D01*
X14605000Y-7284000D02*
X14650000Y-7239000D01*
X14605000Y-7194000D01*
X14560000Y-7239000D01*
X14605000Y-7284000D01*
X14859000Y-7284000D02*
X14904000Y-7239000D01*
X14859000Y-7194000D01*
X14814000Y-7239000D01*
X14859000Y-7284000D01*
X13589000Y-9316000D02*
X13634000Y-9271000D01*
X13589000Y-9226000D01*
X13544000Y-9271000D01*
X13589000Y-9316000D01*
X13843000Y-9316000D02*
X13888000Y-9271000D01*
X13843000Y-9226000D01*
X13798000Y-9271000D01*
X13843000Y-9316000D01*
X17653000Y-9316000D02*
X17698000Y-9271000D01*
X17653000Y-9226000D01*
X17608000Y-9271000D01*
X17653000Y-9316000D01*
X17907000Y-9316000D02*
X17952000Y-9271000D01*
X17907000Y-9226000D01*
X17862000Y-9271000D01*
X17907000Y-9316000D01*
X14605000Y-6776000D02*
X14650000Y-6731000D01*
X14605000Y-6686000D01*
X14560000Y-6731000D01*
X14605000Y-6776000D01*
X14859000Y-6776000D02*
X14904000Y-6731000D01*
X14859000Y-6686000D01*
X14814000Y-6731000D01*
X14859000Y-6776000D01*
X12065000Y-7284000D02*
X12110000Y-7239000D01*
X12065000Y-7194000D01*
X12020000Y-7239000D01*
X12065000Y-7284000D01*
X12319000Y-7284000D02*
X12364000Y-7239000D01*
X12319000Y-7194000D01*
X12274000Y-7239000D01*
X12319000Y-7284000D01*
X12065000Y-8300000D02*
X12110000Y-8255000D01*
X12065000Y-8210000D01*
X12020000Y-8255000D01*
X12065000Y-8300000D01*
X12319000Y-8300000D02*
X12364000Y-8255000D01*
X12319000Y-8210000D01*
X12274000Y-8255000D01*
X12319000Y-8300000D01*
X12065000Y-6776000D02*
X12110000Y-6731000D01*
X12065000Y-6686000D01*
X12020000Y-6731000D01*
X12065000Y-6776000D01*
X12319000Y-6776000D02*
X12364000Y-6731000D01*
X12319000Y-6686000D01*
X12274000Y-6731000D01*
X12319000Y-6776000D01*
X16129000Y-6268000D02*
X16174000Y-6223000D01*
X16129000Y-6178000D01*
X16084000Y-6223000D01*
X16129000Y-6268000D01*
X16383000Y-6268000D02*
X16428000Y-6223000D01*
X16383000Y-6178000D01*
X16338000Y-6223000D01*
X16383000Y-6268000D01*
X14097000Y-6268000D02*
X14142000Y-6223000D01*
X14097000Y-6178000D01*
X14052000Y-6223000D01*
X14097000Y-6268000D01*
X14351000Y-6268000D02*
X14396000Y-6223000D01*
X14351000Y-6178000D01*
X14306000Y-6223000D01*
X14351000Y-6268000D01*
X16637000Y-9316000D02*
X16682000Y-9271000D01*
X16637000Y-9226000D01*
X16592000Y-9271000D01*
X16637000Y-9316000D01*
X16891000Y-9316000D02*
X16936000Y-9271000D01*
X16891000Y-9226000D01*
X16846000Y-9271000D01*
X16891000Y-9316000D01*
X9017000Y-9316000D02*
X9062000Y-9271000D01*
X9017000Y-9226000D01*
X8972000Y-9271000D01*
X9017000Y-9316000D01*
X9271000Y-9316000D02*
X9316000Y-9271000D01*
X9271000Y-9226000D01*
X9226000Y-9271000D01*
X9271000Y-9316000D01*
X17145000Y-7284000D02*
X17190000Y-7239000D01*
X17145000Y-7194000D01*
X17100000Y-7239000D01*
X17145000Y-7284000D01*
X17399000Y-7284000D02*
X17444000Y-7239000D01*
X17399000Y-7194000D01*
X17354000Y-7239000D01*
X17399000Y-7284000D01*
X8509000Y-9316000D02*
X8554000Y-9271000D01*
X8509000Y-9226000D01*
X8464000Y-9271000D01*
X8509000Y-9316000D01*
X8763000Y-9316000D02*
X8808000Y-9271000D01*
X8763000Y-9226000D01*
X8718000Y-9271000D01*
X8763000Y-9316000D01*
X16129000Y-9316000D02*
X16174000Y-9271000D01*
X16129000Y-9226000D01*
X16084000Y-9271000D01*
X16129000Y-9316000D01*
X16383000Y-9316000D02*
X16428000Y-9271000D01*
X16383000Y-9226000D01*
X16338000Y-9271000D01*
X16383000Y-9316000D01*
X9017000Y-6268000D02*
X9062000Y-6223000D01*
X9017000Y-6178000D01*
X8972000Y-6223000D01*
X9017000Y-6268000D01*
X9271000Y-6268000D02*
X9316000Y-6223000D01*
X9271000Y-6178000D01*
X9226000Y-6223000D01*
X9271000Y-6268000D01*
X7951000Y-11634000D02*
X8051000Y-11734000D01*
X8051000Y-11634000D02*
X7951000Y-11734000D01*
X8051000Y-11684000D02*
G75*
G03*
X8051000Y-11684000I-50000J0D01*
G01*
X8205000Y-11634000D02*
X8305000Y-11734000D01*
X8305000Y-11634000D02*
X8205000Y-11734000D01*
X8305000Y-11684000D02*
G75*
G03*
X8305000Y-11684000I-50000J0D01*
G01*
X8459000Y-11634000D02*
X8559000Y-11734000D01*
X8559000Y-11634000D02*
X8459000Y-11734000D01*
X8559000Y-11684000D02*
G75*
G03*
X8559000Y-11684000I-50000J0D01*
G01*
X8713000Y-11634000D02*
X8813000Y-11734000D01*
X8813000Y-11634000D02*
X8713000Y-11734000D01*
X8813000Y-11684000D02*
G75*
G03*
X8813000Y-11684000I-50000J0D01*
G01*
X8967000Y-11634000D02*
X9067000Y-11734000D01*
X9067000Y-11634000D02*
X8967000Y-11734000D01*
X9067000Y-11684000D02*
G75*
G03*
X9067000Y-11684000I-50000J0D01*
G01*
D11*
X286429Y-465714D02*
X286429Y-165714D01*
X357857Y-165714D01*
X400714Y-180000D01*
X429286Y-208571D01*
X443571Y-237143D01*
X457857Y-294286D01*
X457857Y-337143D01*
X443571Y-394286D01*
X429286Y-422857D01*
X400714Y-451428D01*
X357857Y-465714D01*
X286429Y-465714D01*
X586429Y-465714D02*
X586429Y-265714D01*
X586429Y-322857D02*
X600714Y-294286D01*
X615000Y-280000D01*
X643571Y-265714D01*
X672143Y-265714D01*
X772143Y-465714D02*
X772143Y-265714D01*
X772143Y-165714D02*
X757857Y-180000D01*
X772143Y-194286D01*
X786428Y-180000D01*
X772143Y-165714D01*
X772143Y-194286D01*
X957857Y-465714D02*
X929286Y-451428D01*
X915000Y-422857D01*
X915000Y-165714D01*
X1115000Y-465714D02*
X1086429Y-451428D01*
X1072143Y-422857D01*
X1072143Y-165714D01*
X1457857Y-465714D02*
X1457857Y-165714D01*
X1557857Y-380000D01*
X1657857Y-165714D01*
X1657857Y-465714D01*
X1929286Y-465714D02*
X1929286Y-308571D01*
X1915000Y-280000D01*
X1886428Y-265714D01*
X1829286Y-265714D01*
X1800714Y-280000D01*
X1929286Y-451428D02*
X1900714Y-465714D01*
X1829286Y-465714D01*
X1800714Y-451428D01*
X1786428Y-422857D01*
X1786428Y-394286D01*
X1800714Y-365714D01*
X1829286Y-351428D01*
X1900714Y-351428D01*
X1929286Y-337143D01*
X2072143Y-265714D02*
X2072143Y-565714D01*
X2072143Y-280000D02*
X2100714Y-265714D01*
X2157857Y-265714D01*
X2186429Y-280000D01*
X2200714Y-294286D01*
X2215000Y-322857D01*
X2215000Y-408571D01*
X2200714Y-437143D01*
X2186429Y-451428D01*
X2157857Y-465714D01*
X2100714Y-465714D01*
X2072143Y-451428D01*
X2343571Y-437143D02*
X2357857Y-451428D01*
X2343571Y-465714D01*
X2329286Y-451428D01*
X2343571Y-437143D01*
X2343571Y-465714D01*
X2343571Y-280000D02*
X2357857Y-294286D01*
X2343571Y-308571D01*
X2329286Y-294286D01*
X2343571Y-280000D01*
X2343571Y-308571D01*
X-40000Y-940000D02*
X0Y-980000D01*
X0Y-940000D02*
X-40000Y-980000D01*
X343571Y-795714D02*
X372143Y-795714D01*
X400714Y-810000D01*
X415000Y-824286D01*
X429286Y-852857D01*
X443571Y-910000D01*
X443571Y-981428D01*
X429286Y-1038571D01*
X415000Y-1067143D01*
X400714Y-1081429D01*
X372143Y-1095714D01*
X343571Y-1095714D01*
X315000Y-1081429D01*
X300714Y-1067143D01*
X286429Y-1038571D01*
X272143Y-981428D01*
X272143Y-910000D01*
X286429Y-852857D01*
X300714Y-824286D01*
X315000Y-810000D01*
X343571Y-795714D01*
X572143Y-1067143D02*
X586429Y-1081429D01*
X572143Y-1095714D01*
X557857Y-1081429D01*
X572143Y-1067143D01*
X572143Y-1095714D01*
X843571Y-895714D02*
X843571Y-1095714D01*
X772143Y-781428D02*
X700714Y-995714D01*
X886428Y-995714D01*
X1057857Y-795714D02*
X1086429Y-795714D01*
X1115000Y-810000D01*
X1129286Y-824286D01*
X1143571Y-852857D01*
X1157857Y-910000D01*
X1157857Y-981428D01*
X1143571Y-1038571D01*
X1129286Y-1067143D01*
X1115000Y-1081429D01*
X1086429Y-1095714D01*
X1057857Y-1095714D01*
X1029286Y-1081429D01*
X1015000Y-1067143D01*
X1000714Y-1038571D01*
X986428Y-981428D01*
X986428Y-910000D01*
X1000714Y-852857D01*
X1015000Y-824286D01*
X1029286Y-810000D01*
X1057857Y-795714D01*
X1286429Y-1095714D02*
X1286429Y-895714D01*
X1286429Y-924286D02*
X1300714Y-910000D01*
X1329286Y-895714D01*
X1372143Y-895714D01*
X1400714Y-910000D01*
X1415000Y-938571D01*
X1415000Y-1095714D01*
X1415000Y-938571D02*
X1429286Y-910000D01*
X1457857Y-895714D01*
X1500714Y-895714D01*
X1529286Y-910000D01*
X1543571Y-938571D01*
X1543571Y-1095714D01*
X1686428Y-1095714D02*
X1686428Y-895714D01*
X1686428Y-924286D02*
X1700714Y-910000D01*
X1729286Y-895714D01*
X1772143Y-895714D01*
X1800714Y-910000D01*
X1815000Y-938571D01*
X1815000Y-1095714D01*
X1815000Y-938571D02*
X1829286Y-910000D01*
X1857857Y-895714D01*
X1900714Y-895714D01*
X1929286Y-910000D01*
X1943571Y-938571D01*
X1943571Y-1095714D01*
X2529286Y-781428D02*
X2272143Y-1167143D01*
X2915000Y-795714D02*
X2943571Y-795714D01*
X2972143Y-810000D01*
X2986428Y-824286D01*
X3000714Y-852857D01*
X3015000Y-910000D01*
X3015000Y-981428D01*
X3000714Y-1038571D01*
X2986428Y-1067143D01*
X2972143Y-1081429D01*
X2943571Y-1095714D01*
X2915000Y-1095714D01*
X2886428Y-1081429D01*
X2872143Y-1067143D01*
X2857857Y-1038571D01*
X2843571Y-981428D01*
X2843571Y-910000D01*
X2857857Y-852857D01*
X2872143Y-824286D01*
X2886428Y-810000D01*
X2915000Y-795714D01*
X3143571Y-1067143D02*
X3157857Y-1081429D01*
X3143571Y-1095714D01*
X3129286Y-1081429D01*
X3143571Y-1067143D01*
X3143571Y-1095714D01*
X3343571Y-795714D02*
X3372143Y-795714D01*
X3400714Y-810000D01*
X3415000Y-824286D01*
X3429286Y-852857D01*
X3443571Y-910000D01*
X3443571Y-981428D01*
X3429286Y-1038571D01*
X3415000Y-1067143D01*
X3400714Y-1081429D01*
X3372143Y-1095714D01*
X3343571Y-1095714D01*
X3315000Y-1081429D01*
X3300714Y-1067143D01*
X3286428Y-1038571D01*
X3272143Y-981428D01*
X3272143Y-910000D01*
X3286428Y-852857D01*
X3300714Y-824286D01*
X3315000Y-810000D01*
X3343571Y-795714D01*
X3729286Y-1095714D02*
X3557857Y-1095714D01*
X3643571Y-1095714D02*
X3643571Y-795714D01*
X3615000Y-838571D01*
X3586428Y-867143D01*
X3557857Y-881428D01*
X3986428Y-795714D02*
X3929286Y-795714D01*
X3900714Y-810000D01*
X3886428Y-824286D01*
X3857857Y-867143D01*
X3843571Y-924286D01*
X3843571Y-1038571D01*
X3857857Y-1067143D01*
X3872143Y-1081429D01*
X3900714Y-1095714D01*
X3957857Y-1095714D01*
X3986428Y-1081429D01*
X4000714Y-1067143D01*
X4015000Y-1038571D01*
X4015000Y-967143D01*
X4000714Y-938571D01*
X3986428Y-924286D01*
X3957857Y-910000D01*
X3900714Y-910000D01*
X3872143Y-924286D01*
X3857857Y-938571D01*
X3843571Y-967143D01*
X4129286Y-795714D02*
X4129286Y-852857D01*
X4243571Y-795714D02*
X4243571Y-852857D01*
X4686429Y-1210000D02*
X4672143Y-1195714D01*
X4643571Y-1152857D01*
X4629286Y-1124286D01*
X4615000Y-1081429D01*
X4600714Y-1010000D01*
X4600714Y-952857D01*
X4615000Y-881428D01*
X4629286Y-838571D01*
X4643571Y-810000D01*
X4672143Y-767143D01*
X4686429Y-752857D01*
X4943571Y-795714D02*
X4800714Y-795714D01*
X4786429Y-938571D01*
X4800714Y-924286D01*
X4829286Y-910000D01*
X4900714Y-910000D01*
X4929286Y-924286D01*
X4943571Y-938571D01*
X4957857Y-967143D01*
X4957857Y-1038571D01*
X4943571Y-1067143D01*
X4929286Y-1081429D01*
X4900714Y-1095714D01*
X4829286Y-1095714D01*
X4800714Y-1081429D01*
X4786429Y-1067143D01*
X5315000Y-1095714D02*
X5315000Y-795714D01*
X5443571Y-1095714D02*
X5443571Y-938571D01*
X5429286Y-910000D01*
X5400714Y-895714D01*
X5357857Y-895714D01*
X5329286Y-910000D01*
X5315000Y-924286D01*
X5629286Y-1095714D02*
X5600714Y-1081429D01*
X5586429Y-1067143D01*
X5572143Y-1038571D01*
X5572143Y-952857D01*
X5586429Y-924286D01*
X5600714Y-910000D01*
X5629286Y-895714D01*
X5672143Y-895714D01*
X5700714Y-910000D01*
X5715000Y-924286D01*
X5729286Y-952857D01*
X5729286Y-1038571D01*
X5715000Y-1067143D01*
X5700714Y-1081429D01*
X5672143Y-1095714D01*
X5629286Y-1095714D01*
X5900714Y-1095714D02*
X5872143Y-1081429D01*
X5857857Y-1052857D01*
X5857857Y-795714D01*
X6129286Y-1081429D02*
X6100714Y-1095714D01*
X6043571Y-1095714D01*
X6015000Y-1081429D01*
X6000714Y-1052857D01*
X6000714Y-938571D01*
X6015000Y-910000D01*
X6043571Y-895714D01*
X6100714Y-895714D01*
X6129286Y-910000D01*
X6143571Y-938571D01*
X6143571Y-967143D01*
X6000714Y-995714D01*
X6257857Y-1081429D02*
X6286428Y-1095714D01*
X6343571Y-1095714D01*
X6372143Y-1081429D01*
X6386428Y-1052857D01*
X6386428Y-1038571D01*
X6372143Y-1010000D01*
X6343571Y-995714D01*
X6300714Y-995714D01*
X6272143Y-981428D01*
X6257857Y-952857D01*
X6257857Y-938571D01*
X6272143Y-910000D01*
X6300714Y-895714D01*
X6343571Y-895714D01*
X6372143Y-910000D01*
X6486428Y-1210000D02*
X6500714Y-1195714D01*
X6529286Y-1152857D01*
X6543571Y-1124286D01*
X6557857Y-1081429D01*
X6572143Y-1010000D01*
X6572143Y-952857D01*
X6557857Y-881428D01*
X6543571Y-838571D01*
X6529286Y-810000D01*
X6500714Y-767143D01*
X6486428Y-752857D01*
X0Y-1356000D02*
G75*
G03*
X0Y-1356000I-30000J0D01*
G01*
X343571Y-1191714D02*
X372143Y-1191714D01*
X400714Y-1206000D01*
X415000Y-1220286D01*
X429286Y-1248857D01*
X443571Y-1306000D01*
X443571Y-1377429D01*
X429286Y-1434571D01*
X415000Y-1463143D01*
X400714Y-1477428D01*
X372143Y-1491714D01*
X343571Y-1491714D01*
X315000Y-1477428D01*
X300714Y-1463143D01*
X286429Y-1434571D01*
X272143Y-1377429D01*
X272143Y-1306000D01*
X286429Y-1248857D01*
X300714Y-1220286D01*
X315000Y-1206000D01*
X343571Y-1191714D01*
X572143Y-1463143D02*
X586429Y-1477428D01*
X572143Y-1491714D01*
X557857Y-1477428D01*
X572143Y-1463143D01*
X572143Y-1491714D01*
X843571Y-1191714D02*
X786428Y-1191714D01*
X757857Y-1206000D01*
X743571Y-1220286D01*
X715000Y-1263143D01*
X700714Y-1320286D01*
X700714Y-1434571D01*
X715000Y-1463143D01*
X729286Y-1477428D01*
X757857Y-1491714D01*
X815000Y-1491714D01*
X843571Y-1477428D01*
X857857Y-1463143D01*
X872143Y-1434571D01*
X872143Y-1363143D01*
X857857Y-1334571D01*
X843571Y-1320286D01*
X815000Y-1306000D01*
X757857Y-1306000D01*
X729286Y-1320286D01*
X715000Y-1334571D01*
X700714Y-1363143D01*
X1057857Y-1191714D02*
X1086429Y-1191714D01*
X1115000Y-1206000D01*
X1129286Y-1220286D01*
X1143571Y-1248857D01*
X1157857Y-1306000D01*
X1157857Y-1377429D01*
X1143571Y-1434571D01*
X1129286Y-1463143D01*
X1115000Y-1477428D01*
X1086429Y-1491714D01*
X1057857Y-1491714D01*
X1029286Y-1477428D01*
X1015000Y-1463143D01*
X1000714Y-1434571D01*
X986428Y-1377429D01*
X986428Y-1306000D01*
X1000714Y-1248857D01*
X1015000Y-1220286D01*
X1029286Y-1206000D01*
X1057857Y-1191714D01*
X1286429Y-1491714D02*
X1286429Y-1291714D01*
X1286429Y-1320286D02*
X1300714Y-1306000D01*
X1329286Y-1291714D01*
X1372143Y-1291714D01*
X1400714Y-1306000D01*
X1415000Y-1334571D01*
X1415000Y-1491714D01*
X1415000Y-1334571D02*
X1429286Y-1306000D01*
X1457857Y-1291714D01*
X1500714Y-1291714D01*
X1529286Y-1306000D01*
X1543571Y-1334571D01*
X1543571Y-1491714D01*
X1686428Y-1491714D02*
X1686428Y-1291714D01*
X1686428Y-1320286D02*
X1700714Y-1306000D01*
X1729286Y-1291714D01*
X1772143Y-1291714D01*
X1800714Y-1306000D01*
X1815000Y-1334571D01*
X1815000Y-1491714D01*
X1815000Y-1334571D02*
X1829286Y-1306000D01*
X1857857Y-1291714D01*
X1900714Y-1291714D01*
X1929286Y-1306000D01*
X1943571Y-1334571D01*
X1943571Y-1491714D01*
X2529286Y-1177429D02*
X2272143Y-1563143D01*
X2915000Y-1191714D02*
X2943571Y-1191714D01*
X2972143Y-1206000D01*
X2986428Y-1220286D01*
X3000714Y-1248857D01*
X3015000Y-1306000D01*
X3015000Y-1377429D01*
X3000714Y-1434571D01*
X2986428Y-1463143D01*
X2972143Y-1477428D01*
X2943571Y-1491714D01*
X2915000Y-1491714D01*
X2886428Y-1477428D01*
X2872143Y-1463143D01*
X2857857Y-1434571D01*
X2843571Y-1377429D01*
X2843571Y-1306000D01*
X2857857Y-1248857D01*
X2872143Y-1220286D01*
X2886428Y-1206000D01*
X2915000Y-1191714D01*
X3143571Y-1463143D02*
X3157857Y-1477428D01*
X3143571Y-1491714D01*
X3129286Y-1477428D01*
X3143571Y-1463143D01*
X3143571Y-1491714D01*
X3343571Y-1191714D02*
X3372143Y-1191714D01*
X3400714Y-1206000D01*
X3415000Y-1220286D01*
X3429286Y-1248857D01*
X3443571Y-1306000D01*
X3443571Y-1377429D01*
X3429286Y-1434571D01*
X3415000Y-1463143D01*
X3400714Y-1477428D01*
X3372143Y-1491714D01*
X3343571Y-1491714D01*
X3315000Y-1477428D01*
X3300714Y-1463143D01*
X3286428Y-1434571D01*
X3272143Y-1377429D01*
X3272143Y-1306000D01*
X3286428Y-1248857D01*
X3300714Y-1220286D01*
X3315000Y-1206000D01*
X3343571Y-1191714D01*
X3557857Y-1220286D02*
X3572143Y-1206000D01*
X3600714Y-1191714D01*
X3672143Y-1191714D01*
X3700714Y-1206000D01*
X3715000Y-1220286D01*
X3729286Y-1248857D01*
X3729286Y-1277429D01*
X3715000Y-1320286D01*
X3543571Y-1491714D01*
X3729286Y-1491714D01*
X3986428Y-1291714D02*
X3986428Y-1491714D01*
X3915000Y-1177429D02*
X3843571Y-1391714D01*
X4029286Y-1391714D01*
X4129286Y-1191714D02*
X4129286Y-1248857D01*
X4243571Y-1191714D02*
X4243571Y-1248857D01*
X4686429Y-1606000D02*
X4672143Y-1591714D01*
X4643571Y-1548857D01*
X4629286Y-1520286D01*
X4615000Y-1477428D01*
X4600714Y-1406000D01*
X4600714Y-1348857D01*
X4615000Y-1277429D01*
X4629286Y-1234571D01*
X4643571Y-1206000D01*
X4672143Y-1163143D01*
X4686429Y-1148857D01*
X4957857Y-1491714D02*
X4786429Y-1491714D01*
X4872143Y-1491714D02*
X4872143Y-1191714D01*
X4843571Y-1234571D01*
X4815000Y-1263143D01*
X4786429Y-1277429D01*
X5315000Y-1491714D02*
X5315000Y-1191714D01*
X5443571Y-1491714D02*
X5443571Y-1334571D01*
X5429286Y-1306000D01*
X5400714Y-1291714D01*
X5357857Y-1291714D01*
X5329286Y-1306000D01*
X5315000Y-1320286D01*
X5629286Y-1491714D02*
X5600714Y-1477428D01*
X5586429Y-1463143D01*
X5572143Y-1434571D01*
X5572143Y-1348857D01*
X5586429Y-1320286D01*
X5600714Y-1306000D01*
X5629286Y-1291714D01*
X5672143Y-1291714D01*
X5700714Y-1306000D01*
X5715000Y-1320286D01*
X5729286Y-1348857D01*
X5729286Y-1434571D01*
X5715000Y-1463143D01*
X5700714Y-1477428D01*
X5672143Y-1491714D01*
X5629286Y-1491714D01*
X5900714Y-1491714D02*
X5872143Y-1477428D01*
X5857857Y-1448857D01*
X5857857Y-1191714D01*
X6129286Y-1477428D02*
X6100714Y-1491714D01*
X6043571Y-1491714D01*
X6015000Y-1477428D01*
X6000714Y-1448857D01*
X6000714Y-1334571D01*
X6015000Y-1306000D01*
X6043571Y-1291714D01*
X6100714Y-1291714D01*
X6129286Y-1306000D01*
X6143571Y-1334571D01*
X6143571Y-1363143D01*
X6000714Y-1391714D01*
X6243571Y-1606000D02*
X6257857Y-1591714D01*
X6286428Y-1548857D01*
X6300714Y-1520286D01*
X6315000Y-1477428D01*
X6329286Y-1406000D01*
X6329286Y-1348857D01*
X6315000Y-1277429D01*
X6300714Y-1234571D01*
X6286428Y-1206000D01*
X6257857Y-1163143D01*
X6243571Y-1148857D01*
X-35000Y-1717000D02*
X-35000Y-1787000D01*
X-70000Y-1752000D02*
X0Y-1752000D01*
X343571Y-1587714D02*
X372143Y-1587714D01*
X400714Y-1602000D01*
X415000Y-1616286D01*
X429286Y-1644857D01*
X443571Y-1702000D01*
X443571Y-1773428D01*
X429286Y-1830571D01*
X415000Y-1859143D01*
X400714Y-1873428D01*
X372143Y-1887714D01*
X343571Y-1887714D01*
X315000Y-1873428D01*
X300714Y-1859143D01*
X286429Y-1830571D01*
X272143Y-1773428D01*
X272143Y-1702000D01*
X286429Y-1644857D01*
X300714Y-1616286D01*
X315000Y-1602000D01*
X343571Y-1587714D01*
X572143Y-1859143D02*
X586429Y-1873428D01*
X572143Y-1887714D01*
X557857Y-1873428D01*
X572143Y-1859143D01*
X572143Y-1887714D01*
X686429Y-1587714D02*
X886428Y-1587714D01*
X757857Y-1887714D01*
X1057857Y-1587714D02*
X1086429Y-1587714D01*
X1115000Y-1602000D01*
X1129286Y-1616286D01*
X1143571Y-1644857D01*
X1157857Y-1702000D01*
X1157857Y-1773428D01*
X1143571Y-1830571D01*
X1129286Y-1859143D01*
X1115000Y-1873428D01*
X1086429Y-1887714D01*
X1057857Y-1887714D01*
X1029286Y-1873428D01*
X1015000Y-1859143D01*
X1000714Y-1830571D01*
X986428Y-1773428D01*
X986428Y-1702000D01*
X1000714Y-1644857D01*
X1015000Y-1616286D01*
X1029286Y-1602000D01*
X1057857Y-1587714D01*
X1286429Y-1887714D02*
X1286429Y-1687714D01*
X1286429Y-1716286D02*
X1300714Y-1702000D01*
X1329286Y-1687714D01*
X1372143Y-1687714D01*
X1400714Y-1702000D01*
X1415000Y-1730571D01*
X1415000Y-1887714D01*
X1415000Y-1730571D02*
X1429286Y-1702000D01*
X1457857Y-1687714D01*
X1500714Y-1687714D01*
X1529286Y-1702000D01*
X1543571Y-1730571D01*
X1543571Y-1887714D01*
X1686428Y-1887714D02*
X1686428Y-1687714D01*
X1686428Y-1716286D02*
X1700714Y-1702000D01*
X1729286Y-1687714D01*
X1772143Y-1687714D01*
X1800714Y-1702000D01*
X1815000Y-1730571D01*
X1815000Y-1887714D01*
X1815000Y-1730571D02*
X1829286Y-1702000D01*
X1857857Y-1687714D01*
X1900714Y-1687714D01*
X1929286Y-1702000D01*
X1943571Y-1730571D01*
X1943571Y-1887714D01*
X2529286Y-1573428D02*
X2272143Y-1959143D01*
X2915000Y-1587714D02*
X2943571Y-1587714D01*
X2972143Y-1602000D01*
X2986428Y-1616286D01*
X3000714Y-1644857D01*
X3015000Y-1702000D01*
X3015000Y-1773428D01*
X3000714Y-1830571D01*
X2986428Y-1859143D01*
X2972143Y-1873428D01*
X2943571Y-1887714D01*
X2915000Y-1887714D01*
X2886428Y-1873428D01*
X2872143Y-1859143D01*
X2857857Y-1830571D01*
X2843571Y-1773428D01*
X2843571Y-1702000D01*
X2857857Y-1644857D01*
X2872143Y-1616286D01*
X2886428Y-1602000D01*
X2915000Y-1587714D01*
X3143571Y-1859143D02*
X3157857Y-1873428D01*
X3143571Y-1887714D01*
X3129286Y-1873428D01*
X3143571Y-1859143D01*
X3143571Y-1887714D01*
X3343571Y-1587714D02*
X3372143Y-1587714D01*
X3400714Y-1602000D01*
X3415000Y-1616286D01*
X3429286Y-1644857D01*
X3443571Y-1702000D01*
X3443571Y-1773428D01*
X3429286Y-1830571D01*
X3415000Y-1859143D01*
X3400714Y-1873428D01*
X3372143Y-1887714D01*
X3343571Y-1887714D01*
X3315000Y-1873428D01*
X3300714Y-1859143D01*
X3286428Y-1830571D01*
X3272143Y-1773428D01*
X3272143Y-1702000D01*
X3286428Y-1644857D01*
X3300714Y-1616286D01*
X3315000Y-1602000D01*
X3343571Y-1587714D01*
X3557857Y-1616286D02*
X3572143Y-1602000D01*
X3600714Y-1587714D01*
X3672143Y-1587714D01*
X3700714Y-1602000D01*
X3715000Y-1616286D01*
X3729286Y-1644857D01*
X3729286Y-1673428D01*
X3715000Y-1716286D01*
X3543571Y-1887714D01*
X3729286Y-1887714D01*
X3900714Y-1716286D02*
X3872143Y-1702000D01*
X3857857Y-1687714D01*
X3843571Y-1659143D01*
X3843571Y-1644857D01*
X3857857Y-1616286D01*
X3872143Y-1602000D01*
X3900714Y-1587714D01*
X3957857Y-1587714D01*
X3986428Y-1602000D01*
X4000714Y-1616286D01*
X4015000Y-1644857D01*
X4015000Y-1659143D01*
X4000714Y-1687714D01*
X3986428Y-1702000D01*
X3957857Y-1716286D01*
X3900714Y-1716286D01*
X3872143Y-1730571D01*
X3857857Y-1744857D01*
X3843571Y-1773428D01*
X3843571Y-1830571D01*
X3857857Y-1859143D01*
X3872143Y-1873428D01*
X3900714Y-1887714D01*
X3957857Y-1887714D01*
X3986428Y-1873428D01*
X4000714Y-1859143D01*
X4015000Y-1830571D01*
X4015000Y-1773428D01*
X4000714Y-1744857D01*
X3986428Y-1730571D01*
X3957857Y-1716286D01*
X4129286Y-1587714D02*
X4129286Y-1644857D01*
X4243571Y-1587714D02*
X4243571Y-1644857D01*
X4686429Y-2002000D02*
X4672143Y-1987714D01*
X4643571Y-1944857D01*
X4629286Y-1916286D01*
X4615000Y-1873428D01*
X4600714Y-1802000D01*
X4600714Y-1744857D01*
X4615000Y-1673428D01*
X4629286Y-1630571D01*
X4643571Y-1602000D01*
X4672143Y-1559143D01*
X4686429Y-1544857D01*
X4929286Y-1587714D02*
X4872143Y-1587714D01*
X4843571Y-1602000D01*
X4829286Y-1616286D01*
X4800714Y-1659143D01*
X4786429Y-1716286D01*
X4786429Y-1830571D01*
X4800714Y-1859143D01*
X4815000Y-1873428D01*
X4843571Y-1887714D01*
X4900714Y-1887714D01*
X4929286Y-1873428D01*
X4943571Y-1859143D01*
X4957857Y-1830571D01*
X4957857Y-1759143D01*
X4943571Y-1730571D01*
X4929286Y-1716286D01*
X4900714Y-1702000D01*
X4843571Y-1702000D01*
X4815000Y-1716286D01*
X4800714Y-1730571D01*
X4786429Y-1759143D01*
X5215000Y-1687714D02*
X5215000Y-1887714D01*
X5143571Y-1573428D02*
X5072143Y-1787714D01*
X5257857Y-1787714D01*
X5600714Y-1887714D02*
X5600714Y-1587714D01*
X5729286Y-1887714D02*
X5729286Y-1730571D01*
X5715000Y-1702000D01*
X5686428Y-1687714D01*
X5643571Y-1687714D01*
X5615000Y-1702000D01*
X5600714Y-1716286D01*
X5915000Y-1887714D02*
X5886428Y-1873428D01*
X5872143Y-1859143D01*
X5857857Y-1830571D01*
X5857857Y-1744857D01*
X5872143Y-1716286D01*
X5886428Y-1702000D01*
X5915000Y-1687714D01*
X5957857Y-1687714D01*
X5986428Y-1702000D01*
X6000714Y-1716286D01*
X6015000Y-1744857D01*
X6015000Y-1830571D01*
X6000714Y-1859143D01*
X5986428Y-1873428D01*
X5957857Y-1887714D01*
X5915000Y-1887714D01*
X6186428Y-1887714D02*
X6157857Y-1873428D01*
X6143571Y-1844857D01*
X6143571Y-1587714D01*
X6415000Y-1873428D02*
X6386428Y-1887714D01*
X6329286Y-1887714D01*
X6300714Y-1873428D01*
X6286428Y-1844857D01*
X6286428Y-1730571D01*
X6300714Y-1702000D01*
X6329286Y-1687714D01*
X6386428Y-1687714D01*
X6415000Y-1702000D01*
X6429286Y-1730571D01*
X6429286Y-1759143D01*
X6286428Y-1787714D01*
X6543571Y-1873428D02*
X6572143Y-1887714D01*
X6629286Y-1887714D01*
X6657857Y-1873428D01*
X6672143Y-1844857D01*
X6672143Y-1830571D01*
X6657857Y-1802000D01*
X6629286Y-1787714D01*
X6586428Y-1787714D01*
X6557857Y-1773428D01*
X6543571Y-1744857D01*
X6543571Y-1730571D01*
X6557857Y-1702000D01*
X6586428Y-1687714D01*
X6629286Y-1687714D01*
X6657857Y-1702000D01*
X6772143Y-2002000D02*
X6786428Y-1987714D01*
X6815000Y-1944857D01*
X6829286Y-1916286D01*
X6843571Y-1873428D01*
X6857857Y-1802000D01*
X6857857Y-1744857D01*
X6843571Y-1673428D01*
X6829286Y-1630571D01*
X6815000Y-1602000D01*
X6786428Y-1559143D01*
X6772143Y-1544857D01*
X-11715Y-2176285D02*
X-11715Y-2119716D01*
X-68285Y-2119716D01*
X-68285Y-2176285D01*
X-11715Y-2176285D01*
X343571Y-1983714D02*
X372143Y-1983714D01*
X400714Y-1998000D01*
X415000Y-2012286D01*
X429286Y-2040857D01*
X443571Y-2098000D01*
X443571Y-2169429D01*
X429286Y-2226571D01*
X415000Y-2255143D01*
X400714Y-2269429D01*
X372143Y-2283714D01*
X343571Y-2283714D01*
X315000Y-2269429D01*
X300714Y-2255143D01*
X286429Y-2226571D01*
X272143Y-2169429D01*
X272143Y-2098000D01*
X286429Y-2040857D01*
X300714Y-2012286D01*
X315000Y-1998000D01*
X343571Y-1983714D01*
X572143Y-2255143D02*
X586429Y-2269429D01*
X572143Y-2283714D01*
X557857Y-2269429D01*
X572143Y-2255143D01*
X572143Y-2283714D01*
X757857Y-2112286D02*
X729286Y-2098000D01*
X715000Y-2083714D01*
X700714Y-2055143D01*
X700714Y-2040857D01*
X715000Y-2012286D01*
X729286Y-1998000D01*
X757857Y-1983714D01*
X815000Y-1983714D01*
X843571Y-1998000D01*
X857857Y-2012286D01*
X872143Y-2040857D01*
X872143Y-2055143D01*
X857857Y-2083714D01*
X843571Y-2098000D01*
X815000Y-2112286D01*
X757857Y-2112286D01*
X729286Y-2126571D01*
X715000Y-2140857D01*
X700714Y-2169429D01*
X700714Y-2226571D01*
X715000Y-2255143D01*
X729286Y-2269429D01*
X757857Y-2283714D01*
X815000Y-2283714D01*
X843571Y-2269429D01*
X857857Y-2255143D01*
X872143Y-2226571D01*
X872143Y-2169429D01*
X857857Y-2140857D01*
X843571Y-2126571D01*
X815000Y-2112286D01*
X1057857Y-1983714D02*
X1086429Y-1983714D01*
X1115000Y-1998000D01*
X1129286Y-2012286D01*
X1143571Y-2040857D01*
X1157857Y-2098000D01*
X1157857Y-2169429D01*
X1143571Y-2226571D01*
X1129286Y-2255143D01*
X1115000Y-2269429D01*
X1086429Y-2283714D01*
X1057857Y-2283714D01*
X1029286Y-2269429D01*
X1015000Y-2255143D01*
X1000714Y-2226571D01*
X986428Y-2169429D01*
X986428Y-2098000D01*
X1000714Y-2040857D01*
X1015000Y-2012286D01*
X1029286Y-1998000D01*
X1057857Y-1983714D01*
X1286429Y-2283714D02*
X1286429Y-2083714D01*
X1286429Y-2112286D02*
X1300714Y-2098000D01*
X1329286Y-2083714D01*
X1372143Y-2083714D01*
X1400714Y-2098000D01*
X1415000Y-2126571D01*
X1415000Y-2283714D01*
X1415000Y-2126571D02*
X1429286Y-2098000D01*
X1457857Y-2083714D01*
X1500714Y-2083714D01*
X1529286Y-2098000D01*
X1543571Y-2126571D01*
X1543571Y-2283714D01*
X1686428Y-2283714D02*
X1686428Y-2083714D01*
X1686428Y-2112286D02*
X1700714Y-2098000D01*
X1729286Y-2083714D01*
X1772143Y-2083714D01*
X1800714Y-2098000D01*
X1815000Y-2126571D01*
X1815000Y-2283714D01*
X1815000Y-2126571D02*
X1829286Y-2098000D01*
X1857857Y-2083714D01*
X1900714Y-2083714D01*
X1929286Y-2098000D01*
X1943571Y-2126571D01*
X1943571Y-2283714D01*
X2529286Y-1969428D02*
X2272143Y-2355143D01*
X2915000Y-1983714D02*
X2943571Y-1983714D01*
X2972143Y-1998000D01*
X2986428Y-2012286D01*
X3000714Y-2040857D01*
X3015000Y-2098000D01*
X3015000Y-2169429D01*
X3000714Y-2226571D01*
X2986428Y-2255143D01*
X2972143Y-2269429D01*
X2943571Y-2283714D01*
X2915000Y-2283714D01*
X2886428Y-2269429D01*
X2872143Y-2255143D01*
X2857857Y-2226571D01*
X2843571Y-2169429D01*
X2843571Y-2098000D01*
X2857857Y-2040857D01*
X2872143Y-2012286D01*
X2886428Y-1998000D01*
X2915000Y-1983714D01*
X3143571Y-2255143D02*
X3157857Y-2269429D01*
X3143571Y-2283714D01*
X3129286Y-2269429D01*
X3143571Y-2255143D01*
X3143571Y-2283714D01*
X3343571Y-1983714D02*
X3372143Y-1983714D01*
X3400714Y-1998000D01*
X3415000Y-2012286D01*
X3429286Y-2040857D01*
X3443571Y-2098000D01*
X3443571Y-2169429D01*
X3429286Y-2226571D01*
X3415000Y-2255143D01*
X3400714Y-2269429D01*
X3372143Y-2283714D01*
X3343571Y-2283714D01*
X3315000Y-2269429D01*
X3300714Y-2255143D01*
X3286428Y-2226571D01*
X3272143Y-2169429D01*
X3272143Y-2098000D01*
X3286428Y-2040857D01*
X3300714Y-2012286D01*
X3315000Y-1998000D01*
X3343571Y-1983714D01*
X3543571Y-1983714D02*
X3729286Y-1983714D01*
X3629286Y-2098000D01*
X3672143Y-2098000D01*
X3700714Y-2112286D01*
X3715000Y-2126571D01*
X3729286Y-2155143D01*
X3729286Y-2226571D01*
X3715000Y-2255143D01*
X3700714Y-2269429D01*
X3672143Y-2283714D01*
X3586428Y-2283714D01*
X3557857Y-2269429D01*
X3543571Y-2255143D01*
X4015000Y-2283714D02*
X3843571Y-2283714D01*
X3929286Y-2283714D02*
X3929286Y-1983714D01*
X3900714Y-2026571D01*
X3872143Y-2055143D01*
X3843571Y-2069428D01*
X4129286Y-1983714D02*
X4129286Y-2040857D01*
X4243571Y-1983714D02*
X4243571Y-2040857D01*
X4686429Y-2398000D02*
X4672143Y-2383714D01*
X4643571Y-2340857D01*
X4629286Y-2312286D01*
X4615000Y-2269429D01*
X4600714Y-2198000D01*
X4600714Y-2140857D01*
X4615000Y-2069428D01*
X4629286Y-2026571D01*
X4643571Y-1998000D01*
X4672143Y-1955143D01*
X4686429Y-1940857D01*
X4772143Y-1983714D02*
X4972143Y-1983714D01*
X4843571Y-2283714D01*
X5072143Y-2012286D02*
X5086429Y-1998000D01*
X5115000Y-1983714D01*
X5186429Y-1983714D01*
X5215000Y-1998000D01*
X5229286Y-2012286D01*
X5243571Y-2040857D01*
X5243571Y-2069428D01*
X5229286Y-2112286D01*
X5057857Y-2283714D01*
X5243571Y-2283714D01*
X5600714Y-2283714D02*
X5600714Y-1983714D01*
X5729286Y-2283714D02*
X5729286Y-2126571D01*
X5715000Y-2098000D01*
X5686428Y-2083714D01*
X5643571Y-2083714D01*
X5615000Y-2098000D01*
X5600714Y-2112286D01*
X5915000Y-2283714D02*
X5886428Y-2269429D01*
X5872143Y-2255143D01*
X5857857Y-2226571D01*
X5857857Y-2140857D01*
X5872143Y-2112286D01*
X5886428Y-2098000D01*
X5915000Y-2083714D01*
X5957857Y-2083714D01*
X5986428Y-2098000D01*
X6000714Y-2112286D01*
X6015000Y-2140857D01*
X6015000Y-2226571D01*
X6000714Y-2255143D01*
X5986428Y-2269429D01*
X5957857Y-2283714D01*
X5915000Y-2283714D01*
X6186428Y-2283714D02*
X6157857Y-2269429D01*
X6143571Y-2240857D01*
X6143571Y-1983714D01*
X6415000Y-2269429D02*
X6386428Y-2283714D01*
X6329286Y-2283714D01*
X6300714Y-2269429D01*
X6286428Y-2240857D01*
X6286428Y-2126571D01*
X6300714Y-2098000D01*
X6329286Y-2083714D01*
X6386428Y-2083714D01*
X6415000Y-2098000D01*
X6429286Y-2126571D01*
X6429286Y-2155143D01*
X6286428Y-2183714D01*
X6543571Y-2269429D02*
X6572143Y-2283714D01*
X6629286Y-2283714D01*
X6657857Y-2269429D01*
X6672143Y-2240857D01*
X6672143Y-2226571D01*
X6657857Y-2198000D01*
X6629286Y-2183714D01*
X6586428Y-2183714D01*
X6557857Y-2169429D01*
X6543571Y-2140857D01*
X6543571Y-2126571D01*
X6557857Y-2098000D01*
X6586428Y-2083714D01*
X6629286Y-2083714D01*
X6657857Y-2098000D01*
X6772143Y-2398000D02*
X6786428Y-2383714D01*
X6815000Y-2340857D01*
X6829286Y-2312286D01*
X6843571Y-2269429D01*
X6857857Y-2198000D01*
X6857857Y-2140857D01*
X6843571Y-2069428D01*
X6829286Y-2026571D01*
X6815000Y-1998000D01*
X6786428Y-1955143D01*
X6772143Y-1940857D01*
X-45000Y-2589000D02*
X0Y-2544000D01*
X-45000Y-2499000D01*
X-90000Y-2544000D01*
X-45000Y-2589000D01*
X343571Y-2379714D02*
X372143Y-2379714D01*
X400714Y-2394000D01*
X415000Y-2408286D01*
X429286Y-2436857D01*
X443571Y-2494000D01*
X443571Y-2565429D01*
X429286Y-2622571D01*
X415000Y-2651143D01*
X400714Y-2665429D01*
X372143Y-2679714D01*
X343571Y-2679714D01*
X315000Y-2665429D01*
X300714Y-2651143D01*
X286429Y-2622571D01*
X272143Y-2565429D01*
X272143Y-2494000D01*
X286429Y-2436857D01*
X300714Y-2408286D01*
X315000Y-2394000D01*
X343571Y-2379714D01*
X572143Y-2651143D02*
X586429Y-2665429D01*
X572143Y-2679714D01*
X557857Y-2665429D01*
X572143Y-2651143D01*
X572143Y-2679714D01*
X729286Y-2679714D02*
X786428Y-2679714D01*
X815000Y-2665429D01*
X829286Y-2651143D01*
X857857Y-2608286D01*
X872143Y-2551143D01*
X872143Y-2436857D01*
X857857Y-2408286D01*
X843571Y-2394000D01*
X815000Y-2379714D01*
X757857Y-2379714D01*
X729286Y-2394000D01*
X715000Y-2408286D01*
X700714Y-2436857D01*
X700714Y-2508286D01*
X715000Y-2536857D01*
X729286Y-2551143D01*
X757857Y-2565429D01*
X815000Y-2565429D01*
X843571Y-2551143D01*
X857857Y-2536857D01*
X872143Y-2508286D01*
X1057857Y-2379714D02*
X1086429Y-2379714D01*
X1115000Y-2394000D01*
X1129286Y-2408286D01*
X1143571Y-2436857D01*
X1157857Y-2494000D01*
X1157857Y-2565429D01*
X1143571Y-2622571D01*
X1129286Y-2651143D01*
X1115000Y-2665429D01*
X1086429Y-2679714D01*
X1057857Y-2679714D01*
X1029286Y-2665429D01*
X1015000Y-2651143D01*
X1000714Y-2622571D01*
X986428Y-2565429D01*
X986428Y-2494000D01*
X1000714Y-2436857D01*
X1015000Y-2408286D01*
X1029286Y-2394000D01*
X1057857Y-2379714D01*
X1286429Y-2679714D02*
X1286429Y-2479714D01*
X1286429Y-2508286D02*
X1300714Y-2494000D01*
X1329286Y-2479714D01*
X1372143Y-2479714D01*
X1400714Y-2494000D01*
X1415000Y-2522571D01*
X1415000Y-2679714D01*
X1415000Y-2522571D02*
X1429286Y-2494000D01*
X1457857Y-2479714D01*
X1500714Y-2479714D01*
X1529286Y-2494000D01*
X1543571Y-2522571D01*
X1543571Y-2679714D01*
X1686428Y-2679714D02*
X1686428Y-2479714D01*
X1686428Y-2508286D02*
X1700714Y-2494000D01*
X1729286Y-2479714D01*
X1772143Y-2479714D01*
X1800714Y-2494000D01*
X1815000Y-2522571D01*
X1815000Y-2679714D01*
X1815000Y-2522571D02*
X1829286Y-2494000D01*
X1857857Y-2479714D01*
X1900714Y-2479714D01*
X1929286Y-2494000D01*
X1943571Y-2522571D01*
X1943571Y-2679714D01*
X2529286Y-2365429D02*
X2272143Y-2751143D01*
X2915000Y-2379714D02*
X2943571Y-2379714D01*
X2972143Y-2394000D01*
X2986428Y-2408286D01*
X3000714Y-2436857D01*
X3015000Y-2494000D01*
X3015000Y-2565429D01*
X3000714Y-2622571D01*
X2986428Y-2651143D01*
X2972143Y-2665429D01*
X2943571Y-2679714D01*
X2915000Y-2679714D01*
X2886428Y-2665429D01*
X2872143Y-2651143D01*
X2857857Y-2622571D01*
X2843571Y-2565429D01*
X2843571Y-2494000D01*
X2857857Y-2436857D01*
X2872143Y-2408286D01*
X2886428Y-2394000D01*
X2915000Y-2379714D01*
X3143571Y-2651143D02*
X3157857Y-2665429D01*
X3143571Y-2679714D01*
X3129286Y-2665429D01*
X3143571Y-2651143D01*
X3143571Y-2679714D01*
X3343571Y-2379714D02*
X3372143Y-2379714D01*
X3400714Y-2394000D01*
X3415000Y-2408286D01*
X3429286Y-2436857D01*
X3443571Y-2494000D01*
X3443571Y-2565429D01*
X3429286Y-2622571D01*
X3415000Y-2651143D01*
X3400714Y-2665429D01*
X3372143Y-2679714D01*
X3343571Y-2679714D01*
X3315000Y-2665429D01*
X3300714Y-2651143D01*
X3286428Y-2622571D01*
X3272143Y-2565429D01*
X3272143Y-2494000D01*
X3286428Y-2436857D01*
X3300714Y-2408286D01*
X3315000Y-2394000D01*
X3343571Y-2379714D01*
X3543571Y-2379714D02*
X3729286Y-2379714D01*
X3629286Y-2494000D01*
X3672143Y-2494000D01*
X3700714Y-2508286D01*
X3715000Y-2522571D01*
X3729286Y-2551143D01*
X3729286Y-2622571D01*
X3715000Y-2651143D01*
X3700714Y-2665429D01*
X3672143Y-2679714D01*
X3586428Y-2679714D01*
X3557857Y-2665429D01*
X3543571Y-2651143D01*
X4000714Y-2379714D02*
X3857857Y-2379714D01*
X3843571Y-2522571D01*
X3857857Y-2508286D01*
X3886428Y-2494000D01*
X3957857Y-2494000D01*
X3986428Y-2508286D01*
X4000714Y-2522571D01*
X4015000Y-2551143D01*
X4015000Y-2622571D01*
X4000714Y-2651143D01*
X3986428Y-2665429D01*
X3957857Y-2679714D01*
X3886428Y-2679714D01*
X3857857Y-2665429D01*
X3843571Y-2651143D01*
X4129286Y-2379714D02*
X4129286Y-2436857D01*
X4243571Y-2379714D02*
X4243571Y-2436857D01*
X4686429Y-2794000D02*
X4672143Y-2779714D01*
X4643571Y-2736857D01*
X4629286Y-2708286D01*
X4615000Y-2665429D01*
X4600714Y-2594000D01*
X4600714Y-2536857D01*
X4615000Y-2465429D01*
X4629286Y-2422571D01*
X4643571Y-2394000D01*
X4672143Y-2351143D01*
X4686429Y-2336857D01*
X4957857Y-2679714D02*
X4786429Y-2679714D01*
X4872143Y-2679714D02*
X4872143Y-2379714D01*
X4843571Y-2422571D01*
X4815000Y-2451143D01*
X4786429Y-2465429D01*
X5072143Y-2408286D02*
X5086429Y-2394000D01*
X5115000Y-2379714D01*
X5186429Y-2379714D01*
X5215000Y-2394000D01*
X5229286Y-2408286D01*
X5243571Y-2436857D01*
X5243571Y-2465429D01*
X5229286Y-2508286D01*
X5057857Y-2679714D01*
X5243571Y-2679714D01*
X5429286Y-2379714D02*
X5457857Y-2379714D01*
X5486429Y-2394000D01*
X5500714Y-2408286D01*
X5515000Y-2436857D01*
X5529286Y-2494000D01*
X5529286Y-2565429D01*
X5515000Y-2622571D01*
X5500714Y-2651143D01*
X5486429Y-2665429D01*
X5457857Y-2679714D01*
X5429286Y-2679714D01*
X5400714Y-2665429D01*
X5386429Y-2651143D01*
X5372143Y-2622571D01*
X5357857Y-2565429D01*
X5357857Y-2494000D01*
X5372143Y-2436857D01*
X5386429Y-2408286D01*
X5400714Y-2394000D01*
X5429286Y-2379714D01*
X5886428Y-2679714D02*
X5886428Y-2379714D01*
X6015000Y-2679714D02*
X6015000Y-2522571D01*
X6000714Y-2494000D01*
X5972143Y-2479714D01*
X5929286Y-2479714D01*
X5900714Y-2494000D01*
X5886428Y-2508286D01*
X6200714Y-2679714D02*
X6172143Y-2665429D01*
X6157857Y-2651143D01*
X6143571Y-2622571D01*
X6143571Y-2536857D01*
X6157857Y-2508286D01*
X6172143Y-2494000D01*
X6200714Y-2479714D01*
X6243571Y-2479714D01*
X6272143Y-2494000D01*
X6286428Y-2508286D01*
X6300714Y-2536857D01*
X6300714Y-2622571D01*
X6286428Y-2651143D01*
X6272143Y-2665429D01*
X6243571Y-2679714D01*
X6200714Y-2679714D01*
X6472143Y-2679714D02*
X6443571Y-2665429D01*
X6429286Y-2636857D01*
X6429286Y-2379714D01*
X6700714Y-2665429D02*
X6672143Y-2679714D01*
X6615000Y-2679714D01*
X6586428Y-2665429D01*
X6572143Y-2636857D01*
X6572143Y-2522571D01*
X6586428Y-2494000D01*
X6615000Y-2479714D01*
X6672143Y-2479714D01*
X6700714Y-2494000D01*
X6715000Y-2522571D01*
X6715000Y-2551143D01*
X6572143Y-2579714D01*
X6829286Y-2665429D02*
X6857857Y-2679714D01*
X6915000Y-2679714D01*
X6943571Y-2665429D01*
X6957857Y-2636857D01*
X6957857Y-2622571D01*
X6943571Y-2594000D01*
X6915000Y-2579714D01*
X6872143Y-2579714D01*
X6843571Y-2565429D01*
X6829286Y-2536857D01*
X6829286Y-2522571D01*
X6843571Y-2494000D01*
X6872143Y-2479714D01*
X6915000Y-2479714D01*
X6943571Y-2494000D01*
X7057857Y-2794000D02*
X7072143Y-2779714D01*
X7100714Y-2736857D01*
X7115000Y-2708286D01*
X7129286Y-2665429D01*
X7143571Y-2594000D01*
X7143571Y-2536857D01*
X7129286Y-2465429D01*
X7115000Y-2422571D01*
X7100714Y-2394000D01*
X7072143Y-2351143D01*
X7057857Y-2336857D01*
X-100000Y-2890000D02*
X0Y-2990000D01*
X0Y-2890000D02*
X-100000Y-2990000D01*
X0Y-2940000D02*
G75*
G03*
X0Y-2940000I-50000J0D01*
G01*
X443571Y-3075714D02*
X272143Y-3075714D01*
X357857Y-3075714D02*
X357857Y-2775714D01*
X329286Y-2818571D01*
X300714Y-2847143D01*
X272143Y-2861428D01*
X572143Y-3047143D02*
X586429Y-3061428D01*
X572143Y-3075714D01*
X557857Y-3061428D01*
X572143Y-3047143D01*
X572143Y-3075714D01*
X772143Y-2775714D02*
X800714Y-2775714D01*
X829286Y-2790000D01*
X843571Y-2804286D01*
X857857Y-2832857D01*
X872143Y-2890000D01*
X872143Y-2961428D01*
X857857Y-3018571D01*
X843571Y-3047143D01*
X829286Y-3061428D01*
X800714Y-3075714D01*
X772143Y-3075714D01*
X743571Y-3061428D01*
X729286Y-3047143D01*
X715000Y-3018571D01*
X700714Y-2961428D01*
X700714Y-2890000D01*
X715000Y-2832857D01*
X729286Y-2804286D01*
X743571Y-2790000D01*
X772143Y-2775714D01*
X1057857Y-2775714D02*
X1086429Y-2775714D01*
X1115000Y-2790000D01*
X1129286Y-2804286D01*
X1143571Y-2832857D01*
X1157857Y-2890000D01*
X1157857Y-2961428D01*
X1143571Y-3018571D01*
X1129286Y-3047143D01*
X1115000Y-3061428D01*
X1086429Y-3075714D01*
X1057857Y-3075714D01*
X1029286Y-3061428D01*
X1015000Y-3047143D01*
X1000714Y-3018571D01*
X986428Y-2961428D01*
X986428Y-2890000D01*
X1000714Y-2832857D01*
X1015000Y-2804286D01*
X1029286Y-2790000D01*
X1057857Y-2775714D01*
X1286429Y-3075714D02*
X1286429Y-2875714D01*
X1286429Y-2904286D02*
X1300714Y-2890000D01*
X1329286Y-2875714D01*
X1372143Y-2875714D01*
X1400714Y-2890000D01*
X1415000Y-2918571D01*
X1415000Y-3075714D01*
X1415000Y-2918571D02*
X1429286Y-2890000D01*
X1457857Y-2875714D01*
X1500714Y-2875714D01*
X1529286Y-2890000D01*
X1543571Y-2918571D01*
X1543571Y-3075714D01*
X1686428Y-3075714D02*
X1686428Y-2875714D01*
X1686428Y-2904286D02*
X1700714Y-2890000D01*
X1729286Y-2875714D01*
X1772143Y-2875714D01*
X1800714Y-2890000D01*
X1815000Y-2918571D01*
X1815000Y-3075714D01*
X1815000Y-2918571D02*
X1829286Y-2890000D01*
X1857857Y-2875714D01*
X1900714Y-2875714D01*
X1929286Y-2890000D01*
X1943571Y-2918571D01*
X1943571Y-3075714D01*
X2529286Y-2761429D02*
X2272143Y-3147143D01*
X2915000Y-2775714D02*
X2943571Y-2775714D01*
X2972143Y-2790000D01*
X2986428Y-2804286D01*
X3000714Y-2832857D01*
X3015000Y-2890000D01*
X3015000Y-2961428D01*
X3000714Y-3018571D01*
X2986428Y-3047143D01*
X2972143Y-3061428D01*
X2943571Y-3075714D01*
X2915000Y-3075714D01*
X2886428Y-3061428D01*
X2872143Y-3047143D01*
X2857857Y-3018571D01*
X2843571Y-2961428D01*
X2843571Y-2890000D01*
X2857857Y-2832857D01*
X2872143Y-2804286D01*
X2886428Y-2790000D01*
X2915000Y-2775714D01*
X3143571Y-3047143D02*
X3157857Y-3061428D01*
X3143571Y-3075714D01*
X3129286Y-3061428D01*
X3143571Y-3047143D01*
X3143571Y-3075714D01*
X3343571Y-2775714D02*
X3372143Y-2775714D01*
X3400714Y-2790000D01*
X3415000Y-2804286D01*
X3429286Y-2832857D01*
X3443571Y-2890000D01*
X3443571Y-2961428D01*
X3429286Y-3018571D01*
X3415000Y-3047143D01*
X3400714Y-3061428D01*
X3372143Y-3075714D01*
X3343571Y-3075714D01*
X3315000Y-3061428D01*
X3300714Y-3047143D01*
X3286428Y-3018571D01*
X3272143Y-2961428D01*
X3272143Y-2890000D01*
X3286428Y-2832857D01*
X3300714Y-2804286D01*
X3315000Y-2790000D01*
X3343571Y-2775714D01*
X3543571Y-2775714D02*
X3729286Y-2775714D01*
X3629286Y-2890000D01*
X3672143Y-2890000D01*
X3700714Y-2904286D01*
X3715000Y-2918571D01*
X3729286Y-2947143D01*
X3729286Y-3018571D01*
X3715000Y-3047143D01*
X3700714Y-3061428D01*
X3672143Y-3075714D01*
X3586428Y-3075714D01*
X3557857Y-3061428D01*
X3543571Y-3047143D01*
X3872143Y-3075714D02*
X3929286Y-3075714D01*
X3957857Y-3061428D01*
X3972143Y-3047143D01*
X4000714Y-3004286D01*
X4015000Y-2947143D01*
X4015000Y-2832857D01*
X4000714Y-2804286D01*
X3986428Y-2790000D01*
X3957857Y-2775714D01*
X3900714Y-2775714D01*
X3872143Y-2790000D01*
X3857857Y-2804286D01*
X3843571Y-2832857D01*
X3843571Y-2904286D01*
X3857857Y-2932857D01*
X3872143Y-2947143D01*
X3900714Y-2961428D01*
X3957857Y-2961428D01*
X3986428Y-2947143D01*
X4000714Y-2932857D01*
X4015000Y-2904286D01*
X4129286Y-2775714D02*
X4129286Y-2832857D01*
X4243571Y-2775714D02*
X4243571Y-2832857D01*
X4686429Y-3190000D02*
X4672143Y-3175714D01*
X4643571Y-3132857D01*
X4629286Y-3104286D01*
X4615000Y-3061428D01*
X4600714Y-2990000D01*
X4600714Y-2932857D01*
X4615000Y-2861428D01*
X4629286Y-2818571D01*
X4643571Y-2790000D01*
X4672143Y-2747143D01*
X4686429Y-2732857D01*
X4943571Y-2775714D02*
X4800714Y-2775714D01*
X4786429Y-2918571D01*
X4800714Y-2904286D01*
X4829286Y-2890000D01*
X4900714Y-2890000D01*
X4929286Y-2904286D01*
X4943571Y-2918571D01*
X4957857Y-2947143D01*
X4957857Y-3018571D01*
X4943571Y-3047143D01*
X4929286Y-3061428D01*
X4900714Y-3075714D01*
X4829286Y-3075714D01*
X4800714Y-3061428D01*
X4786429Y-3047143D01*
X5315000Y-3075714D02*
X5315000Y-2775714D01*
X5443571Y-3075714D02*
X5443571Y-2918571D01*
X5429286Y-2890000D01*
X5400714Y-2875714D01*
X5357857Y-2875714D01*
X5329286Y-2890000D01*
X5315000Y-2904286D01*
X5629286Y-3075714D02*
X5600714Y-3061428D01*
X5586429Y-3047143D01*
X5572143Y-3018571D01*
X5572143Y-2932857D01*
X5586429Y-2904286D01*
X5600714Y-2890000D01*
X5629286Y-2875714D01*
X5672143Y-2875714D01*
X5700714Y-2890000D01*
X5715000Y-2904286D01*
X5729286Y-2932857D01*
X5729286Y-3018571D01*
X5715000Y-3047143D01*
X5700714Y-3061428D01*
X5672143Y-3075714D01*
X5629286Y-3075714D01*
X5900714Y-3075714D02*
X5872143Y-3061428D01*
X5857857Y-3032857D01*
X5857857Y-2775714D01*
X6129286Y-3061428D02*
X6100714Y-3075714D01*
X6043571Y-3075714D01*
X6015000Y-3061428D01*
X6000714Y-3032857D01*
X6000714Y-2918571D01*
X6015000Y-2890000D01*
X6043571Y-2875714D01*
X6100714Y-2875714D01*
X6129286Y-2890000D01*
X6143571Y-2918571D01*
X6143571Y-2947143D01*
X6000714Y-2975714D01*
X6257857Y-3061428D02*
X6286428Y-3075714D01*
X6343571Y-3075714D01*
X6372143Y-3061428D01*
X6386428Y-3032857D01*
X6386428Y-3018571D01*
X6372143Y-2990000D01*
X6343571Y-2975714D01*
X6300714Y-2975714D01*
X6272143Y-2961428D01*
X6257857Y-2932857D01*
X6257857Y-2918571D01*
X6272143Y-2890000D01*
X6300714Y-2875714D01*
X6343571Y-2875714D01*
X6372143Y-2890000D01*
X6486428Y-3190000D02*
X6500714Y-3175714D01*
X6529286Y-3132857D01*
X6543571Y-3104286D01*
X6557857Y-3061428D01*
X6572143Y-2990000D01*
X6572143Y-2932857D01*
X6557857Y-2861428D01*
X6543571Y-2818571D01*
X6529286Y-2790000D01*
X6500714Y-2747143D01*
X6486428Y-2732857D01*
M02*
