%TF.GenerationSoftware,KiCad,Pcbnew,5.1.6+dfsg1-1*%
%TF.CreationDate,2020-12-16T15:54:42-07:00*%
%TF.ProjectId,7segment,37736567-6d65-46e7-942e-6b696361645f,rev?*%
%TF.SameCoordinates,Original*%
%TF.FileFunction,Soldermask,Bot*%
%TF.FilePolarity,Negative*%
%FSLAX46Y46*%
G04 Gerber Fmt 4.6, Leading zero omitted, Abs format (unit mm)*
G04 Created by KiCad (PCBNEW 5.1.6+dfsg1-1) date 2020-12-16 15:54:42*
%MOMM*%
%LPD*%
G01*
G04 APERTURE LIST*
%ADD10O,1.700000X1.700000*%
%ADD11R,1.700000X1.700000*%
%ADD12O,1.800000X1.800000*%
%ADD13R,1.800000X1.800000*%
%ADD14C,1.700000*%
%ADD15C,2.100000*%
%ADD16O,1.500000X1.500000*%
%ADD17C,1.500000*%
%ADD18C,1.900000*%
%ADD19R,1.900000X1.900000*%
G04 APERTURE END LIST*
D10*
%TO.C,U1*%
X97790000Y-109220000D03*
X80010000Y-101600000D03*
X95250000Y-109220000D03*
X82550000Y-101600000D03*
X92710000Y-109220000D03*
X85090000Y-101600000D03*
X90170000Y-109220000D03*
X87630000Y-101600000D03*
X87630000Y-109220000D03*
X90170000Y-101600000D03*
X85090000Y-109220000D03*
X92710000Y-101600000D03*
X82550000Y-109220000D03*
X95250000Y-101600000D03*
X80010000Y-109220000D03*
D11*
X97790000Y-101600000D03*
%TD*%
D10*
%TO.C,U4*%
X173990000Y-109220000D03*
X156210000Y-101600000D03*
X171450000Y-109220000D03*
X158750000Y-101600000D03*
X168910000Y-109220000D03*
X161290000Y-101600000D03*
X166370000Y-109220000D03*
X163830000Y-101600000D03*
X163830000Y-109220000D03*
X166370000Y-101600000D03*
X161290000Y-109220000D03*
X168910000Y-101600000D03*
X158750000Y-109220000D03*
X171450000Y-101600000D03*
X156210000Y-109220000D03*
D11*
X173990000Y-101600000D03*
%TD*%
D10*
%TO.C,U3*%
X148590000Y-109220000D03*
X130810000Y-101600000D03*
X146050000Y-109220000D03*
X133350000Y-101600000D03*
X143510000Y-109220000D03*
X135890000Y-101600000D03*
X140970000Y-109220000D03*
X138430000Y-101600000D03*
X138430000Y-109220000D03*
X140970000Y-101600000D03*
X135890000Y-109220000D03*
X143510000Y-101600000D03*
X133350000Y-109220000D03*
X146050000Y-101600000D03*
X130810000Y-109220000D03*
D11*
X148590000Y-101600000D03*
%TD*%
D12*
%TO.C,J1*%
X80010000Y-116840000D03*
X82550000Y-116840000D03*
X85090000Y-116840000D03*
X87630000Y-116840000D03*
D13*
X90170000Y-116840000D03*
%TD*%
D10*
%TO.C,U2*%
X123190000Y-109220000D03*
X105410000Y-101600000D03*
X120650000Y-109220000D03*
X107950000Y-101600000D03*
X118110000Y-109220000D03*
X110490000Y-101600000D03*
X115570000Y-109220000D03*
X113030000Y-101600000D03*
X113030000Y-109220000D03*
X115570000Y-101600000D03*
X110490000Y-109220000D03*
X118110000Y-101600000D03*
X107950000Y-109220000D03*
X120650000Y-101600000D03*
X105410000Y-109220000D03*
D11*
X123190000Y-101600000D03*
%TD*%
D14*
%TO.C,C4*%
X177800000Y-102950000D03*
X177800000Y-107950000D03*
%TD*%
%TO.C,C3*%
X152400000Y-102950000D03*
X152400000Y-107950000D03*
%TD*%
%TO.C,C1*%
X101600000Y-102950000D03*
X101600000Y-107950000D03*
%TD*%
D15*
%TO.C,C2*%
X127000000Y-102950000D03*
D14*
X127000000Y-107950000D03*
%TD*%
D16*
%TO.C,R32*%
X180340000Y-96520000D03*
D17*
X175260000Y-96520000D03*
%TD*%
D16*
%TO.C,R31*%
X167640000Y-82550000D03*
D17*
X162560000Y-82550000D03*
%TD*%
D16*
%TO.C,R30*%
X167640000Y-72390000D03*
D17*
X162560000Y-72390000D03*
%TD*%
D16*
%TO.C,R29*%
X167640000Y-87630000D03*
D17*
X162560000Y-87630000D03*
%TD*%
D16*
%TO.C,R28*%
X167640000Y-96520000D03*
D17*
X162560000Y-96520000D03*
%TD*%
D16*
%TO.C,R27*%
X167640000Y-85090000D03*
D17*
X162560000Y-85090000D03*
%TD*%
D16*
%TO.C,R26*%
X167640000Y-69850000D03*
D17*
X162560000Y-69850000D03*
%TD*%
D16*
%TO.C,R25*%
X167640000Y-67310000D03*
D17*
X162560000Y-67310000D03*
%TD*%
D16*
%TO.C,R24*%
X154940000Y-96520000D03*
D17*
X149860000Y-96520000D03*
%TD*%
D16*
%TO.C,R23*%
X142240000Y-82550000D03*
D17*
X137160000Y-82550000D03*
%TD*%
D16*
%TO.C,R22*%
X142240000Y-72390000D03*
D17*
X137160000Y-72390000D03*
%TD*%
D16*
%TO.C,R21*%
X142240000Y-87630000D03*
D17*
X137160000Y-87630000D03*
%TD*%
D16*
%TO.C,R20*%
X142240000Y-96520000D03*
D17*
X137160000Y-96520000D03*
%TD*%
D16*
%TO.C,R19*%
X142240000Y-85090000D03*
D17*
X137160000Y-85090000D03*
%TD*%
D16*
%TO.C,R18*%
X142240000Y-69850000D03*
D17*
X137160000Y-69850000D03*
%TD*%
D16*
%TO.C,R17*%
X142240000Y-67310000D03*
D17*
X137160000Y-67310000D03*
%TD*%
D16*
%TO.C,R16*%
X129540000Y-96520000D03*
D17*
X124460000Y-96520000D03*
%TD*%
D16*
%TO.C,R15*%
X116840000Y-82550000D03*
D17*
X111760000Y-82550000D03*
%TD*%
D16*
%TO.C,R14*%
X116840000Y-72390000D03*
D17*
X111760000Y-72390000D03*
%TD*%
D16*
%TO.C,R13*%
X116840000Y-87630000D03*
D17*
X111760000Y-87630000D03*
%TD*%
D16*
%TO.C,R12*%
X116840000Y-96520000D03*
D17*
X111760000Y-96520000D03*
%TD*%
D16*
%TO.C,R11*%
X116840000Y-85090000D03*
D17*
X111760000Y-85090000D03*
%TD*%
D16*
%TO.C,R10*%
X116840000Y-69850000D03*
D17*
X111760000Y-69850000D03*
%TD*%
D16*
%TO.C,R9*%
X116840000Y-67310000D03*
D17*
X111760000Y-67310000D03*
%TD*%
D16*
%TO.C,R8*%
X104140000Y-96520000D03*
D17*
X99060000Y-96520000D03*
%TD*%
D16*
%TO.C,R7*%
X91440000Y-82550000D03*
D17*
X86360000Y-82550000D03*
%TD*%
D16*
%TO.C,R6*%
X91440000Y-72390000D03*
D17*
X86360000Y-72390000D03*
%TD*%
D16*
%TO.C,R5*%
X91440000Y-87630000D03*
D17*
X86360000Y-87630000D03*
%TD*%
D16*
%TO.C,R4*%
X91440000Y-96520000D03*
D17*
X86360000Y-96520000D03*
%TD*%
D16*
%TO.C,R3*%
X91440000Y-85090000D03*
D17*
X86360000Y-85090000D03*
%TD*%
D16*
%TO.C,R2*%
X91440000Y-69850000D03*
D17*
X86360000Y-69850000D03*
%TD*%
D16*
%TO.C,R1*%
X91440000Y-67310000D03*
D17*
X86360000Y-67310000D03*
%TD*%
D18*
%TO.C,D60*%
X179070000Y-92710000D03*
D19*
X176530000Y-92710000D03*
%TD*%
D18*
%TO.C,D59*%
X168910000Y-77470000D03*
D19*
X166370000Y-77470000D03*
%TD*%
D18*
%TO.C,D58*%
X158750000Y-67310000D03*
D19*
X156210000Y-67310000D03*
%TD*%
D18*
%TO.C,D57*%
X158750000Y-82550000D03*
D19*
X156210000Y-82550000D03*
%TD*%
D18*
%TO.C,D56*%
X168910000Y-92710000D03*
D19*
X166370000Y-92710000D03*
%TD*%
D18*
%TO.C,D55*%
X173990000Y-87630000D03*
D19*
X171450000Y-87630000D03*
%TD*%
D18*
%TO.C,D54*%
X173990000Y-72390000D03*
D19*
X171450000Y-72390000D03*
%TD*%
D18*
%TO.C,D53*%
X168910000Y-62230000D03*
D19*
X166370000Y-62230000D03*
%TD*%
D18*
%TO.C,D52*%
X153670000Y-92710000D03*
D19*
X151130000Y-92710000D03*
%TD*%
D18*
%TO.C,D51*%
X143510000Y-77470000D03*
D19*
X140970000Y-77470000D03*
%TD*%
D18*
%TO.C,D50*%
X133350000Y-67310000D03*
D19*
X130810000Y-67310000D03*
%TD*%
D18*
%TO.C,D49*%
X133350000Y-82550000D03*
D19*
X130810000Y-82550000D03*
%TD*%
D18*
%TO.C,D48*%
X143510000Y-92710000D03*
D19*
X140970000Y-92710000D03*
%TD*%
D18*
%TO.C,D47*%
X148590000Y-87630000D03*
D19*
X146050000Y-87630000D03*
%TD*%
D18*
%TO.C,D46*%
X148590000Y-72390000D03*
D19*
X146050000Y-72390000D03*
%TD*%
D18*
%TO.C,D45*%
X143510000Y-62230000D03*
D19*
X140970000Y-62230000D03*
%TD*%
D18*
%TO.C,D44*%
X163830000Y-77470000D03*
D19*
X161290000Y-77470000D03*
%TD*%
D18*
%TO.C,D43*%
X158750000Y-72390000D03*
D19*
X156210000Y-72390000D03*
%TD*%
D18*
%TO.C,D42*%
X158750000Y-87630000D03*
D19*
X156210000Y-87630000D03*
%TD*%
D18*
%TO.C,D41*%
X163830000Y-92710000D03*
D19*
X161290000Y-92710000D03*
%TD*%
D18*
%TO.C,D40*%
X173990000Y-82550000D03*
D19*
X171450000Y-82550000D03*
%TD*%
D18*
%TO.C,D39*%
X173990000Y-67310000D03*
D19*
X171450000Y-67310000D03*
%TD*%
D18*
%TO.C,D38*%
X163830000Y-62230000D03*
D19*
X161290000Y-62230000D03*
%TD*%
D18*
%TO.C,D37*%
X138430000Y-77470000D03*
D19*
X135890000Y-77470000D03*
%TD*%
D18*
%TO.C,D36*%
X133350000Y-72390000D03*
D19*
X130810000Y-72390000D03*
%TD*%
D18*
%TO.C,D35*%
X133350000Y-87630000D03*
D19*
X130810000Y-87630000D03*
%TD*%
D18*
%TO.C,D34*%
X138430000Y-92710000D03*
D19*
X135890000Y-92710000D03*
%TD*%
D18*
%TO.C,D33*%
X148590000Y-82550000D03*
D19*
X146050000Y-82550000D03*
%TD*%
D18*
%TO.C,D32*%
X148590000Y-67310000D03*
D19*
X146050000Y-67310000D03*
%TD*%
D18*
%TO.C,D31*%
X138430000Y-62230000D03*
D19*
X135890000Y-62230000D03*
%TD*%
D18*
%TO.C,D30*%
X128270000Y-92710000D03*
D19*
X125730000Y-92710000D03*
%TD*%
D18*
%TO.C,D29*%
X118110000Y-77470000D03*
D19*
X115570000Y-77470000D03*
%TD*%
D18*
%TO.C,D28*%
X107950000Y-67310000D03*
D19*
X105410000Y-67310000D03*
%TD*%
D18*
%TO.C,D27*%
X107950000Y-82550000D03*
D19*
X105410000Y-82550000D03*
%TD*%
D18*
%TO.C,D26*%
X118110000Y-92710000D03*
D19*
X115570000Y-92710000D03*
%TD*%
D18*
%TO.C,D25*%
X123190000Y-87630000D03*
D19*
X120650000Y-87630000D03*
%TD*%
D18*
%TO.C,D24*%
X123190000Y-72390000D03*
D19*
X120650000Y-72390000D03*
%TD*%
D18*
%TO.C,D23*%
X118110000Y-62230000D03*
D19*
X115570000Y-62230000D03*
%TD*%
D18*
%TO.C,D22*%
X102870000Y-92710000D03*
D19*
X100330000Y-92710000D03*
%TD*%
D18*
%TO.C,D21*%
X92710000Y-77470000D03*
D19*
X90170000Y-77470000D03*
%TD*%
D18*
%TO.C,D20*%
X82550000Y-67310000D03*
D19*
X80010000Y-67310000D03*
%TD*%
D18*
%TO.C,D19*%
X82550000Y-82550000D03*
D19*
X80010000Y-82550000D03*
%TD*%
D18*
%TO.C,D18*%
X92710000Y-92710000D03*
D19*
X90170000Y-92710000D03*
%TD*%
D18*
%TO.C,D17*%
X97790000Y-87630000D03*
D19*
X95250000Y-87630000D03*
%TD*%
D18*
%TO.C,D16*%
X97790000Y-72390000D03*
D19*
X95250000Y-72390000D03*
%TD*%
D18*
%TO.C,D15*%
X92710000Y-62230000D03*
D19*
X90170000Y-62230000D03*
%TD*%
D18*
%TO.C,D14*%
X113030000Y-77470000D03*
D19*
X110490000Y-77470000D03*
%TD*%
D18*
%TO.C,D13*%
X107950000Y-72390000D03*
D19*
X105410000Y-72390000D03*
%TD*%
D18*
%TO.C,D12*%
X107950000Y-87630000D03*
D19*
X105410000Y-87630000D03*
%TD*%
D18*
%TO.C,D11*%
X113030000Y-92710000D03*
D19*
X110490000Y-92710000D03*
%TD*%
D18*
%TO.C,D10*%
X123190000Y-82550000D03*
D19*
X120650000Y-82550000D03*
%TD*%
D18*
%TO.C,D9*%
X123190000Y-67310000D03*
D19*
X120650000Y-67310000D03*
%TD*%
D18*
%TO.C,D8*%
X113030000Y-62230000D03*
D19*
X110490000Y-62230000D03*
%TD*%
D18*
%TO.C,D7*%
X87630000Y-77470000D03*
D19*
X85090000Y-77470000D03*
%TD*%
D18*
%TO.C,D6*%
X82550000Y-72390000D03*
D19*
X80010000Y-72390000D03*
%TD*%
D18*
%TO.C,D5*%
X82550000Y-87630000D03*
D19*
X80010000Y-87630000D03*
%TD*%
D18*
%TO.C,D4*%
X87630000Y-92710000D03*
D19*
X85090000Y-92710000D03*
%TD*%
D18*
%TO.C,D3*%
X97790000Y-82550000D03*
D19*
X95250000Y-82550000D03*
%TD*%
D18*
%TO.C,D2*%
X97790000Y-67310000D03*
D19*
X95250000Y-67310000D03*
%TD*%
D18*
%TO.C,D1*%
X87630000Y-62230000D03*
D19*
X85090000Y-62230000D03*
%TD*%
M02*
