M48
; DRILL file {KiCad 5.1.6+dfsg1-1} date Wed Dec 16 15:54:44 2020
; FORMAT={-:-/ absolute / inch / decimal}
; #@! TF.CreationDate,2020-12-16T15:54:44-07:00
; #@! TF.GenerationSoftware,Kicad,Pcbnew,5.1.6+dfsg1-1
; #@! TF.FileFunction,Plated,1,2,PTH
FMAT,2
INCH
T1C0.0157
T2C0.0236
T3C0.0276
T4C0.0315
T5C0.0354
T6C0.0394
%
G90
G05
T1
X4.22Y-4.18
X4.85Y-4.2
X5.22Y-4.18
X5.85Y-4.2
X6.22Y-4.18
X6.85Y-4.2
T2
X3.45Y-4.45
T3
X6.4Y-2.65
X6.6Y-2.65
X5.4Y-3.35
X5.6Y-3.35
X5.4Y-2.65
X5.6Y-2.65
X4.4Y-3.45
X4.6Y-3.45
X5.4Y-2.75
X5.6Y-2.75
X3.9Y-3.8
X4.1Y-3.8
X6.4Y-2.85
X6.6Y-2.85
X5.4Y-3.45
X5.6Y-3.45
X6.4Y-3.25
X6.6Y-3.25
X3.4Y-2.85
X3.6Y-2.85
X3.4Y-3.25
X3.6Y-3.25
X5.9Y-3.8
X6.1Y-3.8
X4.4Y-2.65
X4.6Y-2.65
X4.4Y-3.8
X4.6Y-3.8
X4.4Y-2.75
X4.6Y-2.75
X4.9Y-3.8
X5.1Y-3.8
X4.4Y-3.25
X4.6Y-3.25
X6.4Y-2.75
X6.6Y-2.75
X6.9Y-3.8
X7.1Y-3.8
X6.4Y-3.45
X6.6Y-3.45
X6.4Y-3.8
X6.6Y-3.8
X5.4Y-2.85
X5.6Y-2.85
X3.4Y-3.8
X3.6Y-3.8
X4.4Y-3.35
X4.6Y-3.35
X4.4Y-2.85
X4.6Y-2.85
X3.4Y-3.45
X3.6Y-3.45
X5.4Y-3.25
X5.6Y-3.25
X3.4Y-2.65
X3.6Y-2.65
X3.4Y-3.35
X3.6Y-3.35
X3.4Y-2.75
X3.6Y-2.75
X6.4Y-3.35
X6.6Y-3.35
X5.4Y-3.8
X5.6Y-3.8
T4
X4.15Y-4.0
X4.15Y-4.3
X4.25Y-4.0
X4.25Y-4.3
X4.35Y-4.0
X4.35Y-4.3
X4.45Y-4.0
X4.45Y-4.3
X4.55Y-4.0
X4.55Y-4.3
X4.65Y-4.0
X4.65Y-4.3
X4.75Y-4.0
X4.75Y-4.3
X4.85Y-4.0
X4.85Y-4.3
X4.0Y-4.0531
X4.0Y-4.25
X5.15Y-4.0
X5.15Y-4.3
X5.25Y-4.0
X5.25Y-4.3
X5.35Y-4.0
X5.35Y-4.3
X5.45Y-4.0
X5.45Y-4.3
X5.55Y-4.0
X5.55Y-4.3
X5.65Y-4.0
X5.65Y-4.3
X5.75Y-4.0
X5.75Y-4.3
X5.85Y-4.0
X5.85Y-4.3
X3.15Y-4.0
X3.15Y-4.3
X3.25Y-4.0
X3.25Y-4.3
X3.35Y-4.0
X3.35Y-4.3
X3.45Y-4.0
X3.45Y-4.3
X3.55Y-4.0
X3.55Y-4.3
X3.65Y-4.0
X3.65Y-4.3
X3.75Y-4.0
X3.75Y-4.3
X3.85Y-4.0
X3.85Y-4.3
X6.15Y-4.0
X6.15Y-4.3
X6.25Y-4.0
X6.25Y-4.3
X6.35Y-4.0
X6.35Y-4.3
X6.45Y-4.0
X6.45Y-4.3
X6.55Y-4.0
X6.55Y-4.3
X6.65Y-4.0
X6.65Y-4.3
X6.75Y-4.0
X6.75Y-4.3
X6.85Y-4.0
X6.85Y-4.3
X7.0Y-4.0531
X7.0Y-4.25
X5.0Y-4.0531
X5.0Y-4.25
X6.0Y-4.0531
X6.0Y-4.25
T5
X6.15Y-2.85
X6.25Y-2.85
X4.55Y-3.05
X4.65Y-3.05
X6.75Y-3.45
X6.85Y-3.45
X6.55Y-3.05
X6.65Y-3.05
X3.95Y-3.65
X4.05Y-3.65
X4.55Y-2.45
X4.65Y-2.45
X4.15Y-2.85
X4.25Y-2.85
X4.55Y-3.65
X4.65Y-3.65
X5.75Y-3.45
X5.85Y-3.45
X5.15Y-2.65
X5.25Y-2.65
X3.75Y-2.85
X3.85Y-2.85
X4.15Y-2.65
X4.25Y-2.65
X5.75Y-3.25
X5.85Y-3.25
X4.15Y-3.45
X4.25Y-3.45
X6.15Y-2.65
X6.25Y-2.65
X3.35Y-3.05
X3.45Y-3.05
X4.35Y-3.05
X4.45Y-3.05
X5.95Y-3.65
X6.05Y-3.65
X6.15Y-3.25
X6.25Y-3.25
X5.15Y-3.45
X5.25Y-3.45
X5.55Y-3.05
X5.65Y-3.05
X4.35Y-2.45
X4.45Y-2.45
X6.55Y-2.45
X6.65Y-2.45
X3.75Y-3.25
X3.85Y-3.25
X3.15Y-3.25
X3.25Y-3.25
X3.75Y-2.65
X3.85Y-2.65
X4.95Y-3.65
X5.05Y-3.65
X4.35Y-3.65
X4.45Y-3.65
X5.15Y-2.85
X5.25Y-2.85
X6.15Y-3.45
X6.25Y-3.45
X4.15Y-3.25
X4.25Y-3.25
X3.15Y-2.65
X3.25Y-2.65
X5.35Y-3.05
X5.45Y-3.05
X3.35Y-2.45
X3.45Y-2.45
X6.75Y-2.65
X6.85Y-2.65
X5.35Y-2.45
X5.45Y-2.45
X5.55Y-3.65
X5.65Y-3.65
X5.15Y-3.25
X5.25Y-3.25
X3.75Y-3.45
X3.85Y-3.45
X3.55Y-3.05
X3.65Y-3.05
X3.15Y-2.85
X3.25Y-2.85
X6.75Y-3.25
X6.85Y-3.25
X6.35Y-3.05
X6.45Y-3.05
X3.15Y-3.45
X3.25Y-3.45
X4.75Y-3.45
X4.85Y-3.45
X5.75Y-2.85
X5.85Y-2.85
X5.35Y-3.65
X5.45Y-3.65
X6.95Y-3.65
X7.05Y-3.65
X5.75Y-2.65
X5.85Y-2.65
X4.75Y-2.85
X4.85Y-2.85
X4.75Y-3.25
X4.85Y-3.25
X4.75Y-2.65
X4.85Y-2.65
X6.35Y-2.45
X6.45Y-2.45
X5.55Y-2.45
X5.65Y-2.45
X6.55Y-3.65
X6.65Y-3.65
X3.55Y-3.65
X3.65Y-3.65
X6.75Y-2.85
X6.85Y-2.85
X3.35Y-3.65
X3.45Y-3.65
X6.35Y-3.65
X6.45Y-3.65
X3.55Y-2.45
X3.65Y-2.45
T6
X3.15Y-4.6
X3.25Y-4.6
X3.35Y-4.6
X3.45Y-4.6
X3.55Y-4.6
T0
M30
