%TF.GenerationSoftware,KiCad,Pcbnew,5.1.6+dfsg1-1*%
%TF.CreationDate,2020-12-16T15:54:42-07:00*%
%TF.ProjectId,7segment,37736567-6d65-46e7-942e-6b696361645f,rev?*%
%TF.SameCoordinates,Original*%
%TF.FileFunction,Copper,L1,Top*%
%TF.FilePolarity,Positive*%
%FSLAX46Y46*%
G04 Gerber Fmt 4.6, Leading zero omitted, Abs format (unit mm)*
G04 Created by KiCad (PCBNEW 5.1.6+dfsg1-1) date 2020-12-16 15:54:42*
%MOMM*%
%LPD*%
G01*
G04 APERTURE LIST*
%TA.AperFunction,ComponentPad*%
%ADD10O,1.600000X1.600000*%
%TD*%
%TA.AperFunction,ComponentPad*%
%ADD11R,1.600000X1.600000*%
%TD*%
%TA.AperFunction,ComponentPad*%
%ADD12O,1.700000X1.700000*%
%TD*%
%TA.AperFunction,ComponentPad*%
%ADD13R,1.700000X1.700000*%
%TD*%
%TA.AperFunction,ComponentPad*%
%ADD14C,1.600000*%
%TD*%
%TA.AperFunction,ComponentPad*%
%ADD15O,1.400000X1.400000*%
%TD*%
%TA.AperFunction,ComponentPad*%
%ADD16C,1.400000*%
%TD*%
%TA.AperFunction,ComponentPad*%
%ADD17C,1.800000*%
%TD*%
%TA.AperFunction,ComponentPad*%
%ADD18R,1.800000X1.800000*%
%TD*%
%TA.AperFunction,ViaPad*%
%ADD19C,1.200000*%
%TD*%
%TA.AperFunction,ViaPad*%
%ADD20C,0.800000*%
%TD*%
%TA.AperFunction,Conductor*%
%ADD21C,1.000000*%
%TD*%
%TA.AperFunction,Conductor*%
%ADD22C,0.250000*%
%TD*%
G04 APERTURE END LIST*
D10*
%TO.P,U1,16*%
%TO.N,+5V*%
X97790000Y-109220000D03*
%TO.P,U1,8*%
%TO.N,GND*%
X80010000Y-101600000D03*
%TO.P,U1,15*%
%TO.N,Net-(D15-Pad2)*%
X95250000Y-109220000D03*
%TO.P,U1,7*%
%TO.N,Net-(D22-Pad2)*%
X82550000Y-101600000D03*
%TO.P,U1,14*%
%TO.N,MOSI*%
X92710000Y-109220000D03*
%TO.P,U1,6*%
%TO.N,Net-(D21-Pad2)*%
X85090000Y-101600000D03*
%TO.P,U1,13*%
%TO.N,GND*%
X90170000Y-109220000D03*
%TO.P,U1,5*%
%TO.N,Net-(D20-Pad2)*%
X87630000Y-101600000D03*
%TO.P,U1,12*%
%TO.N,SS*%
X87630000Y-109220000D03*
%TO.P,U1,4*%
%TO.N,Net-(D19-Pad2)*%
X90170000Y-101600000D03*
%TO.P,U1,11*%
%TO.N,CLK*%
X85090000Y-109220000D03*
%TO.P,U1,3*%
%TO.N,Net-(D18-Pad2)*%
X92710000Y-101600000D03*
%TO.P,U1,10*%
%TO.N,+5V*%
X82550000Y-109220000D03*
%TO.P,U1,2*%
%TO.N,Net-(D17-Pad2)*%
X95250000Y-101600000D03*
%TO.P,U1,9*%
%TO.N,D2*%
X80010000Y-109220000D03*
D11*
%TO.P,U1,1*%
%TO.N,Net-(D16-Pad2)*%
X97790000Y-101600000D03*
%TD*%
D10*
%TO.P,U4,16*%
%TO.N,+5V*%
X173990000Y-109220000D03*
%TO.P,U4,8*%
%TO.N,GND*%
X156210000Y-101600000D03*
%TO.P,U4,15*%
%TO.N,Net-(D53-Pad2)*%
X171450000Y-109220000D03*
%TO.P,U4,7*%
%TO.N,Net-(D60-Pad2)*%
X158750000Y-101600000D03*
%TO.P,U4,14*%
%TO.N,D4*%
X168910000Y-109220000D03*
%TO.P,U4,6*%
%TO.N,Net-(D59-Pad2)*%
X161290000Y-101600000D03*
%TO.P,U4,13*%
%TO.N,GND*%
X166370000Y-109220000D03*
%TO.P,U4,5*%
%TO.N,Net-(D58-Pad2)*%
X163830000Y-101600000D03*
%TO.P,U4,12*%
%TO.N,SS*%
X163830000Y-109220000D03*
%TO.P,U4,4*%
%TO.N,Net-(D57-Pad2)*%
X166370000Y-101600000D03*
%TO.P,U4,11*%
%TO.N,CLK*%
X161290000Y-109220000D03*
%TO.P,U4,3*%
%TO.N,Net-(D56-Pad2)*%
X168910000Y-101600000D03*
%TO.P,U4,10*%
%TO.N,+5V*%
X158750000Y-109220000D03*
%TO.P,U4,2*%
%TO.N,Net-(D55-Pad2)*%
X171450000Y-101600000D03*
%TO.P,U4,9*%
%TO.N,Net-(U4-Pad9)*%
X156210000Y-109220000D03*
D11*
%TO.P,U4,1*%
%TO.N,Net-(D54-Pad2)*%
X173990000Y-101600000D03*
%TD*%
D10*
%TO.P,U3,16*%
%TO.N,+5V*%
X148590000Y-109220000D03*
%TO.P,U3,8*%
%TO.N,GND*%
X130810000Y-101600000D03*
%TO.P,U3,15*%
%TO.N,Net-(D45-Pad2)*%
X146050000Y-109220000D03*
%TO.P,U3,7*%
%TO.N,Net-(D52-Pad2)*%
X133350000Y-101600000D03*
%TO.P,U3,14*%
%TO.N,D3*%
X143510000Y-109220000D03*
%TO.P,U3,6*%
%TO.N,Net-(D51-Pad2)*%
X135890000Y-101600000D03*
%TO.P,U3,13*%
%TO.N,GND*%
X140970000Y-109220000D03*
%TO.P,U3,5*%
%TO.N,Net-(D50-Pad2)*%
X138430000Y-101600000D03*
%TO.P,U3,12*%
%TO.N,SS*%
X138430000Y-109220000D03*
%TO.P,U3,4*%
%TO.N,Net-(D49-Pad2)*%
X140970000Y-101600000D03*
%TO.P,U3,11*%
%TO.N,CLK*%
X135890000Y-109220000D03*
%TO.P,U3,3*%
%TO.N,Net-(D48-Pad2)*%
X143510000Y-101600000D03*
%TO.P,U3,10*%
%TO.N,+5V*%
X133350000Y-109220000D03*
%TO.P,U3,2*%
%TO.N,Net-(D47-Pad2)*%
X146050000Y-101600000D03*
%TO.P,U3,9*%
%TO.N,D4*%
X130810000Y-109220000D03*
D11*
%TO.P,U3,1*%
%TO.N,Net-(D46-Pad2)*%
X148590000Y-101600000D03*
%TD*%
D12*
%TO.P,J1,5*%
%TO.N,MOSI*%
X80010000Y-116840000D03*
%TO.P,J1,4*%
%TO.N,CLK*%
X82550000Y-116840000D03*
%TO.P,J1,3*%
%TO.N,SS*%
X85090000Y-116840000D03*
%TO.P,J1,2*%
%TO.N,+5V*%
X87630000Y-116840000D03*
D13*
%TO.P,J1,1*%
%TO.N,GND*%
X90170000Y-116840000D03*
%TD*%
D10*
%TO.P,U2,16*%
%TO.N,+5V*%
X123190000Y-109220000D03*
%TO.P,U2,8*%
%TO.N,GND*%
X105410000Y-101600000D03*
%TO.P,U2,15*%
%TO.N,Net-(D23-Pad2)*%
X120650000Y-109220000D03*
%TO.P,U2,7*%
%TO.N,Net-(D30-Pad2)*%
X107950000Y-101600000D03*
%TO.P,U2,14*%
%TO.N,D2*%
X118110000Y-109220000D03*
%TO.P,U2,6*%
%TO.N,Net-(D29-Pad2)*%
X110490000Y-101600000D03*
%TO.P,U2,13*%
%TO.N,GND*%
X115570000Y-109220000D03*
%TO.P,U2,5*%
%TO.N,Net-(D28-Pad2)*%
X113030000Y-101600000D03*
%TO.P,U2,12*%
%TO.N,SS*%
X113030000Y-109220000D03*
%TO.P,U2,4*%
%TO.N,Net-(D27-Pad2)*%
X115570000Y-101600000D03*
%TO.P,U2,11*%
%TO.N,CLK*%
X110490000Y-109220000D03*
%TO.P,U2,3*%
%TO.N,Net-(D26-Pad2)*%
X118110000Y-101600000D03*
%TO.P,U2,10*%
%TO.N,+5V*%
X107950000Y-109220000D03*
%TO.P,U2,2*%
%TO.N,Net-(D25-Pad2)*%
X120650000Y-101600000D03*
%TO.P,U2,9*%
%TO.N,D3*%
X105410000Y-109220000D03*
D11*
%TO.P,U2,1*%
%TO.N,Net-(D24-Pad2)*%
X123190000Y-101600000D03*
%TD*%
D14*
%TO.P,C4,2*%
%TO.N,GND*%
X177800000Y-102950000D03*
%TO.P,C4,1*%
%TO.N,+5V*%
X177800000Y-107950000D03*
%TD*%
%TO.P,C3,2*%
%TO.N,GND*%
X152400000Y-102950000D03*
%TO.P,C3,1*%
%TO.N,+5V*%
X152400000Y-107950000D03*
%TD*%
%TO.P,C1,2*%
%TO.N,GND*%
X101600000Y-102950000D03*
%TO.P,C1,1*%
%TO.N,+5V*%
X101600000Y-107950000D03*
%TD*%
%TO.P,C2,2*%
%TO.N,GND*%
X127000000Y-102950000D03*
%TO.P,C2,1*%
%TO.N,+5V*%
X127000000Y-107950000D03*
%TD*%
D15*
%TO.P,R32,2*%
%TO.N,GND*%
X180340000Y-96520000D03*
D16*
%TO.P,R32,1*%
%TO.N,Net-(D60-Pad1)*%
X175260000Y-96520000D03*
%TD*%
D15*
%TO.P,R31,2*%
%TO.N,GND*%
X167640000Y-82550000D03*
D16*
%TO.P,R31,1*%
%TO.N,Net-(D44-Pad1)*%
X162560000Y-82550000D03*
%TD*%
D15*
%TO.P,R30,2*%
%TO.N,GND*%
X167640000Y-72390000D03*
D16*
%TO.P,R30,1*%
%TO.N,Net-(D43-Pad1)*%
X162560000Y-72390000D03*
%TD*%
D15*
%TO.P,R29,2*%
%TO.N,GND*%
X167640000Y-87630000D03*
D16*
%TO.P,R29,1*%
%TO.N,Net-(D42-Pad1)*%
X162560000Y-87630000D03*
%TD*%
D15*
%TO.P,R28,2*%
%TO.N,GND*%
X167640000Y-96520000D03*
D16*
%TO.P,R28,1*%
%TO.N,Net-(D41-Pad1)*%
X162560000Y-96520000D03*
%TD*%
D15*
%TO.P,R27,2*%
%TO.N,GND*%
X167640000Y-85090000D03*
D16*
%TO.P,R27,1*%
%TO.N,Net-(D40-Pad1)*%
X162560000Y-85090000D03*
%TD*%
D15*
%TO.P,R26,2*%
%TO.N,GND*%
X167640000Y-69850000D03*
D16*
%TO.P,R26,1*%
%TO.N,Net-(D39-Pad1)*%
X162560000Y-69850000D03*
%TD*%
D15*
%TO.P,R25,2*%
%TO.N,GND*%
X167640000Y-67310000D03*
D16*
%TO.P,R25,1*%
%TO.N,Net-(D38-Pad1)*%
X162560000Y-67310000D03*
%TD*%
D15*
%TO.P,R24,2*%
%TO.N,GND*%
X154940000Y-96520000D03*
D16*
%TO.P,R24,1*%
%TO.N,Net-(D52-Pad1)*%
X149860000Y-96520000D03*
%TD*%
D15*
%TO.P,R23,2*%
%TO.N,GND*%
X142240000Y-82550000D03*
D16*
%TO.P,R23,1*%
%TO.N,Net-(D37-Pad1)*%
X137160000Y-82550000D03*
%TD*%
D15*
%TO.P,R22,2*%
%TO.N,GND*%
X142240000Y-72390000D03*
D16*
%TO.P,R22,1*%
%TO.N,Net-(D36-Pad1)*%
X137160000Y-72390000D03*
%TD*%
D15*
%TO.P,R21,2*%
%TO.N,GND*%
X142240000Y-87630000D03*
D16*
%TO.P,R21,1*%
%TO.N,Net-(D35-Pad1)*%
X137160000Y-87630000D03*
%TD*%
D15*
%TO.P,R20,2*%
%TO.N,GND*%
X142240000Y-96520000D03*
D16*
%TO.P,R20,1*%
%TO.N,Net-(D34-Pad1)*%
X137160000Y-96520000D03*
%TD*%
D15*
%TO.P,R19,2*%
%TO.N,GND*%
X142240000Y-85090000D03*
D16*
%TO.P,R19,1*%
%TO.N,Net-(D33-Pad1)*%
X137160000Y-85090000D03*
%TD*%
D15*
%TO.P,R18,2*%
%TO.N,GND*%
X142240000Y-69850000D03*
D16*
%TO.P,R18,1*%
%TO.N,Net-(D32-Pad1)*%
X137160000Y-69850000D03*
%TD*%
D15*
%TO.P,R17,2*%
%TO.N,GND*%
X142240000Y-67310000D03*
D16*
%TO.P,R17,1*%
%TO.N,Net-(D31-Pad1)*%
X137160000Y-67310000D03*
%TD*%
D15*
%TO.P,R16,2*%
%TO.N,GND*%
X129540000Y-96520000D03*
D16*
%TO.P,R16,1*%
%TO.N,Net-(D30-Pad1)*%
X124460000Y-96520000D03*
%TD*%
D15*
%TO.P,R15,2*%
%TO.N,GND*%
X116840000Y-82550000D03*
D16*
%TO.P,R15,1*%
%TO.N,Net-(D14-Pad1)*%
X111760000Y-82550000D03*
%TD*%
D15*
%TO.P,R14,2*%
%TO.N,GND*%
X116840000Y-72390000D03*
D16*
%TO.P,R14,1*%
%TO.N,Net-(D13-Pad1)*%
X111760000Y-72390000D03*
%TD*%
D15*
%TO.P,R13,2*%
%TO.N,GND*%
X116840000Y-87630000D03*
D16*
%TO.P,R13,1*%
%TO.N,Net-(D12-Pad1)*%
X111760000Y-87630000D03*
%TD*%
D15*
%TO.P,R12,2*%
%TO.N,GND*%
X116840000Y-96520000D03*
D16*
%TO.P,R12,1*%
%TO.N,Net-(D11-Pad1)*%
X111760000Y-96520000D03*
%TD*%
D15*
%TO.P,R11,2*%
%TO.N,GND*%
X116840000Y-85090000D03*
D16*
%TO.P,R11,1*%
%TO.N,Net-(D10-Pad1)*%
X111760000Y-85090000D03*
%TD*%
D15*
%TO.P,R10,2*%
%TO.N,GND*%
X116840000Y-69850000D03*
D16*
%TO.P,R10,1*%
%TO.N,Net-(D9-Pad1)*%
X111760000Y-69850000D03*
%TD*%
D15*
%TO.P,R9,2*%
%TO.N,GND*%
X116840000Y-67310000D03*
D16*
%TO.P,R9,1*%
%TO.N,Net-(D8-Pad1)*%
X111760000Y-67310000D03*
%TD*%
D15*
%TO.P,R8,2*%
%TO.N,GND*%
X104140000Y-96520000D03*
D16*
%TO.P,R8,1*%
%TO.N,Net-(D22-Pad1)*%
X99060000Y-96520000D03*
%TD*%
D15*
%TO.P,R7,2*%
%TO.N,GND*%
X91440000Y-82550000D03*
D16*
%TO.P,R7,1*%
%TO.N,Net-(D7-Pad1)*%
X86360000Y-82550000D03*
%TD*%
D15*
%TO.P,R6,2*%
%TO.N,GND*%
X91440000Y-72390000D03*
D16*
%TO.P,R6,1*%
%TO.N,Net-(D6-Pad1)*%
X86360000Y-72390000D03*
%TD*%
D15*
%TO.P,R5,2*%
%TO.N,GND*%
X91440000Y-87630000D03*
D16*
%TO.P,R5,1*%
%TO.N,Net-(D5-Pad1)*%
X86360000Y-87630000D03*
%TD*%
D15*
%TO.P,R4,2*%
%TO.N,GND*%
X91440000Y-96520000D03*
D16*
%TO.P,R4,1*%
%TO.N,Net-(D4-Pad1)*%
X86360000Y-96520000D03*
%TD*%
D15*
%TO.P,R3,2*%
%TO.N,GND*%
X91440000Y-85090000D03*
D16*
%TO.P,R3,1*%
%TO.N,Net-(D3-Pad1)*%
X86360000Y-85090000D03*
%TD*%
D15*
%TO.P,R2,2*%
%TO.N,GND*%
X91440000Y-69850000D03*
D16*
%TO.P,R2,1*%
%TO.N,Net-(D2-Pad1)*%
X86360000Y-69850000D03*
%TD*%
D15*
%TO.P,R1,2*%
%TO.N,GND*%
X91440000Y-67310000D03*
D16*
%TO.P,R1,1*%
%TO.N,Net-(D1-Pad1)*%
X86360000Y-67310000D03*
%TD*%
D17*
%TO.P,D60,2*%
%TO.N,Net-(D60-Pad2)*%
X179070000Y-92710000D03*
D18*
%TO.P,D60,1*%
%TO.N,Net-(D60-Pad1)*%
X176530000Y-92710000D03*
%TD*%
D17*
%TO.P,D59,2*%
%TO.N,Net-(D59-Pad2)*%
X168910000Y-77470000D03*
D18*
%TO.P,D59,1*%
%TO.N,Net-(D44-Pad2)*%
X166370000Y-77470000D03*
%TD*%
D17*
%TO.P,D58,2*%
%TO.N,Net-(D58-Pad2)*%
X158750000Y-67310000D03*
D18*
%TO.P,D58,1*%
%TO.N,Net-(D43-Pad2)*%
X156210000Y-67310000D03*
%TD*%
D17*
%TO.P,D57,2*%
%TO.N,Net-(D57-Pad2)*%
X158750000Y-82550000D03*
D18*
%TO.P,D57,1*%
%TO.N,Net-(D42-Pad2)*%
X156210000Y-82550000D03*
%TD*%
D17*
%TO.P,D56,2*%
%TO.N,Net-(D56-Pad2)*%
X168910000Y-92710000D03*
D18*
%TO.P,D56,1*%
%TO.N,Net-(D41-Pad2)*%
X166370000Y-92710000D03*
%TD*%
D17*
%TO.P,D55,2*%
%TO.N,Net-(D55-Pad2)*%
X173990000Y-87630000D03*
D18*
%TO.P,D55,1*%
%TO.N,Net-(D40-Pad2)*%
X171450000Y-87630000D03*
%TD*%
D17*
%TO.P,D54,2*%
%TO.N,Net-(D54-Pad2)*%
X173990000Y-72390000D03*
D18*
%TO.P,D54,1*%
%TO.N,Net-(D39-Pad2)*%
X171450000Y-72390000D03*
%TD*%
D17*
%TO.P,D53,2*%
%TO.N,Net-(D53-Pad2)*%
X168910000Y-62230000D03*
D18*
%TO.P,D53,1*%
%TO.N,Net-(D38-Pad2)*%
X166370000Y-62230000D03*
%TD*%
D17*
%TO.P,D52,2*%
%TO.N,Net-(D52-Pad2)*%
X153670000Y-92710000D03*
D18*
%TO.P,D52,1*%
%TO.N,Net-(D52-Pad1)*%
X151130000Y-92710000D03*
%TD*%
D17*
%TO.P,D51,2*%
%TO.N,Net-(D51-Pad2)*%
X143510000Y-77470000D03*
D18*
%TO.P,D51,1*%
%TO.N,Net-(D37-Pad2)*%
X140970000Y-77470000D03*
%TD*%
D17*
%TO.P,D50,2*%
%TO.N,Net-(D50-Pad2)*%
X133350000Y-67310000D03*
D18*
%TO.P,D50,1*%
%TO.N,Net-(D36-Pad2)*%
X130810000Y-67310000D03*
%TD*%
D17*
%TO.P,D49,2*%
%TO.N,Net-(D49-Pad2)*%
X133350000Y-82550000D03*
D18*
%TO.P,D49,1*%
%TO.N,Net-(D35-Pad2)*%
X130810000Y-82550000D03*
%TD*%
D17*
%TO.P,D48,2*%
%TO.N,Net-(D48-Pad2)*%
X143510000Y-92710000D03*
D18*
%TO.P,D48,1*%
%TO.N,Net-(D34-Pad2)*%
X140970000Y-92710000D03*
%TD*%
D17*
%TO.P,D47,2*%
%TO.N,Net-(D47-Pad2)*%
X148590000Y-87630000D03*
D18*
%TO.P,D47,1*%
%TO.N,Net-(D33-Pad2)*%
X146050000Y-87630000D03*
%TD*%
D17*
%TO.P,D46,2*%
%TO.N,Net-(D46-Pad2)*%
X148590000Y-72390000D03*
D18*
%TO.P,D46,1*%
%TO.N,Net-(D32-Pad2)*%
X146050000Y-72390000D03*
%TD*%
D17*
%TO.P,D45,2*%
%TO.N,Net-(D45-Pad2)*%
X143510000Y-62230000D03*
D18*
%TO.P,D45,1*%
%TO.N,Net-(D31-Pad2)*%
X140970000Y-62230000D03*
%TD*%
D17*
%TO.P,D44,2*%
%TO.N,Net-(D44-Pad2)*%
X163830000Y-77470000D03*
D18*
%TO.P,D44,1*%
%TO.N,Net-(D44-Pad1)*%
X161290000Y-77470000D03*
%TD*%
D17*
%TO.P,D43,2*%
%TO.N,Net-(D43-Pad2)*%
X158750000Y-72390000D03*
D18*
%TO.P,D43,1*%
%TO.N,Net-(D43-Pad1)*%
X156210000Y-72390000D03*
%TD*%
D17*
%TO.P,D42,2*%
%TO.N,Net-(D42-Pad2)*%
X158750000Y-87630000D03*
D18*
%TO.P,D42,1*%
%TO.N,Net-(D42-Pad1)*%
X156210000Y-87630000D03*
%TD*%
D17*
%TO.P,D41,2*%
%TO.N,Net-(D41-Pad2)*%
X163830000Y-92710000D03*
D18*
%TO.P,D41,1*%
%TO.N,Net-(D41-Pad1)*%
X161290000Y-92710000D03*
%TD*%
D17*
%TO.P,D40,2*%
%TO.N,Net-(D40-Pad2)*%
X173990000Y-82550000D03*
D18*
%TO.P,D40,1*%
%TO.N,Net-(D40-Pad1)*%
X171450000Y-82550000D03*
%TD*%
D17*
%TO.P,D39,2*%
%TO.N,Net-(D39-Pad2)*%
X173990000Y-67310000D03*
D18*
%TO.P,D39,1*%
%TO.N,Net-(D39-Pad1)*%
X171450000Y-67310000D03*
%TD*%
D17*
%TO.P,D38,2*%
%TO.N,Net-(D38-Pad2)*%
X163830000Y-62230000D03*
D18*
%TO.P,D38,1*%
%TO.N,Net-(D38-Pad1)*%
X161290000Y-62230000D03*
%TD*%
D17*
%TO.P,D37,2*%
%TO.N,Net-(D37-Pad2)*%
X138430000Y-77470000D03*
D18*
%TO.P,D37,1*%
%TO.N,Net-(D37-Pad1)*%
X135890000Y-77470000D03*
%TD*%
D17*
%TO.P,D36,2*%
%TO.N,Net-(D36-Pad2)*%
X133350000Y-72390000D03*
D18*
%TO.P,D36,1*%
%TO.N,Net-(D36-Pad1)*%
X130810000Y-72390000D03*
%TD*%
D17*
%TO.P,D35,2*%
%TO.N,Net-(D35-Pad2)*%
X133350000Y-87630000D03*
D18*
%TO.P,D35,1*%
%TO.N,Net-(D35-Pad1)*%
X130810000Y-87630000D03*
%TD*%
D17*
%TO.P,D34,2*%
%TO.N,Net-(D34-Pad2)*%
X138430000Y-92710000D03*
D18*
%TO.P,D34,1*%
%TO.N,Net-(D34-Pad1)*%
X135890000Y-92710000D03*
%TD*%
D17*
%TO.P,D33,2*%
%TO.N,Net-(D33-Pad2)*%
X148590000Y-82550000D03*
D18*
%TO.P,D33,1*%
%TO.N,Net-(D33-Pad1)*%
X146050000Y-82550000D03*
%TD*%
D17*
%TO.P,D32,2*%
%TO.N,Net-(D32-Pad2)*%
X148590000Y-67310000D03*
D18*
%TO.P,D32,1*%
%TO.N,Net-(D32-Pad1)*%
X146050000Y-67310000D03*
%TD*%
D17*
%TO.P,D31,2*%
%TO.N,Net-(D31-Pad2)*%
X138430000Y-62230000D03*
D18*
%TO.P,D31,1*%
%TO.N,Net-(D31-Pad1)*%
X135890000Y-62230000D03*
%TD*%
D17*
%TO.P,D30,2*%
%TO.N,Net-(D30-Pad2)*%
X128270000Y-92710000D03*
D18*
%TO.P,D30,1*%
%TO.N,Net-(D30-Pad1)*%
X125730000Y-92710000D03*
%TD*%
D17*
%TO.P,D29,2*%
%TO.N,Net-(D29-Pad2)*%
X118110000Y-77470000D03*
D18*
%TO.P,D29,1*%
%TO.N,Net-(D14-Pad2)*%
X115570000Y-77470000D03*
%TD*%
D17*
%TO.P,D28,2*%
%TO.N,Net-(D28-Pad2)*%
X107950000Y-67310000D03*
D18*
%TO.P,D28,1*%
%TO.N,Net-(D13-Pad2)*%
X105410000Y-67310000D03*
%TD*%
D17*
%TO.P,D27,2*%
%TO.N,Net-(D27-Pad2)*%
X107950000Y-82550000D03*
D18*
%TO.P,D27,1*%
%TO.N,Net-(D12-Pad2)*%
X105410000Y-82550000D03*
%TD*%
D17*
%TO.P,D26,2*%
%TO.N,Net-(D26-Pad2)*%
X118110000Y-92710000D03*
D18*
%TO.P,D26,1*%
%TO.N,Net-(D11-Pad2)*%
X115570000Y-92710000D03*
%TD*%
D17*
%TO.P,D25,2*%
%TO.N,Net-(D25-Pad2)*%
X123190000Y-87630000D03*
D18*
%TO.P,D25,1*%
%TO.N,Net-(D10-Pad2)*%
X120650000Y-87630000D03*
%TD*%
D17*
%TO.P,D24,2*%
%TO.N,Net-(D24-Pad2)*%
X123190000Y-72390000D03*
D18*
%TO.P,D24,1*%
%TO.N,Net-(D24-Pad1)*%
X120650000Y-72390000D03*
%TD*%
D17*
%TO.P,D23,2*%
%TO.N,Net-(D23-Pad2)*%
X118110000Y-62230000D03*
D18*
%TO.P,D23,1*%
%TO.N,Net-(D23-Pad1)*%
X115570000Y-62230000D03*
%TD*%
D17*
%TO.P,D22,2*%
%TO.N,Net-(D22-Pad2)*%
X102870000Y-92710000D03*
D18*
%TO.P,D22,1*%
%TO.N,Net-(D22-Pad1)*%
X100330000Y-92710000D03*
%TD*%
D17*
%TO.P,D21,2*%
%TO.N,Net-(D21-Pad2)*%
X92710000Y-77470000D03*
D18*
%TO.P,D21,1*%
%TO.N,Net-(D21-Pad1)*%
X90170000Y-77470000D03*
%TD*%
D17*
%TO.P,D20,2*%
%TO.N,Net-(D20-Pad2)*%
X82550000Y-67310000D03*
D18*
%TO.P,D20,1*%
%TO.N,Net-(D20-Pad1)*%
X80010000Y-67310000D03*
%TD*%
D17*
%TO.P,D19,2*%
%TO.N,Net-(D19-Pad2)*%
X82550000Y-82550000D03*
D18*
%TO.P,D19,1*%
%TO.N,Net-(D19-Pad1)*%
X80010000Y-82550000D03*
%TD*%
D17*
%TO.P,D18,2*%
%TO.N,Net-(D18-Pad2)*%
X92710000Y-92710000D03*
D18*
%TO.P,D18,1*%
%TO.N,Net-(D18-Pad1)*%
X90170000Y-92710000D03*
%TD*%
D17*
%TO.P,D17,2*%
%TO.N,Net-(D17-Pad2)*%
X97790000Y-87630000D03*
D18*
%TO.P,D17,1*%
%TO.N,Net-(D17-Pad1)*%
X95250000Y-87630000D03*
%TD*%
D17*
%TO.P,D16,2*%
%TO.N,Net-(D16-Pad2)*%
X97790000Y-72390000D03*
D18*
%TO.P,D16,1*%
%TO.N,Net-(D16-Pad1)*%
X95250000Y-72390000D03*
%TD*%
D17*
%TO.P,D15,2*%
%TO.N,Net-(D15-Pad2)*%
X92710000Y-62230000D03*
D18*
%TO.P,D15,1*%
%TO.N,Net-(D1-Pad2)*%
X90170000Y-62230000D03*
%TD*%
D17*
%TO.P,D14,2*%
%TO.N,Net-(D14-Pad2)*%
X113030000Y-77470000D03*
D18*
%TO.P,D14,1*%
%TO.N,Net-(D14-Pad1)*%
X110490000Y-77470000D03*
%TD*%
D17*
%TO.P,D13,2*%
%TO.N,Net-(D13-Pad2)*%
X107950000Y-72390000D03*
D18*
%TO.P,D13,1*%
%TO.N,Net-(D13-Pad1)*%
X105410000Y-72390000D03*
%TD*%
D17*
%TO.P,D12,2*%
%TO.N,Net-(D12-Pad2)*%
X107950000Y-87630000D03*
D18*
%TO.P,D12,1*%
%TO.N,Net-(D12-Pad1)*%
X105410000Y-87630000D03*
%TD*%
D17*
%TO.P,D11,2*%
%TO.N,Net-(D11-Pad2)*%
X113030000Y-92710000D03*
D18*
%TO.P,D11,1*%
%TO.N,Net-(D11-Pad1)*%
X110490000Y-92710000D03*
%TD*%
D17*
%TO.P,D10,2*%
%TO.N,Net-(D10-Pad2)*%
X123190000Y-82550000D03*
D18*
%TO.P,D10,1*%
%TO.N,Net-(D10-Pad1)*%
X120650000Y-82550000D03*
%TD*%
D17*
%TO.P,D9,2*%
%TO.N,Net-(D24-Pad1)*%
X123190000Y-67310000D03*
D18*
%TO.P,D9,1*%
%TO.N,Net-(D9-Pad1)*%
X120650000Y-67310000D03*
%TD*%
D17*
%TO.P,D8,2*%
%TO.N,Net-(D23-Pad1)*%
X113030000Y-62230000D03*
D18*
%TO.P,D8,1*%
%TO.N,Net-(D8-Pad1)*%
X110490000Y-62230000D03*
%TD*%
D17*
%TO.P,D7,2*%
%TO.N,Net-(D21-Pad1)*%
X87630000Y-77470000D03*
D18*
%TO.P,D7,1*%
%TO.N,Net-(D7-Pad1)*%
X85090000Y-77470000D03*
%TD*%
D17*
%TO.P,D6,2*%
%TO.N,Net-(D20-Pad1)*%
X82550000Y-72390000D03*
D18*
%TO.P,D6,1*%
%TO.N,Net-(D6-Pad1)*%
X80010000Y-72390000D03*
%TD*%
D17*
%TO.P,D5,2*%
%TO.N,Net-(D19-Pad1)*%
X82550000Y-87630000D03*
D18*
%TO.P,D5,1*%
%TO.N,Net-(D5-Pad1)*%
X80010000Y-87630000D03*
%TD*%
D17*
%TO.P,D4,2*%
%TO.N,Net-(D18-Pad1)*%
X87630000Y-92710000D03*
D18*
%TO.P,D4,1*%
%TO.N,Net-(D4-Pad1)*%
X85090000Y-92710000D03*
%TD*%
D17*
%TO.P,D3,2*%
%TO.N,Net-(D17-Pad1)*%
X97790000Y-82550000D03*
D18*
%TO.P,D3,1*%
%TO.N,Net-(D3-Pad1)*%
X95250000Y-82550000D03*
%TD*%
D17*
%TO.P,D2,2*%
%TO.N,Net-(D16-Pad1)*%
X97790000Y-67310000D03*
D18*
%TO.P,D2,1*%
%TO.N,Net-(D2-Pad1)*%
X95250000Y-67310000D03*
%TD*%
D17*
%TO.P,D1,2*%
%TO.N,Net-(D1-Pad2)*%
X87630000Y-62230000D03*
D18*
%TO.P,D1,1*%
%TO.N,Net-(D1-Pad1)*%
X85090000Y-62230000D03*
%TD*%
D19*
%TO.N,GND*%
X87630000Y-113030000D03*
D20*
X132588000Y-106172000D03*
X107188000Y-106172000D03*
X157988000Y-106172000D03*
%TO.N,Net-(D23-Pad2)*%
X123190000Y-106680000D03*
%TO.N,Net-(D45-Pad2)*%
X148590000Y-106680000D03*
%TO.N,Net-(D53-Pad2)*%
X173990000Y-106680000D03*
%TD*%
D21*
%TO.N,GND*%
X90170000Y-115570000D02*
X90170000Y-116840000D01*
X87630000Y-113030000D02*
X90170000Y-115570000D01*
D22*
X129366000Y-102950000D02*
X132588000Y-106172000D01*
X127000000Y-102950000D02*
X129366000Y-102950000D01*
X103966000Y-102950000D02*
X107188000Y-106172000D01*
X101600000Y-102950000D02*
X103966000Y-102950000D01*
X154766000Y-102950000D02*
X157988000Y-106172000D01*
X152400000Y-102950000D02*
X154766000Y-102950000D01*
%TO.N,Net-(D1-Pad2)*%
X87630000Y-62230000D02*
X90170000Y-62230000D01*
%TO.N,Net-(D1-Pad1)*%
X85090000Y-66040000D02*
X86360000Y-67310000D01*
X85090000Y-62230000D02*
X85090000Y-66040000D01*
%TO.N,Net-(D16-Pad1)*%
X97790000Y-69850000D02*
X95250000Y-72390000D01*
X97790000Y-67310000D02*
X97790000Y-69850000D01*
%TO.N,Net-(D2-Pad1)*%
X93849999Y-65909999D02*
X95250000Y-67310000D01*
X90300001Y-65909999D02*
X93849999Y-65909999D01*
X86360000Y-69850000D02*
X90300001Y-65909999D01*
%TO.N,Net-(D17-Pad1)*%
X97790000Y-85090000D02*
X97790000Y-82550000D01*
X95250000Y-87630000D02*
X97790000Y-85090000D01*
%TO.N,Net-(D3-Pad1)*%
X93849999Y-81149999D02*
X95250000Y-82550000D01*
X90300001Y-81149999D02*
X93849999Y-81149999D01*
X86360000Y-85090000D02*
X90300001Y-81149999D01*
%TO.N,Net-(D18-Pad1)*%
X87630000Y-92710000D02*
X90170000Y-92710000D01*
%TO.N,Net-(D4-Pad1)*%
X85090000Y-95250000D02*
X86360000Y-96520000D01*
X85090000Y-92710000D02*
X85090000Y-95250000D01*
%TO.N,Net-(D19-Pad1)*%
X80264000Y-85344000D02*
X82550000Y-87630000D01*
X80264000Y-82804000D02*
X80264000Y-85344000D01*
X80010000Y-82550000D02*
X80264000Y-82804000D01*
%TO.N,Net-(D5-Pad1)*%
X80010000Y-87630000D02*
X81610001Y-89230001D01*
X81610001Y-89230001D02*
X84759999Y-89230001D01*
X84759999Y-89230001D02*
X86360000Y-87630000D01*
%TO.N,Net-(D20-Pad1)*%
X79756000Y-69596000D02*
X82550000Y-72390000D01*
X79756000Y-67564000D02*
X79756000Y-69596000D01*
X80010000Y-67310000D02*
X79756000Y-67564000D01*
%TO.N,Net-(D6-Pad1)*%
X84759999Y-73990001D02*
X86360000Y-72390000D01*
X81610001Y-73990001D02*
X84759999Y-73990001D01*
X80010000Y-72390000D02*
X81610001Y-73990001D01*
%TO.N,Net-(D21-Pad1)*%
X87630000Y-77470000D02*
X90170000Y-77470000D01*
%TO.N,Net-(D7-Pad1)*%
X85090000Y-81280000D02*
X86360000Y-82550000D01*
X85090000Y-77470000D02*
X85090000Y-81280000D01*
%TO.N,Net-(D23-Pad1)*%
X113030000Y-62230000D02*
X115570000Y-62230000D01*
%TO.N,Net-(D8-Pad1)*%
X110490000Y-62230000D02*
X110490000Y-66040000D01*
X110490000Y-66040000D02*
X111760000Y-67310000D01*
%TO.N,Net-(D24-Pad1)*%
X122936000Y-67564000D02*
X123190000Y-67310000D01*
X122936000Y-70104000D02*
X122936000Y-67564000D01*
X120650000Y-72390000D02*
X122936000Y-70104000D01*
%TO.N,Net-(D9-Pad1)*%
X111760000Y-69850000D02*
X115570000Y-66040000D01*
X119380000Y-66040000D02*
X120650000Y-67310000D01*
X115570000Y-66040000D02*
X119380000Y-66040000D01*
%TO.N,Net-(D10-Pad2)*%
X122936000Y-82804000D02*
X123190000Y-82550000D01*
X122936000Y-85090000D02*
X122936000Y-82804000D01*
X120650000Y-87376000D02*
X122936000Y-85090000D01*
X120650000Y-87630000D02*
X120650000Y-87376000D01*
%TO.N,Net-(D10-Pad1)*%
X111760000Y-85090000D02*
X115570000Y-81280000D01*
X119380000Y-81280000D02*
X120650000Y-82550000D01*
X115570000Y-81280000D02*
X119380000Y-81280000D01*
%TO.N,Net-(D11-Pad2)*%
X113030000Y-92710000D02*
X115570000Y-92710000D01*
%TO.N,Net-(D11-Pad1)*%
X110490000Y-95250000D02*
X111760000Y-96520000D01*
X110490000Y-92710000D02*
X110490000Y-95250000D01*
%TO.N,Net-(D12-Pad2)*%
X105410000Y-85090000D02*
X107950000Y-87630000D01*
X105410000Y-82550000D02*
X105410000Y-85090000D01*
%TO.N,Net-(D12-Pad1)*%
X107188000Y-89408000D02*
X105410000Y-87630000D01*
X109982000Y-89408000D02*
X107188000Y-89408000D01*
X111760000Y-87630000D02*
X109982000Y-89408000D01*
%TO.N,Net-(D13-Pad2)*%
X105410000Y-69850000D02*
X107950000Y-72390000D01*
X105410000Y-67310000D02*
X105410000Y-69850000D01*
%TO.N,Net-(D13-Pad1)*%
X111760000Y-72390000D02*
X110490000Y-73660000D01*
X106680000Y-73660000D02*
X105410000Y-72390000D01*
X110490000Y-73660000D02*
X106680000Y-73660000D01*
%TO.N,Net-(D14-Pad2)*%
X113030000Y-77470000D02*
X115570000Y-77470000D01*
%TO.N,Net-(D14-Pad1)*%
X110490000Y-81280000D02*
X111760000Y-82550000D01*
X110490000Y-77470000D02*
X110490000Y-81280000D01*
%TO.N,Net-(D15-Pad2)*%
X96475001Y-81389999D02*
X96475001Y-83710001D01*
X96475001Y-83710001D02*
X94024999Y-86160003D01*
X93935001Y-78849999D02*
X96475001Y-81389999D01*
X96475001Y-68470001D02*
X93935001Y-71010001D01*
X93935001Y-71010001D02*
X93935001Y-78849999D01*
X96475001Y-65995001D02*
X96475001Y-68470001D01*
X92710000Y-62230000D02*
X96475001Y-65995001D01*
X94024999Y-107994999D02*
X94024999Y-86160003D01*
X95250000Y-109220000D02*
X94024999Y-107994999D01*
%TO.N,Net-(D16-Pad2)*%
X99140001Y-73740001D02*
X97790000Y-72390000D01*
X99140001Y-89835999D02*
X99140001Y-73740001D01*
X97536000Y-91440000D02*
X99140001Y-89835999D01*
X97536000Y-101346000D02*
X97536000Y-91440000D01*
X97790000Y-101600000D02*
X97536000Y-101346000D01*
%TO.N,Net-(D17-Pad2)*%
X96520000Y-88900000D02*
X97790000Y-87630000D01*
X95250000Y-90170000D02*
X97790000Y-87630000D01*
X95250000Y-101600000D02*
X95250000Y-90170000D01*
%TO.N,Net-(D18-Pad2)*%
X92710000Y-92710000D02*
X92710000Y-101600000D01*
%TO.N,Net-(D19-Pad2)*%
X89370001Y-100800001D02*
X90170000Y-101600000D01*
X89116001Y-100800001D02*
X89370001Y-100800001D01*
X78659999Y-90343999D02*
X89116001Y-100800001D01*
X79177998Y-80772000D02*
X78659999Y-81289999D01*
X80772000Y-80772000D02*
X79177998Y-80772000D01*
X78659999Y-81289999D02*
X78659999Y-90343999D01*
X82550000Y-82550000D02*
X80772000Y-80772000D01*
%TO.N,Net-(D20-Pad2)*%
X78116022Y-66593976D02*
X78727987Y-65982011D01*
X78116022Y-90559201D02*
X78116022Y-66593976D01*
X81222011Y-65982011D02*
X82550000Y-67310000D01*
X78727987Y-65982011D02*
X81222011Y-65982011D01*
X87630000Y-100073178D02*
X78116022Y-90559201D01*
X87630000Y-101600000D02*
X87630000Y-100073178D01*
%TO.N,Net-(D21-Pad2)*%
X92710000Y-76197208D02*
X92710000Y-77470000D01*
X87752791Y-71239999D02*
X92710000Y-76197208D01*
X84328000Y-70104000D02*
X85463999Y-71239999D01*
X84328000Y-66548000D02*
X84328000Y-70104000D01*
X78188035Y-65532000D02*
X83312000Y-65532000D01*
X83312000Y-65532000D02*
X84328000Y-66548000D01*
X77666011Y-66054024D02*
X78188035Y-65532000D01*
X84836000Y-97915590D02*
X77666011Y-90745601D01*
X84836000Y-101346000D02*
X84836000Y-97915590D01*
X85463999Y-71239999D02*
X87752791Y-71239999D01*
X77666011Y-90745601D02*
X77666011Y-66054024D01*
X85090000Y-101600000D02*
X84836000Y-101346000D01*
%TO.N,Net-(D22-Pad2)*%
X102870000Y-91694000D02*
X102870000Y-92710000D01*
X99741967Y-88565967D02*
X102870000Y-91694000D01*
X92947001Y-59944000D02*
X99741967Y-66738966D01*
X77216000Y-65514072D02*
X82786072Y-59944000D01*
X99741967Y-66738966D02*
X99741967Y-88565967D01*
X77216000Y-90932000D02*
X77216000Y-65514072D01*
X82550000Y-96266000D02*
X77216000Y-90932000D01*
X82786072Y-59944000D02*
X92947001Y-59944000D01*
X82550000Y-101600000D02*
X82550000Y-96266000D01*
%TO.N,Net-(D22-Pad1)*%
X99060000Y-93980000D02*
X100330000Y-92710000D01*
X99060000Y-96520000D02*
X99060000Y-93980000D01*
%TO.N,Net-(D23-Pad2)*%
X123190000Y-106680000D02*
X124460000Y-105410000D01*
X124460000Y-105410000D02*
X124460000Y-100684998D01*
X125199956Y-89639956D02*
X125199956Y-67143455D01*
X127000000Y-91440000D02*
X125199956Y-89639956D01*
X127000000Y-91505000D02*
X127000000Y-91440000D01*
X126955001Y-91549999D02*
X127000000Y-91505000D01*
X126955001Y-93870001D02*
X126955001Y-91549999D01*
X120286501Y-62230000D02*
X118110000Y-62230000D01*
X125199956Y-67143455D02*
X120286501Y-62230000D01*
X127000000Y-93915000D02*
X126955001Y-93870001D01*
X127000000Y-96520000D02*
X127000000Y-93915000D01*
X124460000Y-99060000D02*
X127000000Y-96520000D01*
X124460000Y-101600000D02*
X124460000Y-99060000D01*
%TO.N,Net-(D24-Pad2)*%
X122984988Y-91218514D02*
X122984988Y-101394988D01*
X123190000Y-72390000D02*
X124460000Y-73660000D01*
X122984988Y-101394988D02*
X123190000Y-101600000D01*
X124460000Y-73660000D02*
X124460000Y-89743502D01*
X124460000Y-89743502D02*
X122984988Y-91218514D01*
%TO.N,Net-(D25-Pad2)*%
X123190000Y-87630000D02*
X120650000Y-90170000D01*
X120650000Y-90170000D02*
X120650000Y-101600000D01*
%TO.N,Net-(D26-Pad2)*%
X118110000Y-92710000D02*
X118110000Y-101600000D01*
%TO.N,Net-(D27-Pad2)*%
X114770001Y-100800001D02*
X115570000Y-101600000D01*
X114516001Y-100800001D02*
X114770001Y-100800001D01*
X110686011Y-96970011D02*
X114516001Y-100800001D01*
X110686011Y-96716011D02*
X110686011Y-96970011D01*
X102616000Y-88646000D02*
X110686011Y-96716011D01*
X102616000Y-82296000D02*
X102616000Y-88646000D01*
X104140000Y-80772000D02*
X102616000Y-82296000D01*
X106172000Y-80772000D02*
X104140000Y-80772000D01*
X107950000Y-82550000D02*
X106172000Y-80772000D01*
%TO.N,Net-(D28-Pad2)*%
X112230001Y-100800001D02*
X113030000Y-101600000D01*
X112230001Y-99530001D02*
X112230001Y-100800001D01*
X110236000Y-97536000D02*
X112230001Y-99530001D01*
X110236000Y-96902411D02*
X110236000Y-97536000D01*
X101092000Y-87758411D02*
X110236000Y-96902411D01*
X101092000Y-69344820D02*
X101092000Y-87758411D01*
X104351821Y-66084999D02*
X101092000Y-69344820D01*
X106724999Y-66084999D02*
X104351821Y-66084999D01*
X107950000Y-67310000D02*
X106724999Y-66084999D01*
%TO.N,Net-(D29-Pad2)*%
X118110000Y-76197208D02*
X118110000Y-77470000D01*
X112787793Y-70875001D02*
X118110000Y-76197208D01*
X110499001Y-70875001D02*
X112787793Y-70875001D01*
X109728000Y-70104000D02*
X110499001Y-70875001D01*
X108712000Y-65532000D02*
X109728000Y-66548000D01*
X104268410Y-65532000D02*
X108712000Y-65532000D01*
X100641989Y-69158421D02*
X104268410Y-65532000D01*
X100641989Y-87944811D02*
X100641989Y-69158421D01*
X109690001Y-96992823D02*
X100641989Y-87944811D01*
X109728000Y-66548000D02*
X109728000Y-70104000D01*
X109690001Y-100800001D02*
X109690001Y-96992823D01*
X110490000Y-101600000D02*
X109690001Y-100800001D01*
%TO.N,Net-(D30-Pad2)*%
X118636912Y-59944000D02*
X125649967Y-66957055D01*
X100191978Y-68972022D02*
X109220000Y-59944000D01*
X107950000Y-95889233D02*
X100191978Y-88131211D01*
X109220000Y-59944000D02*
X118636912Y-59944000D01*
X107950000Y-101600000D02*
X107950000Y-95889233D01*
X100191978Y-88131211D02*
X100191978Y-68972022D01*
X125649967Y-88945556D02*
X128270000Y-91565589D01*
X125649967Y-66957055D02*
X125649967Y-88945556D01*
X128270000Y-91565589D02*
X128270000Y-92710000D01*
%TO.N,Net-(D30-Pad1)*%
X125730000Y-93218000D02*
X125730000Y-92710000D01*
X124460000Y-94488000D02*
X125730000Y-93218000D01*
X124460000Y-96520000D02*
X124460000Y-94488000D01*
%TO.N,Net-(D31-Pad2)*%
X138430000Y-62230000D02*
X140970000Y-62230000D01*
%TO.N,Net-(D31-Pad1)*%
X135890000Y-66040000D02*
X137160000Y-67310000D01*
X135890000Y-62230000D02*
X135890000Y-66040000D01*
%TO.N,Net-(D32-Pad2)*%
X148336000Y-70104000D02*
X146050000Y-72390000D01*
X148336000Y-67564000D02*
X148336000Y-70104000D01*
X148590000Y-67310000D02*
X148336000Y-67564000D01*
%TO.N,Net-(D32-Pad1)*%
X140725001Y-66284999D02*
X137160000Y-69850000D01*
X145024999Y-66284999D02*
X140725001Y-66284999D01*
X146050000Y-67310000D02*
X145024999Y-66284999D01*
%TO.N,Net-(D33-Pad2)*%
X148336000Y-85344000D02*
X146050000Y-87630000D01*
X148336000Y-82804000D02*
X148336000Y-85344000D01*
X148590000Y-82550000D02*
X148336000Y-82804000D01*
%TO.N,Net-(D33-Pad1)*%
X137160000Y-85090000D02*
X140970000Y-81280000D01*
X144780000Y-81280000D02*
X146050000Y-82550000D01*
X140970000Y-81280000D02*
X144780000Y-81280000D01*
%TO.N,Net-(D34-Pad2)*%
X138430000Y-92710000D02*
X140970000Y-92710000D01*
%TO.N,Net-(D34-Pad1)*%
X135890000Y-95250000D02*
X137160000Y-96520000D01*
X135890000Y-92710000D02*
X135890000Y-95250000D01*
%TO.N,Net-(D35-Pad2)*%
X130810000Y-85090000D02*
X133350000Y-87630000D01*
X130810000Y-82550000D02*
X130810000Y-85090000D01*
%TO.N,Net-(D35-Pad1)*%
X135382000Y-89408000D02*
X137160000Y-87630000D01*
X132588000Y-89408000D02*
X135382000Y-89408000D01*
X130810000Y-87630000D02*
X132588000Y-89408000D01*
%TO.N,Net-(D36-Pad2)*%
X130810000Y-69850000D02*
X133350000Y-72390000D01*
X130810000Y-67310000D02*
X130810000Y-69850000D01*
%TO.N,Net-(D36-Pad1)*%
X135934999Y-73615001D02*
X137160000Y-72390000D01*
X132035001Y-73615001D02*
X135934999Y-73615001D01*
X130810000Y-72390000D02*
X132035001Y-73615001D01*
%TO.N,Net-(D37-Pad2)*%
X138430000Y-77470000D02*
X140970000Y-77470000D01*
%TO.N,Net-(D37-Pad1)*%
X135890000Y-81280000D02*
X137160000Y-82550000D01*
X135890000Y-77470000D02*
X135890000Y-81280000D01*
%TO.N,Net-(D38-Pad2)*%
X163830000Y-62230000D02*
X166370000Y-62230000D01*
%TO.N,Net-(D38-Pad1)*%
X161290000Y-66040000D02*
X162560000Y-67310000D01*
X161290000Y-62230000D02*
X161290000Y-66040000D01*
%TO.N,Net-(D39-Pad2)*%
X173736000Y-70104000D02*
X171450000Y-72390000D01*
X173736000Y-67564000D02*
X173736000Y-70104000D01*
X173990000Y-67310000D02*
X173736000Y-67564000D01*
%TO.N,Net-(D39-Pad1)*%
X162560000Y-69850000D02*
X166370000Y-66040000D01*
X170180000Y-66040000D02*
X171450000Y-67310000D01*
X166370000Y-66040000D02*
X170180000Y-66040000D01*
%TO.N,Net-(D40-Pad2)*%
X173736000Y-82804000D02*
X173990000Y-82550000D01*
X173736000Y-85344000D02*
X173736000Y-82804000D01*
X171450000Y-87630000D02*
X173736000Y-85344000D01*
%TO.N,Net-(D40-Pad1)*%
X162560000Y-85090000D02*
X166370000Y-81280000D01*
X166370000Y-81280000D02*
X170180000Y-81280000D01*
X170180000Y-81280000D02*
X171450000Y-82550000D01*
%TO.N,Net-(D41-Pad2)*%
X163830000Y-92710000D02*
X166370000Y-92710000D01*
%TO.N,Net-(D41-Pad1)*%
X161290000Y-95250000D02*
X162560000Y-96520000D01*
X161290000Y-92710000D02*
X161290000Y-95250000D01*
%TO.N,Net-(D42-Pad2)*%
X156210000Y-85090000D02*
X156210000Y-82550000D01*
X158750000Y-87630000D02*
X156210000Y-85090000D01*
%TO.N,Net-(D42-Pad1)*%
X160782000Y-89408000D02*
X162560000Y-87630000D01*
X157988000Y-89408000D02*
X160782000Y-89408000D01*
X156210000Y-87630000D02*
X157988000Y-89408000D01*
%TO.N,Net-(D43-Pad2)*%
X156210000Y-69850000D02*
X158750000Y-72390000D01*
X156210000Y-67310000D02*
X156210000Y-69850000D01*
%TO.N,Net-(D43-Pad1)*%
X161334999Y-73615001D02*
X162560000Y-72390000D01*
X157435001Y-73615001D02*
X161334999Y-73615001D01*
X156210000Y-72390000D02*
X157435001Y-73615001D01*
%TO.N,Net-(D44-Pad2)*%
X163830000Y-77470000D02*
X166370000Y-77470000D01*
%TO.N,Net-(D44-Pad1)*%
X161290000Y-81280000D02*
X162560000Y-82550000D01*
X161290000Y-77470000D02*
X161290000Y-81280000D01*
%TO.N,Net-(D45-Pad2)*%
X145686501Y-62230000D02*
X143510000Y-62230000D01*
X150310009Y-89505007D02*
X150310009Y-66853508D01*
X152400000Y-91594998D02*
X150310009Y-89505007D01*
X152400000Y-96520000D02*
X152400000Y-91594998D01*
X148590000Y-106680000D02*
X149715001Y-105554999D01*
X149715001Y-99204999D02*
X152400000Y-96520000D01*
X150310009Y-66853508D02*
X145686501Y-62230000D01*
X149715001Y-105554999D02*
X149715001Y-99204999D01*
%TO.N,Net-(D46-Pad2)*%
X148336000Y-101346000D02*
X148590000Y-101600000D01*
X148336000Y-91440000D02*
X148336000Y-101346000D01*
X149860000Y-73660000D02*
X149860000Y-89916000D01*
X149860000Y-89916000D02*
X148336000Y-91440000D01*
X148590000Y-72390000D02*
X149860000Y-73660000D01*
%TO.N,Net-(D47-Pad2)*%
X146050000Y-90170000D02*
X148590000Y-87630000D01*
X146050000Y-101600000D02*
X146050000Y-90170000D01*
%TO.N,Net-(D48-Pad2)*%
X143510000Y-92710000D02*
X143510000Y-101600000D01*
%TO.N,Net-(D49-Pad2)*%
X129540000Y-80772000D02*
X131572000Y-80772000D01*
X130810000Y-91440000D02*
X128270000Y-88900000D01*
X128270000Y-88900000D02*
X128270000Y-82042000D01*
X130810000Y-91687002D02*
X130810000Y-91440000D01*
X140722998Y-101600000D02*
X130810000Y-91687002D01*
X131572000Y-80772000D02*
X133350000Y-82550000D01*
X128270000Y-82042000D02*
X129540000Y-80772000D01*
X140970000Y-101600000D02*
X140722998Y-101600000D01*
%TO.N,Net-(D50-Pad2)*%
X138430000Y-99943413D02*
X138430000Y-101600000D01*
X130359989Y-91626399D02*
X130359989Y-91873402D01*
X127000000Y-88266410D02*
X130359989Y-91626399D01*
X127000000Y-68580000D02*
X127000000Y-88266410D01*
X129495001Y-66084999D02*
X127000000Y-68580000D01*
X130359989Y-91873402D02*
X138430000Y-99943413D01*
X132124999Y-66084999D02*
X129495001Y-66084999D01*
X133350000Y-67310000D02*
X132124999Y-66084999D01*
%TO.N,Net-(D51-Pad2)*%
X135128000Y-100838000D02*
X135890000Y-101600000D01*
X143510000Y-77470000D02*
X143510000Y-76197208D01*
X138432792Y-71120000D02*
X136144000Y-71120000D01*
X143510000Y-76197208D02*
X138432792Y-71120000D01*
X135128000Y-70104000D02*
X135128000Y-66417501D01*
X126549989Y-68393601D02*
X126549989Y-88452810D01*
X134242499Y-65532000D02*
X129411590Y-65532000D01*
X136144000Y-71120000D02*
X135128000Y-70104000D01*
X135128000Y-66417501D02*
X134242499Y-65532000D01*
X129411590Y-65532000D02*
X126549989Y-68393601D01*
X126549989Y-88452810D02*
X129909978Y-91812798D01*
X129909978Y-91812798D02*
X129909978Y-92059802D01*
X129909978Y-92059802D02*
X135128000Y-97277824D01*
X135128000Y-97277824D02*
X135128000Y-100838000D01*
%TO.N,Net-(D52-Pad2)*%
X129459967Y-92246202D02*
X133350000Y-96136235D01*
X129459967Y-91999198D02*
X129459967Y-92246202D01*
X126099978Y-88639210D02*
X129459967Y-91999198D01*
X126099978Y-68207201D02*
X126099978Y-88639210D01*
X150760020Y-66667108D02*
X144036912Y-59944000D01*
X144036912Y-59944000D02*
X134363179Y-59944000D01*
X133350000Y-96136235D02*
X133350000Y-101600000D01*
X134363179Y-59944000D02*
X126099978Y-68207201D01*
X153670000Y-91694000D02*
X150760020Y-88784020D01*
X153670000Y-92710000D02*
X153670000Y-91694000D01*
X150760020Y-88784020D02*
X150760020Y-66667108D01*
%TO.N,Net-(D52-Pad1)*%
X151130000Y-92710000D02*
X149860000Y-93980000D01*
X149860000Y-93980000D02*
X149860000Y-96520000D01*
%TO.N,Net-(D53-Pad2)*%
X171086501Y-62230000D02*
X177800000Y-68943499D01*
X168910000Y-62230000D02*
X171086501Y-62230000D01*
X175260000Y-99060000D02*
X175260000Y-105410000D01*
X177800000Y-96520000D02*
X175260000Y-99060000D01*
X177800000Y-68943499D02*
X177800000Y-96520000D01*
X175260000Y-105410000D02*
X173990000Y-106680000D01*
%TO.N,Net-(D54-Pad2)*%
X173736000Y-101346000D02*
X173990000Y-101600000D01*
X173736000Y-91440000D02*
X173736000Y-101346000D01*
X175369999Y-89806001D02*
X173736000Y-91440000D01*
X175369999Y-73769999D02*
X175369999Y-89806001D01*
X173990000Y-72390000D02*
X175369999Y-73769999D01*
%TO.N,Net-(D55-Pad2)*%
X173990000Y-87630000D02*
X171450000Y-90170000D01*
X171450000Y-90170000D02*
X171450000Y-101600000D01*
%TO.N,Net-(D56-Pad2)*%
X168910000Y-92710000D02*
X168910000Y-101600000D01*
%TO.N,Net-(D57-Pad2)*%
X166122998Y-101600000D02*
X166370000Y-101600000D01*
X161534999Y-97012001D02*
X166122998Y-101600000D01*
X161534999Y-96764999D02*
X161534999Y-97012001D01*
X153416000Y-88646000D02*
X161534999Y-96764999D01*
X153416000Y-82296000D02*
X153416000Y-88646000D01*
X156972000Y-80772000D02*
X154940000Y-80772000D01*
X154940000Y-80772000D02*
X153416000Y-82296000D01*
X158750000Y-82550000D02*
X156972000Y-80772000D01*
%TO.N,Net-(D58-Pad2)*%
X163030001Y-100800001D02*
X163830000Y-101600000D01*
X161084988Y-97487012D02*
X163030001Y-99432025D01*
X163030001Y-99432025D02*
X163030001Y-100800001D01*
X152110055Y-87976466D02*
X161084988Y-96951399D01*
X152110055Y-68744355D02*
X152110055Y-87976466D01*
X154769411Y-66084999D02*
X152110055Y-68744355D01*
X161084988Y-96951399D02*
X161084988Y-97487012D01*
X157524999Y-66084999D02*
X154769411Y-66084999D01*
X158750000Y-67310000D02*
X157524999Y-66084999D01*
%TO.N,Net-(D59-Pad2)*%
X160490001Y-100800001D02*
X161290000Y-101600000D01*
X151660044Y-88250631D02*
X160490001Y-97080588D01*
X151660044Y-68557955D02*
X151660044Y-88250631D01*
X154583011Y-65634988D02*
X151660044Y-68557955D01*
X160490001Y-97080588D02*
X160490001Y-100800001D01*
X159505489Y-65634988D02*
X154583011Y-65634988D01*
X160528000Y-66657499D02*
X159505489Y-65634988D01*
X160528000Y-70165750D02*
X160528000Y-66657499D01*
X161482250Y-71120000D02*
X160528000Y-70165750D01*
X163832792Y-71120000D02*
X161482250Y-71120000D01*
X168910000Y-76197208D02*
X163832792Y-71120000D01*
X168910000Y-77470000D02*
X168910000Y-76197208D01*
%TO.N,Net-(D60-Pad2)*%
X151210033Y-88437032D02*
X158750000Y-95976999D01*
X179070000Y-92710000D02*
X179070000Y-69577088D01*
X179070000Y-69577088D02*
X169436912Y-59944000D01*
X169436912Y-59944000D02*
X159512000Y-59944000D01*
X151210033Y-68245967D02*
X151210033Y-88437032D01*
X159512000Y-59944000D02*
X151210033Y-68245967D01*
X158750000Y-95976999D02*
X158750000Y-101600000D01*
%TO.N,Net-(D60-Pad1)*%
X176530000Y-92710000D02*
X175260000Y-93980000D01*
X175260000Y-93980000D02*
X175260000Y-96520000D01*
%TO.N,MOSI*%
X87089999Y-108094999D02*
X91584999Y-108094999D01*
X83914999Y-112298591D02*
X86504999Y-109708591D01*
X83114001Y-118015001D02*
X83914999Y-117214003D01*
X83914999Y-117214003D02*
X83914999Y-112298591D01*
X80646410Y-116840000D02*
X81821411Y-118015001D01*
X91584999Y-108094999D02*
X92710000Y-109220000D01*
X80010000Y-116840000D02*
X80646410Y-116840000D01*
X86504999Y-109708591D02*
X86504999Y-108679999D01*
X81821411Y-118015001D02*
X83114001Y-118015001D01*
X86504999Y-108679999D02*
X87089999Y-108094999D01*
%TO.N,CLK*%
X144635001Y-108679999D02*
X143905002Y-107950000D01*
X82550000Y-111760000D02*
X82550000Y-116840000D01*
X118505002Y-110490000D02*
X118942501Y-110052501D01*
X119235001Y-109760001D02*
X119235001Y-108679999D01*
X79445999Y-115664999D02*
X78740000Y-116370998D01*
X79495510Y-118465011D02*
X91084989Y-118465011D01*
X136764998Y-109220000D02*
X135890000Y-109220000D01*
X170035001Y-109760001D02*
X170035001Y-108679999D01*
X97790000Y-111760000D02*
X111760000Y-111760000D01*
X162415001Y-108094999D02*
X161290000Y-109220000D01*
X169450001Y-108094999D02*
X162415001Y-108094999D01*
X118505002Y-110490000D02*
X119235001Y-109760001D01*
X118199990Y-107644988D02*
X112065012Y-107644988D01*
X119235001Y-108679999D02*
X118199990Y-107644988D01*
X81374999Y-115664999D02*
X79445999Y-115664999D01*
X78740000Y-117709501D02*
X79495510Y-118465011D01*
X111760000Y-111760000D02*
X113030000Y-110490000D01*
X112065012Y-107644988D02*
X110490000Y-109220000D01*
X120797501Y-111322501D02*
X119235001Y-109760001D01*
X138034998Y-107950000D02*
X136764998Y-109220000D01*
X78740000Y-116370998D02*
X78740000Y-117709501D01*
X143072501Y-111322501D02*
X168472501Y-111322501D01*
X91084989Y-118465011D02*
X97790000Y-111760000D01*
X85090000Y-109220000D02*
X82550000Y-111760000D01*
X82550000Y-116840000D02*
X81374999Y-115664999D01*
X143072501Y-111322501D02*
X144635001Y-109760001D01*
X144635001Y-109760001D02*
X144635001Y-108679999D01*
X168472501Y-111322501D02*
X170035001Y-109760001D01*
X143072501Y-111322501D02*
X120797501Y-111322501D01*
X170035001Y-108679999D02*
X169450001Y-108094999D01*
X113030000Y-110490000D02*
X118505002Y-110490000D01*
X143905002Y-107950000D02*
X138034998Y-107950000D01*
%TO.N,SS*%
X113030000Y-109220000D02*
X113029960Y-109220000D01*
X89719989Y-111309989D02*
X110940011Y-111309989D01*
X87630000Y-109220000D02*
X89719989Y-111309989D01*
X87630000Y-110490000D02*
X87630000Y-109220000D01*
X85090000Y-116840000D02*
X85090000Y-113030000D01*
X85090000Y-113030000D02*
X87630000Y-110490000D01*
X110940011Y-111309989D02*
X113030000Y-109220000D01*
%TO.N,D2*%
X81585012Y-107644988D02*
X92799990Y-107644988D01*
X80010000Y-109220000D02*
X81585012Y-107644988D01*
X92799990Y-107644988D02*
X94124999Y-108969997D01*
X110818578Y-110795012D02*
X111904999Y-109708591D01*
X94124999Y-109760001D02*
X95160010Y-110795012D01*
X117235002Y-109220000D02*
X118110000Y-109220000D01*
X116110001Y-108094999D02*
X117235002Y-109220000D01*
X111904999Y-108679999D02*
X112489999Y-108094999D01*
X111904999Y-109708591D02*
X111904999Y-108679999D01*
X112489999Y-108094999D02*
X116110001Y-108094999D01*
X95160010Y-110795012D02*
X110818578Y-110795012D01*
X94124999Y-108969997D02*
X94124999Y-109760001D01*
%TO.N,D3*%
X123177488Y-110872490D02*
X141857510Y-110872490D01*
X120579977Y-107194977D02*
X122064999Y-108679999D01*
X107435023Y-107194977D02*
X120579977Y-107194977D01*
X122064999Y-109760001D02*
X123177488Y-110872490D01*
X105410000Y-109220000D02*
X107435023Y-107194977D01*
X141857510Y-110872490D02*
X143510000Y-109220000D01*
X122064999Y-108679999D02*
X122064999Y-109760001D01*
%TO.N,D4*%
X147464999Y-109760001D02*
X148049999Y-110345001D01*
X130810000Y-109220000D02*
X132530011Y-107499989D01*
X146500011Y-107499989D02*
X147464999Y-108464977D01*
X167784999Y-110345001D02*
X168910000Y-109220000D01*
X132530011Y-107499989D02*
X146500011Y-107499989D01*
X148049999Y-110345001D02*
X167784999Y-110345001D01*
X147464999Y-108464977D02*
X147464999Y-109760001D01*
%TD*%
M02*
