G04 #@! TF.GenerationSoftware,KiCad,Pcbnew,5.1.6+dfsg1-1*
G04 #@! TF.CreationDate,2020-12-17T12:17:01-07:00*
G04 #@! TF.ProjectId,7segment,37736567-6d65-46e7-942e-6b696361645f,rev?*
G04 #@! TF.SameCoordinates,Original*
G04 #@! TF.FileFunction,Other,Fab,Top*
%FSLAX46Y46*%
G04 Gerber Fmt 4.6, Leading zero omitted, Abs format (unit mm)*
G04 Created by KiCad (PCBNEW 5.1.6+dfsg1-1) date 2020-12-17 12:17:01*
%MOMM*%
%LPD*%
G01*
G04 APERTURE LIST*
%ADD10C,0.100000*%
%ADD11C,0.150000*%
%ADD12C,0.141000*%
%ADD13C,0.108000*%
G04 APERTURE END LIST*
D10*
X169314000Y-111018000D02*
X169314000Y-113518000D01*
X169314000Y-113518000D02*
X174014000Y-113518000D01*
X174014000Y-113518000D02*
X174014000Y-111018000D01*
X174014000Y-111018000D02*
X169314000Y-111018000D01*
X98060000Y-102235000D02*
X99060000Y-103235000D01*
X78740000Y-102235000D02*
X98060000Y-102235000D01*
X78740000Y-108585000D02*
X78740000Y-102235000D01*
X99060000Y-108585000D02*
X78740000Y-108585000D01*
X99060000Y-103235000D02*
X99060000Y-108585000D01*
X162306000Y-116459000D02*
X162306000Y-114554000D01*
X162306000Y-114554000D02*
X175006000Y-114554000D01*
X175006000Y-114554000D02*
X175006000Y-117094000D01*
X175006000Y-117094000D02*
X162941000Y-117094000D01*
X162941000Y-117094000D02*
X162306000Y-116459000D01*
X123460000Y-102235000D02*
X124460000Y-103235000D01*
X104140000Y-102235000D02*
X123460000Y-102235000D01*
X104140000Y-108585000D02*
X104140000Y-102235000D01*
X124460000Y-108585000D02*
X104140000Y-108585000D01*
X124460000Y-103235000D02*
X124460000Y-108585000D01*
X148860000Y-102235000D02*
X149860000Y-103235000D01*
X129540000Y-102235000D02*
X148860000Y-102235000D01*
X129540000Y-108585000D02*
X129540000Y-102235000D01*
X149860000Y-108585000D02*
X129540000Y-108585000D01*
X149860000Y-103235000D02*
X149860000Y-108585000D01*
X174260000Y-102235000D02*
X175260000Y-103235000D01*
X154940000Y-102235000D02*
X174260000Y-102235000D01*
X154940000Y-108585000D02*
X154940000Y-102235000D01*
X175260000Y-108585000D02*
X154940000Y-108585000D01*
X175260000Y-103235000D02*
X175260000Y-108585000D01*
X79629000Y-117094000D02*
X78994000Y-116459000D01*
X91694000Y-117094000D02*
X79629000Y-117094000D01*
X91694000Y-114554000D02*
X91694000Y-117094000D01*
X78994000Y-114554000D02*
X91694000Y-114554000D01*
X78994000Y-116459000D02*
X78994000Y-114554000D01*
X151150000Y-109070000D02*
X153650000Y-109070000D01*
X153650000Y-109070000D02*
X153650000Y-104370000D01*
X153650000Y-104370000D02*
X151150000Y-104370000D01*
X151150000Y-104370000D02*
X151150000Y-109070000D01*
X100350000Y-109070000D02*
X102850000Y-109070000D01*
X102850000Y-109070000D02*
X102850000Y-104370000D01*
X102850000Y-104370000D02*
X100350000Y-104370000D01*
X100350000Y-104370000D02*
X100350000Y-109070000D01*
X125750000Y-109070000D02*
X128250000Y-109070000D01*
X128250000Y-109070000D02*
X128250000Y-104370000D01*
X128250000Y-104370000D02*
X125750000Y-104370000D01*
X125750000Y-104370000D02*
X125750000Y-109070000D01*
X167640000Y-82550000D02*
X166900000Y-82550000D01*
X162560000Y-82550000D02*
X163300000Y-82550000D01*
X166900000Y-81750000D02*
X163300000Y-81750000D01*
X166900000Y-83350000D02*
X166900000Y-81750000D01*
X163300000Y-83350000D02*
X166900000Y-83350000D01*
X163300000Y-81750000D02*
X163300000Y-83350000D01*
X167640000Y-72390000D02*
X166900000Y-72390000D01*
X162560000Y-72390000D02*
X163300000Y-72390000D01*
X166900000Y-71590000D02*
X163300000Y-71590000D01*
X166900000Y-73190000D02*
X166900000Y-71590000D01*
X163300000Y-73190000D02*
X166900000Y-73190000D01*
X163300000Y-71590000D02*
X163300000Y-73190000D01*
X167640000Y-87630000D02*
X166900000Y-87630000D01*
X162560000Y-87630000D02*
X163300000Y-87630000D01*
X166900000Y-86830000D02*
X163300000Y-86830000D01*
X166900000Y-88430000D02*
X166900000Y-86830000D01*
X163300000Y-88430000D02*
X166900000Y-88430000D01*
X163300000Y-86830000D02*
X163300000Y-88430000D01*
X167640000Y-96520000D02*
X166900000Y-96520000D01*
X162560000Y-96520000D02*
X163300000Y-96520000D01*
X166900000Y-95720000D02*
X163300000Y-95720000D01*
X166900000Y-97320000D02*
X166900000Y-95720000D01*
X163300000Y-97320000D02*
X166900000Y-97320000D01*
X163300000Y-95720000D02*
X163300000Y-97320000D01*
X167640000Y-85090000D02*
X166900000Y-85090000D01*
X162560000Y-85090000D02*
X163300000Y-85090000D01*
X166900000Y-84290000D02*
X163300000Y-84290000D01*
X166900000Y-85890000D02*
X166900000Y-84290000D01*
X163300000Y-85890000D02*
X166900000Y-85890000D01*
X163300000Y-84290000D02*
X163300000Y-85890000D01*
X167640000Y-69850000D02*
X166900000Y-69850000D01*
X162560000Y-69850000D02*
X163300000Y-69850000D01*
X166900000Y-69050000D02*
X163300000Y-69050000D01*
X166900000Y-70650000D02*
X166900000Y-69050000D01*
X163300000Y-70650000D02*
X166900000Y-70650000D01*
X163300000Y-69050000D02*
X163300000Y-70650000D01*
X167640000Y-67310000D02*
X166900000Y-67310000D01*
X162560000Y-67310000D02*
X163300000Y-67310000D01*
X166900000Y-66510000D02*
X163300000Y-66510000D01*
X166900000Y-68110000D02*
X166900000Y-66510000D01*
X163300000Y-68110000D02*
X166900000Y-68110000D01*
X163300000Y-66510000D02*
X163300000Y-68110000D01*
X154940000Y-96520000D02*
X154200000Y-96520000D01*
X149860000Y-96520000D02*
X150600000Y-96520000D01*
X154200000Y-95720000D02*
X150600000Y-95720000D01*
X154200000Y-97320000D02*
X154200000Y-95720000D01*
X150600000Y-97320000D02*
X154200000Y-97320000D01*
X150600000Y-95720000D02*
X150600000Y-97320000D01*
X142240000Y-82550000D02*
X141500000Y-82550000D01*
X137160000Y-82550000D02*
X137900000Y-82550000D01*
X141500000Y-81750000D02*
X137900000Y-81750000D01*
X141500000Y-83350000D02*
X141500000Y-81750000D01*
X137900000Y-83350000D02*
X141500000Y-83350000D01*
X137900000Y-81750000D02*
X137900000Y-83350000D01*
X142240000Y-72390000D02*
X141500000Y-72390000D01*
X137160000Y-72390000D02*
X137900000Y-72390000D01*
X141500000Y-71590000D02*
X137900000Y-71590000D01*
X141500000Y-73190000D02*
X141500000Y-71590000D01*
X137900000Y-73190000D02*
X141500000Y-73190000D01*
X137900000Y-71590000D02*
X137900000Y-73190000D01*
X142240000Y-87630000D02*
X141500000Y-87630000D01*
X137160000Y-87630000D02*
X137900000Y-87630000D01*
X141500000Y-86830000D02*
X137900000Y-86830000D01*
X141500000Y-88430000D02*
X141500000Y-86830000D01*
X137900000Y-88430000D02*
X141500000Y-88430000D01*
X137900000Y-86830000D02*
X137900000Y-88430000D01*
X142240000Y-96520000D02*
X141500000Y-96520000D01*
X137160000Y-96520000D02*
X137900000Y-96520000D01*
X141500000Y-95720000D02*
X137900000Y-95720000D01*
X141500000Y-97320000D02*
X141500000Y-95720000D01*
X137900000Y-97320000D02*
X141500000Y-97320000D01*
X137900000Y-95720000D02*
X137900000Y-97320000D01*
X142240000Y-85090000D02*
X141500000Y-85090000D01*
X137160000Y-85090000D02*
X137900000Y-85090000D01*
X141500000Y-84290000D02*
X137900000Y-84290000D01*
X141500000Y-85890000D02*
X141500000Y-84290000D01*
X137900000Y-85890000D02*
X141500000Y-85890000D01*
X137900000Y-84290000D02*
X137900000Y-85890000D01*
X142240000Y-69850000D02*
X141500000Y-69850000D01*
X137160000Y-69850000D02*
X137900000Y-69850000D01*
X141500000Y-69050000D02*
X137900000Y-69050000D01*
X141500000Y-70650000D02*
X141500000Y-69050000D01*
X137900000Y-70650000D02*
X141500000Y-70650000D01*
X137900000Y-69050000D02*
X137900000Y-70650000D01*
X142240000Y-67310000D02*
X141500000Y-67310000D01*
X137160000Y-67310000D02*
X137900000Y-67310000D01*
X141500000Y-66510000D02*
X137900000Y-66510000D01*
X141500000Y-68110000D02*
X141500000Y-66510000D01*
X137900000Y-68110000D02*
X141500000Y-68110000D01*
X137900000Y-66510000D02*
X137900000Y-68110000D01*
X129540000Y-96520000D02*
X128800000Y-96520000D01*
X124460000Y-96520000D02*
X125200000Y-96520000D01*
X128800000Y-95720000D02*
X125200000Y-95720000D01*
X128800000Y-97320000D02*
X128800000Y-95720000D01*
X125200000Y-97320000D02*
X128800000Y-97320000D01*
X125200000Y-95720000D02*
X125200000Y-97320000D01*
X116840000Y-82550000D02*
X116100000Y-82550000D01*
X111760000Y-82550000D02*
X112500000Y-82550000D01*
X116100000Y-81750000D02*
X112500000Y-81750000D01*
X116100000Y-83350000D02*
X116100000Y-81750000D01*
X112500000Y-83350000D02*
X116100000Y-83350000D01*
X112500000Y-81750000D02*
X112500000Y-83350000D01*
X116840000Y-72390000D02*
X116100000Y-72390000D01*
X111760000Y-72390000D02*
X112500000Y-72390000D01*
X116100000Y-71590000D02*
X112500000Y-71590000D01*
X116100000Y-73190000D02*
X116100000Y-71590000D01*
X112500000Y-73190000D02*
X116100000Y-73190000D01*
X112500000Y-71590000D02*
X112500000Y-73190000D01*
X116840000Y-87630000D02*
X116100000Y-87630000D01*
X111760000Y-87630000D02*
X112500000Y-87630000D01*
X116100000Y-86830000D02*
X112500000Y-86830000D01*
X116100000Y-88430000D02*
X116100000Y-86830000D01*
X112500000Y-88430000D02*
X116100000Y-88430000D01*
X112500000Y-86830000D02*
X112500000Y-88430000D01*
X116840000Y-96520000D02*
X116100000Y-96520000D01*
X111760000Y-96520000D02*
X112500000Y-96520000D01*
X116100000Y-95720000D02*
X112500000Y-95720000D01*
X116100000Y-97320000D02*
X116100000Y-95720000D01*
X112500000Y-97320000D02*
X116100000Y-97320000D01*
X112500000Y-95720000D02*
X112500000Y-97320000D01*
X116840000Y-85090000D02*
X116100000Y-85090000D01*
X111760000Y-85090000D02*
X112500000Y-85090000D01*
X116100000Y-84290000D02*
X112500000Y-84290000D01*
X116100000Y-85890000D02*
X116100000Y-84290000D01*
X112500000Y-85890000D02*
X116100000Y-85890000D01*
X112500000Y-84290000D02*
X112500000Y-85890000D01*
X116840000Y-69850000D02*
X116100000Y-69850000D01*
X111760000Y-69850000D02*
X112500000Y-69850000D01*
X116100000Y-69050000D02*
X112500000Y-69050000D01*
X116100000Y-70650000D02*
X116100000Y-69050000D01*
X112500000Y-70650000D02*
X116100000Y-70650000D01*
X112500000Y-69050000D02*
X112500000Y-70650000D01*
X116840000Y-67310000D02*
X116100000Y-67310000D01*
X111760000Y-67310000D02*
X112500000Y-67310000D01*
X116100000Y-66510000D02*
X112500000Y-66510000D01*
X116100000Y-68110000D02*
X116100000Y-66510000D01*
X112500000Y-68110000D02*
X116100000Y-68110000D01*
X112500000Y-66510000D02*
X112500000Y-68110000D01*
X104140000Y-96520000D02*
X103400000Y-96520000D01*
X99060000Y-96520000D02*
X99800000Y-96520000D01*
X103400000Y-95720000D02*
X99800000Y-95720000D01*
X103400000Y-97320000D02*
X103400000Y-95720000D01*
X99800000Y-97320000D02*
X103400000Y-97320000D01*
X99800000Y-95720000D02*
X99800000Y-97320000D01*
X91440000Y-82550000D02*
X90700000Y-82550000D01*
X86360000Y-82550000D02*
X87100000Y-82550000D01*
X90700000Y-81750000D02*
X87100000Y-81750000D01*
X90700000Y-83350000D02*
X90700000Y-81750000D01*
X87100000Y-83350000D02*
X90700000Y-83350000D01*
X87100000Y-81750000D02*
X87100000Y-83350000D01*
X91440000Y-72390000D02*
X90700000Y-72390000D01*
X86360000Y-72390000D02*
X87100000Y-72390000D01*
X90700000Y-71590000D02*
X87100000Y-71590000D01*
X90700000Y-73190000D02*
X90700000Y-71590000D01*
X87100000Y-73190000D02*
X90700000Y-73190000D01*
X87100000Y-71590000D02*
X87100000Y-73190000D01*
X91440000Y-87630000D02*
X90700000Y-87630000D01*
X86360000Y-87630000D02*
X87100000Y-87630000D01*
X90700000Y-86830000D02*
X87100000Y-86830000D01*
X90700000Y-88430000D02*
X90700000Y-86830000D01*
X87100000Y-88430000D02*
X90700000Y-88430000D01*
X87100000Y-86830000D02*
X87100000Y-88430000D01*
X91440000Y-96520000D02*
X90700000Y-96520000D01*
X86360000Y-96520000D02*
X87100000Y-96520000D01*
X90700000Y-95720000D02*
X87100000Y-95720000D01*
X90700000Y-97320000D02*
X90700000Y-95720000D01*
X87100000Y-97320000D02*
X90700000Y-97320000D01*
X87100000Y-95720000D02*
X87100000Y-97320000D01*
X91440000Y-85090000D02*
X90700000Y-85090000D01*
X86360000Y-85090000D02*
X87100000Y-85090000D01*
X90700000Y-84290000D02*
X87100000Y-84290000D01*
X90700000Y-85890000D02*
X90700000Y-84290000D01*
X87100000Y-85890000D02*
X90700000Y-85890000D01*
X87100000Y-84290000D02*
X87100000Y-85890000D01*
X91440000Y-69850000D02*
X90700000Y-69850000D01*
X86360000Y-69850000D02*
X87100000Y-69850000D01*
X90700000Y-69050000D02*
X87100000Y-69050000D01*
X90700000Y-70650000D02*
X90700000Y-69050000D01*
X87100000Y-70650000D02*
X90700000Y-70650000D01*
X87100000Y-69050000D02*
X87100000Y-70650000D01*
X91440000Y-67310000D02*
X90700000Y-67310000D01*
X86360000Y-67310000D02*
X87100000Y-67310000D01*
X90700000Y-66510000D02*
X87100000Y-66510000D01*
X90700000Y-68110000D02*
X90700000Y-66510000D01*
X87100000Y-68110000D02*
X90700000Y-68110000D01*
X87100000Y-66510000D02*
X87100000Y-68110000D01*
X166140000Y-76303810D02*
X166140000Y-78636190D01*
X169140000Y-77470000D02*
G75*
G03*
X169140000Y-77470000I-1500000J0D01*
G01*
X166139445Y-78635476D02*
G75*
G03*
X166140000Y-76303810I1500555J1165476D01*
G01*
X155980000Y-66143810D02*
X155980000Y-68476190D01*
X158980000Y-67310000D02*
G75*
G03*
X158980000Y-67310000I-1500000J0D01*
G01*
X155979445Y-68475476D02*
G75*
G03*
X155980000Y-66143810I1500555J1165476D01*
G01*
X155980000Y-81383810D02*
X155980000Y-83716190D01*
X158980000Y-82550000D02*
G75*
G03*
X158980000Y-82550000I-1500000J0D01*
G01*
X155979445Y-83715476D02*
G75*
G03*
X155980000Y-81383810I1500555J1165476D01*
G01*
X166140000Y-91543810D02*
X166140000Y-93876190D01*
X169140000Y-92710000D02*
G75*
G03*
X169140000Y-92710000I-1500000J0D01*
G01*
X166139445Y-93875476D02*
G75*
G03*
X166140000Y-91543810I1500555J1165476D01*
G01*
X171220000Y-86463810D02*
X171220000Y-88796190D01*
X174220000Y-87630000D02*
G75*
G03*
X174220000Y-87630000I-1500000J0D01*
G01*
X171219445Y-88795476D02*
G75*
G03*
X171220000Y-86463810I1500555J1165476D01*
G01*
X171220000Y-71223810D02*
X171220000Y-73556190D01*
X174220000Y-72390000D02*
G75*
G03*
X174220000Y-72390000I-1500000J0D01*
G01*
X171219445Y-73555476D02*
G75*
G03*
X171220000Y-71223810I1500555J1165476D01*
G01*
X166140000Y-61063810D02*
X166140000Y-63396190D01*
X169140000Y-62230000D02*
G75*
G03*
X169140000Y-62230000I-1500000J0D01*
G01*
X166139445Y-63395476D02*
G75*
G03*
X166140000Y-61063810I1500555J1165476D01*
G01*
X150900000Y-91543810D02*
X150900000Y-93876190D01*
X153900000Y-92710000D02*
G75*
G03*
X153900000Y-92710000I-1500000J0D01*
G01*
X150899445Y-93875476D02*
G75*
G03*
X150900000Y-91543810I1500555J1165476D01*
G01*
X140740000Y-76303810D02*
X140740000Y-78636190D01*
X143740000Y-77470000D02*
G75*
G03*
X143740000Y-77470000I-1500000J0D01*
G01*
X140739445Y-78635476D02*
G75*
G03*
X140740000Y-76303810I1500555J1165476D01*
G01*
X130580000Y-66143810D02*
X130580000Y-68476190D01*
X133580000Y-67310000D02*
G75*
G03*
X133580000Y-67310000I-1500000J0D01*
G01*
X130579445Y-68475476D02*
G75*
G03*
X130580000Y-66143810I1500555J1165476D01*
G01*
X130580000Y-81383810D02*
X130580000Y-83716190D01*
X133580000Y-82550000D02*
G75*
G03*
X133580000Y-82550000I-1500000J0D01*
G01*
X130579445Y-83715476D02*
G75*
G03*
X130580000Y-81383810I1500555J1165476D01*
G01*
X140740000Y-91543810D02*
X140740000Y-93876190D01*
X143740000Y-92710000D02*
G75*
G03*
X143740000Y-92710000I-1500000J0D01*
G01*
X140739445Y-93875476D02*
G75*
G03*
X140740000Y-91543810I1500555J1165476D01*
G01*
X145820000Y-86463810D02*
X145820000Y-88796190D01*
X148820000Y-87630000D02*
G75*
G03*
X148820000Y-87630000I-1500000J0D01*
G01*
X145819445Y-88795476D02*
G75*
G03*
X145820000Y-86463810I1500555J1165476D01*
G01*
X145820000Y-71223810D02*
X145820000Y-73556190D01*
X148820000Y-72390000D02*
G75*
G03*
X148820000Y-72390000I-1500000J0D01*
G01*
X145819445Y-73555476D02*
G75*
G03*
X145820000Y-71223810I1500555J1165476D01*
G01*
X140740000Y-61063810D02*
X140740000Y-63396190D01*
X143740000Y-62230000D02*
G75*
G03*
X143740000Y-62230000I-1500000J0D01*
G01*
X140739445Y-63395476D02*
G75*
G03*
X140740000Y-61063810I1500555J1165476D01*
G01*
X161060000Y-76303810D02*
X161060000Y-78636190D01*
X164060000Y-77470000D02*
G75*
G03*
X164060000Y-77470000I-1500000J0D01*
G01*
X161059445Y-78635476D02*
G75*
G03*
X161060000Y-76303810I1500555J1165476D01*
G01*
X155980000Y-71223810D02*
X155980000Y-73556190D01*
X158980000Y-72390000D02*
G75*
G03*
X158980000Y-72390000I-1500000J0D01*
G01*
X155979445Y-73555476D02*
G75*
G03*
X155980000Y-71223810I1500555J1165476D01*
G01*
X155980000Y-86463810D02*
X155980000Y-88796190D01*
X158980000Y-87630000D02*
G75*
G03*
X158980000Y-87630000I-1500000J0D01*
G01*
X155979445Y-88795476D02*
G75*
G03*
X155980000Y-86463810I1500555J1165476D01*
G01*
X161060000Y-91543810D02*
X161060000Y-93876190D01*
X164060000Y-92710000D02*
G75*
G03*
X164060000Y-92710000I-1500000J0D01*
G01*
X161059445Y-93875476D02*
G75*
G03*
X161060000Y-91543810I1500555J1165476D01*
G01*
X171220000Y-81383810D02*
X171220000Y-83716190D01*
X174220000Y-82550000D02*
G75*
G03*
X174220000Y-82550000I-1500000J0D01*
G01*
X171219445Y-83715476D02*
G75*
G03*
X171220000Y-81383810I1500555J1165476D01*
G01*
X171220000Y-66143810D02*
X171220000Y-68476190D01*
X174220000Y-67310000D02*
G75*
G03*
X174220000Y-67310000I-1500000J0D01*
G01*
X171219445Y-68475476D02*
G75*
G03*
X171220000Y-66143810I1500555J1165476D01*
G01*
X161060000Y-61063810D02*
X161060000Y-63396190D01*
X164060000Y-62230000D02*
G75*
G03*
X164060000Y-62230000I-1500000J0D01*
G01*
X161059445Y-63395476D02*
G75*
G03*
X161060000Y-61063810I1500555J1165476D01*
G01*
X135660000Y-76303810D02*
X135660000Y-78636190D01*
X138660000Y-77470000D02*
G75*
G03*
X138660000Y-77470000I-1500000J0D01*
G01*
X135659445Y-78635476D02*
G75*
G03*
X135660000Y-76303810I1500555J1165476D01*
G01*
X130580000Y-71223810D02*
X130580000Y-73556190D01*
X133580000Y-72390000D02*
G75*
G03*
X133580000Y-72390000I-1500000J0D01*
G01*
X130579445Y-73555476D02*
G75*
G03*
X130580000Y-71223810I1500555J1165476D01*
G01*
X130580000Y-86463810D02*
X130580000Y-88796190D01*
X133580000Y-87630000D02*
G75*
G03*
X133580000Y-87630000I-1500000J0D01*
G01*
X130579445Y-88795476D02*
G75*
G03*
X130580000Y-86463810I1500555J1165476D01*
G01*
X135660000Y-91543810D02*
X135660000Y-93876190D01*
X138660000Y-92710000D02*
G75*
G03*
X138660000Y-92710000I-1500000J0D01*
G01*
X135659445Y-93875476D02*
G75*
G03*
X135660000Y-91543810I1500555J1165476D01*
G01*
X145820000Y-81383810D02*
X145820000Y-83716190D01*
X148820000Y-82550000D02*
G75*
G03*
X148820000Y-82550000I-1500000J0D01*
G01*
X145819445Y-83715476D02*
G75*
G03*
X145820000Y-81383810I1500555J1165476D01*
G01*
X145820000Y-66143810D02*
X145820000Y-68476190D01*
X148820000Y-67310000D02*
G75*
G03*
X148820000Y-67310000I-1500000J0D01*
G01*
X145819445Y-68475476D02*
G75*
G03*
X145820000Y-66143810I1500555J1165476D01*
G01*
X135660000Y-61063810D02*
X135660000Y-63396190D01*
X138660000Y-62230000D02*
G75*
G03*
X138660000Y-62230000I-1500000J0D01*
G01*
X135659445Y-63395476D02*
G75*
G03*
X135660000Y-61063810I1500555J1165476D01*
G01*
X125500000Y-91543810D02*
X125500000Y-93876190D01*
X128500000Y-92710000D02*
G75*
G03*
X128500000Y-92710000I-1500000J0D01*
G01*
X125499445Y-93875476D02*
G75*
G03*
X125500000Y-91543810I1500555J1165476D01*
G01*
X115340000Y-76303810D02*
X115340000Y-78636190D01*
X118340000Y-77470000D02*
G75*
G03*
X118340000Y-77470000I-1500000J0D01*
G01*
X115339445Y-78635476D02*
G75*
G03*
X115340000Y-76303810I1500555J1165476D01*
G01*
X105180000Y-66143810D02*
X105180000Y-68476190D01*
X108180000Y-67310000D02*
G75*
G03*
X108180000Y-67310000I-1500000J0D01*
G01*
X105179445Y-68475476D02*
G75*
G03*
X105180000Y-66143810I1500555J1165476D01*
G01*
X105180000Y-81383810D02*
X105180000Y-83716190D01*
X108180000Y-82550000D02*
G75*
G03*
X108180000Y-82550000I-1500000J0D01*
G01*
X105179445Y-83715476D02*
G75*
G03*
X105180000Y-81383810I1500555J1165476D01*
G01*
X115340000Y-91543810D02*
X115340000Y-93876190D01*
X118340000Y-92710000D02*
G75*
G03*
X118340000Y-92710000I-1500000J0D01*
G01*
X115339445Y-93875476D02*
G75*
G03*
X115340000Y-91543810I1500555J1165476D01*
G01*
X120420000Y-86463810D02*
X120420000Y-88796190D01*
X123420000Y-87630000D02*
G75*
G03*
X123420000Y-87630000I-1500000J0D01*
G01*
X120419445Y-88795476D02*
G75*
G03*
X120420000Y-86463810I1500555J1165476D01*
G01*
X120420000Y-71223810D02*
X120420000Y-73556190D01*
X123420000Y-72390000D02*
G75*
G03*
X123420000Y-72390000I-1500000J0D01*
G01*
X120419445Y-73555476D02*
G75*
G03*
X120420000Y-71223810I1500555J1165476D01*
G01*
X115340000Y-61063810D02*
X115340000Y-63396190D01*
X118340000Y-62230000D02*
G75*
G03*
X118340000Y-62230000I-1500000J0D01*
G01*
X115339445Y-63395476D02*
G75*
G03*
X115340000Y-61063810I1500555J1165476D01*
G01*
X100100000Y-91543810D02*
X100100000Y-93876190D01*
X103100000Y-92710000D02*
G75*
G03*
X103100000Y-92710000I-1500000J0D01*
G01*
X100099445Y-93875476D02*
G75*
G03*
X100100000Y-91543810I1500555J1165476D01*
G01*
X89940000Y-76303810D02*
X89940000Y-78636190D01*
X92940000Y-77470000D02*
G75*
G03*
X92940000Y-77470000I-1500000J0D01*
G01*
X89939445Y-78635476D02*
G75*
G03*
X89940000Y-76303810I1500555J1165476D01*
G01*
X79780000Y-66143810D02*
X79780000Y-68476190D01*
X82780000Y-67310000D02*
G75*
G03*
X82780000Y-67310000I-1500000J0D01*
G01*
X79779445Y-68475476D02*
G75*
G03*
X79780000Y-66143810I1500555J1165476D01*
G01*
X79780000Y-81383810D02*
X79780000Y-83716190D01*
X82780000Y-82550000D02*
G75*
G03*
X82780000Y-82550000I-1500000J0D01*
G01*
X79779445Y-83715476D02*
G75*
G03*
X79780000Y-81383810I1500555J1165476D01*
G01*
X89940000Y-91543810D02*
X89940000Y-93876190D01*
X92940000Y-92710000D02*
G75*
G03*
X92940000Y-92710000I-1500000J0D01*
G01*
X89939445Y-93875476D02*
G75*
G03*
X89940000Y-91543810I1500555J1165476D01*
G01*
X95020000Y-86463810D02*
X95020000Y-88796190D01*
X98020000Y-87630000D02*
G75*
G03*
X98020000Y-87630000I-1500000J0D01*
G01*
X95019445Y-88795476D02*
G75*
G03*
X95020000Y-86463810I1500555J1165476D01*
G01*
X95020000Y-71223810D02*
X95020000Y-73556190D01*
X98020000Y-72390000D02*
G75*
G03*
X98020000Y-72390000I-1500000J0D01*
G01*
X95019445Y-73555476D02*
G75*
G03*
X95020000Y-71223810I1500555J1165476D01*
G01*
X89940000Y-61063810D02*
X89940000Y-63396190D01*
X92940000Y-62230000D02*
G75*
G03*
X92940000Y-62230000I-1500000J0D01*
G01*
X89939445Y-63395476D02*
G75*
G03*
X89940000Y-61063810I1500555J1165476D01*
G01*
X110260000Y-76303810D02*
X110260000Y-78636190D01*
X113260000Y-77470000D02*
G75*
G03*
X113260000Y-77470000I-1500000J0D01*
G01*
X110259445Y-78635476D02*
G75*
G03*
X110260000Y-76303810I1500555J1165476D01*
G01*
X105180000Y-71223810D02*
X105180000Y-73556190D01*
X108180000Y-72390000D02*
G75*
G03*
X108180000Y-72390000I-1500000J0D01*
G01*
X105179445Y-73555476D02*
G75*
G03*
X105180000Y-71223810I1500555J1165476D01*
G01*
X105180000Y-86463810D02*
X105180000Y-88796190D01*
X108180000Y-87630000D02*
G75*
G03*
X108180000Y-87630000I-1500000J0D01*
G01*
X105179445Y-88795476D02*
G75*
G03*
X105180000Y-86463810I1500555J1165476D01*
G01*
X110260000Y-91543810D02*
X110260000Y-93876190D01*
X113260000Y-92710000D02*
G75*
G03*
X113260000Y-92710000I-1500000J0D01*
G01*
X110259445Y-93875476D02*
G75*
G03*
X110260000Y-91543810I1500555J1165476D01*
G01*
X120420000Y-81383810D02*
X120420000Y-83716190D01*
X123420000Y-82550000D02*
G75*
G03*
X123420000Y-82550000I-1500000J0D01*
G01*
X120419445Y-83715476D02*
G75*
G03*
X120420000Y-81383810I1500555J1165476D01*
G01*
X120420000Y-66143810D02*
X120420000Y-68476190D01*
X123420000Y-67310000D02*
G75*
G03*
X123420000Y-67310000I-1500000J0D01*
G01*
X120419445Y-68475476D02*
G75*
G03*
X120420000Y-66143810I1500555J1165476D01*
G01*
X110260000Y-61063810D02*
X110260000Y-63396190D01*
X113260000Y-62230000D02*
G75*
G03*
X113260000Y-62230000I-1500000J0D01*
G01*
X110259445Y-63395476D02*
G75*
G03*
X110260000Y-61063810I1500555J1165476D01*
G01*
X84860000Y-76303810D02*
X84860000Y-78636190D01*
X87860000Y-77470000D02*
G75*
G03*
X87860000Y-77470000I-1500000J0D01*
G01*
X84859445Y-78635476D02*
G75*
G03*
X84860000Y-76303810I1500555J1165476D01*
G01*
X79780000Y-71223810D02*
X79780000Y-73556190D01*
X82780000Y-72390000D02*
G75*
G03*
X82780000Y-72390000I-1500000J0D01*
G01*
X79779445Y-73555476D02*
G75*
G03*
X79780000Y-71223810I1500555J1165476D01*
G01*
X79780000Y-86463810D02*
X79780000Y-88796190D01*
X82780000Y-87630000D02*
G75*
G03*
X82780000Y-87630000I-1500000J0D01*
G01*
X79779445Y-88795476D02*
G75*
G03*
X79780000Y-86463810I1500555J1165476D01*
G01*
X84860000Y-91543810D02*
X84860000Y-93876190D01*
X87860000Y-92710000D02*
G75*
G03*
X87860000Y-92710000I-1500000J0D01*
G01*
X84859445Y-93875476D02*
G75*
G03*
X84860000Y-91543810I1500555J1165476D01*
G01*
X95020000Y-81383810D02*
X95020000Y-83716190D01*
X98020000Y-82550000D02*
G75*
G03*
X98020000Y-82550000I-1500000J0D01*
G01*
X95019445Y-83715476D02*
G75*
G03*
X95020000Y-81383810I1500555J1165476D01*
G01*
X95020000Y-66143810D02*
X95020000Y-68476190D01*
X98020000Y-67310000D02*
G75*
G03*
X98020000Y-67310000I-1500000J0D01*
G01*
X95019445Y-68475476D02*
G75*
G03*
X95020000Y-66143810I1500555J1165476D01*
G01*
X84860000Y-61063810D02*
X84860000Y-63396190D01*
X87860000Y-62230000D02*
G75*
G03*
X87860000Y-62230000I-1500000J0D01*
G01*
X84859445Y-63395476D02*
G75*
G03*
X84860000Y-61063810I1500555J1165476D01*
G01*
D11*
X170544952Y-115220380D02*
X169973523Y-115220380D01*
X170259238Y-115220380D02*
X170259238Y-114220380D01*
X170164000Y-114363238D01*
X170068761Y-114458476D01*
X169973523Y-114506095D01*
X171164000Y-114220380D02*
X171259238Y-114220380D01*
X171354476Y-114268000D01*
X171402095Y-114315619D01*
X171449714Y-114410857D01*
X171497333Y-114601333D01*
X171497333Y-114839428D01*
X171449714Y-115029904D01*
X171402095Y-115125142D01*
X171354476Y-115172761D01*
X171259238Y-115220380D01*
X171164000Y-115220380D01*
X171068761Y-115172761D01*
X171021142Y-115125142D01*
X170973523Y-115029904D01*
X170925904Y-114839428D01*
X170925904Y-114601333D01*
X170973523Y-114410857D01*
X171021142Y-114315619D01*
X171068761Y-114268000D01*
X171164000Y-114220380D01*
X172116380Y-114220380D02*
X172211619Y-114220380D01*
X172306857Y-114268000D01*
X172354476Y-114315619D01*
X172402095Y-114410857D01*
X172449714Y-114601333D01*
X172449714Y-114839428D01*
X172402095Y-115029904D01*
X172354476Y-115125142D01*
X172306857Y-115172761D01*
X172211619Y-115220380D01*
X172116380Y-115220380D01*
X172021142Y-115172761D01*
X171973523Y-115125142D01*
X171925904Y-115029904D01*
X171878285Y-114839428D01*
X171878285Y-114601333D01*
X171925904Y-114410857D01*
X171973523Y-114315619D01*
X172021142Y-114268000D01*
X172116380Y-114220380D01*
X172878285Y-114553714D02*
X172878285Y-115220380D01*
X172878285Y-114648952D02*
X172925904Y-114601333D01*
X173021142Y-114553714D01*
X173164000Y-114553714D01*
X173259238Y-114601333D01*
X173306857Y-114696571D01*
X173306857Y-115220380D01*
D12*
X171507333Y-112603714D02*
X171462571Y-112648476D01*
X171328285Y-112693238D01*
X171238761Y-112693238D01*
X171104476Y-112648476D01*
X171014952Y-112558952D01*
X170970190Y-112469428D01*
X170925428Y-112290380D01*
X170925428Y-112156095D01*
X170970190Y-111977047D01*
X171014952Y-111887523D01*
X171104476Y-111798000D01*
X171238761Y-111753238D01*
X171328285Y-111753238D01*
X171462571Y-111798000D01*
X171507333Y-111842761D01*
X172313047Y-112066571D02*
X172313047Y-112693238D01*
X172089238Y-111708476D02*
X171865428Y-112379904D01*
X172447333Y-112379904D01*
D11*
X77132380Y-108671904D02*
X77132380Y-108005238D01*
X78132380Y-108433809D01*
X77465714Y-107195714D02*
X78132380Y-107195714D01*
X77084761Y-107433809D02*
X77799047Y-107671904D01*
X77799047Y-107052857D01*
X78132380Y-106671904D02*
X77132380Y-106671904D01*
X77608571Y-106671904D02*
X77608571Y-106100476D01*
X78132380Y-106100476D02*
X77132380Y-106100476D01*
X78037142Y-105052857D02*
X78084761Y-105100476D01*
X78132380Y-105243333D01*
X78132380Y-105338571D01*
X78084761Y-105481428D01*
X77989523Y-105576666D01*
X77894285Y-105624285D01*
X77703809Y-105671904D01*
X77560952Y-105671904D01*
X77370476Y-105624285D01*
X77275238Y-105576666D01*
X77180000Y-105481428D01*
X77132380Y-105338571D01*
X77132380Y-105243333D01*
X77180000Y-105100476D01*
X77227619Y-105052857D01*
X77132380Y-104148095D02*
X77132380Y-104624285D01*
X77608571Y-104671904D01*
X77560952Y-104624285D01*
X77513333Y-104529047D01*
X77513333Y-104290952D01*
X77560952Y-104195714D01*
X77608571Y-104148095D01*
X77703809Y-104100476D01*
X77941904Y-104100476D01*
X78037142Y-104148095D01*
X78084761Y-104195714D01*
X78132380Y-104290952D01*
X78132380Y-104529047D01*
X78084761Y-104624285D01*
X78037142Y-104671904D01*
X78132380Y-103624285D02*
X78132380Y-103433809D01*
X78084761Y-103338571D01*
X78037142Y-103290952D01*
X77894285Y-103195714D01*
X77703809Y-103148095D01*
X77322857Y-103148095D01*
X77227619Y-103195714D01*
X77180000Y-103243333D01*
X77132380Y-103338571D01*
X77132380Y-103529047D01*
X77180000Y-103624285D01*
X77227619Y-103671904D01*
X77322857Y-103719523D01*
X77560952Y-103719523D01*
X77656190Y-103671904D01*
X77703809Y-103624285D01*
X77751428Y-103529047D01*
X77751428Y-103338571D01*
X77703809Y-103243333D01*
X77656190Y-103195714D01*
X77560952Y-103148095D01*
X77132380Y-102243333D02*
X77132380Y-102719523D01*
X77608571Y-102767142D01*
X77560952Y-102719523D01*
X77513333Y-102624285D01*
X77513333Y-102386190D01*
X77560952Y-102290952D01*
X77608571Y-102243333D01*
X77703809Y-102195714D01*
X77941904Y-102195714D01*
X78037142Y-102243333D01*
X78084761Y-102290952D01*
X78132380Y-102386190D01*
X78132380Y-102624285D01*
X78084761Y-102719523D01*
X78037142Y-102767142D01*
X88352380Y-106171904D02*
X89161904Y-106171904D01*
X89257142Y-106124285D01*
X89304761Y-106076666D01*
X89352380Y-105981428D01*
X89352380Y-105790952D01*
X89304761Y-105695714D01*
X89257142Y-105648095D01*
X89161904Y-105600476D01*
X88352380Y-105600476D01*
X89352380Y-104600476D02*
X89352380Y-105171904D01*
X89352380Y-104886190D02*
X88352380Y-104886190D01*
X88495238Y-104981428D01*
X88590476Y-105076666D01*
X88638095Y-105171904D01*
X162822666Y-118721142D02*
X162775047Y-118768761D01*
X162632190Y-118816380D01*
X162536952Y-118816380D01*
X162394095Y-118768761D01*
X162298857Y-118673523D01*
X162251238Y-118578285D01*
X162203619Y-118387809D01*
X162203619Y-118244952D01*
X162251238Y-118054476D01*
X162298857Y-117959238D01*
X162394095Y-117864000D01*
X162536952Y-117816380D01*
X162632190Y-117816380D01*
X162775047Y-117864000D01*
X162822666Y-117911619D01*
X163394095Y-118816380D02*
X163298857Y-118768761D01*
X163251238Y-118721142D01*
X163203619Y-118625904D01*
X163203619Y-118340190D01*
X163251238Y-118244952D01*
X163298857Y-118197333D01*
X163394095Y-118149714D01*
X163536952Y-118149714D01*
X163632190Y-118197333D01*
X163679809Y-118244952D01*
X163727428Y-118340190D01*
X163727428Y-118625904D01*
X163679809Y-118721142D01*
X163632190Y-118768761D01*
X163536952Y-118816380D01*
X163394095Y-118816380D01*
X164156000Y-118149714D02*
X164156000Y-118816380D01*
X164156000Y-118244952D02*
X164203619Y-118197333D01*
X164298857Y-118149714D01*
X164441714Y-118149714D01*
X164536952Y-118197333D01*
X164584571Y-118292571D01*
X164584571Y-118816380D01*
X165060761Y-118149714D02*
X165060761Y-118816380D01*
X165060761Y-118244952D02*
X165108380Y-118197333D01*
X165203619Y-118149714D01*
X165346476Y-118149714D01*
X165441714Y-118197333D01*
X165489333Y-118292571D01*
X165489333Y-118816380D01*
X165727428Y-118911619D02*
X166489333Y-118911619D01*
X166917904Y-117816380D02*
X167013142Y-117816380D01*
X167108380Y-117864000D01*
X167156000Y-117911619D01*
X167203619Y-118006857D01*
X167251238Y-118197333D01*
X167251238Y-118435428D01*
X167203619Y-118625904D01*
X167156000Y-118721142D01*
X167108380Y-118768761D01*
X167013142Y-118816380D01*
X166917904Y-118816380D01*
X166822666Y-118768761D01*
X166775047Y-118721142D01*
X166727428Y-118625904D01*
X166679809Y-118435428D01*
X166679809Y-118197333D01*
X166727428Y-118006857D01*
X166775047Y-117911619D01*
X166822666Y-117864000D01*
X166917904Y-117816380D01*
X168203619Y-118816380D02*
X167632190Y-118816380D01*
X167917904Y-118816380D02*
X167917904Y-117816380D01*
X167822666Y-117959238D01*
X167727428Y-118054476D01*
X167632190Y-118102095D01*
X168536952Y-118816380D02*
X169060761Y-118149714D01*
X168536952Y-118149714D02*
X169060761Y-118816380D01*
X169632190Y-117816380D02*
X169727428Y-117816380D01*
X169822666Y-117864000D01*
X169870285Y-117911619D01*
X169917904Y-118006857D01*
X169965523Y-118197333D01*
X169965523Y-118435428D01*
X169917904Y-118625904D01*
X169870285Y-118721142D01*
X169822666Y-118768761D01*
X169727428Y-118816380D01*
X169632190Y-118816380D01*
X169536952Y-118768761D01*
X169489333Y-118721142D01*
X169441714Y-118625904D01*
X169394095Y-118435428D01*
X169394095Y-118197333D01*
X169441714Y-118006857D01*
X169489333Y-117911619D01*
X169536952Y-117864000D01*
X169632190Y-117816380D01*
X170870285Y-117816380D02*
X170394095Y-117816380D01*
X170346476Y-118292571D01*
X170394095Y-118244952D01*
X170489333Y-118197333D01*
X170727428Y-118197333D01*
X170822666Y-118244952D01*
X170870285Y-118292571D01*
X170917904Y-118387809D01*
X170917904Y-118625904D01*
X170870285Y-118721142D01*
X170822666Y-118768761D01*
X170727428Y-118816380D01*
X170489333Y-118816380D01*
X170394095Y-118768761D01*
X170346476Y-118721142D01*
X171108380Y-118911619D02*
X171870285Y-118911619D01*
X172108380Y-118816380D02*
X172108380Y-117816380D01*
X172441714Y-118530666D01*
X172775047Y-117816380D01*
X172775047Y-118816380D01*
X173679809Y-118816380D02*
X173679809Y-118292571D01*
X173632190Y-118197333D01*
X173536952Y-118149714D01*
X173346476Y-118149714D01*
X173251238Y-118197333D01*
X173679809Y-118768761D02*
X173584571Y-118816380D01*
X173346476Y-118816380D01*
X173251238Y-118768761D01*
X173203619Y-118673523D01*
X173203619Y-118578285D01*
X173251238Y-118483047D01*
X173346476Y-118435428D01*
X173584571Y-118435428D01*
X173679809Y-118387809D01*
X174298857Y-118816380D02*
X174203619Y-118768761D01*
X174156000Y-118673523D01*
X174156000Y-117816380D01*
X175060761Y-118768761D02*
X174965523Y-118816380D01*
X174775047Y-118816380D01*
X174679809Y-118768761D01*
X174632190Y-118673523D01*
X174632190Y-118292571D01*
X174679809Y-118197333D01*
X174775047Y-118149714D01*
X174965523Y-118149714D01*
X175060761Y-118197333D01*
X175108380Y-118292571D01*
X175108380Y-118387809D01*
X174632190Y-118483047D01*
X168322666Y-115276380D02*
X168322666Y-115990666D01*
X168275047Y-116133523D01*
X168179809Y-116228761D01*
X168036952Y-116276380D01*
X167941714Y-116276380D01*
X169322666Y-116276380D02*
X168751238Y-116276380D01*
X169036952Y-116276380D02*
X169036952Y-115276380D01*
X168941714Y-115419238D01*
X168846476Y-115514476D01*
X168751238Y-115562095D01*
X102532380Y-108671904D02*
X102532380Y-108005238D01*
X103532380Y-108433809D01*
X102865714Y-107195714D02*
X103532380Y-107195714D01*
X102484761Y-107433809D02*
X103199047Y-107671904D01*
X103199047Y-107052857D01*
X103532380Y-106671904D02*
X102532380Y-106671904D01*
X103008571Y-106671904D02*
X103008571Y-106100476D01*
X103532380Y-106100476D02*
X102532380Y-106100476D01*
X103437142Y-105052857D02*
X103484761Y-105100476D01*
X103532380Y-105243333D01*
X103532380Y-105338571D01*
X103484761Y-105481428D01*
X103389523Y-105576666D01*
X103294285Y-105624285D01*
X103103809Y-105671904D01*
X102960952Y-105671904D01*
X102770476Y-105624285D01*
X102675238Y-105576666D01*
X102580000Y-105481428D01*
X102532380Y-105338571D01*
X102532380Y-105243333D01*
X102580000Y-105100476D01*
X102627619Y-105052857D01*
X102532380Y-104148095D02*
X102532380Y-104624285D01*
X103008571Y-104671904D01*
X102960952Y-104624285D01*
X102913333Y-104529047D01*
X102913333Y-104290952D01*
X102960952Y-104195714D01*
X103008571Y-104148095D01*
X103103809Y-104100476D01*
X103341904Y-104100476D01*
X103437142Y-104148095D01*
X103484761Y-104195714D01*
X103532380Y-104290952D01*
X103532380Y-104529047D01*
X103484761Y-104624285D01*
X103437142Y-104671904D01*
X103532380Y-103624285D02*
X103532380Y-103433809D01*
X103484761Y-103338571D01*
X103437142Y-103290952D01*
X103294285Y-103195714D01*
X103103809Y-103148095D01*
X102722857Y-103148095D01*
X102627619Y-103195714D01*
X102580000Y-103243333D01*
X102532380Y-103338571D01*
X102532380Y-103529047D01*
X102580000Y-103624285D01*
X102627619Y-103671904D01*
X102722857Y-103719523D01*
X102960952Y-103719523D01*
X103056190Y-103671904D01*
X103103809Y-103624285D01*
X103151428Y-103529047D01*
X103151428Y-103338571D01*
X103103809Y-103243333D01*
X103056190Y-103195714D01*
X102960952Y-103148095D01*
X102532380Y-102243333D02*
X102532380Y-102719523D01*
X103008571Y-102767142D01*
X102960952Y-102719523D01*
X102913333Y-102624285D01*
X102913333Y-102386190D01*
X102960952Y-102290952D01*
X103008571Y-102243333D01*
X103103809Y-102195714D01*
X103341904Y-102195714D01*
X103437142Y-102243333D01*
X103484761Y-102290952D01*
X103532380Y-102386190D01*
X103532380Y-102624285D01*
X103484761Y-102719523D01*
X103437142Y-102767142D01*
X113752380Y-106171904D02*
X114561904Y-106171904D01*
X114657142Y-106124285D01*
X114704761Y-106076666D01*
X114752380Y-105981428D01*
X114752380Y-105790952D01*
X114704761Y-105695714D01*
X114657142Y-105648095D01*
X114561904Y-105600476D01*
X113752380Y-105600476D01*
X113847619Y-105171904D02*
X113800000Y-105124285D01*
X113752380Y-105029047D01*
X113752380Y-104790952D01*
X113800000Y-104695714D01*
X113847619Y-104648095D01*
X113942857Y-104600476D01*
X114038095Y-104600476D01*
X114180952Y-104648095D01*
X114752380Y-105219523D01*
X114752380Y-104600476D01*
X127932380Y-108671904D02*
X127932380Y-108005238D01*
X128932380Y-108433809D01*
X128265714Y-107195714D02*
X128932380Y-107195714D01*
X127884761Y-107433809D02*
X128599047Y-107671904D01*
X128599047Y-107052857D01*
X128932380Y-106671904D02*
X127932380Y-106671904D01*
X128408571Y-106671904D02*
X128408571Y-106100476D01*
X128932380Y-106100476D02*
X127932380Y-106100476D01*
X128837142Y-105052857D02*
X128884761Y-105100476D01*
X128932380Y-105243333D01*
X128932380Y-105338571D01*
X128884761Y-105481428D01*
X128789523Y-105576666D01*
X128694285Y-105624285D01*
X128503809Y-105671904D01*
X128360952Y-105671904D01*
X128170476Y-105624285D01*
X128075238Y-105576666D01*
X127980000Y-105481428D01*
X127932380Y-105338571D01*
X127932380Y-105243333D01*
X127980000Y-105100476D01*
X128027619Y-105052857D01*
X127932380Y-104148095D02*
X127932380Y-104624285D01*
X128408571Y-104671904D01*
X128360952Y-104624285D01*
X128313333Y-104529047D01*
X128313333Y-104290952D01*
X128360952Y-104195714D01*
X128408571Y-104148095D01*
X128503809Y-104100476D01*
X128741904Y-104100476D01*
X128837142Y-104148095D01*
X128884761Y-104195714D01*
X128932380Y-104290952D01*
X128932380Y-104529047D01*
X128884761Y-104624285D01*
X128837142Y-104671904D01*
X128932380Y-103624285D02*
X128932380Y-103433809D01*
X128884761Y-103338571D01*
X128837142Y-103290952D01*
X128694285Y-103195714D01*
X128503809Y-103148095D01*
X128122857Y-103148095D01*
X128027619Y-103195714D01*
X127980000Y-103243333D01*
X127932380Y-103338571D01*
X127932380Y-103529047D01*
X127980000Y-103624285D01*
X128027619Y-103671904D01*
X128122857Y-103719523D01*
X128360952Y-103719523D01*
X128456190Y-103671904D01*
X128503809Y-103624285D01*
X128551428Y-103529047D01*
X128551428Y-103338571D01*
X128503809Y-103243333D01*
X128456190Y-103195714D01*
X128360952Y-103148095D01*
X127932380Y-102243333D02*
X127932380Y-102719523D01*
X128408571Y-102767142D01*
X128360952Y-102719523D01*
X128313333Y-102624285D01*
X128313333Y-102386190D01*
X128360952Y-102290952D01*
X128408571Y-102243333D01*
X128503809Y-102195714D01*
X128741904Y-102195714D01*
X128837142Y-102243333D01*
X128884761Y-102290952D01*
X128932380Y-102386190D01*
X128932380Y-102624285D01*
X128884761Y-102719523D01*
X128837142Y-102767142D01*
X139152380Y-106171904D02*
X139961904Y-106171904D01*
X140057142Y-106124285D01*
X140104761Y-106076666D01*
X140152380Y-105981428D01*
X140152380Y-105790952D01*
X140104761Y-105695714D01*
X140057142Y-105648095D01*
X139961904Y-105600476D01*
X139152380Y-105600476D01*
X139152380Y-105219523D02*
X139152380Y-104600476D01*
X139533333Y-104933809D01*
X139533333Y-104790952D01*
X139580952Y-104695714D01*
X139628571Y-104648095D01*
X139723809Y-104600476D01*
X139961904Y-104600476D01*
X140057142Y-104648095D01*
X140104761Y-104695714D01*
X140152380Y-104790952D01*
X140152380Y-105076666D01*
X140104761Y-105171904D01*
X140057142Y-105219523D01*
X153332380Y-108671904D02*
X153332380Y-108005238D01*
X154332380Y-108433809D01*
X153665714Y-107195714D02*
X154332380Y-107195714D01*
X153284761Y-107433809D02*
X153999047Y-107671904D01*
X153999047Y-107052857D01*
X154332380Y-106671904D02*
X153332380Y-106671904D01*
X153808571Y-106671904D02*
X153808571Y-106100476D01*
X154332380Y-106100476D02*
X153332380Y-106100476D01*
X154237142Y-105052857D02*
X154284761Y-105100476D01*
X154332380Y-105243333D01*
X154332380Y-105338571D01*
X154284761Y-105481428D01*
X154189523Y-105576666D01*
X154094285Y-105624285D01*
X153903809Y-105671904D01*
X153760952Y-105671904D01*
X153570476Y-105624285D01*
X153475238Y-105576666D01*
X153380000Y-105481428D01*
X153332380Y-105338571D01*
X153332380Y-105243333D01*
X153380000Y-105100476D01*
X153427619Y-105052857D01*
X153332380Y-104148095D02*
X153332380Y-104624285D01*
X153808571Y-104671904D01*
X153760952Y-104624285D01*
X153713333Y-104529047D01*
X153713333Y-104290952D01*
X153760952Y-104195714D01*
X153808571Y-104148095D01*
X153903809Y-104100476D01*
X154141904Y-104100476D01*
X154237142Y-104148095D01*
X154284761Y-104195714D01*
X154332380Y-104290952D01*
X154332380Y-104529047D01*
X154284761Y-104624285D01*
X154237142Y-104671904D01*
X154332380Y-103624285D02*
X154332380Y-103433809D01*
X154284761Y-103338571D01*
X154237142Y-103290952D01*
X154094285Y-103195714D01*
X153903809Y-103148095D01*
X153522857Y-103148095D01*
X153427619Y-103195714D01*
X153380000Y-103243333D01*
X153332380Y-103338571D01*
X153332380Y-103529047D01*
X153380000Y-103624285D01*
X153427619Y-103671904D01*
X153522857Y-103719523D01*
X153760952Y-103719523D01*
X153856190Y-103671904D01*
X153903809Y-103624285D01*
X153951428Y-103529047D01*
X153951428Y-103338571D01*
X153903809Y-103243333D01*
X153856190Y-103195714D01*
X153760952Y-103148095D01*
X153332380Y-102243333D02*
X153332380Y-102719523D01*
X153808571Y-102767142D01*
X153760952Y-102719523D01*
X153713333Y-102624285D01*
X153713333Y-102386190D01*
X153760952Y-102290952D01*
X153808571Y-102243333D01*
X153903809Y-102195714D01*
X154141904Y-102195714D01*
X154237142Y-102243333D01*
X154284761Y-102290952D01*
X154332380Y-102386190D01*
X154332380Y-102624285D01*
X154284761Y-102719523D01*
X154237142Y-102767142D01*
X164552380Y-106171904D02*
X165361904Y-106171904D01*
X165457142Y-106124285D01*
X165504761Y-106076666D01*
X165552380Y-105981428D01*
X165552380Y-105790952D01*
X165504761Y-105695714D01*
X165457142Y-105648095D01*
X165361904Y-105600476D01*
X164552380Y-105600476D01*
X164885714Y-104695714D02*
X165552380Y-104695714D01*
X164504761Y-104933809D02*
X165219047Y-105171904D01*
X165219047Y-104552857D01*
X79510666Y-118721142D02*
X79463047Y-118768761D01*
X79320190Y-118816380D01*
X79224952Y-118816380D01*
X79082095Y-118768761D01*
X78986857Y-118673523D01*
X78939238Y-118578285D01*
X78891619Y-118387809D01*
X78891619Y-118244952D01*
X78939238Y-118054476D01*
X78986857Y-117959238D01*
X79082095Y-117864000D01*
X79224952Y-117816380D01*
X79320190Y-117816380D01*
X79463047Y-117864000D01*
X79510666Y-117911619D01*
X80082095Y-118816380D02*
X79986857Y-118768761D01*
X79939238Y-118721142D01*
X79891619Y-118625904D01*
X79891619Y-118340190D01*
X79939238Y-118244952D01*
X79986857Y-118197333D01*
X80082095Y-118149714D01*
X80224952Y-118149714D01*
X80320190Y-118197333D01*
X80367809Y-118244952D01*
X80415428Y-118340190D01*
X80415428Y-118625904D01*
X80367809Y-118721142D01*
X80320190Y-118768761D01*
X80224952Y-118816380D01*
X80082095Y-118816380D01*
X80844000Y-118149714D02*
X80844000Y-118816380D01*
X80844000Y-118244952D02*
X80891619Y-118197333D01*
X80986857Y-118149714D01*
X81129714Y-118149714D01*
X81224952Y-118197333D01*
X81272571Y-118292571D01*
X81272571Y-118816380D01*
X81748761Y-118149714D02*
X81748761Y-118816380D01*
X81748761Y-118244952D02*
X81796380Y-118197333D01*
X81891619Y-118149714D01*
X82034476Y-118149714D01*
X82129714Y-118197333D01*
X82177333Y-118292571D01*
X82177333Y-118816380D01*
X82415428Y-118911619D02*
X83177333Y-118911619D01*
X83605904Y-117816380D02*
X83701142Y-117816380D01*
X83796380Y-117864000D01*
X83844000Y-117911619D01*
X83891619Y-118006857D01*
X83939238Y-118197333D01*
X83939238Y-118435428D01*
X83891619Y-118625904D01*
X83844000Y-118721142D01*
X83796380Y-118768761D01*
X83701142Y-118816380D01*
X83605904Y-118816380D01*
X83510666Y-118768761D01*
X83463047Y-118721142D01*
X83415428Y-118625904D01*
X83367809Y-118435428D01*
X83367809Y-118197333D01*
X83415428Y-118006857D01*
X83463047Y-117911619D01*
X83510666Y-117864000D01*
X83605904Y-117816380D01*
X84891619Y-118816380D02*
X84320190Y-118816380D01*
X84605904Y-118816380D02*
X84605904Y-117816380D01*
X84510666Y-117959238D01*
X84415428Y-118054476D01*
X84320190Y-118102095D01*
X85224952Y-118816380D02*
X85748761Y-118149714D01*
X85224952Y-118149714D02*
X85748761Y-118816380D01*
X86320190Y-117816380D02*
X86415428Y-117816380D01*
X86510666Y-117864000D01*
X86558285Y-117911619D01*
X86605904Y-118006857D01*
X86653523Y-118197333D01*
X86653523Y-118435428D01*
X86605904Y-118625904D01*
X86558285Y-118721142D01*
X86510666Y-118768761D01*
X86415428Y-118816380D01*
X86320190Y-118816380D01*
X86224952Y-118768761D01*
X86177333Y-118721142D01*
X86129714Y-118625904D01*
X86082095Y-118435428D01*
X86082095Y-118197333D01*
X86129714Y-118006857D01*
X86177333Y-117911619D01*
X86224952Y-117864000D01*
X86320190Y-117816380D01*
X87558285Y-117816380D02*
X87082095Y-117816380D01*
X87034476Y-118292571D01*
X87082095Y-118244952D01*
X87177333Y-118197333D01*
X87415428Y-118197333D01*
X87510666Y-118244952D01*
X87558285Y-118292571D01*
X87605904Y-118387809D01*
X87605904Y-118625904D01*
X87558285Y-118721142D01*
X87510666Y-118768761D01*
X87415428Y-118816380D01*
X87177333Y-118816380D01*
X87082095Y-118768761D01*
X87034476Y-118721142D01*
X87796380Y-118911619D02*
X88558285Y-118911619D01*
X88796380Y-118816380D02*
X88796380Y-117816380D01*
X89129714Y-118530666D01*
X89463047Y-117816380D01*
X89463047Y-118816380D01*
X90367809Y-118816380D02*
X90367809Y-118292571D01*
X90320190Y-118197333D01*
X90224952Y-118149714D01*
X90034476Y-118149714D01*
X89939238Y-118197333D01*
X90367809Y-118768761D02*
X90272571Y-118816380D01*
X90034476Y-118816380D01*
X89939238Y-118768761D01*
X89891619Y-118673523D01*
X89891619Y-118578285D01*
X89939238Y-118483047D01*
X90034476Y-118435428D01*
X90272571Y-118435428D01*
X90367809Y-118387809D01*
X90986857Y-118816380D02*
X90891619Y-118768761D01*
X90844000Y-118673523D01*
X90844000Y-117816380D01*
X91748761Y-118768761D02*
X91653523Y-118816380D01*
X91463047Y-118816380D01*
X91367809Y-118768761D01*
X91320190Y-118673523D01*
X91320190Y-118292571D01*
X91367809Y-118197333D01*
X91463047Y-118149714D01*
X91653523Y-118149714D01*
X91748761Y-118197333D01*
X91796380Y-118292571D01*
X91796380Y-118387809D01*
X91320190Y-118483047D01*
X85010666Y-115276380D02*
X85010666Y-115990666D01*
X84963047Y-116133523D01*
X84867809Y-116228761D01*
X84724952Y-116276380D01*
X84629714Y-116276380D01*
X86010666Y-116276380D02*
X85439238Y-116276380D01*
X85724952Y-116276380D02*
X85724952Y-115276380D01*
X85629714Y-115419238D01*
X85534476Y-115514476D01*
X85439238Y-115562095D01*
X155352380Y-107839047D02*
X155352380Y-108410476D01*
X155352380Y-108124761D02*
X154352380Y-108124761D01*
X154495238Y-108220000D01*
X154590476Y-108315238D01*
X154638095Y-108410476D01*
X154352380Y-107220000D02*
X154352380Y-107124761D01*
X154400000Y-107029523D01*
X154447619Y-106981904D01*
X154542857Y-106934285D01*
X154733333Y-106886666D01*
X154971428Y-106886666D01*
X155161904Y-106934285D01*
X155257142Y-106981904D01*
X155304761Y-107029523D01*
X155352380Y-107124761D01*
X155352380Y-107220000D01*
X155304761Y-107315238D01*
X155257142Y-107362857D01*
X155161904Y-107410476D01*
X154971428Y-107458095D01*
X154733333Y-107458095D01*
X154542857Y-107410476D01*
X154447619Y-107362857D01*
X154400000Y-107315238D01*
X154352380Y-107220000D01*
X154352380Y-106267619D02*
X154352380Y-106172380D01*
X154400000Y-106077142D01*
X154447619Y-106029523D01*
X154542857Y-105981904D01*
X154733333Y-105934285D01*
X154971428Y-105934285D01*
X155161904Y-105981904D01*
X155257142Y-106029523D01*
X155304761Y-106077142D01*
X155352380Y-106172380D01*
X155352380Y-106267619D01*
X155304761Y-106362857D01*
X155257142Y-106410476D01*
X155161904Y-106458095D01*
X154971428Y-106505714D01*
X154733333Y-106505714D01*
X154542857Y-106458095D01*
X154447619Y-106410476D01*
X154400000Y-106362857D01*
X154352380Y-106267619D01*
X154685714Y-105505714D02*
X155352380Y-105505714D01*
X154780952Y-105505714D02*
X154733333Y-105458095D01*
X154685714Y-105362857D01*
X154685714Y-105220000D01*
X154733333Y-105124761D01*
X154828571Y-105077142D01*
X155352380Y-105077142D01*
D12*
X152735714Y-106876666D02*
X152780476Y-106921428D01*
X152825238Y-107055714D01*
X152825238Y-107145238D01*
X152780476Y-107279523D01*
X152690952Y-107369047D01*
X152601428Y-107413809D01*
X152422380Y-107458571D01*
X152288095Y-107458571D01*
X152109047Y-107413809D01*
X152019523Y-107369047D01*
X151930000Y-107279523D01*
X151885238Y-107145238D01*
X151885238Y-107055714D01*
X151930000Y-106921428D01*
X151974761Y-106876666D01*
X151885238Y-106563333D02*
X151885238Y-105981428D01*
X152243333Y-106294761D01*
X152243333Y-106160476D01*
X152288095Y-106070952D01*
X152332857Y-106026190D01*
X152422380Y-105981428D01*
X152646190Y-105981428D01*
X152735714Y-106026190D01*
X152780476Y-106070952D01*
X152825238Y-106160476D01*
X152825238Y-106429047D01*
X152780476Y-106518571D01*
X152735714Y-106563333D01*
D11*
X104552380Y-107839047D02*
X104552380Y-108410476D01*
X104552380Y-108124761D02*
X103552380Y-108124761D01*
X103695238Y-108220000D01*
X103790476Y-108315238D01*
X103838095Y-108410476D01*
X103552380Y-107220000D02*
X103552380Y-107124761D01*
X103600000Y-107029523D01*
X103647619Y-106981904D01*
X103742857Y-106934285D01*
X103933333Y-106886666D01*
X104171428Y-106886666D01*
X104361904Y-106934285D01*
X104457142Y-106981904D01*
X104504761Y-107029523D01*
X104552380Y-107124761D01*
X104552380Y-107220000D01*
X104504761Y-107315238D01*
X104457142Y-107362857D01*
X104361904Y-107410476D01*
X104171428Y-107458095D01*
X103933333Y-107458095D01*
X103742857Y-107410476D01*
X103647619Y-107362857D01*
X103600000Y-107315238D01*
X103552380Y-107220000D01*
X103552380Y-106267619D02*
X103552380Y-106172380D01*
X103600000Y-106077142D01*
X103647619Y-106029523D01*
X103742857Y-105981904D01*
X103933333Y-105934285D01*
X104171428Y-105934285D01*
X104361904Y-105981904D01*
X104457142Y-106029523D01*
X104504761Y-106077142D01*
X104552380Y-106172380D01*
X104552380Y-106267619D01*
X104504761Y-106362857D01*
X104457142Y-106410476D01*
X104361904Y-106458095D01*
X104171428Y-106505714D01*
X103933333Y-106505714D01*
X103742857Y-106458095D01*
X103647619Y-106410476D01*
X103600000Y-106362857D01*
X103552380Y-106267619D01*
X103885714Y-105505714D02*
X104552380Y-105505714D01*
X103980952Y-105505714D02*
X103933333Y-105458095D01*
X103885714Y-105362857D01*
X103885714Y-105220000D01*
X103933333Y-105124761D01*
X104028571Y-105077142D01*
X104552380Y-105077142D01*
D12*
X101935714Y-106876666D02*
X101980476Y-106921428D01*
X102025238Y-107055714D01*
X102025238Y-107145238D01*
X101980476Y-107279523D01*
X101890952Y-107369047D01*
X101801428Y-107413809D01*
X101622380Y-107458571D01*
X101488095Y-107458571D01*
X101309047Y-107413809D01*
X101219523Y-107369047D01*
X101130000Y-107279523D01*
X101085238Y-107145238D01*
X101085238Y-107055714D01*
X101130000Y-106921428D01*
X101174761Y-106876666D01*
X102025238Y-105981428D02*
X102025238Y-106518571D01*
X102025238Y-106250000D02*
X101085238Y-106250000D01*
X101219523Y-106339523D01*
X101309047Y-106429047D01*
X101353809Y-106518571D01*
D11*
X129952380Y-107839047D02*
X129952380Y-108410476D01*
X129952380Y-108124761D02*
X128952380Y-108124761D01*
X129095238Y-108220000D01*
X129190476Y-108315238D01*
X129238095Y-108410476D01*
X128952380Y-107220000D02*
X128952380Y-107124761D01*
X129000000Y-107029523D01*
X129047619Y-106981904D01*
X129142857Y-106934285D01*
X129333333Y-106886666D01*
X129571428Y-106886666D01*
X129761904Y-106934285D01*
X129857142Y-106981904D01*
X129904761Y-107029523D01*
X129952380Y-107124761D01*
X129952380Y-107220000D01*
X129904761Y-107315238D01*
X129857142Y-107362857D01*
X129761904Y-107410476D01*
X129571428Y-107458095D01*
X129333333Y-107458095D01*
X129142857Y-107410476D01*
X129047619Y-107362857D01*
X129000000Y-107315238D01*
X128952380Y-107220000D01*
X128952380Y-106267619D02*
X128952380Y-106172380D01*
X129000000Y-106077142D01*
X129047619Y-106029523D01*
X129142857Y-105981904D01*
X129333333Y-105934285D01*
X129571428Y-105934285D01*
X129761904Y-105981904D01*
X129857142Y-106029523D01*
X129904761Y-106077142D01*
X129952380Y-106172380D01*
X129952380Y-106267619D01*
X129904761Y-106362857D01*
X129857142Y-106410476D01*
X129761904Y-106458095D01*
X129571428Y-106505714D01*
X129333333Y-106505714D01*
X129142857Y-106458095D01*
X129047619Y-106410476D01*
X129000000Y-106362857D01*
X128952380Y-106267619D01*
X129285714Y-105505714D02*
X129952380Y-105505714D01*
X129380952Y-105505714D02*
X129333333Y-105458095D01*
X129285714Y-105362857D01*
X129285714Y-105220000D01*
X129333333Y-105124761D01*
X129428571Y-105077142D01*
X129952380Y-105077142D01*
D12*
X127335714Y-106876666D02*
X127380476Y-106921428D01*
X127425238Y-107055714D01*
X127425238Y-107145238D01*
X127380476Y-107279523D01*
X127290952Y-107369047D01*
X127201428Y-107413809D01*
X127022380Y-107458571D01*
X126888095Y-107458571D01*
X126709047Y-107413809D01*
X126619523Y-107369047D01*
X126530000Y-107279523D01*
X126485238Y-107145238D01*
X126485238Y-107055714D01*
X126530000Y-106921428D01*
X126574761Y-106876666D01*
X126574761Y-106518571D02*
X126530000Y-106473809D01*
X126485238Y-106384285D01*
X126485238Y-106160476D01*
X126530000Y-106070952D01*
X126574761Y-106026190D01*
X126664285Y-105981428D01*
X126753809Y-105981428D01*
X126888095Y-106026190D01*
X127425238Y-106563333D01*
X127425238Y-105981428D01*
D11*
X164980952Y-84922380D02*
X164409523Y-84922380D01*
X164695238Y-84922380D02*
X164695238Y-83922380D01*
X164600000Y-84065238D01*
X164504761Y-84160476D01*
X164409523Y-84208095D01*
X165409523Y-84922380D02*
X165409523Y-83922380D01*
X165504761Y-84541428D02*
X165790476Y-84922380D01*
X165790476Y-84255714D02*
X165409523Y-84636666D01*
D13*
X164637142Y-82875714D02*
X164397142Y-82532857D01*
X164225714Y-82875714D02*
X164225714Y-82155714D01*
X164500000Y-82155714D01*
X164568571Y-82190000D01*
X164602857Y-82224285D01*
X164637142Y-82292857D01*
X164637142Y-82395714D01*
X164602857Y-82464285D01*
X164568571Y-82498571D01*
X164500000Y-82532857D01*
X164225714Y-82532857D01*
X164877142Y-82155714D02*
X165322857Y-82155714D01*
X165082857Y-82430000D01*
X165185714Y-82430000D01*
X165254285Y-82464285D01*
X165288571Y-82498571D01*
X165322857Y-82567142D01*
X165322857Y-82738571D01*
X165288571Y-82807142D01*
X165254285Y-82841428D01*
X165185714Y-82875714D01*
X164980000Y-82875714D01*
X164911428Y-82841428D01*
X164877142Y-82807142D01*
X166008571Y-82875714D02*
X165597142Y-82875714D01*
X165802857Y-82875714D02*
X165802857Y-82155714D01*
X165734285Y-82258571D01*
X165665714Y-82327142D01*
X165597142Y-82361428D01*
D11*
X164980952Y-74762380D02*
X164409523Y-74762380D01*
X164695238Y-74762380D02*
X164695238Y-73762380D01*
X164600000Y-73905238D01*
X164504761Y-74000476D01*
X164409523Y-74048095D01*
X165409523Y-74762380D02*
X165409523Y-73762380D01*
X165504761Y-74381428D02*
X165790476Y-74762380D01*
X165790476Y-74095714D02*
X165409523Y-74476666D01*
D13*
X164637142Y-72715714D02*
X164397142Y-72372857D01*
X164225714Y-72715714D02*
X164225714Y-71995714D01*
X164500000Y-71995714D01*
X164568571Y-72030000D01*
X164602857Y-72064285D01*
X164637142Y-72132857D01*
X164637142Y-72235714D01*
X164602857Y-72304285D01*
X164568571Y-72338571D01*
X164500000Y-72372857D01*
X164225714Y-72372857D01*
X164877142Y-71995714D02*
X165322857Y-71995714D01*
X165082857Y-72270000D01*
X165185714Y-72270000D01*
X165254285Y-72304285D01*
X165288571Y-72338571D01*
X165322857Y-72407142D01*
X165322857Y-72578571D01*
X165288571Y-72647142D01*
X165254285Y-72681428D01*
X165185714Y-72715714D01*
X164980000Y-72715714D01*
X164911428Y-72681428D01*
X164877142Y-72647142D01*
X165768571Y-71995714D02*
X165837142Y-71995714D01*
X165905714Y-72030000D01*
X165940000Y-72064285D01*
X165974285Y-72132857D01*
X166008571Y-72270000D01*
X166008571Y-72441428D01*
X165974285Y-72578571D01*
X165940000Y-72647142D01*
X165905714Y-72681428D01*
X165837142Y-72715714D01*
X165768571Y-72715714D01*
X165700000Y-72681428D01*
X165665714Y-72647142D01*
X165631428Y-72578571D01*
X165597142Y-72441428D01*
X165597142Y-72270000D01*
X165631428Y-72132857D01*
X165665714Y-72064285D01*
X165700000Y-72030000D01*
X165768571Y-71995714D01*
D11*
X164980952Y-90002380D02*
X164409523Y-90002380D01*
X164695238Y-90002380D02*
X164695238Y-89002380D01*
X164600000Y-89145238D01*
X164504761Y-89240476D01*
X164409523Y-89288095D01*
X165409523Y-90002380D02*
X165409523Y-89002380D01*
X165504761Y-89621428D02*
X165790476Y-90002380D01*
X165790476Y-89335714D02*
X165409523Y-89716666D01*
D13*
X164637142Y-87955714D02*
X164397142Y-87612857D01*
X164225714Y-87955714D02*
X164225714Y-87235714D01*
X164500000Y-87235714D01*
X164568571Y-87270000D01*
X164602857Y-87304285D01*
X164637142Y-87372857D01*
X164637142Y-87475714D01*
X164602857Y-87544285D01*
X164568571Y-87578571D01*
X164500000Y-87612857D01*
X164225714Y-87612857D01*
X164911428Y-87304285D02*
X164945714Y-87270000D01*
X165014285Y-87235714D01*
X165185714Y-87235714D01*
X165254285Y-87270000D01*
X165288571Y-87304285D01*
X165322857Y-87372857D01*
X165322857Y-87441428D01*
X165288571Y-87544285D01*
X164877142Y-87955714D01*
X165322857Y-87955714D01*
X165665714Y-87955714D02*
X165802857Y-87955714D01*
X165871428Y-87921428D01*
X165905714Y-87887142D01*
X165974285Y-87784285D01*
X166008571Y-87647142D01*
X166008571Y-87372857D01*
X165974285Y-87304285D01*
X165940000Y-87270000D01*
X165871428Y-87235714D01*
X165734285Y-87235714D01*
X165665714Y-87270000D01*
X165631428Y-87304285D01*
X165597142Y-87372857D01*
X165597142Y-87544285D01*
X165631428Y-87612857D01*
X165665714Y-87647142D01*
X165734285Y-87681428D01*
X165871428Y-87681428D01*
X165940000Y-87647142D01*
X165974285Y-87612857D01*
X166008571Y-87544285D01*
D11*
X164980952Y-98892380D02*
X164409523Y-98892380D01*
X164695238Y-98892380D02*
X164695238Y-97892380D01*
X164600000Y-98035238D01*
X164504761Y-98130476D01*
X164409523Y-98178095D01*
X165409523Y-98892380D02*
X165409523Y-97892380D01*
X165504761Y-98511428D02*
X165790476Y-98892380D01*
X165790476Y-98225714D02*
X165409523Y-98606666D01*
D13*
X164637142Y-96845714D02*
X164397142Y-96502857D01*
X164225714Y-96845714D02*
X164225714Y-96125714D01*
X164500000Y-96125714D01*
X164568571Y-96160000D01*
X164602857Y-96194285D01*
X164637142Y-96262857D01*
X164637142Y-96365714D01*
X164602857Y-96434285D01*
X164568571Y-96468571D01*
X164500000Y-96502857D01*
X164225714Y-96502857D01*
X164911428Y-96194285D02*
X164945714Y-96160000D01*
X165014285Y-96125714D01*
X165185714Y-96125714D01*
X165254285Y-96160000D01*
X165288571Y-96194285D01*
X165322857Y-96262857D01*
X165322857Y-96331428D01*
X165288571Y-96434285D01*
X164877142Y-96845714D01*
X165322857Y-96845714D01*
X165734285Y-96434285D02*
X165665714Y-96400000D01*
X165631428Y-96365714D01*
X165597142Y-96297142D01*
X165597142Y-96262857D01*
X165631428Y-96194285D01*
X165665714Y-96160000D01*
X165734285Y-96125714D01*
X165871428Y-96125714D01*
X165940000Y-96160000D01*
X165974285Y-96194285D01*
X166008571Y-96262857D01*
X166008571Y-96297142D01*
X165974285Y-96365714D01*
X165940000Y-96400000D01*
X165871428Y-96434285D01*
X165734285Y-96434285D01*
X165665714Y-96468571D01*
X165631428Y-96502857D01*
X165597142Y-96571428D01*
X165597142Y-96708571D01*
X165631428Y-96777142D01*
X165665714Y-96811428D01*
X165734285Y-96845714D01*
X165871428Y-96845714D01*
X165940000Y-96811428D01*
X165974285Y-96777142D01*
X166008571Y-96708571D01*
X166008571Y-96571428D01*
X165974285Y-96502857D01*
X165940000Y-96468571D01*
X165871428Y-96434285D01*
D11*
X164980952Y-87462380D02*
X164409523Y-87462380D01*
X164695238Y-87462380D02*
X164695238Y-86462380D01*
X164600000Y-86605238D01*
X164504761Y-86700476D01*
X164409523Y-86748095D01*
X165409523Y-87462380D02*
X165409523Y-86462380D01*
X165504761Y-87081428D02*
X165790476Y-87462380D01*
X165790476Y-86795714D02*
X165409523Y-87176666D01*
D13*
X164637142Y-85415714D02*
X164397142Y-85072857D01*
X164225714Y-85415714D02*
X164225714Y-84695714D01*
X164500000Y-84695714D01*
X164568571Y-84730000D01*
X164602857Y-84764285D01*
X164637142Y-84832857D01*
X164637142Y-84935714D01*
X164602857Y-85004285D01*
X164568571Y-85038571D01*
X164500000Y-85072857D01*
X164225714Y-85072857D01*
X164911428Y-84764285D02*
X164945714Y-84730000D01*
X165014285Y-84695714D01*
X165185714Y-84695714D01*
X165254285Y-84730000D01*
X165288571Y-84764285D01*
X165322857Y-84832857D01*
X165322857Y-84901428D01*
X165288571Y-85004285D01*
X164877142Y-85415714D01*
X165322857Y-85415714D01*
X165562857Y-84695714D02*
X166042857Y-84695714D01*
X165734285Y-85415714D01*
D11*
X164980952Y-72222380D02*
X164409523Y-72222380D01*
X164695238Y-72222380D02*
X164695238Y-71222380D01*
X164600000Y-71365238D01*
X164504761Y-71460476D01*
X164409523Y-71508095D01*
X165409523Y-72222380D02*
X165409523Y-71222380D01*
X165504761Y-71841428D02*
X165790476Y-72222380D01*
X165790476Y-71555714D02*
X165409523Y-71936666D01*
D13*
X164637142Y-70175714D02*
X164397142Y-69832857D01*
X164225714Y-70175714D02*
X164225714Y-69455714D01*
X164500000Y-69455714D01*
X164568571Y-69490000D01*
X164602857Y-69524285D01*
X164637142Y-69592857D01*
X164637142Y-69695714D01*
X164602857Y-69764285D01*
X164568571Y-69798571D01*
X164500000Y-69832857D01*
X164225714Y-69832857D01*
X164911428Y-69524285D02*
X164945714Y-69490000D01*
X165014285Y-69455714D01*
X165185714Y-69455714D01*
X165254285Y-69490000D01*
X165288571Y-69524285D01*
X165322857Y-69592857D01*
X165322857Y-69661428D01*
X165288571Y-69764285D01*
X164877142Y-70175714D01*
X165322857Y-70175714D01*
X165940000Y-69455714D02*
X165802857Y-69455714D01*
X165734285Y-69490000D01*
X165700000Y-69524285D01*
X165631428Y-69627142D01*
X165597142Y-69764285D01*
X165597142Y-70038571D01*
X165631428Y-70107142D01*
X165665714Y-70141428D01*
X165734285Y-70175714D01*
X165871428Y-70175714D01*
X165940000Y-70141428D01*
X165974285Y-70107142D01*
X166008571Y-70038571D01*
X166008571Y-69867142D01*
X165974285Y-69798571D01*
X165940000Y-69764285D01*
X165871428Y-69730000D01*
X165734285Y-69730000D01*
X165665714Y-69764285D01*
X165631428Y-69798571D01*
X165597142Y-69867142D01*
D11*
X164980952Y-69682380D02*
X164409523Y-69682380D01*
X164695238Y-69682380D02*
X164695238Y-68682380D01*
X164600000Y-68825238D01*
X164504761Y-68920476D01*
X164409523Y-68968095D01*
X165409523Y-69682380D02*
X165409523Y-68682380D01*
X165504761Y-69301428D02*
X165790476Y-69682380D01*
X165790476Y-69015714D02*
X165409523Y-69396666D01*
D13*
X164637142Y-67635714D02*
X164397142Y-67292857D01*
X164225714Y-67635714D02*
X164225714Y-66915714D01*
X164500000Y-66915714D01*
X164568571Y-66950000D01*
X164602857Y-66984285D01*
X164637142Y-67052857D01*
X164637142Y-67155714D01*
X164602857Y-67224285D01*
X164568571Y-67258571D01*
X164500000Y-67292857D01*
X164225714Y-67292857D01*
X164911428Y-66984285D02*
X164945714Y-66950000D01*
X165014285Y-66915714D01*
X165185714Y-66915714D01*
X165254285Y-66950000D01*
X165288571Y-66984285D01*
X165322857Y-67052857D01*
X165322857Y-67121428D01*
X165288571Y-67224285D01*
X164877142Y-67635714D01*
X165322857Y-67635714D01*
X165974285Y-66915714D02*
X165631428Y-66915714D01*
X165597142Y-67258571D01*
X165631428Y-67224285D01*
X165700000Y-67190000D01*
X165871428Y-67190000D01*
X165940000Y-67224285D01*
X165974285Y-67258571D01*
X166008571Y-67327142D01*
X166008571Y-67498571D01*
X165974285Y-67567142D01*
X165940000Y-67601428D01*
X165871428Y-67635714D01*
X165700000Y-67635714D01*
X165631428Y-67601428D01*
X165597142Y-67567142D01*
D11*
X151233333Y-97987619D02*
X151280952Y-97940000D01*
X151376190Y-97892380D01*
X151614285Y-97892380D01*
X151709523Y-97940000D01*
X151757142Y-97987619D01*
X151804761Y-98082857D01*
X151804761Y-98178095D01*
X151757142Y-98320952D01*
X151185714Y-98892380D01*
X151804761Y-98892380D01*
X152233333Y-98892380D02*
X152233333Y-97892380D01*
X152328571Y-98511428D02*
X152614285Y-98892380D01*
X152614285Y-98225714D02*
X152233333Y-98606666D01*
X152947619Y-97892380D02*
X153614285Y-97892380D01*
X153185714Y-98892380D01*
D13*
X151937142Y-96845714D02*
X151697142Y-96502857D01*
X151525714Y-96845714D02*
X151525714Y-96125714D01*
X151800000Y-96125714D01*
X151868571Y-96160000D01*
X151902857Y-96194285D01*
X151937142Y-96262857D01*
X151937142Y-96365714D01*
X151902857Y-96434285D01*
X151868571Y-96468571D01*
X151800000Y-96502857D01*
X151525714Y-96502857D01*
X152211428Y-96194285D02*
X152245714Y-96160000D01*
X152314285Y-96125714D01*
X152485714Y-96125714D01*
X152554285Y-96160000D01*
X152588571Y-96194285D01*
X152622857Y-96262857D01*
X152622857Y-96331428D01*
X152588571Y-96434285D01*
X152177142Y-96845714D01*
X152622857Y-96845714D01*
X153240000Y-96365714D02*
X153240000Y-96845714D01*
X153068571Y-96091428D02*
X152897142Y-96605714D01*
X153342857Y-96605714D01*
D11*
X139580952Y-84922380D02*
X139009523Y-84922380D01*
X139295238Y-84922380D02*
X139295238Y-83922380D01*
X139200000Y-84065238D01*
X139104761Y-84160476D01*
X139009523Y-84208095D01*
X140009523Y-84922380D02*
X140009523Y-83922380D01*
X140104761Y-84541428D02*
X140390476Y-84922380D01*
X140390476Y-84255714D02*
X140009523Y-84636666D01*
D13*
X139237142Y-82875714D02*
X138997142Y-82532857D01*
X138825714Y-82875714D02*
X138825714Y-82155714D01*
X139100000Y-82155714D01*
X139168571Y-82190000D01*
X139202857Y-82224285D01*
X139237142Y-82292857D01*
X139237142Y-82395714D01*
X139202857Y-82464285D01*
X139168571Y-82498571D01*
X139100000Y-82532857D01*
X138825714Y-82532857D01*
X139511428Y-82224285D02*
X139545714Y-82190000D01*
X139614285Y-82155714D01*
X139785714Y-82155714D01*
X139854285Y-82190000D01*
X139888571Y-82224285D01*
X139922857Y-82292857D01*
X139922857Y-82361428D01*
X139888571Y-82464285D01*
X139477142Y-82875714D01*
X139922857Y-82875714D01*
X140162857Y-82155714D02*
X140608571Y-82155714D01*
X140368571Y-82430000D01*
X140471428Y-82430000D01*
X140540000Y-82464285D01*
X140574285Y-82498571D01*
X140608571Y-82567142D01*
X140608571Y-82738571D01*
X140574285Y-82807142D01*
X140540000Y-82841428D01*
X140471428Y-82875714D01*
X140265714Y-82875714D01*
X140197142Y-82841428D01*
X140162857Y-82807142D01*
D11*
X139580952Y-74762380D02*
X139009523Y-74762380D01*
X139295238Y-74762380D02*
X139295238Y-73762380D01*
X139200000Y-73905238D01*
X139104761Y-74000476D01*
X139009523Y-74048095D01*
X140009523Y-74762380D02*
X140009523Y-73762380D01*
X140104761Y-74381428D02*
X140390476Y-74762380D01*
X140390476Y-74095714D02*
X140009523Y-74476666D01*
D13*
X139237142Y-72715714D02*
X138997142Y-72372857D01*
X138825714Y-72715714D02*
X138825714Y-71995714D01*
X139100000Y-71995714D01*
X139168571Y-72030000D01*
X139202857Y-72064285D01*
X139237142Y-72132857D01*
X139237142Y-72235714D01*
X139202857Y-72304285D01*
X139168571Y-72338571D01*
X139100000Y-72372857D01*
X138825714Y-72372857D01*
X139511428Y-72064285D02*
X139545714Y-72030000D01*
X139614285Y-71995714D01*
X139785714Y-71995714D01*
X139854285Y-72030000D01*
X139888571Y-72064285D01*
X139922857Y-72132857D01*
X139922857Y-72201428D01*
X139888571Y-72304285D01*
X139477142Y-72715714D01*
X139922857Y-72715714D01*
X140197142Y-72064285D02*
X140231428Y-72030000D01*
X140300000Y-71995714D01*
X140471428Y-71995714D01*
X140540000Y-72030000D01*
X140574285Y-72064285D01*
X140608571Y-72132857D01*
X140608571Y-72201428D01*
X140574285Y-72304285D01*
X140162857Y-72715714D01*
X140608571Y-72715714D01*
D11*
X139580952Y-90002380D02*
X139009523Y-90002380D01*
X139295238Y-90002380D02*
X139295238Y-89002380D01*
X139200000Y-89145238D01*
X139104761Y-89240476D01*
X139009523Y-89288095D01*
X140009523Y-90002380D02*
X140009523Y-89002380D01*
X140104761Y-89621428D02*
X140390476Y-90002380D01*
X140390476Y-89335714D02*
X140009523Y-89716666D01*
D13*
X139237142Y-87955714D02*
X138997142Y-87612857D01*
X138825714Y-87955714D02*
X138825714Y-87235714D01*
X139100000Y-87235714D01*
X139168571Y-87270000D01*
X139202857Y-87304285D01*
X139237142Y-87372857D01*
X139237142Y-87475714D01*
X139202857Y-87544285D01*
X139168571Y-87578571D01*
X139100000Y-87612857D01*
X138825714Y-87612857D01*
X139511428Y-87304285D02*
X139545714Y-87270000D01*
X139614285Y-87235714D01*
X139785714Y-87235714D01*
X139854285Y-87270000D01*
X139888571Y-87304285D01*
X139922857Y-87372857D01*
X139922857Y-87441428D01*
X139888571Y-87544285D01*
X139477142Y-87955714D01*
X139922857Y-87955714D01*
X140608571Y-87955714D02*
X140197142Y-87955714D01*
X140402857Y-87955714D02*
X140402857Y-87235714D01*
X140334285Y-87338571D01*
X140265714Y-87407142D01*
X140197142Y-87441428D01*
D11*
X139580952Y-98892380D02*
X139009523Y-98892380D01*
X139295238Y-98892380D02*
X139295238Y-97892380D01*
X139200000Y-98035238D01*
X139104761Y-98130476D01*
X139009523Y-98178095D01*
X140009523Y-98892380D02*
X140009523Y-97892380D01*
X140104761Y-98511428D02*
X140390476Y-98892380D01*
X140390476Y-98225714D02*
X140009523Y-98606666D01*
D13*
X139237142Y-96845714D02*
X138997142Y-96502857D01*
X138825714Y-96845714D02*
X138825714Y-96125714D01*
X139100000Y-96125714D01*
X139168571Y-96160000D01*
X139202857Y-96194285D01*
X139237142Y-96262857D01*
X139237142Y-96365714D01*
X139202857Y-96434285D01*
X139168571Y-96468571D01*
X139100000Y-96502857D01*
X138825714Y-96502857D01*
X139511428Y-96194285D02*
X139545714Y-96160000D01*
X139614285Y-96125714D01*
X139785714Y-96125714D01*
X139854285Y-96160000D01*
X139888571Y-96194285D01*
X139922857Y-96262857D01*
X139922857Y-96331428D01*
X139888571Y-96434285D01*
X139477142Y-96845714D01*
X139922857Y-96845714D01*
X140368571Y-96125714D02*
X140437142Y-96125714D01*
X140505714Y-96160000D01*
X140540000Y-96194285D01*
X140574285Y-96262857D01*
X140608571Y-96400000D01*
X140608571Y-96571428D01*
X140574285Y-96708571D01*
X140540000Y-96777142D01*
X140505714Y-96811428D01*
X140437142Y-96845714D01*
X140368571Y-96845714D01*
X140300000Y-96811428D01*
X140265714Y-96777142D01*
X140231428Y-96708571D01*
X140197142Y-96571428D01*
X140197142Y-96400000D01*
X140231428Y-96262857D01*
X140265714Y-96194285D01*
X140300000Y-96160000D01*
X140368571Y-96125714D01*
D11*
X139580952Y-87462380D02*
X139009523Y-87462380D01*
X139295238Y-87462380D02*
X139295238Y-86462380D01*
X139200000Y-86605238D01*
X139104761Y-86700476D01*
X139009523Y-86748095D01*
X140009523Y-87462380D02*
X140009523Y-86462380D01*
X140104761Y-87081428D02*
X140390476Y-87462380D01*
X140390476Y-86795714D02*
X140009523Y-87176666D01*
D13*
X139237142Y-85415714D02*
X138997142Y-85072857D01*
X138825714Y-85415714D02*
X138825714Y-84695714D01*
X139100000Y-84695714D01*
X139168571Y-84730000D01*
X139202857Y-84764285D01*
X139237142Y-84832857D01*
X139237142Y-84935714D01*
X139202857Y-85004285D01*
X139168571Y-85038571D01*
X139100000Y-85072857D01*
X138825714Y-85072857D01*
X139922857Y-85415714D02*
X139511428Y-85415714D01*
X139717142Y-85415714D02*
X139717142Y-84695714D01*
X139648571Y-84798571D01*
X139580000Y-84867142D01*
X139511428Y-84901428D01*
X140265714Y-85415714D02*
X140402857Y-85415714D01*
X140471428Y-85381428D01*
X140505714Y-85347142D01*
X140574285Y-85244285D01*
X140608571Y-85107142D01*
X140608571Y-84832857D01*
X140574285Y-84764285D01*
X140540000Y-84730000D01*
X140471428Y-84695714D01*
X140334285Y-84695714D01*
X140265714Y-84730000D01*
X140231428Y-84764285D01*
X140197142Y-84832857D01*
X140197142Y-85004285D01*
X140231428Y-85072857D01*
X140265714Y-85107142D01*
X140334285Y-85141428D01*
X140471428Y-85141428D01*
X140540000Y-85107142D01*
X140574285Y-85072857D01*
X140608571Y-85004285D01*
D11*
X139580952Y-72222380D02*
X139009523Y-72222380D01*
X139295238Y-72222380D02*
X139295238Y-71222380D01*
X139200000Y-71365238D01*
X139104761Y-71460476D01*
X139009523Y-71508095D01*
X140009523Y-72222380D02*
X140009523Y-71222380D01*
X140104761Y-71841428D02*
X140390476Y-72222380D01*
X140390476Y-71555714D02*
X140009523Y-71936666D01*
D13*
X139237142Y-70175714D02*
X138997142Y-69832857D01*
X138825714Y-70175714D02*
X138825714Y-69455714D01*
X139100000Y-69455714D01*
X139168571Y-69490000D01*
X139202857Y-69524285D01*
X139237142Y-69592857D01*
X139237142Y-69695714D01*
X139202857Y-69764285D01*
X139168571Y-69798571D01*
X139100000Y-69832857D01*
X138825714Y-69832857D01*
X139922857Y-70175714D02*
X139511428Y-70175714D01*
X139717142Y-70175714D02*
X139717142Y-69455714D01*
X139648571Y-69558571D01*
X139580000Y-69627142D01*
X139511428Y-69661428D01*
X140334285Y-69764285D02*
X140265714Y-69730000D01*
X140231428Y-69695714D01*
X140197142Y-69627142D01*
X140197142Y-69592857D01*
X140231428Y-69524285D01*
X140265714Y-69490000D01*
X140334285Y-69455714D01*
X140471428Y-69455714D01*
X140540000Y-69490000D01*
X140574285Y-69524285D01*
X140608571Y-69592857D01*
X140608571Y-69627142D01*
X140574285Y-69695714D01*
X140540000Y-69730000D01*
X140471428Y-69764285D01*
X140334285Y-69764285D01*
X140265714Y-69798571D01*
X140231428Y-69832857D01*
X140197142Y-69901428D01*
X140197142Y-70038571D01*
X140231428Y-70107142D01*
X140265714Y-70141428D01*
X140334285Y-70175714D01*
X140471428Y-70175714D01*
X140540000Y-70141428D01*
X140574285Y-70107142D01*
X140608571Y-70038571D01*
X140608571Y-69901428D01*
X140574285Y-69832857D01*
X140540000Y-69798571D01*
X140471428Y-69764285D01*
D11*
X139580952Y-69682380D02*
X139009523Y-69682380D01*
X139295238Y-69682380D02*
X139295238Y-68682380D01*
X139200000Y-68825238D01*
X139104761Y-68920476D01*
X139009523Y-68968095D01*
X140009523Y-69682380D02*
X140009523Y-68682380D01*
X140104761Y-69301428D02*
X140390476Y-69682380D01*
X140390476Y-69015714D02*
X140009523Y-69396666D01*
D13*
X139237142Y-67635714D02*
X138997142Y-67292857D01*
X138825714Y-67635714D02*
X138825714Y-66915714D01*
X139100000Y-66915714D01*
X139168571Y-66950000D01*
X139202857Y-66984285D01*
X139237142Y-67052857D01*
X139237142Y-67155714D01*
X139202857Y-67224285D01*
X139168571Y-67258571D01*
X139100000Y-67292857D01*
X138825714Y-67292857D01*
X139922857Y-67635714D02*
X139511428Y-67635714D01*
X139717142Y-67635714D02*
X139717142Y-66915714D01*
X139648571Y-67018571D01*
X139580000Y-67087142D01*
X139511428Y-67121428D01*
X140162857Y-66915714D02*
X140642857Y-66915714D01*
X140334285Y-67635714D01*
D11*
X125833333Y-97987619D02*
X125880952Y-97940000D01*
X125976190Y-97892380D01*
X126214285Y-97892380D01*
X126309523Y-97940000D01*
X126357142Y-97987619D01*
X126404761Y-98082857D01*
X126404761Y-98178095D01*
X126357142Y-98320952D01*
X125785714Y-98892380D01*
X126404761Y-98892380D01*
X126833333Y-98892380D02*
X126833333Y-97892380D01*
X126928571Y-98511428D02*
X127214285Y-98892380D01*
X127214285Y-98225714D02*
X126833333Y-98606666D01*
X127547619Y-97892380D02*
X128214285Y-97892380D01*
X127785714Y-98892380D01*
D13*
X126537142Y-96845714D02*
X126297142Y-96502857D01*
X126125714Y-96845714D02*
X126125714Y-96125714D01*
X126400000Y-96125714D01*
X126468571Y-96160000D01*
X126502857Y-96194285D01*
X126537142Y-96262857D01*
X126537142Y-96365714D01*
X126502857Y-96434285D01*
X126468571Y-96468571D01*
X126400000Y-96502857D01*
X126125714Y-96502857D01*
X127222857Y-96845714D02*
X126811428Y-96845714D01*
X127017142Y-96845714D02*
X127017142Y-96125714D01*
X126948571Y-96228571D01*
X126880000Y-96297142D01*
X126811428Y-96331428D01*
X127840000Y-96125714D02*
X127702857Y-96125714D01*
X127634285Y-96160000D01*
X127600000Y-96194285D01*
X127531428Y-96297142D01*
X127497142Y-96434285D01*
X127497142Y-96708571D01*
X127531428Y-96777142D01*
X127565714Y-96811428D01*
X127634285Y-96845714D01*
X127771428Y-96845714D01*
X127840000Y-96811428D01*
X127874285Y-96777142D01*
X127908571Y-96708571D01*
X127908571Y-96537142D01*
X127874285Y-96468571D01*
X127840000Y-96434285D01*
X127771428Y-96400000D01*
X127634285Y-96400000D01*
X127565714Y-96434285D01*
X127531428Y-96468571D01*
X127497142Y-96537142D01*
D11*
X114180952Y-84922380D02*
X113609523Y-84922380D01*
X113895238Y-84922380D02*
X113895238Y-83922380D01*
X113800000Y-84065238D01*
X113704761Y-84160476D01*
X113609523Y-84208095D01*
X114609523Y-84922380D02*
X114609523Y-83922380D01*
X114704761Y-84541428D02*
X114990476Y-84922380D01*
X114990476Y-84255714D02*
X114609523Y-84636666D01*
D13*
X113837142Y-82875714D02*
X113597142Y-82532857D01*
X113425714Y-82875714D02*
X113425714Y-82155714D01*
X113700000Y-82155714D01*
X113768571Y-82190000D01*
X113802857Y-82224285D01*
X113837142Y-82292857D01*
X113837142Y-82395714D01*
X113802857Y-82464285D01*
X113768571Y-82498571D01*
X113700000Y-82532857D01*
X113425714Y-82532857D01*
X114522857Y-82875714D02*
X114111428Y-82875714D01*
X114317142Y-82875714D02*
X114317142Y-82155714D01*
X114248571Y-82258571D01*
X114180000Y-82327142D01*
X114111428Y-82361428D01*
X115174285Y-82155714D02*
X114831428Y-82155714D01*
X114797142Y-82498571D01*
X114831428Y-82464285D01*
X114900000Y-82430000D01*
X115071428Y-82430000D01*
X115140000Y-82464285D01*
X115174285Y-82498571D01*
X115208571Y-82567142D01*
X115208571Y-82738571D01*
X115174285Y-82807142D01*
X115140000Y-82841428D01*
X115071428Y-82875714D01*
X114900000Y-82875714D01*
X114831428Y-82841428D01*
X114797142Y-82807142D01*
D11*
X114180952Y-74762380D02*
X113609523Y-74762380D01*
X113895238Y-74762380D02*
X113895238Y-73762380D01*
X113800000Y-73905238D01*
X113704761Y-74000476D01*
X113609523Y-74048095D01*
X114609523Y-74762380D02*
X114609523Y-73762380D01*
X114704761Y-74381428D02*
X114990476Y-74762380D01*
X114990476Y-74095714D02*
X114609523Y-74476666D01*
D13*
X113837142Y-72715714D02*
X113597142Y-72372857D01*
X113425714Y-72715714D02*
X113425714Y-71995714D01*
X113700000Y-71995714D01*
X113768571Y-72030000D01*
X113802857Y-72064285D01*
X113837142Y-72132857D01*
X113837142Y-72235714D01*
X113802857Y-72304285D01*
X113768571Y-72338571D01*
X113700000Y-72372857D01*
X113425714Y-72372857D01*
X114522857Y-72715714D02*
X114111428Y-72715714D01*
X114317142Y-72715714D02*
X114317142Y-71995714D01*
X114248571Y-72098571D01*
X114180000Y-72167142D01*
X114111428Y-72201428D01*
X115140000Y-72235714D02*
X115140000Y-72715714D01*
X114968571Y-71961428D02*
X114797142Y-72475714D01*
X115242857Y-72475714D01*
D11*
X114180952Y-90002380D02*
X113609523Y-90002380D01*
X113895238Y-90002380D02*
X113895238Y-89002380D01*
X113800000Y-89145238D01*
X113704761Y-89240476D01*
X113609523Y-89288095D01*
X114609523Y-90002380D02*
X114609523Y-89002380D01*
X114704761Y-89621428D02*
X114990476Y-90002380D01*
X114990476Y-89335714D02*
X114609523Y-89716666D01*
D13*
X113837142Y-87955714D02*
X113597142Y-87612857D01*
X113425714Y-87955714D02*
X113425714Y-87235714D01*
X113700000Y-87235714D01*
X113768571Y-87270000D01*
X113802857Y-87304285D01*
X113837142Y-87372857D01*
X113837142Y-87475714D01*
X113802857Y-87544285D01*
X113768571Y-87578571D01*
X113700000Y-87612857D01*
X113425714Y-87612857D01*
X114522857Y-87955714D02*
X114111428Y-87955714D01*
X114317142Y-87955714D02*
X114317142Y-87235714D01*
X114248571Y-87338571D01*
X114180000Y-87407142D01*
X114111428Y-87441428D01*
X114762857Y-87235714D02*
X115208571Y-87235714D01*
X114968571Y-87510000D01*
X115071428Y-87510000D01*
X115140000Y-87544285D01*
X115174285Y-87578571D01*
X115208571Y-87647142D01*
X115208571Y-87818571D01*
X115174285Y-87887142D01*
X115140000Y-87921428D01*
X115071428Y-87955714D01*
X114865714Y-87955714D01*
X114797142Y-87921428D01*
X114762857Y-87887142D01*
D11*
X114180952Y-98892380D02*
X113609523Y-98892380D01*
X113895238Y-98892380D02*
X113895238Y-97892380D01*
X113800000Y-98035238D01*
X113704761Y-98130476D01*
X113609523Y-98178095D01*
X114609523Y-98892380D02*
X114609523Y-97892380D01*
X114704761Y-98511428D02*
X114990476Y-98892380D01*
X114990476Y-98225714D02*
X114609523Y-98606666D01*
D13*
X113837142Y-96845714D02*
X113597142Y-96502857D01*
X113425714Y-96845714D02*
X113425714Y-96125714D01*
X113700000Y-96125714D01*
X113768571Y-96160000D01*
X113802857Y-96194285D01*
X113837142Y-96262857D01*
X113837142Y-96365714D01*
X113802857Y-96434285D01*
X113768571Y-96468571D01*
X113700000Y-96502857D01*
X113425714Y-96502857D01*
X114522857Y-96845714D02*
X114111428Y-96845714D01*
X114317142Y-96845714D02*
X114317142Y-96125714D01*
X114248571Y-96228571D01*
X114180000Y-96297142D01*
X114111428Y-96331428D01*
X114797142Y-96194285D02*
X114831428Y-96160000D01*
X114900000Y-96125714D01*
X115071428Y-96125714D01*
X115140000Y-96160000D01*
X115174285Y-96194285D01*
X115208571Y-96262857D01*
X115208571Y-96331428D01*
X115174285Y-96434285D01*
X114762857Y-96845714D01*
X115208571Y-96845714D01*
D11*
X114180952Y-87462380D02*
X113609523Y-87462380D01*
X113895238Y-87462380D02*
X113895238Y-86462380D01*
X113800000Y-86605238D01*
X113704761Y-86700476D01*
X113609523Y-86748095D01*
X114609523Y-87462380D02*
X114609523Y-86462380D01*
X114704761Y-87081428D02*
X114990476Y-87462380D01*
X114990476Y-86795714D02*
X114609523Y-87176666D01*
D13*
X113837142Y-85415714D02*
X113597142Y-85072857D01*
X113425714Y-85415714D02*
X113425714Y-84695714D01*
X113700000Y-84695714D01*
X113768571Y-84730000D01*
X113802857Y-84764285D01*
X113837142Y-84832857D01*
X113837142Y-84935714D01*
X113802857Y-85004285D01*
X113768571Y-85038571D01*
X113700000Y-85072857D01*
X113425714Y-85072857D01*
X114522857Y-85415714D02*
X114111428Y-85415714D01*
X114317142Y-85415714D02*
X114317142Y-84695714D01*
X114248571Y-84798571D01*
X114180000Y-84867142D01*
X114111428Y-84901428D01*
X115208571Y-85415714D02*
X114797142Y-85415714D01*
X115002857Y-85415714D02*
X115002857Y-84695714D01*
X114934285Y-84798571D01*
X114865714Y-84867142D01*
X114797142Y-84901428D01*
D11*
X114180952Y-72222380D02*
X113609523Y-72222380D01*
X113895238Y-72222380D02*
X113895238Y-71222380D01*
X113800000Y-71365238D01*
X113704761Y-71460476D01*
X113609523Y-71508095D01*
X114609523Y-72222380D02*
X114609523Y-71222380D01*
X114704761Y-71841428D02*
X114990476Y-72222380D01*
X114990476Y-71555714D02*
X114609523Y-71936666D01*
D13*
X113837142Y-70175714D02*
X113597142Y-69832857D01*
X113425714Y-70175714D02*
X113425714Y-69455714D01*
X113700000Y-69455714D01*
X113768571Y-69490000D01*
X113802857Y-69524285D01*
X113837142Y-69592857D01*
X113837142Y-69695714D01*
X113802857Y-69764285D01*
X113768571Y-69798571D01*
X113700000Y-69832857D01*
X113425714Y-69832857D01*
X114522857Y-70175714D02*
X114111428Y-70175714D01*
X114317142Y-70175714D02*
X114317142Y-69455714D01*
X114248571Y-69558571D01*
X114180000Y-69627142D01*
X114111428Y-69661428D01*
X114968571Y-69455714D02*
X115037142Y-69455714D01*
X115105714Y-69490000D01*
X115140000Y-69524285D01*
X115174285Y-69592857D01*
X115208571Y-69730000D01*
X115208571Y-69901428D01*
X115174285Y-70038571D01*
X115140000Y-70107142D01*
X115105714Y-70141428D01*
X115037142Y-70175714D01*
X114968571Y-70175714D01*
X114900000Y-70141428D01*
X114865714Y-70107142D01*
X114831428Y-70038571D01*
X114797142Y-69901428D01*
X114797142Y-69730000D01*
X114831428Y-69592857D01*
X114865714Y-69524285D01*
X114900000Y-69490000D01*
X114968571Y-69455714D01*
D11*
X114180952Y-69682380D02*
X113609523Y-69682380D01*
X113895238Y-69682380D02*
X113895238Y-68682380D01*
X113800000Y-68825238D01*
X113704761Y-68920476D01*
X113609523Y-68968095D01*
X114609523Y-69682380D02*
X114609523Y-68682380D01*
X114704761Y-69301428D02*
X114990476Y-69682380D01*
X114990476Y-69015714D02*
X114609523Y-69396666D01*
D13*
X114180000Y-67635714D02*
X113940000Y-67292857D01*
X113768571Y-67635714D02*
X113768571Y-66915714D01*
X114042857Y-66915714D01*
X114111428Y-66950000D01*
X114145714Y-66984285D01*
X114180000Y-67052857D01*
X114180000Y-67155714D01*
X114145714Y-67224285D01*
X114111428Y-67258571D01*
X114042857Y-67292857D01*
X113768571Y-67292857D01*
X114522857Y-67635714D02*
X114660000Y-67635714D01*
X114728571Y-67601428D01*
X114762857Y-67567142D01*
X114831428Y-67464285D01*
X114865714Y-67327142D01*
X114865714Y-67052857D01*
X114831428Y-66984285D01*
X114797142Y-66950000D01*
X114728571Y-66915714D01*
X114591428Y-66915714D01*
X114522857Y-66950000D01*
X114488571Y-66984285D01*
X114454285Y-67052857D01*
X114454285Y-67224285D01*
X114488571Y-67292857D01*
X114522857Y-67327142D01*
X114591428Y-67361428D01*
X114728571Y-67361428D01*
X114797142Y-67327142D01*
X114831428Y-67292857D01*
X114865714Y-67224285D01*
D11*
X100433333Y-97987619D02*
X100480952Y-97940000D01*
X100576190Y-97892380D01*
X100814285Y-97892380D01*
X100909523Y-97940000D01*
X100957142Y-97987619D01*
X101004761Y-98082857D01*
X101004761Y-98178095D01*
X100957142Y-98320952D01*
X100385714Y-98892380D01*
X101004761Y-98892380D01*
X101433333Y-98892380D02*
X101433333Y-97892380D01*
X101528571Y-98511428D02*
X101814285Y-98892380D01*
X101814285Y-98225714D02*
X101433333Y-98606666D01*
X102147619Y-97892380D02*
X102814285Y-97892380D01*
X102385714Y-98892380D01*
D13*
X101480000Y-96845714D02*
X101240000Y-96502857D01*
X101068571Y-96845714D02*
X101068571Y-96125714D01*
X101342857Y-96125714D01*
X101411428Y-96160000D01*
X101445714Y-96194285D01*
X101480000Y-96262857D01*
X101480000Y-96365714D01*
X101445714Y-96434285D01*
X101411428Y-96468571D01*
X101342857Y-96502857D01*
X101068571Y-96502857D01*
X101891428Y-96434285D02*
X101822857Y-96400000D01*
X101788571Y-96365714D01*
X101754285Y-96297142D01*
X101754285Y-96262857D01*
X101788571Y-96194285D01*
X101822857Y-96160000D01*
X101891428Y-96125714D01*
X102028571Y-96125714D01*
X102097142Y-96160000D01*
X102131428Y-96194285D01*
X102165714Y-96262857D01*
X102165714Y-96297142D01*
X102131428Y-96365714D01*
X102097142Y-96400000D01*
X102028571Y-96434285D01*
X101891428Y-96434285D01*
X101822857Y-96468571D01*
X101788571Y-96502857D01*
X101754285Y-96571428D01*
X101754285Y-96708571D01*
X101788571Y-96777142D01*
X101822857Y-96811428D01*
X101891428Y-96845714D01*
X102028571Y-96845714D01*
X102097142Y-96811428D01*
X102131428Y-96777142D01*
X102165714Y-96708571D01*
X102165714Y-96571428D01*
X102131428Y-96502857D01*
X102097142Y-96468571D01*
X102028571Y-96434285D01*
D11*
X88780952Y-84922380D02*
X88209523Y-84922380D01*
X88495238Y-84922380D02*
X88495238Y-83922380D01*
X88400000Y-84065238D01*
X88304761Y-84160476D01*
X88209523Y-84208095D01*
X89209523Y-84922380D02*
X89209523Y-83922380D01*
X89304761Y-84541428D02*
X89590476Y-84922380D01*
X89590476Y-84255714D02*
X89209523Y-84636666D01*
D13*
X88780000Y-82875714D02*
X88540000Y-82532857D01*
X88368571Y-82875714D02*
X88368571Y-82155714D01*
X88642857Y-82155714D01*
X88711428Y-82190000D01*
X88745714Y-82224285D01*
X88780000Y-82292857D01*
X88780000Y-82395714D01*
X88745714Y-82464285D01*
X88711428Y-82498571D01*
X88642857Y-82532857D01*
X88368571Y-82532857D01*
X89020000Y-82155714D02*
X89500000Y-82155714D01*
X89191428Y-82875714D01*
D11*
X88780952Y-74762380D02*
X88209523Y-74762380D01*
X88495238Y-74762380D02*
X88495238Y-73762380D01*
X88400000Y-73905238D01*
X88304761Y-74000476D01*
X88209523Y-74048095D01*
X89209523Y-74762380D02*
X89209523Y-73762380D01*
X89304761Y-74381428D02*
X89590476Y-74762380D01*
X89590476Y-74095714D02*
X89209523Y-74476666D01*
D13*
X88780000Y-72715714D02*
X88540000Y-72372857D01*
X88368571Y-72715714D02*
X88368571Y-71995714D01*
X88642857Y-71995714D01*
X88711428Y-72030000D01*
X88745714Y-72064285D01*
X88780000Y-72132857D01*
X88780000Y-72235714D01*
X88745714Y-72304285D01*
X88711428Y-72338571D01*
X88642857Y-72372857D01*
X88368571Y-72372857D01*
X89397142Y-71995714D02*
X89260000Y-71995714D01*
X89191428Y-72030000D01*
X89157142Y-72064285D01*
X89088571Y-72167142D01*
X89054285Y-72304285D01*
X89054285Y-72578571D01*
X89088571Y-72647142D01*
X89122857Y-72681428D01*
X89191428Y-72715714D01*
X89328571Y-72715714D01*
X89397142Y-72681428D01*
X89431428Y-72647142D01*
X89465714Y-72578571D01*
X89465714Y-72407142D01*
X89431428Y-72338571D01*
X89397142Y-72304285D01*
X89328571Y-72270000D01*
X89191428Y-72270000D01*
X89122857Y-72304285D01*
X89088571Y-72338571D01*
X89054285Y-72407142D01*
D11*
X88780952Y-90002380D02*
X88209523Y-90002380D01*
X88495238Y-90002380D02*
X88495238Y-89002380D01*
X88400000Y-89145238D01*
X88304761Y-89240476D01*
X88209523Y-89288095D01*
X89209523Y-90002380D02*
X89209523Y-89002380D01*
X89304761Y-89621428D02*
X89590476Y-90002380D01*
X89590476Y-89335714D02*
X89209523Y-89716666D01*
D13*
X88780000Y-87955714D02*
X88540000Y-87612857D01*
X88368571Y-87955714D02*
X88368571Y-87235714D01*
X88642857Y-87235714D01*
X88711428Y-87270000D01*
X88745714Y-87304285D01*
X88780000Y-87372857D01*
X88780000Y-87475714D01*
X88745714Y-87544285D01*
X88711428Y-87578571D01*
X88642857Y-87612857D01*
X88368571Y-87612857D01*
X89431428Y-87235714D02*
X89088571Y-87235714D01*
X89054285Y-87578571D01*
X89088571Y-87544285D01*
X89157142Y-87510000D01*
X89328571Y-87510000D01*
X89397142Y-87544285D01*
X89431428Y-87578571D01*
X89465714Y-87647142D01*
X89465714Y-87818571D01*
X89431428Y-87887142D01*
X89397142Y-87921428D01*
X89328571Y-87955714D01*
X89157142Y-87955714D01*
X89088571Y-87921428D01*
X89054285Y-87887142D01*
D11*
X88780952Y-98892380D02*
X88209523Y-98892380D01*
X88495238Y-98892380D02*
X88495238Y-97892380D01*
X88400000Y-98035238D01*
X88304761Y-98130476D01*
X88209523Y-98178095D01*
X89209523Y-98892380D02*
X89209523Y-97892380D01*
X89304761Y-98511428D02*
X89590476Y-98892380D01*
X89590476Y-98225714D02*
X89209523Y-98606666D01*
D13*
X88780000Y-96845714D02*
X88540000Y-96502857D01*
X88368571Y-96845714D02*
X88368571Y-96125714D01*
X88642857Y-96125714D01*
X88711428Y-96160000D01*
X88745714Y-96194285D01*
X88780000Y-96262857D01*
X88780000Y-96365714D01*
X88745714Y-96434285D01*
X88711428Y-96468571D01*
X88642857Y-96502857D01*
X88368571Y-96502857D01*
X89397142Y-96365714D02*
X89397142Y-96845714D01*
X89225714Y-96091428D02*
X89054285Y-96605714D01*
X89500000Y-96605714D01*
D11*
X88780952Y-87462380D02*
X88209523Y-87462380D01*
X88495238Y-87462380D02*
X88495238Y-86462380D01*
X88400000Y-86605238D01*
X88304761Y-86700476D01*
X88209523Y-86748095D01*
X89209523Y-87462380D02*
X89209523Y-86462380D01*
X89304761Y-87081428D02*
X89590476Y-87462380D01*
X89590476Y-86795714D02*
X89209523Y-87176666D01*
D13*
X88780000Y-85415714D02*
X88540000Y-85072857D01*
X88368571Y-85415714D02*
X88368571Y-84695714D01*
X88642857Y-84695714D01*
X88711428Y-84730000D01*
X88745714Y-84764285D01*
X88780000Y-84832857D01*
X88780000Y-84935714D01*
X88745714Y-85004285D01*
X88711428Y-85038571D01*
X88642857Y-85072857D01*
X88368571Y-85072857D01*
X89020000Y-84695714D02*
X89465714Y-84695714D01*
X89225714Y-84970000D01*
X89328571Y-84970000D01*
X89397142Y-85004285D01*
X89431428Y-85038571D01*
X89465714Y-85107142D01*
X89465714Y-85278571D01*
X89431428Y-85347142D01*
X89397142Y-85381428D01*
X89328571Y-85415714D01*
X89122857Y-85415714D01*
X89054285Y-85381428D01*
X89020000Y-85347142D01*
D11*
X88780952Y-72222380D02*
X88209523Y-72222380D01*
X88495238Y-72222380D02*
X88495238Y-71222380D01*
X88400000Y-71365238D01*
X88304761Y-71460476D01*
X88209523Y-71508095D01*
X89209523Y-72222380D02*
X89209523Y-71222380D01*
X89304761Y-71841428D02*
X89590476Y-72222380D01*
X89590476Y-71555714D02*
X89209523Y-71936666D01*
D13*
X88780000Y-70175714D02*
X88540000Y-69832857D01*
X88368571Y-70175714D02*
X88368571Y-69455714D01*
X88642857Y-69455714D01*
X88711428Y-69490000D01*
X88745714Y-69524285D01*
X88780000Y-69592857D01*
X88780000Y-69695714D01*
X88745714Y-69764285D01*
X88711428Y-69798571D01*
X88642857Y-69832857D01*
X88368571Y-69832857D01*
X89054285Y-69524285D02*
X89088571Y-69490000D01*
X89157142Y-69455714D01*
X89328571Y-69455714D01*
X89397142Y-69490000D01*
X89431428Y-69524285D01*
X89465714Y-69592857D01*
X89465714Y-69661428D01*
X89431428Y-69764285D01*
X89020000Y-70175714D01*
X89465714Y-70175714D01*
D11*
X88780952Y-69682380D02*
X88209523Y-69682380D01*
X88495238Y-69682380D02*
X88495238Y-68682380D01*
X88400000Y-68825238D01*
X88304761Y-68920476D01*
X88209523Y-68968095D01*
X89209523Y-69682380D02*
X89209523Y-68682380D01*
X89304761Y-69301428D02*
X89590476Y-69682380D01*
X89590476Y-69015714D02*
X89209523Y-69396666D01*
D13*
X88780000Y-67635714D02*
X88540000Y-67292857D01*
X88368571Y-67635714D02*
X88368571Y-66915714D01*
X88642857Y-66915714D01*
X88711428Y-66950000D01*
X88745714Y-66984285D01*
X88780000Y-67052857D01*
X88780000Y-67155714D01*
X88745714Y-67224285D01*
X88711428Y-67258571D01*
X88642857Y-67292857D01*
X88368571Y-67292857D01*
X89465714Y-67635714D02*
X89054285Y-67635714D01*
X89260000Y-67635714D02*
X89260000Y-66915714D01*
X89191428Y-67018571D01*
X89122857Y-67087142D01*
X89054285Y-67121428D01*
D11*
X166997142Y-79422380D02*
X166520952Y-79422380D01*
X166520952Y-78422380D01*
X167330476Y-78898571D02*
X167663809Y-78898571D01*
X167806666Y-79422380D02*
X167330476Y-79422380D01*
X167330476Y-78422380D01*
X167806666Y-78422380D01*
X168235238Y-79422380D02*
X168235238Y-78422380D01*
X168473333Y-78422380D01*
X168616190Y-78470000D01*
X168711428Y-78565238D01*
X168759047Y-78660476D01*
X168806666Y-78850952D01*
X168806666Y-78993809D01*
X168759047Y-79184285D01*
X168711428Y-79279523D01*
X168616190Y-79374761D01*
X168473333Y-79422380D01*
X168235238Y-79422380D01*
X156837142Y-69262380D02*
X156360952Y-69262380D01*
X156360952Y-68262380D01*
X157170476Y-68738571D02*
X157503809Y-68738571D01*
X157646666Y-69262380D02*
X157170476Y-69262380D01*
X157170476Y-68262380D01*
X157646666Y-68262380D01*
X158075238Y-69262380D02*
X158075238Y-68262380D01*
X158313333Y-68262380D01*
X158456190Y-68310000D01*
X158551428Y-68405238D01*
X158599047Y-68500476D01*
X158646666Y-68690952D01*
X158646666Y-68833809D01*
X158599047Y-69024285D01*
X158551428Y-69119523D01*
X158456190Y-69214761D01*
X158313333Y-69262380D01*
X158075238Y-69262380D01*
X156837142Y-84502380D02*
X156360952Y-84502380D01*
X156360952Y-83502380D01*
X157170476Y-83978571D02*
X157503809Y-83978571D01*
X157646666Y-84502380D02*
X157170476Y-84502380D01*
X157170476Y-83502380D01*
X157646666Y-83502380D01*
X158075238Y-84502380D02*
X158075238Y-83502380D01*
X158313333Y-83502380D01*
X158456190Y-83550000D01*
X158551428Y-83645238D01*
X158599047Y-83740476D01*
X158646666Y-83930952D01*
X158646666Y-84073809D01*
X158599047Y-84264285D01*
X158551428Y-84359523D01*
X158456190Y-84454761D01*
X158313333Y-84502380D01*
X158075238Y-84502380D01*
X166997142Y-94662380D02*
X166520952Y-94662380D01*
X166520952Y-93662380D01*
X167330476Y-94138571D02*
X167663809Y-94138571D01*
X167806666Y-94662380D02*
X167330476Y-94662380D01*
X167330476Y-93662380D01*
X167806666Y-93662380D01*
X168235238Y-94662380D02*
X168235238Y-93662380D01*
X168473333Y-93662380D01*
X168616190Y-93710000D01*
X168711428Y-93805238D01*
X168759047Y-93900476D01*
X168806666Y-94090952D01*
X168806666Y-94233809D01*
X168759047Y-94424285D01*
X168711428Y-94519523D01*
X168616190Y-94614761D01*
X168473333Y-94662380D01*
X168235238Y-94662380D01*
X172077142Y-89582380D02*
X171600952Y-89582380D01*
X171600952Y-88582380D01*
X172410476Y-89058571D02*
X172743809Y-89058571D01*
X172886666Y-89582380D02*
X172410476Y-89582380D01*
X172410476Y-88582380D01*
X172886666Y-88582380D01*
X173315238Y-89582380D02*
X173315238Y-88582380D01*
X173553333Y-88582380D01*
X173696190Y-88630000D01*
X173791428Y-88725238D01*
X173839047Y-88820476D01*
X173886666Y-89010952D01*
X173886666Y-89153809D01*
X173839047Y-89344285D01*
X173791428Y-89439523D01*
X173696190Y-89534761D01*
X173553333Y-89582380D01*
X173315238Y-89582380D01*
X172077142Y-74342380D02*
X171600952Y-74342380D01*
X171600952Y-73342380D01*
X172410476Y-73818571D02*
X172743809Y-73818571D01*
X172886666Y-74342380D02*
X172410476Y-74342380D01*
X172410476Y-73342380D01*
X172886666Y-73342380D01*
X173315238Y-74342380D02*
X173315238Y-73342380D01*
X173553333Y-73342380D01*
X173696190Y-73390000D01*
X173791428Y-73485238D01*
X173839047Y-73580476D01*
X173886666Y-73770952D01*
X173886666Y-73913809D01*
X173839047Y-74104285D01*
X173791428Y-74199523D01*
X173696190Y-74294761D01*
X173553333Y-74342380D01*
X173315238Y-74342380D01*
X166997142Y-64182380D02*
X166520952Y-64182380D01*
X166520952Y-63182380D01*
X167330476Y-63658571D02*
X167663809Y-63658571D01*
X167806666Y-64182380D02*
X167330476Y-64182380D01*
X167330476Y-63182380D01*
X167806666Y-63182380D01*
X168235238Y-64182380D02*
X168235238Y-63182380D01*
X168473333Y-63182380D01*
X168616190Y-63230000D01*
X168711428Y-63325238D01*
X168759047Y-63420476D01*
X168806666Y-63610952D01*
X168806666Y-63753809D01*
X168759047Y-63944285D01*
X168711428Y-64039523D01*
X168616190Y-64134761D01*
X168473333Y-64182380D01*
X168235238Y-64182380D01*
X151757142Y-94662380D02*
X151280952Y-94662380D01*
X151280952Y-93662380D01*
X152090476Y-94138571D02*
X152423809Y-94138571D01*
X152566666Y-94662380D02*
X152090476Y-94662380D01*
X152090476Y-93662380D01*
X152566666Y-93662380D01*
X152995238Y-94662380D02*
X152995238Y-93662380D01*
X153233333Y-93662380D01*
X153376190Y-93710000D01*
X153471428Y-93805238D01*
X153519047Y-93900476D01*
X153566666Y-94090952D01*
X153566666Y-94233809D01*
X153519047Y-94424285D01*
X153471428Y-94519523D01*
X153376190Y-94614761D01*
X153233333Y-94662380D01*
X152995238Y-94662380D01*
X141597142Y-79422380D02*
X141120952Y-79422380D01*
X141120952Y-78422380D01*
X141930476Y-78898571D02*
X142263809Y-78898571D01*
X142406666Y-79422380D02*
X141930476Y-79422380D01*
X141930476Y-78422380D01*
X142406666Y-78422380D01*
X142835238Y-79422380D02*
X142835238Y-78422380D01*
X143073333Y-78422380D01*
X143216190Y-78470000D01*
X143311428Y-78565238D01*
X143359047Y-78660476D01*
X143406666Y-78850952D01*
X143406666Y-78993809D01*
X143359047Y-79184285D01*
X143311428Y-79279523D01*
X143216190Y-79374761D01*
X143073333Y-79422380D01*
X142835238Y-79422380D01*
X131437142Y-69262380D02*
X130960952Y-69262380D01*
X130960952Y-68262380D01*
X131770476Y-68738571D02*
X132103809Y-68738571D01*
X132246666Y-69262380D02*
X131770476Y-69262380D01*
X131770476Y-68262380D01*
X132246666Y-68262380D01*
X132675238Y-69262380D02*
X132675238Y-68262380D01*
X132913333Y-68262380D01*
X133056190Y-68310000D01*
X133151428Y-68405238D01*
X133199047Y-68500476D01*
X133246666Y-68690952D01*
X133246666Y-68833809D01*
X133199047Y-69024285D01*
X133151428Y-69119523D01*
X133056190Y-69214761D01*
X132913333Y-69262380D01*
X132675238Y-69262380D01*
X131437142Y-84502380D02*
X130960952Y-84502380D01*
X130960952Y-83502380D01*
X131770476Y-83978571D02*
X132103809Y-83978571D01*
X132246666Y-84502380D02*
X131770476Y-84502380D01*
X131770476Y-83502380D01*
X132246666Y-83502380D01*
X132675238Y-84502380D02*
X132675238Y-83502380D01*
X132913333Y-83502380D01*
X133056190Y-83550000D01*
X133151428Y-83645238D01*
X133199047Y-83740476D01*
X133246666Y-83930952D01*
X133246666Y-84073809D01*
X133199047Y-84264285D01*
X133151428Y-84359523D01*
X133056190Y-84454761D01*
X132913333Y-84502380D01*
X132675238Y-84502380D01*
X141597142Y-94662380D02*
X141120952Y-94662380D01*
X141120952Y-93662380D01*
X141930476Y-94138571D02*
X142263809Y-94138571D01*
X142406666Y-94662380D02*
X141930476Y-94662380D01*
X141930476Y-93662380D01*
X142406666Y-93662380D01*
X142835238Y-94662380D02*
X142835238Y-93662380D01*
X143073333Y-93662380D01*
X143216190Y-93710000D01*
X143311428Y-93805238D01*
X143359047Y-93900476D01*
X143406666Y-94090952D01*
X143406666Y-94233809D01*
X143359047Y-94424285D01*
X143311428Y-94519523D01*
X143216190Y-94614761D01*
X143073333Y-94662380D01*
X142835238Y-94662380D01*
X146677142Y-89352380D02*
X146200952Y-89352380D01*
X146200952Y-88352380D01*
X147010476Y-88828571D02*
X147343809Y-88828571D01*
X147486666Y-89352380D02*
X147010476Y-89352380D01*
X147010476Y-88352380D01*
X147486666Y-88352380D01*
X147915238Y-89352380D02*
X147915238Y-88352380D01*
X148153333Y-88352380D01*
X148296190Y-88400000D01*
X148391428Y-88495238D01*
X148439047Y-88590476D01*
X148486666Y-88780952D01*
X148486666Y-88923809D01*
X148439047Y-89114285D01*
X148391428Y-89209523D01*
X148296190Y-89304761D01*
X148153333Y-89352380D01*
X147915238Y-89352380D01*
X146677142Y-74342380D02*
X146200952Y-74342380D01*
X146200952Y-73342380D01*
X147010476Y-73818571D02*
X147343809Y-73818571D01*
X147486666Y-74342380D02*
X147010476Y-74342380D01*
X147010476Y-73342380D01*
X147486666Y-73342380D01*
X147915238Y-74342380D02*
X147915238Y-73342380D01*
X148153333Y-73342380D01*
X148296190Y-73390000D01*
X148391428Y-73485238D01*
X148439047Y-73580476D01*
X148486666Y-73770952D01*
X148486666Y-73913809D01*
X148439047Y-74104285D01*
X148391428Y-74199523D01*
X148296190Y-74294761D01*
X148153333Y-74342380D01*
X147915238Y-74342380D01*
X141597142Y-64182380D02*
X141120952Y-64182380D01*
X141120952Y-63182380D01*
X141930476Y-63658571D02*
X142263809Y-63658571D01*
X142406666Y-64182380D02*
X141930476Y-64182380D01*
X141930476Y-63182380D01*
X142406666Y-63182380D01*
X142835238Y-64182380D02*
X142835238Y-63182380D01*
X143073333Y-63182380D01*
X143216190Y-63230000D01*
X143311428Y-63325238D01*
X143359047Y-63420476D01*
X143406666Y-63610952D01*
X143406666Y-63753809D01*
X143359047Y-63944285D01*
X143311428Y-64039523D01*
X143216190Y-64134761D01*
X143073333Y-64182380D01*
X142835238Y-64182380D01*
X161917142Y-79422380D02*
X161440952Y-79422380D01*
X161440952Y-78422380D01*
X162250476Y-78898571D02*
X162583809Y-78898571D01*
X162726666Y-79422380D02*
X162250476Y-79422380D01*
X162250476Y-78422380D01*
X162726666Y-78422380D01*
X163155238Y-79422380D02*
X163155238Y-78422380D01*
X163393333Y-78422380D01*
X163536190Y-78470000D01*
X163631428Y-78565238D01*
X163679047Y-78660476D01*
X163726666Y-78850952D01*
X163726666Y-78993809D01*
X163679047Y-79184285D01*
X163631428Y-79279523D01*
X163536190Y-79374761D01*
X163393333Y-79422380D01*
X163155238Y-79422380D01*
X156837142Y-74342380D02*
X156360952Y-74342380D01*
X156360952Y-73342380D01*
X157170476Y-73818571D02*
X157503809Y-73818571D01*
X157646666Y-74342380D02*
X157170476Y-74342380D01*
X157170476Y-73342380D01*
X157646666Y-73342380D01*
X158075238Y-74342380D02*
X158075238Y-73342380D01*
X158313333Y-73342380D01*
X158456190Y-73390000D01*
X158551428Y-73485238D01*
X158599047Y-73580476D01*
X158646666Y-73770952D01*
X158646666Y-73913809D01*
X158599047Y-74104285D01*
X158551428Y-74199523D01*
X158456190Y-74294761D01*
X158313333Y-74342380D01*
X158075238Y-74342380D01*
X156837142Y-89582380D02*
X156360952Y-89582380D01*
X156360952Y-88582380D01*
X157170476Y-89058571D02*
X157503809Y-89058571D01*
X157646666Y-89582380D02*
X157170476Y-89582380D01*
X157170476Y-88582380D01*
X157646666Y-88582380D01*
X158075238Y-89582380D02*
X158075238Y-88582380D01*
X158313333Y-88582380D01*
X158456190Y-88630000D01*
X158551428Y-88725238D01*
X158599047Y-88820476D01*
X158646666Y-89010952D01*
X158646666Y-89153809D01*
X158599047Y-89344285D01*
X158551428Y-89439523D01*
X158456190Y-89534761D01*
X158313333Y-89582380D01*
X158075238Y-89582380D01*
X161917142Y-94662380D02*
X161440952Y-94662380D01*
X161440952Y-93662380D01*
X162250476Y-94138571D02*
X162583809Y-94138571D01*
X162726666Y-94662380D02*
X162250476Y-94662380D01*
X162250476Y-93662380D01*
X162726666Y-93662380D01*
X163155238Y-94662380D02*
X163155238Y-93662380D01*
X163393333Y-93662380D01*
X163536190Y-93710000D01*
X163631428Y-93805238D01*
X163679047Y-93900476D01*
X163726666Y-94090952D01*
X163726666Y-94233809D01*
X163679047Y-94424285D01*
X163631428Y-94519523D01*
X163536190Y-94614761D01*
X163393333Y-94662380D01*
X163155238Y-94662380D01*
X172077142Y-84502380D02*
X171600952Y-84502380D01*
X171600952Y-83502380D01*
X172410476Y-83978571D02*
X172743809Y-83978571D01*
X172886666Y-84502380D02*
X172410476Y-84502380D01*
X172410476Y-83502380D01*
X172886666Y-83502380D01*
X173315238Y-84502380D02*
X173315238Y-83502380D01*
X173553333Y-83502380D01*
X173696190Y-83550000D01*
X173791428Y-83645238D01*
X173839047Y-83740476D01*
X173886666Y-83930952D01*
X173886666Y-84073809D01*
X173839047Y-84264285D01*
X173791428Y-84359523D01*
X173696190Y-84454761D01*
X173553333Y-84502380D01*
X173315238Y-84502380D01*
X172077142Y-69262380D02*
X171600952Y-69262380D01*
X171600952Y-68262380D01*
X172410476Y-68738571D02*
X172743809Y-68738571D01*
X172886666Y-69262380D02*
X172410476Y-69262380D01*
X172410476Y-68262380D01*
X172886666Y-68262380D01*
X173315238Y-69262380D02*
X173315238Y-68262380D01*
X173553333Y-68262380D01*
X173696190Y-68310000D01*
X173791428Y-68405238D01*
X173839047Y-68500476D01*
X173886666Y-68690952D01*
X173886666Y-68833809D01*
X173839047Y-69024285D01*
X173791428Y-69119523D01*
X173696190Y-69214761D01*
X173553333Y-69262380D01*
X173315238Y-69262380D01*
X161917142Y-64182380D02*
X161440952Y-64182380D01*
X161440952Y-63182380D01*
X162250476Y-63658571D02*
X162583809Y-63658571D01*
X162726666Y-64182380D02*
X162250476Y-64182380D01*
X162250476Y-63182380D01*
X162726666Y-63182380D01*
X163155238Y-64182380D02*
X163155238Y-63182380D01*
X163393333Y-63182380D01*
X163536190Y-63230000D01*
X163631428Y-63325238D01*
X163679047Y-63420476D01*
X163726666Y-63610952D01*
X163726666Y-63753809D01*
X163679047Y-63944285D01*
X163631428Y-64039523D01*
X163536190Y-64134761D01*
X163393333Y-64182380D01*
X163155238Y-64182380D01*
X136517142Y-79422380D02*
X136040952Y-79422380D01*
X136040952Y-78422380D01*
X136850476Y-78898571D02*
X137183809Y-78898571D01*
X137326666Y-79422380D02*
X136850476Y-79422380D01*
X136850476Y-78422380D01*
X137326666Y-78422380D01*
X137755238Y-79422380D02*
X137755238Y-78422380D01*
X137993333Y-78422380D01*
X138136190Y-78470000D01*
X138231428Y-78565238D01*
X138279047Y-78660476D01*
X138326666Y-78850952D01*
X138326666Y-78993809D01*
X138279047Y-79184285D01*
X138231428Y-79279523D01*
X138136190Y-79374761D01*
X137993333Y-79422380D01*
X137755238Y-79422380D01*
X131437142Y-74342380D02*
X130960952Y-74342380D01*
X130960952Y-73342380D01*
X131770476Y-73818571D02*
X132103809Y-73818571D01*
X132246666Y-74342380D02*
X131770476Y-74342380D01*
X131770476Y-73342380D01*
X132246666Y-73342380D01*
X132675238Y-74342380D02*
X132675238Y-73342380D01*
X132913333Y-73342380D01*
X133056190Y-73390000D01*
X133151428Y-73485238D01*
X133199047Y-73580476D01*
X133246666Y-73770952D01*
X133246666Y-73913809D01*
X133199047Y-74104285D01*
X133151428Y-74199523D01*
X133056190Y-74294761D01*
X132913333Y-74342380D01*
X132675238Y-74342380D01*
X131437142Y-89582380D02*
X130960952Y-89582380D01*
X130960952Y-88582380D01*
X131770476Y-89058571D02*
X132103809Y-89058571D01*
X132246666Y-89582380D02*
X131770476Y-89582380D01*
X131770476Y-88582380D01*
X132246666Y-88582380D01*
X132675238Y-89582380D02*
X132675238Y-88582380D01*
X132913333Y-88582380D01*
X133056190Y-88630000D01*
X133151428Y-88725238D01*
X133199047Y-88820476D01*
X133246666Y-89010952D01*
X133246666Y-89153809D01*
X133199047Y-89344285D01*
X133151428Y-89439523D01*
X133056190Y-89534761D01*
X132913333Y-89582380D01*
X132675238Y-89582380D01*
X136517142Y-94662380D02*
X136040952Y-94662380D01*
X136040952Y-93662380D01*
X136850476Y-94138571D02*
X137183809Y-94138571D01*
X137326666Y-94662380D02*
X136850476Y-94662380D01*
X136850476Y-93662380D01*
X137326666Y-93662380D01*
X137755238Y-94662380D02*
X137755238Y-93662380D01*
X137993333Y-93662380D01*
X138136190Y-93710000D01*
X138231428Y-93805238D01*
X138279047Y-93900476D01*
X138326666Y-94090952D01*
X138326666Y-94233809D01*
X138279047Y-94424285D01*
X138231428Y-94519523D01*
X138136190Y-94614761D01*
X137993333Y-94662380D01*
X137755238Y-94662380D01*
X146677142Y-84502380D02*
X146200952Y-84502380D01*
X146200952Y-83502380D01*
X147010476Y-83978571D02*
X147343809Y-83978571D01*
X147486666Y-84502380D02*
X147010476Y-84502380D01*
X147010476Y-83502380D01*
X147486666Y-83502380D01*
X147915238Y-84502380D02*
X147915238Y-83502380D01*
X148153333Y-83502380D01*
X148296190Y-83550000D01*
X148391428Y-83645238D01*
X148439047Y-83740476D01*
X148486666Y-83930952D01*
X148486666Y-84073809D01*
X148439047Y-84264285D01*
X148391428Y-84359523D01*
X148296190Y-84454761D01*
X148153333Y-84502380D01*
X147915238Y-84502380D01*
X146677142Y-69262380D02*
X146200952Y-69262380D01*
X146200952Y-68262380D01*
X147010476Y-68738571D02*
X147343809Y-68738571D01*
X147486666Y-69262380D02*
X147010476Y-69262380D01*
X147010476Y-68262380D01*
X147486666Y-68262380D01*
X147915238Y-69262380D02*
X147915238Y-68262380D01*
X148153333Y-68262380D01*
X148296190Y-68310000D01*
X148391428Y-68405238D01*
X148439047Y-68500476D01*
X148486666Y-68690952D01*
X148486666Y-68833809D01*
X148439047Y-69024285D01*
X148391428Y-69119523D01*
X148296190Y-69214761D01*
X148153333Y-69262380D01*
X147915238Y-69262380D01*
X136517142Y-64182380D02*
X136040952Y-64182380D01*
X136040952Y-63182380D01*
X136850476Y-63658571D02*
X137183809Y-63658571D01*
X137326666Y-64182380D02*
X136850476Y-64182380D01*
X136850476Y-63182380D01*
X137326666Y-63182380D01*
X137755238Y-64182380D02*
X137755238Y-63182380D01*
X137993333Y-63182380D01*
X138136190Y-63230000D01*
X138231428Y-63325238D01*
X138279047Y-63420476D01*
X138326666Y-63610952D01*
X138326666Y-63753809D01*
X138279047Y-63944285D01*
X138231428Y-64039523D01*
X138136190Y-64134761D01*
X137993333Y-64182380D01*
X137755238Y-64182380D01*
X126357142Y-94662380D02*
X125880952Y-94662380D01*
X125880952Y-93662380D01*
X126690476Y-94138571D02*
X127023809Y-94138571D01*
X127166666Y-94662380D02*
X126690476Y-94662380D01*
X126690476Y-93662380D01*
X127166666Y-93662380D01*
X127595238Y-94662380D02*
X127595238Y-93662380D01*
X127833333Y-93662380D01*
X127976190Y-93710000D01*
X128071428Y-93805238D01*
X128119047Y-93900476D01*
X128166666Y-94090952D01*
X128166666Y-94233809D01*
X128119047Y-94424285D01*
X128071428Y-94519523D01*
X127976190Y-94614761D01*
X127833333Y-94662380D01*
X127595238Y-94662380D01*
X116197142Y-79422380D02*
X115720952Y-79422380D01*
X115720952Y-78422380D01*
X116530476Y-78898571D02*
X116863809Y-78898571D01*
X117006666Y-79422380D02*
X116530476Y-79422380D01*
X116530476Y-78422380D01*
X117006666Y-78422380D01*
X117435238Y-79422380D02*
X117435238Y-78422380D01*
X117673333Y-78422380D01*
X117816190Y-78470000D01*
X117911428Y-78565238D01*
X117959047Y-78660476D01*
X118006666Y-78850952D01*
X118006666Y-78993809D01*
X117959047Y-79184285D01*
X117911428Y-79279523D01*
X117816190Y-79374761D01*
X117673333Y-79422380D01*
X117435238Y-79422380D01*
X106037142Y-69262380D02*
X105560952Y-69262380D01*
X105560952Y-68262380D01*
X106370476Y-68738571D02*
X106703809Y-68738571D01*
X106846666Y-69262380D02*
X106370476Y-69262380D01*
X106370476Y-68262380D01*
X106846666Y-68262380D01*
X107275238Y-69262380D02*
X107275238Y-68262380D01*
X107513333Y-68262380D01*
X107656190Y-68310000D01*
X107751428Y-68405238D01*
X107799047Y-68500476D01*
X107846666Y-68690952D01*
X107846666Y-68833809D01*
X107799047Y-69024285D01*
X107751428Y-69119523D01*
X107656190Y-69214761D01*
X107513333Y-69262380D01*
X107275238Y-69262380D01*
X106037142Y-84502380D02*
X105560952Y-84502380D01*
X105560952Y-83502380D01*
X106370476Y-83978571D02*
X106703809Y-83978571D01*
X106846666Y-84502380D02*
X106370476Y-84502380D01*
X106370476Y-83502380D01*
X106846666Y-83502380D01*
X107275238Y-84502380D02*
X107275238Y-83502380D01*
X107513333Y-83502380D01*
X107656190Y-83550000D01*
X107751428Y-83645238D01*
X107799047Y-83740476D01*
X107846666Y-83930952D01*
X107846666Y-84073809D01*
X107799047Y-84264285D01*
X107751428Y-84359523D01*
X107656190Y-84454761D01*
X107513333Y-84502380D01*
X107275238Y-84502380D01*
X116197142Y-94662380D02*
X115720952Y-94662380D01*
X115720952Y-93662380D01*
X116530476Y-94138571D02*
X116863809Y-94138571D01*
X117006666Y-94662380D02*
X116530476Y-94662380D01*
X116530476Y-93662380D01*
X117006666Y-93662380D01*
X117435238Y-94662380D02*
X117435238Y-93662380D01*
X117673333Y-93662380D01*
X117816190Y-93710000D01*
X117911428Y-93805238D01*
X117959047Y-93900476D01*
X118006666Y-94090952D01*
X118006666Y-94233809D01*
X117959047Y-94424285D01*
X117911428Y-94519523D01*
X117816190Y-94614761D01*
X117673333Y-94662380D01*
X117435238Y-94662380D01*
X121277142Y-89582380D02*
X120800952Y-89582380D01*
X120800952Y-88582380D01*
X121610476Y-89058571D02*
X121943809Y-89058571D01*
X122086666Y-89582380D02*
X121610476Y-89582380D01*
X121610476Y-88582380D01*
X122086666Y-88582380D01*
X122515238Y-89582380D02*
X122515238Y-88582380D01*
X122753333Y-88582380D01*
X122896190Y-88630000D01*
X122991428Y-88725238D01*
X123039047Y-88820476D01*
X123086666Y-89010952D01*
X123086666Y-89153809D01*
X123039047Y-89344285D01*
X122991428Y-89439523D01*
X122896190Y-89534761D01*
X122753333Y-89582380D01*
X122515238Y-89582380D01*
X121277142Y-74342380D02*
X120800952Y-74342380D01*
X120800952Y-73342380D01*
X121610476Y-73818571D02*
X121943809Y-73818571D01*
X122086666Y-74342380D02*
X121610476Y-74342380D01*
X121610476Y-73342380D01*
X122086666Y-73342380D01*
X122515238Y-74342380D02*
X122515238Y-73342380D01*
X122753333Y-73342380D01*
X122896190Y-73390000D01*
X122991428Y-73485238D01*
X123039047Y-73580476D01*
X123086666Y-73770952D01*
X123086666Y-73913809D01*
X123039047Y-74104285D01*
X122991428Y-74199523D01*
X122896190Y-74294761D01*
X122753333Y-74342380D01*
X122515238Y-74342380D01*
X116197142Y-64182380D02*
X115720952Y-64182380D01*
X115720952Y-63182380D01*
X116530476Y-63658571D02*
X116863809Y-63658571D01*
X117006666Y-64182380D02*
X116530476Y-64182380D01*
X116530476Y-63182380D01*
X117006666Y-63182380D01*
X117435238Y-64182380D02*
X117435238Y-63182380D01*
X117673333Y-63182380D01*
X117816190Y-63230000D01*
X117911428Y-63325238D01*
X117959047Y-63420476D01*
X118006666Y-63610952D01*
X118006666Y-63753809D01*
X117959047Y-63944285D01*
X117911428Y-64039523D01*
X117816190Y-64134761D01*
X117673333Y-64182380D01*
X117435238Y-64182380D01*
X100957142Y-94662380D02*
X100480952Y-94662380D01*
X100480952Y-93662380D01*
X101290476Y-94138571D02*
X101623809Y-94138571D01*
X101766666Y-94662380D02*
X101290476Y-94662380D01*
X101290476Y-93662380D01*
X101766666Y-93662380D01*
X102195238Y-94662380D02*
X102195238Y-93662380D01*
X102433333Y-93662380D01*
X102576190Y-93710000D01*
X102671428Y-93805238D01*
X102719047Y-93900476D01*
X102766666Y-94090952D01*
X102766666Y-94233809D01*
X102719047Y-94424285D01*
X102671428Y-94519523D01*
X102576190Y-94614761D01*
X102433333Y-94662380D01*
X102195238Y-94662380D01*
X90797142Y-79422380D02*
X90320952Y-79422380D01*
X90320952Y-78422380D01*
X91130476Y-78898571D02*
X91463809Y-78898571D01*
X91606666Y-79422380D02*
X91130476Y-79422380D01*
X91130476Y-78422380D01*
X91606666Y-78422380D01*
X92035238Y-79422380D02*
X92035238Y-78422380D01*
X92273333Y-78422380D01*
X92416190Y-78470000D01*
X92511428Y-78565238D01*
X92559047Y-78660476D01*
X92606666Y-78850952D01*
X92606666Y-78993809D01*
X92559047Y-79184285D01*
X92511428Y-79279523D01*
X92416190Y-79374761D01*
X92273333Y-79422380D01*
X92035238Y-79422380D01*
X80637142Y-69262380D02*
X80160952Y-69262380D01*
X80160952Y-68262380D01*
X80970476Y-68738571D02*
X81303809Y-68738571D01*
X81446666Y-69262380D02*
X80970476Y-69262380D01*
X80970476Y-68262380D01*
X81446666Y-68262380D01*
X81875238Y-69262380D02*
X81875238Y-68262380D01*
X82113333Y-68262380D01*
X82256190Y-68310000D01*
X82351428Y-68405238D01*
X82399047Y-68500476D01*
X82446666Y-68690952D01*
X82446666Y-68833809D01*
X82399047Y-69024285D01*
X82351428Y-69119523D01*
X82256190Y-69214761D01*
X82113333Y-69262380D01*
X81875238Y-69262380D01*
X80637142Y-84502380D02*
X80160952Y-84502380D01*
X80160952Y-83502380D01*
X80970476Y-83978571D02*
X81303809Y-83978571D01*
X81446666Y-84502380D02*
X80970476Y-84502380D01*
X80970476Y-83502380D01*
X81446666Y-83502380D01*
X81875238Y-84502380D02*
X81875238Y-83502380D01*
X82113333Y-83502380D01*
X82256190Y-83550000D01*
X82351428Y-83645238D01*
X82399047Y-83740476D01*
X82446666Y-83930952D01*
X82446666Y-84073809D01*
X82399047Y-84264285D01*
X82351428Y-84359523D01*
X82256190Y-84454761D01*
X82113333Y-84502380D01*
X81875238Y-84502380D01*
X90797142Y-94662380D02*
X90320952Y-94662380D01*
X90320952Y-93662380D01*
X91130476Y-94138571D02*
X91463809Y-94138571D01*
X91606666Y-94662380D02*
X91130476Y-94662380D01*
X91130476Y-93662380D01*
X91606666Y-93662380D01*
X92035238Y-94662380D02*
X92035238Y-93662380D01*
X92273333Y-93662380D01*
X92416190Y-93710000D01*
X92511428Y-93805238D01*
X92559047Y-93900476D01*
X92606666Y-94090952D01*
X92606666Y-94233809D01*
X92559047Y-94424285D01*
X92511428Y-94519523D01*
X92416190Y-94614761D01*
X92273333Y-94662380D01*
X92035238Y-94662380D01*
X95877142Y-89582380D02*
X95400952Y-89582380D01*
X95400952Y-88582380D01*
X96210476Y-89058571D02*
X96543809Y-89058571D01*
X96686666Y-89582380D02*
X96210476Y-89582380D01*
X96210476Y-88582380D01*
X96686666Y-88582380D01*
X97115238Y-89582380D02*
X97115238Y-88582380D01*
X97353333Y-88582380D01*
X97496190Y-88630000D01*
X97591428Y-88725238D01*
X97639047Y-88820476D01*
X97686666Y-89010952D01*
X97686666Y-89153809D01*
X97639047Y-89344285D01*
X97591428Y-89439523D01*
X97496190Y-89534761D01*
X97353333Y-89582380D01*
X97115238Y-89582380D01*
X95877142Y-74342380D02*
X95400952Y-74342380D01*
X95400952Y-73342380D01*
X96210476Y-73818571D02*
X96543809Y-73818571D01*
X96686666Y-74342380D02*
X96210476Y-74342380D01*
X96210476Y-73342380D01*
X96686666Y-73342380D01*
X97115238Y-74342380D02*
X97115238Y-73342380D01*
X97353333Y-73342380D01*
X97496190Y-73390000D01*
X97591428Y-73485238D01*
X97639047Y-73580476D01*
X97686666Y-73770952D01*
X97686666Y-73913809D01*
X97639047Y-74104285D01*
X97591428Y-74199523D01*
X97496190Y-74294761D01*
X97353333Y-74342380D01*
X97115238Y-74342380D01*
X90797142Y-64182380D02*
X90320952Y-64182380D01*
X90320952Y-63182380D01*
X91130476Y-63658571D02*
X91463809Y-63658571D01*
X91606666Y-64182380D02*
X91130476Y-64182380D01*
X91130476Y-63182380D01*
X91606666Y-63182380D01*
X92035238Y-64182380D02*
X92035238Y-63182380D01*
X92273333Y-63182380D01*
X92416190Y-63230000D01*
X92511428Y-63325238D01*
X92559047Y-63420476D01*
X92606666Y-63610952D01*
X92606666Y-63753809D01*
X92559047Y-63944285D01*
X92511428Y-64039523D01*
X92416190Y-64134761D01*
X92273333Y-64182380D01*
X92035238Y-64182380D01*
X111117142Y-79422380D02*
X110640952Y-79422380D01*
X110640952Y-78422380D01*
X111450476Y-78898571D02*
X111783809Y-78898571D01*
X111926666Y-79422380D02*
X111450476Y-79422380D01*
X111450476Y-78422380D01*
X111926666Y-78422380D01*
X112355238Y-79422380D02*
X112355238Y-78422380D01*
X112593333Y-78422380D01*
X112736190Y-78470000D01*
X112831428Y-78565238D01*
X112879047Y-78660476D01*
X112926666Y-78850952D01*
X112926666Y-78993809D01*
X112879047Y-79184285D01*
X112831428Y-79279523D01*
X112736190Y-79374761D01*
X112593333Y-79422380D01*
X112355238Y-79422380D01*
X106037142Y-74342380D02*
X105560952Y-74342380D01*
X105560952Y-73342380D01*
X106370476Y-73818571D02*
X106703809Y-73818571D01*
X106846666Y-74342380D02*
X106370476Y-74342380D01*
X106370476Y-73342380D01*
X106846666Y-73342380D01*
X107275238Y-74342380D02*
X107275238Y-73342380D01*
X107513333Y-73342380D01*
X107656190Y-73390000D01*
X107751428Y-73485238D01*
X107799047Y-73580476D01*
X107846666Y-73770952D01*
X107846666Y-73913809D01*
X107799047Y-74104285D01*
X107751428Y-74199523D01*
X107656190Y-74294761D01*
X107513333Y-74342380D01*
X107275238Y-74342380D01*
X106037142Y-89582380D02*
X105560952Y-89582380D01*
X105560952Y-88582380D01*
X106370476Y-89058571D02*
X106703809Y-89058571D01*
X106846666Y-89582380D02*
X106370476Y-89582380D01*
X106370476Y-88582380D01*
X106846666Y-88582380D01*
X107275238Y-89582380D02*
X107275238Y-88582380D01*
X107513333Y-88582380D01*
X107656190Y-88630000D01*
X107751428Y-88725238D01*
X107799047Y-88820476D01*
X107846666Y-89010952D01*
X107846666Y-89153809D01*
X107799047Y-89344285D01*
X107751428Y-89439523D01*
X107656190Y-89534761D01*
X107513333Y-89582380D01*
X107275238Y-89582380D01*
X111117142Y-94662380D02*
X110640952Y-94662380D01*
X110640952Y-93662380D01*
X111450476Y-94138571D02*
X111783809Y-94138571D01*
X111926666Y-94662380D02*
X111450476Y-94662380D01*
X111450476Y-93662380D01*
X111926666Y-93662380D01*
X112355238Y-94662380D02*
X112355238Y-93662380D01*
X112593333Y-93662380D01*
X112736190Y-93710000D01*
X112831428Y-93805238D01*
X112879047Y-93900476D01*
X112926666Y-94090952D01*
X112926666Y-94233809D01*
X112879047Y-94424285D01*
X112831428Y-94519523D01*
X112736190Y-94614761D01*
X112593333Y-94662380D01*
X112355238Y-94662380D01*
X121277142Y-84502380D02*
X120800952Y-84502380D01*
X120800952Y-83502380D01*
X121610476Y-83978571D02*
X121943809Y-83978571D01*
X122086666Y-84502380D02*
X121610476Y-84502380D01*
X121610476Y-83502380D01*
X122086666Y-83502380D01*
X122515238Y-84502380D02*
X122515238Y-83502380D01*
X122753333Y-83502380D01*
X122896190Y-83550000D01*
X122991428Y-83645238D01*
X123039047Y-83740476D01*
X123086666Y-83930952D01*
X123086666Y-84073809D01*
X123039047Y-84264285D01*
X122991428Y-84359523D01*
X122896190Y-84454761D01*
X122753333Y-84502380D01*
X122515238Y-84502380D01*
X121277142Y-69262380D02*
X120800952Y-69262380D01*
X120800952Y-68262380D01*
X121610476Y-68738571D02*
X121943809Y-68738571D01*
X122086666Y-69262380D02*
X121610476Y-69262380D01*
X121610476Y-68262380D01*
X122086666Y-68262380D01*
X122515238Y-69262380D02*
X122515238Y-68262380D01*
X122753333Y-68262380D01*
X122896190Y-68310000D01*
X122991428Y-68405238D01*
X123039047Y-68500476D01*
X123086666Y-68690952D01*
X123086666Y-68833809D01*
X123039047Y-69024285D01*
X122991428Y-69119523D01*
X122896190Y-69214761D01*
X122753333Y-69262380D01*
X122515238Y-69262380D01*
X111117142Y-64182380D02*
X110640952Y-64182380D01*
X110640952Y-63182380D01*
X111450476Y-63658571D02*
X111783809Y-63658571D01*
X111926666Y-64182380D02*
X111450476Y-64182380D01*
X111450476Y-63182380D01*
X111926666Y-63182380D01*
X112355238Y-64182380D02*
X112355238Y-63182380D01*
X112593333Y-63182380D01*
X112736190Y-63230000D01*
X112831428Y-63325238D01*
X112879047Y-63420476D01*
X112926666Y-63610952D01*
X112926666Y-63753809D01*
X112879047Y-63944285D01*
X112831428Y-64039523D01*
X112736190Y-64134761D01*
X112593333Y-64182380D01*
X112355238Y-64182380D01*
X85717142Y-79422380D02*
X85240952Y-79422380D01*
X85240952Y-78422380D01*
X86050476Y-78898571D02*
X86383809Y-78898571D01*
X86526666Y-79422380D02*
X86050476Y-79422380D01*
X86050476Y-78422380D01*
X86526666Y-78422380D01*
X86955238Y-79422380D02*
X86955238Y-78422380D01*
X87193333Y-78422380D01*
X87336190Y-78470000D01*
X87431428Y-78565238D01*
X87479047Y-78660476D01*
X87526666Y-78850952D01*
X87526666Y-78993809D01*
X87479047Y-79184285D01*
X87431428Y-79279523D01*
X87336190Y-79374761D01*
X87193333Y-79422380D01*
X86955238Y-79422380D01*
X80637142Y-74112380D02*
X80160952Y-74112380D01*
X80160952Y-73112380D01*
X80970476Y-73588571D02*
X81303809Y-73588571D01*
X81446666Y-74112380D02*
X80970476Y-74112380D01*
X80970476Y-73112380D01*
X81446666Y-73112380D01*
X81875238Y-74112380D02*
X81875238Y-73112380D01*
X82113333Y-73112380D01*
X82256190Y-73160000D01*
X82351428Y-73255238D01*
X82399047Y-73350476D01*
X82446666Y-73540952D01*
X82446666Y-73683809D01*
X82399047Y-73874285D01*
X82351428Y-73969523D01*
X82256190Y-74064761D01*
X82113333Y-74112380D01*
X81875238Y-74112380D01*
X80637142Y-89582380D02*
X80160952Y-89582380D01*
X80160952Y-88582380D01*
X80970476Y-89058571D02*
X81303809Y-89058571D01*
X81446666Y-89582380D02*
X80970476Y-89582380D01*
X80970476Y-88582380D01*
X81446666Y-88582380D01*
X81875238Y-89582380D02*
X81875238Y-88582380D01*
X82113333Y-88582380D01*
X82256190Y-88630000D01*
X82351428Y-88725238D01*
X82399047Y-88820476D01*
X82446666Y-89010952D01*
X82446666Y-89153809D01*
X82399047Y-89344285D01*
X82351428Y-89439523D01*
X82256190Y-89534761D01*
X82113333Y-89582380D01*
X81875238Y-89582380D01*
X85717142Y-94662380D02*
X85240952Y-94662380D01*
X85240952Y-93662380D01*
X86050476Y-94138571D02*
X86383809Y-94138571D01*
X86526666Y-94662380D02*
X86050476Y-94662380D01*
X86050476Y-93662380D01*
X86526666Y-93662380D01*
X86955238Y-94662380D02*
X86955238Y-93662380D01*
X87193333Y-93662380D01*
X87336190Y-93710000D01*
X87431428Y-93805238D01*
X87479047Y-93900476D01*
X87526666Y-94090952D01*
X87526666Y-94233809D01*
X87479047Y-94424285D01*
X87431428Y-94519523D01*
X87336190Y-94614761D01*
X87193333Y-94662380D01*
X86955238Y-94662380D01*
X95877142Y-84502380D02*
X95400952Y-84502380D01*
X95400952Y-83502380D01*
X96210476Y-83978571D02*
X96543809Y-83978571D01*
X96686666Y-84502380D02*
X96210476Y-84502380D01*
X96210476Y-83502380D01*
X96686666Y-83502380D01*
X97115238Y-84502380D02*
X97115238Y-83502380D01*
X97353333Y-83502380D01*
X97496190Y-83550000D01*
X97591428Y-83645238D01*
X97639047Y-83740476D01*
X97686666Y-83930952D01*
X97686666Y-84073809D01*
X97639047Y-84264285D01*
X97591428Y-84359523D01*
X97496190Y-84454761D01*
X97353333Y-84502380D01*
X97115238Y-84502380D01*
X95877142Y-69262380D02*
X95400952Y-69262380D01*
X95400952Y-68262380D01*
X96210476Y-68738571D02*
X96543809Y-68738571D01*
X96686666Y-69262380D02*
X96210476Y-69262380D01*
X96210476Y-68262380D01*
X96686666Y-68262380D01*
X97115238Y-69262380D02*
X97115238Y-68262380D01*
X97353333Y-68262380D01*
X97496190Y-68310000D01*
X97591428Y-68405238D01*
X97639047Y-68500476D01*
X97686666Y-68690952D01*
X97686666Y-68833809D01*
X97639047Y-69024285D01*
X97591428Y-69119523D01*
X97496190Y-69214761D01*
X97353333Y-69262380D01*
X97115238Y-69262380D01*
X85717142Y-64182380D02*
X85240952Y-64182380D01*
X85240952Y-63182380D01*
X86050476Y-63658571D02*
X86383809Y-63658571D01*
X86526666Y-64182380D02*
X86050476Y-64182380D01*
X86050476Y-63182380D01*
X86526666Y-63182380D01*
X86955238Y-64182380D02*
X86955238Y-63182380D01*
X87193333Y-63182380D01*
X87336190Y-63230000D01*
X87431428Y-63325238D01*
X87479047Y-63420476D01*
X87526666Y-63610952D01*
X87526666Y-63753809D01*
X87479047Y-63944285D01*
X87431428Y-64039523D01*
X87336190Y-64134761D01*
X87193333Y-64182380D01*
X86955238Y-64182380D01*
M02*
