M48
INCH,TZ
T1C0.0157
T2C0.0276
T3C0.0315
T4C0.0354
T5C0.0394
%
G90
G05
T1
X37000Y-41400
X37200Y-44800
X38800Y-44800
X41500Y-41700
X46400Y-41800
X47600Y-41600
X51500Y-41700
X56500Y-41900
X57600Y-41600
X63500Y-44700
T2
X34000Y-26500
X36000Y-26500
X64000Y-34500
X66000Y-34500
X64000Y-26500
X66000Y-26500
X64000Y-38000
X66000Y-38000
X34000Y-34500
X36000Y-34500
X54000Y-32500
X56000Y-32500
X59000Y-38000
X61000Y-38000
X44000Y-33500
X46000Y-33500
X64000Y-27500
X66000Y-27500
X54000Y-27500
X56000Y-27500
X54000Y-33500
X56000Y-33500
X54000Y-34500
X56000Y-34500
X34000Y-33500
X36000Y-33500
X44000Y-26500
X46000Y-26500
X44000Y-27500
X46000Y-27500
X54000Y-28500
X56000Y-28500
X39000Y-38000
X41000Y-38000
X44000Y-28500
X46000Y-28500
X34000Y-38000
X36000Y-38000
X54000Y-26500
X56000Y-26500
X44000Y-34500
X46000Y-34500
X64000Y-28500
X66000Y-28500
X64000Y-32500
X66000Y-32500
X64000Y-33500
X66000Y-33500
X49000Y-38000
X51000Y-38000
X44000Y-38000
X46000Y-38000
X34000Y-28500
X36000Y-28500
X54000Y-38000
X56000Y-38000
X34000Y-27500
X36000Y-27500
X34000Y-32500
X36000Y-32500
X44000Y-32500
X46000Y-32500
T3
X66600Y-44200
X68569Y-44200
X50000Y-41031
X50000Y-43000
X51500Y-40000
X51500Y-43000
X52500Y-40000
X52500Y-43000
X53500Y-40000
X53500Y-43000
X54500Y-40000
X54500Y-43000
X55500Y-40000
X55500Y-43000
X56500Y-40000
X56500Y-43000
X57500Y-40000
X57500Y-43000
X58500Y-40000
X58500Y-43000
X40000Y-41031
X40000Y-43000
X60000Y-41031
X60000Y-43000
X41500Y-40000
X41500Y-43000
X42500Y-40000
X42500Y-43000
X43500Y-40000
X43500Y-43000
X44500Y-40000
X44500Y-43000
X45500Y-40000
X45500Y-43000
X46500Y-40000
X46500Y-43000
X47500Y-40000
X47500Y-43000
X48500Y-40000
X48500Y-43000
X61500Y-40000
X61500Y-43000
X62500Y-40000
X62500Y-43000
X63500Y-40000
X63500Y-43000
X64500Y-40000
X64500Y-43000
X65500Y-40000
X65500Y-43000
X66500Y-40000
X66500Y-43000
X67500Y-40000
X67500Y-43000
X68500Y-40000
X68500Y-43000
X31500Y-40000
X31500Y-43000
X32500Y-40000
X32500Y-43000
X33500Y-40000
X33500Y-43000
X34500Y-40000
X34500Y-43000
X35500Y-40000
X35500Y-43000
X36500Y-40000
X36500Y-43000
X37500Y-40000
X37500Y-43000
X38500Y-40000
X38500Y-43000
T4
X35500Y-30500
X36500Y-30500
X67500Y-32500
X68500Y-32500
X61500Y-34500
X62500Y-34500
X37500Y-32500
X38500Y-32500
X61500Y-26500
X62500Y-26500
X63500Y-30500
X64500Y-30500
X53500Y-36500
X54500Y-36500
X51500Y-26500
X52500Y-26500
X31500Y-26500
X32500Y-26500
X37500Y-26500
X38500Y-26500
X51500Y-28500
X52500Y-28500
X55500Y-30500
X56500Y-30500
X57500Y-26500
X58500Y-26500
X41500Y-34500
X42500Y-34500
X33500Y-30500
X34500Y-30500
X45500Y-30500
X46500Y-30500
X41500Y-26500
X42500Y-26500
X41500Y-32500
X42500Y-32500
X57500Y-32500
X58500Y-32500
X45500Y-36500
X46500Y-36500
X43500Y-36500
X44500Y-36500
X43500Y-24500
X44500Y-24500
X43500Y-30500
X44500Y-30500
X31500Y-32500
X32500Y-32500
X33500Y-24500
X34500Y-24500
X55500Y-36500
X56500Y-36500
X61500Y-28500
X62500Y-28500
X67500Y-28500
X68500Y-28500
X41500Y-28500
X42500Y-28500
X35500Y-24500
X36500Y-24500
X67500Y-26500
X68500Y-26500
X53500Y-30500
X54500Y-30500
X59500Y-36500
X60500Y-36500
X45500Y-24500
X46500Y-24500
X47500Y-34500
X48500Y-34500
X37500Y-28500
X38500Y-28500
X47500Y-26500
X48500Y-26500
X63500Y-36500
X64500Y-36500
X53500Y-24500
X54500Y-24500
X65500Y-36500
X66500Y-36500
X67500Y-34500
X68500Y-34500
X61500Y-32500
X62500Y-32500
X49500Y-36500
X50500Y-36500
X31500Y-34500
X32500Y-34500
X55500Y-24500
X56500Y-24500
X35500Y-36500
X36500Y-36500
X31500Y-28500
X32500Y-28500
X65500Y-24500
X66500Y-24500
X57500Y-34500
X58500Y-34500
X47500Y-32500
X48500Y-32500
X65500Y-30500
X66500Y-30500
X57500Y-28500
X58500Y-28500
X47500Y-28500
X48500Y-28500
X33500Y-36500
X34500Y-36500
X51500Y-34500
X52500Y-34500
X63500Y-24500
X64500Y-24500
X51500Y-32500
X52500Y-32500
X39500Y-36500
X40500Y-36500
X37500Y-34500
X38500Y-34500
T5
X64400Y-45600
X65400Y-45600
X66400Y-45600
X67400Y-45600
X68400Y-45600
X31600Y-45600
X32600Y-45600
X33600Y-45600
X34600Y-45600
X35600Y-45600
T0
M30
